<svg width="500" height="433" viewBox="0 0 500 433" fill="none" xmlns="http://www.w3.org/2000/svg">
<g clip-path="url(#clip0_580_327)">
<path d="M322.1 64.3401C321.063 65.1733 319.854 65.7674 318.56 66.0801C315.01 66.8701 305.56 66.4701 303.96 70.8101C303.449 72.1124 302.652 73.2839 301.63 74.2389C300.607 75.194 299.384 75.9084 298.05 76.3301C298.05 76.3301 290.56 76.7301 290.16 78.3301C289.76 79.9301 287.01 82.6701 287.01 82.6701H416C416 82.6701 420.34 75.9701 413.24 69.6701C407.03 64.1501 395.68 72.5101 394.24 65.6701" stroke="#263238" stroke-linecap="round" stroke-linejoin="round"/>
<path d="M393.07 55.63C391.63 50.44 388.6 43.44 382.45 40.84C372.19 36.5 363.52 42.42 361.15 48.33C358.78 54.24 357.21 58.19 348.15 53.06C339.09 47.93 331.15 48.33 328.43 55.06C327.645 57.0084 326.664 58.8714 325.5 60.62" stroke="#263238" stroke-linecap="round" stroke-linejoin="round"/>
<path d="M103.05 133.1H147.84C147.84 133.1 150.46 129.1 146.17 125.23C141.88 121.36 133.52 128.57 134.72 120.46C134.72 120.46 133.72 110.46 127.56 107.82C125.974 107.094 124.227 106.795 122.49 106.953C120.753 107.111 119.088 107.72 117.66 108.72" stroke="#263238" stroke-linecap="round" stroke-linejoin="round"/>
<path d="M114.68 112.35C113.25 115.93 112.29 118.35 106.81 115.21C101.33 112.07 96.55 112.35 94.88 116.41C93.21 120.47 91.06 122.61 88.88 123.08C86.7 123.55 81.01 123.32 80.05 125.95C79.7383 126.737 79.2554 127.446 78.6362 128.023C78.017 128.601 77.2771 129.034 76.47 129.29C76.47 129.29 71.94 129.52 71.7 130.48C71.2229 131.459 70.5763 132.346 69.79 133.1H96" stroke="#263238" stroke-linecap="round" stroke-linejoin="round"/>
<path d="M327.25 133.1H348.4C348.4 133.1 351.02 129.1 346.73 125.23C342.44 121.36 334.09 128.57 335.28 120.46C335.28 120.46 334.33 110.46 328.12 107.82C321.91 105.18 316.68 108.82 315.24 112.35C313.8 115.88 312.86 118.35 307.37 115.21C301.88 112.07 297.11 112.35 295.45 116.41C293.79 120.47 291.63 122.61 289.45 123.08C287.27 123.55 281.58 123.32 280.63 125.95C280.317 126.737 279.834 127.444 279.215 128.022C278.596 128.599 277.857 129.032 277.05 129.29C277.05 129.29 272.52 129.52 272.28 130.48C271.803 131.459 271.156 132.346 270.37 133.1H320.19" stroke="#263238" stroke-linecap="round" stroke-linejoin="round"/>
<g opacity="0.1">
<path opacity="0.1" d="M23.23 199.17C27.17 199.95 35.92 197.84 35.92 197.84C35.92 197.84 32.78 192.49 32.54 192.18C29.73 188.56 22.17 183.18 17.36 184.98C16.5686 185.295 15.8522 185.772 15.2571 186.381C14.662 186.991 14.2015 187.718 13.9055 188.516C13.6095 189.315 13.4845 190.167 13.5387 191.017C13.5929 191.867 13.825 192.696 14.22 193.45C15.79 196.71 19.88 198.5 23.23 199.17Z" fill="black"/>
<path opacity="0.1" d="M31.8202 224C35.6602 223.73 43.0101 219.75 43.6001 219.43C45.8717 223.638 48.4207 227.69 51.2302 231.56C52.8502 233.82 54.5602 236.05 56.3002 238.26C55.3502 237.37 54.5002 236.58 54.3702 236.48C50.7102 233.74 42.0102 230.59 37.8302 233.55C37.1499 234.063 36.5849 234.713 36.1718 235.457C35.7587 236.202 35.5068 237.026 35.4323 237.874C35.3578 238.723 35.4625 239.578 35.7394 240.383C36.0164 241.189 36.4596 241.927 37.0402 242.55C39.4202 245.27 43.8302 245.92 47.2402 245.68C50.6502 245.44 57.0402 242.16 58.7002 241.28C59.3802 242.12 60.0402 242.97 60.7002 243.81C63.9602 247.81 67.2302 251.81 70.3202 255.87C71.4102 257.29 72.4201 258.73 73.4501 260.16C72.6101 259.37 71.9002 258.71 71.7802 258.62C68.1102 255.87 59.4202 252.72 55.2402 255.69C54.5572 256.201 53.9898 256.85 53.5749 257.595C53.16 258.34 52.907 259.164 52.8324 260.013C52.7578 260.863 52.8634 261.719 53.1422 262.524C53.4209 263.33 53.8666 264.068 54.4502 264.69C56.8302 267.42 61.2402 268.06 64.6502 267.82C68.0602 267.58 73.8302 264.62 75.8102 263.58C76.8102 265.08 77.8102 266.58 78.7302 268.08C79.3302 269.08 79.9702 270.08 80.5102 271.15L82.1702 274.28C83.1702 276.28 84.1702 278.4 85.0802 280.4C85.7202 281.79 86.3102 283.12 86.9002 284.47C85.8302 283.04 83.6902 280.29 83.4802 280.08C80.2802 276.82 72.1602 272.39 67.5702 274.68C66.8202 275.083 66.1634 275.639 65.6424 276.312C65.1214 276.986 64.7478 277.761 64.546 278.588C64.3442 279.415 64.3186 280.276 64.471 281.113C64.6233 281.951 64.9501 282.747 65.4302 283.45C67.3702 286.51 71.6302 287.81 75.0402 288.09C78.7902 288.4 86.3702 285.72 87.3102 285.38C88.3102 287.61 89.2102 289.78 90.0502 291.85C90.6835 293.37 91.2735 294.84 91.8202 296.26L94.9402 295.58C94.2735 294.013 93.5768 292.373 92.8502 290.66C91.8502 288.4 90.7801 286 89.6301 283.55C91.7732 282.102 93.8269 280.526 95.7802 278.83C98.9502 281.05 106.23 282.83 107.17 283.1C106.75 285.49 106.33 287.81 105.89 290C105.66 291.16 105.43 292.25 105.2 293.34L108.5 292.62C108.63 291.94 108.75 291.27 108.87 290.56C109.31 288.13 109.72 285.56 110.12 282.85C111.12 282.85 119.12 282.72 122.57 281.13C125.67 279.68 129.21 276.98 129.97 273.44C130.176 272.614 130.206 271.753 130.057 270.914C129.908 270.076 129.585 269.277 129.108 268.572C128.631 267.866 128.01 267.269 127.287 266.819C126.564 266.369 125.754 266.077 124.91 265.96C119.82 265.4 113.74 272.37 111.91 276.55C111.8 276.8 110.91 279.61 110.37 281.39C110.52 280.29 110.69 279.23 110.83 278.1C111.14 275.87 111.38 273.64 111.65 271.23C111.74 270.07 111.83 268.89 111.92 267.7C112.01 266.51 112.01 265.27 112.06 264.04C112.06 261.18 112.06 258.29 111.88 255.38C113.88 255.64 120.79 256.48 124.08 255.52C127.37 254.56 131.28 252.42 132.56 249.04C132.891 248.255 133.052 247.409 133.033 246.558C133.015 245.706 132.817 244.868 132.453 244.098C132.089 243.328 131.566 242.643 130.919 242.089C130.273 241.535 129.517 241.123 128.7 240.88C123.7 239.55 116.7 245.52 114.2 249.37C114.05 249.61 112.58 252.57 111.8 254.21C111.7 252.46 111.6 250.72 111.44 248.95C110.97 243.85 110.34 238.7 109.74 233.56C109.55 231.98 109.38 230.41 109.21 228.84C109.9 228.94 118.15 230.12 121.84 229.04C125.12 228.04 129.03 225.94 130.32 222.56C130.649 221.774 130.808 220.928 130.788 220.076C130.768 219.225 130.57 218.387 130.205 217.617C129.84 216.848 129.317 216.163 128.67 215.609C128.023 215.055 127.267 214.643 126.45 214.4C121.45 213.07 114.45 219.05 111.96 222.89C111.77 223.18 109.66 227.45 109.18 228.56C108.8 225.09 108.45 221.64 108.25 218.22C107.95 213.605 107.95 208.975 108.25 204.36C108.57 204.41 117.17 205.68 120.95 204.57C124.23 203.57 128.15 201.48 129.43 198.09C129.759 197.305 129.919 196.459 129.9 195.608C129.88 194.757 129.682 193.92 129.318 193.15C128.954 192.381 128.432 191.696 127.787 191.141C127.141 190.587 126.386 190.174 125.57 189.93C120.57 188.61 113.57 194.58 111.07 198.43C110.88 198.73 108.61 203.31 108.26 204.18C108.26 203.91 108.26 203.63 108.26 203.36C108.689 198.741 109.529 194.17 110.77 189.7C111.42 187.22 112.19 184.89 112.98 182.64C114.56 183.04 121.79 184.79 125.3 184.17C128.81 183.55 132.79 181.88 134.44 178.66C134.852 177.915 135.103 177.092 135.176 176.244C135.249 175.396 135.143 174.542 134.865 173.738C134.587 172.934 134.143 172.197 133.561 171.575C132.98 170.954 132.274 170.461 131.49 170.13C126.71 168.26 119.04 173.43 116.15 176.98C116 177.17 114.62 179.31 113.63 180.88C114.01 179.88 114.37 178.82 114.75 177.88C116.16 174.27 117.67 171.05 119.03 168.2C119.82 166.59 120.56 165.2 121.27 163.81C123.02 163.4 130.07 161.64 132.85 159.51C135.63 157.38 138.44 154.03 138.42 150.41C138.444 149.558 138.288 148.711 137.963 147.924C137.638 147.136 137.15 146.426 136.532 145.839C135.914 145.253 135.18 144.803 134.377 144.518C133.574 144.234 132.719 144.122 131.87 144.19C126.77 144.74 122.34 152.85 121.42 157.34C121.34 157.72 120.78 163.93 120.87 163.91H120.97C120.26 165.19 119.52 166.56 118.73 168.08C117.31 170.9 115.73 174.08 114.23 177.69C112.594 181.518 111.181 185.438 110 189.43C108.644 193.929 107.693 198.541 107.16 203.21C107.155 203.267 107.155 203.324 107.16 203.38C106.86 201.91 105.9 197.82 105.79 197.51C104.25 193.2 98.7402 185.78 93.6102 185.94C92.7617 185.993 91.9338 186.223 91.18 186.616C90.4263 187.009 89.7635 187.557 89.2346 188.222C88.7057 188.888 88.3226 189.657 88.1099 190.48C87.8973 191.303 87.8599 192.162 88.0002 193C88.4802 196.58 91.8002 199.55 94.7802 201.24C98.1402 203.13 106.47 203.86 107.13 203.92C106.703 208.684 106.593 213.471 106.8 218.25C106.91 221.03 107.1 223.83 107.33 226.64C107.04 225.37 106.76 224.24 106.71 224.09C105.17 219.78 99.6502 212.36 94.5302 212.52C93.6803 212.57 92.8504 212.798 92.0947 213.19C91.339 213.583 90.6743 214.129 90.1441 214.796C89.6139 215.462 89.2299 216.232 89.0173 217.056C88.8047 217.881 88.7682 218.741 88.9102 219.58C89.3902 223.17 92.7102 226.14 95.6902 227.82C98.6702 229.5 105.8 230.3 107.69 230.48C107.79 231.55 107.87 232.63 107.98 233.7C108.47 238.86 108.98 244 109.34 249.07C109.47 250.85 109.52 252.61 109.59 254.37C109.32 253.25 109.09 252.31 109.04 252.17C107.5 247.85 102.04 240.43 96.8602 240.59C96.0098 240.641 95.1798 240.871 94.4241 241.264C93.6683 241.657 93.0038 242.205 92.4737 242.872C91.9436 243.539 91.5598 244.31 91.3473 245.135C91.1348 245.96 91.0983 246.82 91.2402 247.66C91.7202 251.25 95.0501 254.22 98.0201 255.9C100.99 257.58 107.44 258.3 109.67 258.52C109.67 260.32 109.67 262.13 109.67 263.88C109.59 265.08 109.6 266.23 109.46 267.43C109.32 268.63 109.23 269.79 109.12 270.95C108.81 273.19 108.52 275.49 108.12 277.66C107.89 279.17 107.64 280.61 107.39 282.06C107.29 280.28 107.01 276.8 106.96 276.52C106.034 272.595 104.116 268.973 101.39 266C101.311 265.559 101.187 265.126 101.02 264.71C100.737 263.907 100.288 263.172 99.7027 262.554C99.1169 261.936 98.4074 261.448 97.6205 261.123C96.8336 260.797 95.987 260.641 95.1357 260.665C94.2845 260.689 93.4478 260.891 92.6802 261.26C88.1202 263.6 86.9002 272.77 87.6802 277.26C87.6802 277.52 88.5302 280.36 89.0602 282.14C88.5902 281.14 88.1402 280.14 87.6402 279.14C86.6402 277.14 85.6402 275.14 84.5302 272.96L82.8102 269.87C82.2502 268.87 81.5402 267.79 80.9002 266.74C79.3702 264.33 77.7002 261.96 75.9702 259.62C77.7502 258.76 83.9702 255.62 86.2302 253C88.4902 250.38 90.5202 246.45 89.7302 242.92C89.5668 242.086 89.2303 241.295 88.7424 240.599C88.2545 239.903 87.626 239.317 86.8976 238.879C86.1692 238.441 85.357 238.16 84.5134 238.055C83.6698 237.95 82.8137 238.024 82.0002 238.27C77.1402 239.9 74.5502 248.78 74.6002 253.35C74.6002 253.64 75.0102 256.92 75.2602 258.72C74.2602 257.32 73.1702 255.91 72.0602 254.52C68.8602 250.52 65.4902 246.58 62.1502 242.63C61.1502 241.42 60.1502 240.2 59.1502 238.99C59.7802 238.69 67.3102 235.12 69.7902 232.18C72.0002 229.57 74.0802 225.63 73.2902 222.1C73.132 221.263 72.7991 220.468 72.3129 219.768C71.8268 219.068 71.1985 218.478 70.469 218.037C69.7395 217.597 68.9252 217.315 68.0793 217.21C67.2335 217.105 66.3751 217.18 65.5602 217.43C60.7002 219.05 58.1102 227.93 58.1602 232.51C58.1602 232.85 58.7602 237.57 58.9602 238.76C56.7402 236.09 54.5402 233.4 52.4902 230.66C49.6981 226.975 47.1462 223.113 44.8501 219.1C45.1401 218.96 53.0102 215.27 55.5502 212.26C57.7602 209.65 59.8502 205.71 59.0502 202.18C58.8918 201.344 58.5591 200.55 58.0736 199.851C57.5881 199.152 56.9608 198.563 56.2325 198.122C55.5041 197.681 54.6912 197.399 53.8465 197.294C53.0018 197.188 52.1444 197.262 51.3302 197.51C46.4602 199.13 43.8701 208.01 43.9201 212.59C43.9201 212.95 44.5702 218.03 44.7502 218.94C44.6202 218.7 44.4502 218.48 44.3202 218.24C42.1364 214.147 40.3161 209.871 38.8802 205.46C38.0602 203.04 37.4102 200.67 36.8802 198.35C38.4202 197.82 45.4102 195.29 48.0002 192.83C50.5902 190.37 53.0002 186.83 52.5802 183.2C52.516 182.351 52.2735 181.524 51.8683 180.775C51.4632 180.025 50.9046 179.369 50.2289 178.85C49.5533 178.331 48.7758 177.961 47.9472 177.763C47.1186 177.564 46.2575 177.543 45.4201 177.7C40.4201 178.78 36.8601 187.32 36.4201 191.88C36.4201 192.13 36.4202 194.67 36.4802 196.53C36.2302 195.48 35.9602 194.4 35.7402 193.39C34.9202 189.6 34.4002 186.08 33.9702 182.96C33.7402 181.18 33.5701 179.57 33.4201 178.06C34.6501 176.75 39.5502 171.39 40.7002 168.06C41.8502 164.73 42.3402 160.4 40.3302 157.4C39.8795 156.677 39.2818 156.056 38.5758 155.578C37.8698 155.101 37.0713 154.777 36.232 154.628C35.3928 154.479 34.5316 154.508 33.7043 154.714C32.8771 154.919 32.1023 155.296 31.4302 155.82C27.4902 159.09 28.2701 168.31 29.9701 172.56C30.1101 172.93 33.0702 178.41 33.1302 178.34L33.2101 178.26C33.3201 179.72 33.4602 181.26 33.6402 182.98C34.0102 186.11 34.4501 189.65 35.1901 193.48C35.9525 197.608 36.9542 201.688 38.1901 205.7C39.5412 210.197 41.2915 214.565 43.4201 218.75C43.4201 218.75 43.4802 218.85 43.5002 218.9C42.5002 217.83 39.3902 214.95 39.1302 214.76C35.4602 212.01 26.7702 208.86 22.5902 211.83C21.9072 212.341 21.3398 212.99 20.9249 213.735C20.51 214.48 20.257 215.304 20.1824 216.153C20.1078 217.003 20.2134 217.859 20.4922 218.664C20.7709 219.47 21.2166 220.208 21.8002 220.83C24.0002 223.57 28.4102 224.21 31.8202 224Z" fill="black"/>
<path opacity="0.1" d="M112.58 181.71C112.67 181.71 112.91 175.52 112.88 175.13C112.53 170.56 109.17 161.95 104.19 160.75C103.357 160.575 102.496 160.576 101.663 160.756C100.83 160.935 100.045 161.287 99.3569 161.79C98.6693 162.293 98.0953 162.934 97.672 163.674C97.2487 164.413 96.9858 165.233 96.9002 166.08C96.4202 169.67 98.8402 173.41 101.26 175.82C104.11 178.65 112.58 181.71 112.58 181.71Z" fill="black"/>
</g>
<g opacity="0.1">
<path opacity="0.1" d="M469.06 285.29C465.68 285.41 458.69 282.49 458.69 282.49C458.69 282.49 462.01 278.49 462.26 278.24C465.07 275.61 472.06 272.19 475.83 274.24C476.446 274.607 476.977 275.1 477.391 275.686C477.804 276.272 478.09 276.938 478.229 277.641C478.369 278.344 478.359 279.069 478.201 279.768C478.042 280.467 477.739 281.126 477.31 281.7C475.56 284.24 471.93 285.18 469.06 285.29Z" fill="black"/>
<path opacity="0.1" d="M458.61 304.75C455.45 304.02 449.88 299.75 449.43 299.38C446.971 302.577 444.298 305.604 441.43 308.44C439.78 310.11 438.07 311.73 436.33 313.34C437.23 312.72 438.04 312.18 438.17 312.12C441.58 310.32 449.22 308.87 452.3 311.89C452.797 312.406 453.181 313.021 453.425 313.694C453.67 314.368 453.77 315.086 453.719 315.8C453.668 316.515 453.467 317.211 453.13 317.844C452.792 318.476 452.325 319.03 451.76 319.47C449.42 321.42 445.67 321.36 442.87 320.71C440.07 320.06 435.19 316.48 433.93 315.52C433.25 316.13 432.59 316.75 431.93 317.35C428.69 320.27 425.44 323.16 422.33 326.1C421.24 327.1 420.2 328.19 419.16 329.24C419.96 328.7 420.64 328.24 420.75 328.18C424.16 326.39 431.81 324.94 434.89 327.96C435.387 328.475 435.77 329.089 436.015 329.762C436.259 330.435 436.359 331.152 436.308 331.866C436.257 332.58 436.057 333.275 435.719 333.906C435.382 334.538 434.915 335.091 434.35 335.53C432.01 337.53 428.26 337.43 425.45 336.78C422.64 336.13 418.25 332.89 416.74 331.78C415.74 332.89 414.67 334.01 413.74 335.13C413.1 335.91 412.44 336.62 411.85 337.45L410.05 339.83C408.97 341.38 407.84 342.98 406.82 344.52C406.1 345.59 405.44 346.62 404.76 347.66C405.84 346.61 407.99 344.66 408.19 344.47C411.29 342.18 418.62 339.59 422.13 342.1C422.699 342.536 423.17 343.086 423.513 343.716C423.856 344.345 424.063 345.04 424.121 345.754C424.178 346.469 424.085 347.188 423.847 347.864C423.609 348.54 423.232 349.159 422.74 349.68C420.74 351.96 417 352.48 414.13 352.25C410.98 352.01 405.04 348.77 404.3 348.36C403.19 350.08 402.13 351.76 401.16 353.36C400.44 354.54 399.75 355.69 399.1 356.79L396.6 355.79C397.35 354.57 398.15 353.31 398.99 351.98C400.11 350.23 401.34 348.39 402.62 346.5C401.032 345.012 399.536 343.429 398.14 341.76C395.21 343.18 388.92 343.76 388.14 343.76C388.14 345.76 388.21 347.76 388.29 349.66C388.29 350.66 388.37 351.6 388.41 352.53L385.77 351.53C385.77 350.94 385.77 350.37 385.77 349.76C385.77 347.68 385.77 345.46 385.77 343.19C384.95 343.05 378.27 341.88 375.65 340.1C373.27 338.48 370.65 335.76 370.53 332.72C370.468 332.006 370.557 331.286 370.792 330.609C371.027 329.932 371.401 329.311 371.892 328.788C372.383 328.266 372.978 327.852 373.64 327.575C374.301 327.298 375.013 327.163 375.73 327.18C380.03 327.4 384.15 334 385.15 337.72C385.21 337.94 385.58 340.39 385.79 341.95C385.79 341.01 385.79 340.11 385.84 339.15C385.84 337.26 385.98 335.37 386.07 333.34C386.16 332.34 386.24 331.34 386.32 330.34C386.4 329.34 386.57 328.34 386.7 327.28C387.03 324.9 387.49 322.51 388 320.11C386.34 320.11 380.45 319.84 377.84 318.6C375.23 317.36 372.28 315.07 371.66 312.08C371.493 311.384 371.473 310.66 371.604 309.956C371.734 309.252 372.011 308.583 372.416 307.993C372.822 307.403 373.347 306.904 373.957 306.53C374.568 306.156 375.25 305.914 375.96 305.82C380.25 305.38 385.32 311.28 386.87 314.82C386.97 315.04 387.8 317.7 388.22 319.16C388.54 317.72 388.85 316.28 389.22 314.84C390.29 310.66 391.5 306.47 392.69 302.28C393.06 300.99 393.4 299.71 393.76 298.43C393.17 298.43 386.16 298.3 383.24 296.91C380.64 295.67 377.67 293.37 377.06 290.39C376.889 289.694 376.868 288.969 376.997 288.264C377.126 287.558 377.402 286.888 377.808 286.297C378.214 285.706 378.74 285.208 379.352 284.834C379.965 284.461 380.649 284.221 381.36 284.13C385.65 283.69 390.72 289.59 392.27 293.13C392.38 293.39 393.57 297.22 393.82 298.2C394.6 295.38 395.35 292.55 395.97 289.74C396.836 285.948 397.454 282.103 397.82 278.23C397.54 278.23 390.23 278.13 387.24 276.7C384.64 275.47 381.67 273.17 381.05 270.19C380.881 269.493 380.861 268.769 380.99 268.063C381.12 267.358 381.396 266.688 381.802 266.096C382.207 265.505 382.733 265.006 383.344 264.631C383.956 264.256 384.639 264.014 385.35 263.92C389.65 263.48 394.71 269.39 396.26 272.92C396.39 273.2 397.66 277.32 397.84 278.08C397.84 277.85 397.9 277.62 397.92 277.4C398.179 273.503 398.089 269.591 397.65 265.71C397.44 263.57 397.12 261.53 396.76 259.55C395.4 259.67 389.16 260.16 386.32 259.18C383.48 258.2 380.4 256.28 379.46 253.38C379.216 252.706 379.117 251.988 379.169 251.273C379.221 250.558 379.423 249.862 379.762 249.23C380.1 248.598 380.568 248.044 381.134 247.605C381.701 247.166 382.354 246.851 383.05 246.68C387.26 245.77 392.95 251.08 394.88 254.42C394.98 254.6 395.88 256.56 396.45 258C396.28 257.11 396.11 256.19 395.93 255.34C395.24 252.15 394.41 249.27 393.66 246.73C393.22 245.29 392.79 243.99 392.38 242.73C390.98 242.15 385.38 239.73 383.38 237.61C381.38 235.49 379.46 232.31 379.96 229.31C380.052 228.598 380.293 227.914 380.668 227.302C381.042 226.69 381.542 226.164 382.133 225.758C382.725 225.352 383.396 225.076 384.102 224.947C384.808 224.818 385.533 224.84 386.23 225.01C390.39 226.15 392.99 233.48 393.17 237.33C393.17 237.67 392.82 242.89 392.75 242.86H392.66C393.08 244.02 393.52 245.26 393.97 246.63C394.78 249.16 395.67 252.03 396.43 255.21C397.296 258.635 397.964 262.108 398.43 265.61C398.954 269.53 399.132 273.489 398.96 277.44C398.954 277.487 398.954 277.534 398.96 277.58C399.4 276.39 400.75 273.12 400.88 272.88C402.73 269.51 408.3 264.07 412.54 264.88C413.239 265.036 413.898 265.337 414.473 265.765C415.049 266.192 415.528 266.735 415.88 267.359C416.231 267.983 416.448 268.675 416.515 269.388C416.582 270.102 416.499 270.821 416.27 271.5C415.39 274.42 412.27 276.5 409.54 277.5C406.49 278.63 399.47 278.12 398.92 278.08C398.576 282.089 397.968 286.071 397.1 290C396.64 292.3 396.1 294.6 395.54 296.9C395.95 295.9 396.33 294.99 396.4 294.9C398.26 291.52 403.83 286.09 408.06 286.9C408.76 287.055 409.42 287.355 409.996 287.782C410.572 288.209 411.052 288.752 411.404 289.377C411.756 290.001 411.972 290.693 412.039 291.407C412.105 292.121 412.02 292.841 411.79 293.52C410.91 296.43 407.79 298.46 405.06 299.46C402.33 300.46 396.33 300.17 394.74 300.06C394.52 300.94 394.3 301.83 394.07 302.7C392.97 306.92 391.86 311.13 390.89 315.29C390.55 316.76 390.26 318.21 389.98 319.67C390.35 318.77 390.66 318.02 390.72 317.91C392.58 314.53 398.15 309.1 402.39 309.91C403.089 310.066 403.748 310.367 404.323 310.795C404.899 311.222 405.378 311.765 405.73 312.389C406.081 313.013 406.298 313.705 406.365 314.418C406.432 315.132 406.349 315.851 406.12 316.53C405.24 319.44 402.12 321.47 399.38 322.47C396.64 323.47 391.24 323.2 389.38 323.09C389.13 324.59 388.88 326.09 388.7 327.56C388.61 328.56 388.45 329.56 388.4 330.56L388.22 333.56C388.17 335.46 388.11 337.41 388.11 339.26C388.11 340.55 388.11 341.78 388.11 343.01C388.43 341.55 389.11 338.7 389.21 338.47C390.493 335.334 392.559 332.58 395.21 330.47C395.337 330.122 395.498 329.787 395.69 329.47C396.034 328.842 396.505 328.293 397.075 327.859C397.644 327.425 398.299 327.115 398.995 326.95C399.692 326.785 400.416 326.768 401.119 326.901C401.823 327.034 402.491 327.313 403.08 327.72C406.56 330.28 406.35 338.06 405.08 341.72C405.01 341.93 403.97 344.19 403.29 345.6C403.82 344.83 404.29 344.08 404.87 343.29C405.95 341.74 407.07 340.21 408.28 338.57L410.12 336.23C410.72 335.44 411.45 334.67 412.12 333.88C413.72 332.09 415.42 330.34 417.17 328.62C415.8 327.67 411.02 324.23 409.53 321.76C408.04 319.29 406.83 315.76 407.97 312.91C408.214 312.241 408.595 311.631 409.089 311.118C409.583 310.606 410.179 310.202 410.838 309.934C411.498 309.665 412.206 309.538 412.917 309.56C413.629 309.581 414.328 309.752 414.97 310.06C418.79 312.06 419.76 319.78 419.11 323.58C419.11 323.81 418.29 326.49 417.84 327.94C418.9 326.94 419.95 325.89 421.06 324.89C424.26 321.99 427.58 319.16 430.88 316.33L433.88 313.7C433.39 313.37 427.61 309.4 425.94 306.63C424.45 304.17 423.25 300.63 424.38 297.79C424.624 297.121 425.005 296.511 425.499 295.998C425.993 295.485 426.588 295.081 427.247 294.812C427.906 294.543 428.614 294.414 429.326 294.434C430.038 294.455 430.737 294.624 431.38 294.93C435.2 296.93 436.17 304.65 435.52 308.45C435.52 308.74 434.35 312.58 434.02 313.54C436.23 311.62 438.41 309.67 440.48 307.67C443.343 304.961 446.022 302.065 448.5 299C448.27 298.84 442.23 294.73 440.5 291.89C439.01 289.42 437.8 285.89 438.93 283.04C439.175 282.367 439.56 281.752 440.058 281.237C440.556 280.721 441.157 280.316 441.821 280.047C442.486 279.779 443.199 279.653 443.916 279.677C444.632 279.702 445.335 279.877 445.98 280.19C449.8 282.19 450.77 289.91 450.12 293.71C450.07 294.01 448.86 298.14 448.59 298.87C448.73 298.7 448.89 298.53 449.03 298.35C451.395 295.244 453.48 291.935 455.26 288.46C456.26 286.55 457.12 284.67 457.91 282.83C456.7 282.18 451.23 279.14 449.41 276.76C447.59 274.38 446.07 271.07 446.88 268.14C447.047 267.442 447.359 266.788 447.797 266.219C448.234 265.65 448.786 265.18 449.418 264.839C450.049 264.499 450.745 264.295 451.461 264.242C452.176 264.188 452.895 264.287 453.57 264.53C457.57 266.1 459.4 273.66 459.17 277.53C459.17 277.74 458.79 279.85 458.51 281.38C458.85 280.55 459.22 279.69 459.51 278.88C460.69 275.88 461.59 272.98 462.37 270.44C462.8 269 463.16 267.68 463.48 266.44C462.63 265.18 459.27 260.08 458.76 257.18C458.25 254.28 458.42 250.59 460.49 248.37C460.96 247.829 461.539 247.392 462.188 247.089C462.838 246.786 463.544 246.623 464.261 246.611C464.978 246.599 465.689 246.738 466.349 247.018C467.008 247.299 467.602 247.715 468.09 248.24C470.94 251.49 469.09 259.04 467.09 262.34C466.92 262.63 463.73 266.79 463.69 266.73L463.63 266.65C463.35 267.85 463.02 269.12 462.63 270.51C462 273 461.12 275.92 460 279C458.825 282.331 457.456 285.59 455.9 288.76C454.178 292.319 452.14 295.716 449.81 298.91C449.783 298.949 449.753 298.986 449.72 299.02C450.72 298.28 453.67 296.29 453.91 296.16C457.32 294.37 464.97 292.91 468.05 295.93C468.547 296.446 468.931 297.061 469.175 297.734C469.42 298.408 469.52 299.126 469.469 299.84C469.418 300.555 469.217 301.251 468.88 301.884C468.542 302.516 468.075 303.07 467.51 303.51C465.17 305.46 461.41 305.41 458.61 304.75Z" fill="black"/>
<path opacity="0.1" d="M397.14 258.87C397.06 258.87 397.69 253.68 397.77 253.35C398.67 249.61 402.61 242.9 406.91 242.57C407.625 242.535 408.34 242.651 409.008 242.911C409.676 243.171 410.282 243.568 410.785 244.078C411.289 244.587 411.68 245.197 411.932 245.868C412.185 246.539 412.293 247.255 412.25 247.97C412.18 250.97 409.67 253.8 407.33 255.48C404.58 257.45 397.14 258.86 397.14 258.87Z" fill="black"/>
</g>
<path d="M208.65 0.360107L221.15 119.15" stroke="#263238" stroke-linecap="round" stroke-linejoin="round"/>
<path d="M246.14 25.6001L236.82 27.7401L228.29 44.6101L214.78 40.7501L214.4 44.4301L231.2 51.4001L237.21 43.0601V57.6101L255.25 58.3901L258.94 41.9001L265.53 47.7201V63.0401H269.41L271.74 43.8401L261.46 27.1601L246.14 25.6001Z" fill="white" stroke="#263238" stroke-linecap="round" stroke-linejoin="round"/>
<path d="M237.21 43.0601L237.07 34.8501" stroke="#263238" stroke-linecap="round" stroke-linejoin="round"/>
<path d="M246 31.0001L248.53 35.7501C248.53 35.7501 255.53 37.9701 256.77 38.2801C258.01 38.5901 261.84 37.3301 265 36.7001C268.16 36.0701 278.31 41.1301 278.31 41.1301L287.18 41.4501L282.43 35.7501L265.32 33.2101L256.45 36.0701L250.45 34.4801L251.73 32.0001L248.88 27.5601L246 31.0001Z" fill="black" stroke="#263238" stroke-linecap="round" stroke-linejoin="round"/>
<path d="M246.91 24.2402C246.395 24.1428 245.862 24.2517 245.426 24.5435C244.99 24.8353 244.686 25.2866 244.58 25.8002C244.2 27.7402 243.81 32.5902 243.81 32.5902L248.46 31.2302L253.9 33.5602C253.9 33.5602 255.64 28.5102 254.67 26.7702C253.7 25.0302 249.24 22.6902 246.91 24.2402Z" fill="white" stroke="#263238" stroke-linecap="round" stroke-linejoin="round"/>
<path d="M245.94 21.53C245.94 21.53 246.52 26.96 246.72 28.9C246.92 30.84 248.08 33.75 248.85 33.17C249.62 32.59 252.34 27.17 252.34 27.17L253.7 23.49L245.94 21.53Z" fill="white" stroke="#263238" stroke-linecap="round" stroke-linejoin="round"/>
<path d="M246 13.6001C246 13.6001 244.3 13.4501 244.3 16.2301C244.3 19.0101 245.53 19.1601 245.53 19.1601L246 13.6001Z" fill="white" stroke="#263238" stroke-linecap="round" stroke-linejoin="round"/>
<path d="M257.37 15.9202C257.59 15.932 257.805 15.9919 258 16.0957C258.195 16.1995 258.364 16.3446 258.497 16.521C258.629 16.6973 258.721 16.9005 258.767 17.1163C258.812 17.3322 258.81 17.5553 258.76 17.7702C258.45 19.4702 255.52 21.7702 255.52 21.7702L257.37 15.9202Z" fill="white" stroke="#263238" stroke-linecap="round" stroke-linejoin="round"/>
<path d="M251.76 8.00002C251.76 8.00002 248.66 7.22002 246.91 10.91C245.16 14.6 245.55 19.06 245.91 21.58C246.27 24.1 248.63 25.26 250.96 25.26C253.29 25.26 256.77 20.42 257.55 16.73C258.33 13.04 257.77 8.00002 251.76 8.00002Z" fill="white" stroke="#263238" stroke-linecap="round" stroke-linejoin="round"/>
<path d="M211.03 38.6002L211.8 44.4202L215.29 44.8102L214.71 38.2102L211.03 38.6002Z" fill="white" stroke="#263238" stroke-linecap="round" stroke-linejoin="round"/>
<path d="M214.78 38.5101L216.19 38.3201L216.47 41.4201L215.06 41.6101L214.78 38.5101Z" fill="white" stroke="#263238" stroke-linecap="round" stroke-linejoin="round"/>
<path d="M265.53 63.04L263.41 66.36L263.96 69.69L265.81 69.51L268.96 68.4L269.41 63.04H265.53Z" fill="white" stroke="#263238" stroke-linecap="round" stroke-linejoin="round"/>
<path d="M237.21 57.6101L235.84 63.5901L220.66 83.5701L230.84 112.26L233.43 111.7L231.21 84.3101L243.61 71.1701L245.09 72.1001L245.13 86.7601L259.34 110.78L262.3 110.03L255.64 86.9001L256.01 62.2901L255.25 58.3901L237.21 57.6101Z" fill="#263238" stroke="#263238" stroke-linecap="round" stroke-linejoin="round"/>
<path d="M230.84 112.26L228.62 115.4C228.62 115.4 225.1 117.07 224.55 117.99C224 118.91 227.55 118.73 227.55 118.73L231.62 118.36L235.88 115.59L233.47 111.7L230.84 112.26Z" fill="white" stroke="#263238" stroke-linecap="round" stroke-linejoin="round"/>
<path d="M209.18 4.59009C209.18 4.59009 207.32 8.83009 199.64 11.7401C191.96 14.6501 180.84 16.2401 177.93 22.3301C175.02 28.4201 175.02 27.9001 174.49 31.3301C174.207 33.3351 173.276 35.1927 171.84 36.6201C171.84 36.6201 174.49 36.8901 175.84 35.0401C177.19 33.1901 177.7 27.8901 179.84 27.0901C181.98 26.2901 185.87 25.0001 185.87 25.0001C185.87 25.0001 182.17 28.1801 181.87 29.7701C181.57 31.3601 181.34 35.0701 180.81 37.4501C180.579 38.7513 179.946 39.9474 179 40.8701C179 40.8701 182.44 40.8701 183.5 38.4901C184.56 36.1101 183.5 32.9301 186.94 30.5401C190.38 28.1501 194.09 29.2201 199.94 29.4801C205.79 29.7401 211.33 26.3101 211.33 26.3101L209.18 4.59009Z" fill="black" stroke="#263238" stroke-linecap="round" stroke-linejoin="round"/>
<path d="M259.34 110.78L256.79 119.25L263.12 119L262.3 110.03L259.34 110.78Z" fill="white" stroke="#263238" stroke-linecap="round" stroke-linejoin="round"/>
<path d="M249.64 15.43C249.53 15.93 249.18 16.28 248.84 16.21C248.5 16.14 248.32 15.67 248.43 15.21C248.54 14.75 248.89 14.36 249.23 14.43C249.57 14.5 249.74 14.93 249.64 15.43Z" fill="#263238"/>
<path d="M254.27 16.5101C254.16 17.0101 253.81 17.3601 253.47 17.2901C253.13 17.2201 252.95 16.7501 253.06 16.2901C253.17 15.8301 253.52 15.4401 253.86 15.5101C254.2 15.5801 254.37 16.0001 254.27 16.5101Z" fill="#263238"/>
<path d="M251.19 16.0701L249.96 19.7801H251.97" stroke="#263238" stroke-linecap="round" stroke-linejoin="round"/>
<path d="M248.42 20.8601C248.42 20.8601 249.5 22.7101 252.28 21.6301" stroke="#263238" stroke-linecap="round" stroke-linejoin="round"/>
<path d="M248.26 12.8302C248.662 12.613 249.127 12.5402 249.576 12.6239C250.025 12.7076 250.433 12.9427 250.73 13.2902" stroke="#263238" stroke-linecap="round" stroke-linejoin="round"/>
<path d="M253.05 13.9101C253.32 13.7618 253.619 13.6722 253.926 13.6473C254.234 13.6224 254.543 13.6627 254.834 13.7656C255.125 13.8685 255.39 14.0317 255.614 14.2444C255.837 14.4572 256.013 14.7147 256.13 15.0001" stroke="#263238" stroke-linecap="round" stroke-linejoin="round"/>
<path d="M245.33 12.3701L256.44 11.0001C256.44 11.0001 255.98 12.8502 256.6 13.3102C257.22 13.7702 257.37 15.9401 257.37 15.9401L256.91 18.4101L259.38 14.0901C259.38 14.0901 260.15 10.6902 259.53 9.61015C259.327 9.2842 259.057 9.0051 258.738 8.79132C258.419 8.57755 258.059 8.43399 257.68 8.37015C257.019 7.36969 256.087 6.57798 254.992 6.08749C253.898 5.59701 252.687 5.42798 251.5 5.60015C247.18 6.06015 245.33 8.22015 245.33 9.92015V12.3701Z" fill="#263238" stroke="#263238" stroke-linecap="round" stroke-linejoin="round"/>
<path d="M237.13 432.2L256.73 319.73L182.75 251.84L209.6 160.36L180.86 161L168.72 171.86L143.35 171.24L139.92 183.61L132.96 182.74L130.56 187.08L118.69 210.78L112.52 234.45L89.5198 263.2L86.9998 331.04L49.9198 384.56L38.2598 432.2H237.13Z" fill="#808080" stroke="#39515E" stroke-linecap="round" stroke-linejoin="round"/>
<path d="M404.06 432.2L379.51 378.37L419.51 405.02V362.37L396 334.52L399.48 303.19L363.78 235.3L362 211.8L349.82 200.48L287.3 205L282.84 183.05L242.84 160.42L218.84 218.53L196.73 228.31L212.31 249.67L209.79 266.6L215 292.74L128 311.89C128 311.89 127.13 353.67 127.13 357.15C127.13 360.63 109.72 380.65 109.72 380.65L108.91 432.2H404.06Z" fill="#ABABAB" stroke="#39515E" stroke-linecap="round" stroke-linejoin="round"/>
<path d="M452.51 432.2L442.12 427.65L429.06 399.8L413.39 388.49L406.43 371.95L399.47 358.89L362.27 340.72L368.04 432.2H452.51Z" fill="#CCCCCC" stroke="#39515E" stroke-linecap="round" stroke-linejoin="round"/>
<path d="M63.1497 432.09H109.66L110.5 405.02L106.15 389.36V347.58L95.7097 345.84L86.9997 355.41L73.0797 363.25L42.9097 432.2H63.1497V432.09Z" fill="#CCCCCC" stroke="#39515E" stroke-linecap="round" stroke-linejoin="round"/>
<path d="M79.2397 386.77L80.2598 382.43" stroke="#39515E" stroke-miterlimit="10"/>
<path d="M63.1499 432.2L69.3499 407.71L75.1999 403.99L78.6199 389.41" stroke="#39515E" stroke-miterlimit="10"/>
<path d="M53.1099 432.46L62.9599 404.52" stroke="#39515E" stroke-miterlimit="10"/>
<path d="M95.8496 357.4L94.8896 361.94" stroke="#39515E" stroke-miterlimit="10"/>
<path d="M98.0798 346.78L96.2598 355.45" stroke="#39515E" stroke-miterlimit="10"/>
<path d="M109.66 432.09L110.5 405.02L106.15 389.36V347.58L97.4499 403.28L89.6099 405.89L86.9999 421.56L85.3799 432.09H109.66Z" fill="white" stroke="#39515E" stroke-linecap="round" stroke-linejoin="round"/>
<path d="M258.61 401.22C263.558 400.55 268.396 399.232 273 397.3C276.676 395.801 279.91 393.392 282.4 390.3C282.69 389.91 282.96 389.5 283.22 389.09L276.35 358.09L262.8 346.27L260.54 336.13L247.54 325.99L243.04 341.77L235.71 351.91L235.15 389.1L242.15 402.48C247.659 402.433 253.158 402.012 258.61 401.22V401.22Z" fill="white" stroke="#39515E" stroke-linecap="round" stroke-linejoin="round"/>
<path d="M258.61 401.22L257.23 389.64L261.3 378.67V372.17L260.48 362.01" stroke="#39515E" stroke-miterlimit="10"/>
<path d="M266.86 366.02L269.02 378.26L273.08 379.07L272.27 389.23L273.89 394.52" stroke="#39515E" stroke-miterlimit="10"/>
<path d="M265.36 357.54L266.08 361.62" stroke="#39515E" stroke-miterlimit="10"/>
<path d="M251.95 331.53L255.2 364.85" stroke="#39515E" stroke-miterlimit="10"/>
<path d="M212.25 400.39C221.599 401.811 231.043 402.513 240.5 402.49C242.4 402.49 244.26 402.44 246.09 402.37L245.89 391.91L242.51 387.41V355.29L248.15 349.65L247.58 326L240.82 338.4L231.82 346.28L226.18 362.62L217.18 373.33L214.92 384.6L204.22 393.6L199.95 398.15C203.983 399.01 208.083 399.757 212.25 400.39Z" fill="#CCCCCC" stroke="#39515E" stroke-linecap="round" stroke-linejoin="round"/>
<path d="M375.1 432.2L422.35 432.11L361.17 395.45L346.38 359.76L334.19 358.02L323.75 344.1L318.52 349.32L322 379.78L308.95 401.54V415.47L302.86 431.13L332.3 432.2H375.1Z" fill="white" stroke="#39515E" stroke-linecap="round" stroke-linejoin="round"/>
<path d="M351.4 432.14L349.17 419.69L352.68 412.34L351.72 397.97L354.6 400.85L374.08 432.14H351.4Z" fill="#CCCCCC" stroke="#39515E" stroke-linecap="round" stroke-linejoin="round"/>
<path d="M351.72 397.97L365.46 404.68L370.88 411.38L386.53 419.37L397.39 426.08L404.06 432.2L374.08 432.14L351.72 397.97Z" fill="white" stroke="#39515E" stroke-linecap="round" stroke-linejoin="round"/>
<path d="M308.95 401.54V415.47L302.39 431.92L327.24 432.24L322 402.41L332.45 392.84L318.52 349.32L322 379.78L308.95 401.54Z" fill="#CCCCCC" stroke="#39515E" stroke-linecap="round" stroke-linejoin="round"/>
<path d="M334.19 358.02L343.38 377.45L347.44 377.86L350.69 387.61" stroke="#39515E" stroke-miterlimit="10"/>
<path d="M340.36 416.8L341.76 421.34" stroke="#39515E" stroke-miterlimit="10"/>
<path d="M334.85 381.51L337.69 392.49L342.57 400.61L336.88 405.49L339.34 413.48" stroke="#39515E" stroke-miterlimit="10"/>
<path d="M218.74 158.25L198.34 180.56L197.64 139.66L217.95 115L218.74 158.25Z" fill="#CCCCCC" stroke="#39515E" stroke-linecap="round" stroke-linejoin="round"/>
<path d="M204.58 247.57L225.44 229.16C226.936 227.862 228.601 226.772 230.39 225.92C232.634 224.855 234.979 224.018 237.39 223.42C240.48 222.668 243.622 222.147 246.79 221.86C250.778 221.492 254.785 221.345 258.79 221.42C268.473 221.548 278.133 222.401 287.69 223.97C295.632 225.285 303.485 227.099 311.2 229.4C318.14 231.47 324.2 233.69 329.43 235.74C334.66 237.79 338.98 239.67 342.48 241.05L315.41 258.6C312.1 257.3 307.99 255.53 303.06 253.6C298.13 251.67 292.38 249.6 285.81 247.6C278.512 245.432 271.084 243.732 263.57 242.51C254.522 241.039 245.376 240.251 236.21 240.15C232.411 240.085 228.612 240.231 224.83 240.59C221.833 240.866 218.862 241.364 215.94 242.08C213.641 242.644 211.406 243.442 209.27 244.46C207.573 245.281 205.996 246.327 204.58 247.57V247.57Z" fill="#CCCCCC" stroke="#39515E" stroke-linecap="round" stroke-linejoin="round"/>
<path d="M271 398.11L247.46 407.11C249.517 406.346 251.488 405.367 253.34 404.19C254.98 403.144 256.457 401.86 257.72 400.38C258.912 398.978 259.834 397.368 260.44 395.63C261.063 393.779 261.354 391.832 261.3 389.88C261.283 386.474 260.238 383.152 258.3 380.35C255.815 377.055 252.641 374.342 249 372.4C243.755 369.535 238.242 367.19 232.54 365.4C225.74 363.11 217.54 360.85 207.89 358.5C194.747 355.439 181.877 351.306 169.41 346.14C158.151 341.526 147.581 335.381 138 327.88C129.2 321.006 121.952 312.35 116.73 302.48C111.435 291.991 108.694 280.4 108.73 268.65C108.68 263.878 109.014 259.109 109.73 254.39C110.413 249.854 111.484 245.384 112.93 241.03C114.354 236.764 116.151 232.631 118.3 228.68C120.465 224.726 122.972 220.969 125.79 217.45L142 197.12C136.022 204.557 131.423 213.003 128.42 222.06C126.874 226.663 125.73 231.39 125 236.19C124.259 241.188 123.925 246.238 124 251.29C123.992 263.746 126.921 276.028 132.55 287.14C138.088 297.603 145.768 306.782 155.09 314.08C164.57 321.71 175.84 328.08 188.37 333.41C201.561 338.895 215.18 343.29 229.09 346.55C239.34 349.05 247.97 351.46 255.16 353.89C261.196 355.808 267.027 358.316 272.57 361.38C277.05 363.99 280.26 366.75 282.38 369.79C284.446 372.751 285.566 376.269 285.59 379.88C285.657 381.948 285.352 384.01 284.69 385.97C284.053 387.799 283.083 389.494 281.83 390.97C280.493 392.526 278.933 393.874 277.2 394.97C275.25 396.232 273.171 397.285 271 398.11V398.11Z" fill="#CCCCCC" stroke="#39515E" stroke-linecap="round" stroke-linejoin="round"/>
<path d="M155.09 314.08C164.57 321.71 175.84 328.08 188.37 333.41C201.561 338.895 215.18 343.29 229.09 346.55C239.34 349.05 247.97 351.46 255.16 353.89C261.196 355.808 267.027 358.316 272.57 361.38C277.05 363.99 280.26 366.75 282.38 369.79C284.446 372.751 285.566 376.269 285.59 379.88C285.755 383.628 284.617 387.317 282.37 390.32C279.88 393.412 276.646 395.821 272.97 397.32C268.375 399.249 263.547 400.567 258.61 401.24C252.613 402.108 246.56 402.532 240.5 402.51C231.043 402.533 221.599 401.831 212.25 400.41C203.272 399.049 194.386 397.142 185.64 394.7C177.14 392.33 169.05 389.59 161.51 386.7C153.97 383.81 146.97 380.7 140.66 377.7L127.88 432H357.57C364.727 424.028 370.327 414.785 374.08 404.75C378.013 394.058 379.84 382.706 379.46 371.32C379.12 359.15 377.27 348.32 373.64 338.61C370.028 328.903 364.405 320.07 357.14 312.69C349.67 305.03 340.14 298.28 328.28 292.26C316.42 286.24 302.14 280.91 285.28 276.1C274.426 272.94 264.936 269.907 256.81 267C249.871 264.599 243.103 261.732 236.55 258.42C231.15 255.59 227.1 252.78 224.4 249.9C221.7 247.02 220.32 244.09 220.26 241.01C220.184 238.491 220.726 235.991 221.84 233.73C223.228 231.101 225.301 228.897 227.84 227.35C231.487 225.152 235.507 223.643 239.7 222.9C246.018 221.718 252.445 221.218 258.87 221.41C268.553 221.538 278.214 222.391 287.77 223.96C295.713 225.275 303.565 227.089 311.28 229.39C318.22 231.46 324.28 233.68 329.51 235.73C334.74 237.78 339.06 239.66 342.56 241.04L357.44 174.04C352.76 172.04 347.73 170.04 342.22 168.14C336.71 166.24 330.71 164.46 324.12 162.85C317.53 161.24 310.33 159.85 302.41 158.64C294.49 157.43 285.82 156.57 276.32 156.01L275.45 116.39L218 115L218.79 158.25C204.819 160.178 191.187 164.052 178.29 169.76C167.185 174.667 157.049 181.521 148.36 190C140.41 197.85 134.161 207.251 130 217.62C125.803 228.339 123.764 239.781 124 251.29C123.992 263.746 126.921 276.028 132.55 287.14C138.088 297.603 145.768 306.782 155.09 314.08V314.08Z" fill="white" stroke="#39515E" stroke-linecap="round" stroke-linejoin="round"/>
<path d="M127.88 432L140.66 377.67L124.29 387.91L113.87 432H127.88Z" fill="#CCCCCC" stroke="#39515E" stroke-linecap="round" stroke-linejoin="round"/>
<path d="M404.15 418.89C403.143 418.7 402.101 418.904 401.24 419.46L405.72 422.15C405.84 421.833 405.893 421.496 405.878 421.158C405.863 420.82 405.78 420.489 405.633 420.184C405.486 419.879 405.279 419.607 405.024 419.385C404.769 419.162 404.472 418.994 404.15 418.89V418.89Z" fill="#263238"/>
<path d="M405.41 383.49C405.41 383.49 406.01 380.97 406.03 380.81C406.23 378.92 405.5 375.14 403.55 374.27C403.222 374.135 402.869 374.071 402.515 374.083C402.16 374.094 401.812 374.179 401.493 374.334C401.174 374.489 400.891 374.709 400.663 374.981C400.435 375.252 400.267 375.569 400.17 375.91C399.7 377.34 400.41 379.05 401.22 380.22C402.18 381.6 405.41 383.48 405.41 383.49Z" fill="#263238"/>
<path d="M435.06 398.87C436.28 397.4 437.75 393.87 436.6 392.05C436.402 391.756 436.144 391.507 435.843 391.32C435.541 391.133 435.204 391.012 434.852 390.964C434.501 390.917 434.143 390.945 433.803 391.046C433.463 391.147 433.149 391.319 432.88 391.55C432.339 392.094 431.925 392.751 431.665 393.473C431.406 394.196 431.309 394.966 431.38 395.73C431.38 397.4 433.07 400.73 433.08 400.73C433.09 400.73 435 399 435.06 398.87Z" fill="#263238"/>
<path d="M393.86 412.77C395.273 413.672 396.818 414.347 398.44 414.77C398.31 415.51 398.18 416.25 398.02 416.96C398.02 417.14 397.93 417.32 397.89 417.51L398.83 418.07C398.89 417.78 398.95 417.48 399.02 417.19C399.25 416.02 399.44 414.83 399.59 413.63C401.195 414.222 402.882 414.559 404.59 414.63C405.363 414.61 406.121 414.42 406.812 414.074C407.504 413.729 408.11 413.236 408.59 412.63C408.782 412.33 408.909 411.993 408.962 411.642C409.016 411.29 408.995 410.931 408.9 410.587C408.806 410.244 408.641 409.925 408.415 409.649C408.189 409.374 407.908 409.15 407.59 408.99C405.66 408.08 402.32 409.99 401.01 411.38C400.93 411.47 400.11 412.57 399.67 413.19C399.76 412.46 399.85 411.74 399.92 411C400.11 408.88 400.24 406.72 400.37 404.57C400.37 403.92 400.46 403.26 400.51 402.57C400.79 402.67 404.07 403.77 405.67 403.57C407.08 403.42 408.85 402.84 409.67 401.57C409.862 401.271 409.989 400.935 410.042 400.584C410.095 400.233 410.074 399.874 409.98 399.532C409.886 399.189 409.72 398.871 409.495 398.596C409.269 398.322 408.988 398.099 408.67 397.94C406.74 397.03 403.4 398.94 402.09 400.33C402 400.44 400.81 402.03 400.53 402.44C400.63 401 400.75 399.56 400.92 398.14C401.135 396.231 401.469 394.337 401.92 392.47C402.05 392.47 405.48 393.68 407.11 393.47C408.53 393.32 410.29 392.74 411.11 391.47C411.302 391.171 411.429 390.835 411.482 390.484C411.535 390.133 411.514 389.774 411.42 389.432C411.326 389.089 411.16 388.771 410.935 388.496C410.709 388.222 410.428 387.998 410.11 387.84C408.18 386.92 404.84 388.84 403.54 390.23C403.43 390.34 402.16 392.05 401.95 392.37C401.95 392.26 402 392.15 402.03 392.04C402.554 390.183 403.24 388.376 404.08 386.64C404.53 385.64 405.02 384.77 405.51 383.91C406.13 384.19 408.96 385.45 410.44 385.46C411.92 385.47 413.68 385.09 414.6 383.89C414.825 383.615 414.99 383.297 415.084 382.954C415.177 382.612 415.198 382.254 415.144 381.903C415.091 381.552 414.964 381.216 414.772 380.918C414.58 380.619 414.327 380.364 414.03 380.17C412.22 379.05 408.69 380.59 407.24 381.83C407.16 381.9 406.43 382.67 405.91 383.24C406.14 382.85 406.37 382.45 406.6 382.08C407.45 380.71 408.31 379.51 409.08 378.44C409.52 377.84 409.93 377.31 410.32 376.81C412.046 376.776 413.756 376.476 415.39 375.92C416.65 375.27 418.09 374.09 418.39 372.61C418.457 372.266 418.452 371.912 418.376 371.57C418.299 371.229 418.152 370.907 417.944 370.625C417.736 370.343 417.472 370.107 417.169 369.932C416.865 369.757 416.528 369.648 416.18 369.61C414.05 369.46 411.63 372.45 410.91 374.21C410.85 374.37 410.15 376.86 410.19 376.86H410.24C409.85 377.33 409.44 377.86 409.01 378.4C408.21 379.45 407.32 380.64 406.44 382C405.48 383.457 404.602 384.966 403.81 386.52C402.916 388.261 402.18 390.078 401.61 391.95C401.61 391.95 401.61 392 401.61 392.02C401.61 391.39 401.52 389.65 401.5 389.51C401.19 387.63 399.5 384.18 397.38 383.86C397.028 383.818 396.671 383.85 396.332 383.955C395.994 384.059 395.68 384.233 395.413 384.466C395.145 384.698 394.929 384.984 394.779 385.305C394.629 385.626 394.547 385.975 394.54 386.33C394.47 387.84 395.61 389.33 396.7 390.22C397.94 391.22 401.29 392.22 401.56 392.22C401.029 394.138 400.625 396.089 400.35 398.06C400.18 399.21 400.05 400.37 399.94 401.54C399.94 401 399.88 400.54 399.87 400.45C399.56 398.57 397.87 395.11 395.75 394.8C395.398 394.756 395.041 394.787 394.702 394.891C394.363 394.995 394.05 395.169 393.783 395.402C393.516 395.635 393.301 395.922 393.152 396.244C393.004 396.566 392.925 396.915 392.92 397.27C392.85 398.77 393.99 400.27 395.08 401.15C396.539 402.053 398.127 402.728 399.79 403.15C399.79 403.59 399.7 404.04 399.67 404.49C399.48 406.64 399.31 408.78 399.07 410.88C398.99 411.62 398.88 412.35 398.77 413.07C398.77 412.59 398.77 412.19 398.77 412.13C398.46 410.25 396.77 406.8 394.65 406.48C394.298 406.436 393.941 406.467 393.602 406.571C393.263 406.675 392.95 406.849 392.683 407.082C392.416 407.315 392.201 407.602 392.052 407.924C391.904 408.246 391.825 408.595 391.82 408.95C391.63 410.39 392.77 411.86 393.86 412.77Z" fill="#263238"/>
<path d="M449.71 395.05C448.02 393.74 444.35 394.9 442.78 395.98C442.64 396.07 440.68 397.77 440.72 397.79C440.14 397.96 439.52 398.16 438.84 398.39C437.6 398.83 436.2 399.33 434.72 399.98C433.11 400.656 431.544 401.431 430.03 402.3C428.325 403.258 426.709 404.366 425.2 405.61L425.15 405.66C425.48 405.13 426.38 403.66 426.43 403.51C427.21 401.77 427.7 397.95 426.11 396.51C425.841 396.28 425.526 396.11 425.186 396.01C424.846 395.91 424.489 395.882 424.138 395.929C423.787 395.977 423.45 396.097 423.149 396.283C422.848 396.47 422.589 396.717 422.39 397.01C421.5 398.22 421.64 400.07 422.04 401.44C422.51 402.98 424.79 405.6 424.98 405.81C423.472 407.108 422.058 408.512 420.75 410.01C419.97 410.88 419.22 411.77 418.48 412.68C418.76 412.22 419 411.8 419.03 411.74C419.81 410 420.3 406.18 418.71 404.74C418.441 404.51 418.126 404.34 417.786 404.24C417.446 404.14 417.089 404.112 416.738 404.159C416.387 404.207 416.05 404.327 415.749 404.513C415.448 404.7 415.189 404.947 414.99 405.24C414.1 406.45 414.24 408.31 414.65 409.67C415.369 411.224 416.324 412.657 417.48 413.92L416.64 414.92C415.3 416.62 413.97 418.31 412.64 419.92C412.17 420.49 411.64 421.04 411.19 421.58L411.66 420.76C412.44 419.03 412.93 415.21 411.34 413.76C411.071 413.53 410.756 413.36 410.416 413.26C410.076 413.16 409.719 413.132 409.368 413.179C409.017 413.227 408.68 413.347 408.379 413.533C408.078 413.72 407.819 413.967 407.62 414.26C406.73 415.47 406.87 417.32 407.28 418.69C407.948 420.264 408.867 421.72 410 423L409 424.08L409.88 424.61C410.49 423.98 411.08 423.32 411.67 422.61C412.686 423.976 413.907 425.177 415.29 426.17C415.946 426.571 416.681 426.823 417.445 426.909C418.208 426.996 418.981 426.914 419.71 426.67C420.035 426.53 420.327 426.322 420.566 426.061C420.806 425.8 420.988 425.492 421.1 425.156C421.212 424.82 421.252 424.464 421.218 424.112C421.184 423.759 421.075 423.418 420.9 423.11C419.79 421.28 415.9 421.04 414.1 421.48C413.98 421.48 412.69 421.97 411.98 422.24C412.45 421.68 412.93 421.13 413.39 420.55C414.72 418.89 416.02 417.16 417.32 415.44L418.52 413.88C418.7 414.11 420.84 416.88 422.26 417.58C422.915 417.979 423.648 418.23 424.41 418.316C425.171 418.402 425.943 418.322 426.67 418.08C426.995 417.94 427.287 417.732 427.526 417.471C427.766 417.21 427.948 416.902 428.06 416.566C428.172 416.23 428.213 415.874 428.178 415.522C428.144 415.169 428.035 414.828 427.86 414.52C426.76 412.69 422.92 412.44 421.06 412.88C420.92 412.88 419.06 413.59 418.6 413.78C419.48 412.63 420.37 411.5 421.3 410.41C422.538 408.935 423.874 407.545 425.3 406.25C425.38 406.36 427.59 409.25 429.05 409.98C430.31 410.64 432.1 411.13 433.46 410.48C433.786 410.341 434.079 410.134 434.319 409.873C434.56 409.613 434.743 409.305 434.856 408.969C434.969 408.633 435.01 408.276 434.977 407.923C434.943 407.57 434.835 407.229 434.66 406.92C433.55 405.09 429.71 404.85 427.86 405.28C427.71 405.28 425.71 406.04 425.35 406.2L425.6 405.96C427.061 404.7 428.63 403.573 430.29 402.59C431.2 402.03 432.1 401.59 432.99 401.11C433.35 401.68 434.99 404.29 436.25 405.11C437.51 405.93 439.16 406.58 440.58 406.11C440.918 406.006 441.231 405.831 441.498 405.598C441.765 405.365 441.979 405.078 442.128 404.757C442.277 404.435 442.357 404.086 442.363 403.732C442.368 403.378 442.299 403.026 442.16 402.7C441.26 400.76 437.47 400.1 435.58 400.33C435.47 400.33 434.44 400.59 433.69 400.78C434.1 400.58 434.51 400.37 434.9 400.19C436.37 399.51 437.75 398.98 438.98 398.52L440.92 397.85C442.377 398.768 443.965 399.459 445.63 399.9C446.386 400.037 447.162 400.007 447.905 399.812C448.648 399.617 449.339 399.261 449.93 398.77C450.176 398.52 450.367 398.221 450.491 397.892C450.614 397.563 450.667 397.212 450.647 396.861C450.626 396.511 450.532 396.168 450.37 395.856C450.209 395.544 449.984 395.27 449.71 395.05Z" fill="#263238"/>
<path d="M398.72 432.16L399.87 432.87L400.58 432.35L400.85 432.15L398.72 432.16Z" fill="#263238"/>
<path d="M67.4099 366C67.113 366.193 66.8599 366.446 66.6671 366.743C66.4742 367.04 66.3458 367.374 66.2902 367.724C66.2346 368.074 66.253 368.431 66.3442 368.773C66.4355 369.115 66.5975 369.435 66.8199 369.71C67.5347 370.537 68.534 371.065 69.6199 371.19L71.7699 366.28C70.2599 365.6 68.5199 365.28 67.4099 366Z" fill="#263238"/>
<path d="M77.36 359.55C76.6837 360.056 76.2032 360.78 76 361.6L79.77 359.49C79.3987 359.287 78.9802 359.185 78.5569 359.196C78.1337 359.206 77.7207 359.328 77.36 359.55V359.55Z" fill="#263238"/>
<path d="M77.9999 323.81C79.2799 324.89 82.8899 325.87 82.8899 325.87C82.8899 325.87 82.8199 323.29 82.7899 323.13C82.4899 321.25 80.7899 317.79 78.6999 317.46C78.3478 317.413 77.9899 317.442 77.6497 317.544C77.3095 317.646 76.9948 317.819 76.7263 318.051C76.4579 318.284 76.2419 318.57 76.0925 318.893C75.9432 319.215 75.8639 319.565 75.8599 319.92C75.8199 321.42 76.9999 322.89 77.9999 323.81Z" fill="#263238"/>
<path d="M51.67 335.15C51.67 335.15 50.18 333.04 50.07 332.92C48.79 331.52 45.47 329.56 43.53 330.45C43.2125 330.608 42.9318 330.83 42.7062 331.104C42.4806 331.377 42.3152 331.695 42.2209 332.036C42.1265 332.378 42.1052 332.736 42.1585 333.086C42.2118 333.437 42.3384 333.772 42.53 334.07C43.29 335.37 45.04 335.97 46.46 336.14C48.11 336.33 51.67 335.16 51.67 335.15Z" fill="#263238"/>
<path d="M49.79 327.17C49.89 327.77 50 328.41 50.13 329.11C50.39 330.4 50.69 331.85 51.13 333.41C51.5755 335.108 52.1232 336.778 52.77 338.41C53.484 340.23 54.3574 341.984 55.38 343.65V343.71C54.91 343.31 53.54 342.21 53.38 342.14C51.77 341.14 48.05 340.14 46.38 341.48C46.1152 341.716 45.9033 342.006 45.7582 342.33C45.6131 342.654 45.5381 343.005 45.5381 343.36C45.5381 343.715 45.6131 344.066 45.7582 344.39C45.9033 344.714 46.1152 345.004 46.38 345.24C47.46 346.29 49.31 346.41 50.72 346.24C52.31 346 55.22 344.09 55.45 343.94C56.5404 345.608 57.7362 347.204 59.03 348.72C59.78 349.6 60.56 350.47 61.36 351.33L60.5 350.65C58.89 349.65 55.17 348.65 53.5 350C53.2366 350.237 53.0259 350.527 52.8817 350.851C52.7376 351.175 52.6631 351.525 52.6631 351.88C52.6631 352.234 52.7376 352.585 52.8817 352.909C53.0259 353.233 53.2366 353.523 53.5 353.76C54.1106 354.225 54.8154 354.551 55.565 354.715C56.3146 354.879 57.091 354.877 57.84 354.71C59.4796 354.211 61.034 353.466 62.45 352.5C62.76 352.82 63.06 353.15 63.37 353.5C64.86 355.06 66.37 356.61 67.77 358.18C68.27 358.73 68.77 359.29 69.22 359.85L68.47 359.27C66.86 358.27 63.14 357.27 61.47 358.61C61.2066 358.847 60.9959 359.137 60.8517 359.461C60.7076 359.785 60.6331 360.135 60.6331 360.49C60.6331 360.844 60.7076 361.195 60.8517 361.519C60.9959 361.843 61.2066 362.133 61.47 362.37C62.55 363.42 64.41 363.54 65.81 363.37C67.4081 362.892 68.9227 362.171 70.3 361.23C70.77 361.81 71.24 362.4 71.67 363C71.95 363.41 72.25 363.78 72.51 364.21V364.27L72.89 363.41L73.11 363.28L72.46 362.4C71.74 361.45 70.97 360.52 70.17 359.61C71.6523 358.789 73.0011 357.747 74.17 356.52C74.657 355.925 75.0086 355.232 75.2003 354.487C75.392 353.743 75.4192 352.966 75.28 352.21C75.1856 351.869 75.0205 351.551 74.7952 351.278C74.57 351.005 74.2897 350.783 73.9727 350.625C73.6558 350.467 73.3091 350.378 72.9554 350.364C72.6017 350.349 72.2489 350.409 71.92 350.54C69.92 351.38 69.18 355.15 69.36 357.04C69.36 357.16 69.65 358.51 69.82 359.25C69.33 358.7 68.82 358.15 68.35 357.61C66.88 356.06 65.35 354.54 63.83 353.01L62.45 351.61C62.7 351.46 65.7 349.73 66.63 348.42C67.1796 347.836 67.5887 347.134 67.8261 346.368C68.0635 345.602 68.123 344.792 68 344C67.9054 343.659 67.7402 343.341 67.5151 343.068C67.2901 342.795 67.0101 342.571 66.6934 342.413C66.3767 342.255 66.0303 342.165 65.6766 342.149C65.3229 342.133 64.9697 342.191 64.64 342.32C62.64 343.16 61.9 346.93 62.08 348.83C62.08 348.97 62.49 350.91 62.62 351.4C61.62 350.4 60.62 349.32 59.62 348.26C58.3347 346.827 57.1454 345.31 56.06 343.72C56.18 343.65 59.32 341.85 60.27 340.52C60.7568 339.927 61.1083 339.235 61.3 338.493C61.4918 337.75 61.5191 336.974 61.38 336.22C61.2903 335.873 61.1278 335.549 60.9033 335.269C60.6788 334.989 60.3974 334.76 60.0778 334.598C59.7582 334.435 59.4077 334.342 59.0494 334.326C58.6912 334.309 58.3335 334.368 58 334.5C56 335.34 55.26 339.11 55.44 341.01C55.44 341.16 55.89 343.24 55.99 343.61L55.79 343.34C54.7459 341.715 53.8458 340.002 53.1 338.22C52.68 337.22 52.33 336.28 52.01 335.34C53.6158 334.684 55.1102 333.784 56.44 332.67C56.9864 332.134 57.4091 331.484 57.6786 330.767C57.948 330.051 58.0577 329.284 58 328.52C57.9388 328.173 57.8059 327.843 57.6099 327.551C57.4139 327.259 57.159 327.01 56.8616 326.822C56.5642 326.634 56.2308 326.51 55.8827 326.458C55.5346 326.406 55.1795 326.427 54.84 326.52C52.84 327.14 51.62 330.8 51.58 332.71C51.58 332.81 51.68 333.87 51.76 334.64C51.63 334.21 51.48 333.77 51.35 333.36C50.88 331.82 50.55 330.36 50.27 329.09C50.11 328.36 49.98 327.7 49.87 327.09C50.9847 325.774 51.8887 324.293 52.55 322.7C52.793 321.972 52.8732 321.2 52.7851 320.438C52.697 319.676 52.4426 318.943 52.04 318.29C51.8293 318.005 51.5608 317.767 51.252 317.593C50.9433 317.419 50.6012 317.312 50.2482 317.279C49.8953 317.246 49.5393 317.288 49.2036 317.401C48.8679 317.515 48.56 317.699 48.3 317.94C46.77 319.43 47.4 323.22 48.3 324.94C48.36 325 49.77 327.2 49.79 327.17Z" fill="#263238"/>
<path d="M76.1901 334.58C77.6501 335.25 81.1301 335.27 81.4101 335.28C81.3885 337.285 81.5021 339.29 81.7501 341.28C81.8901 342.43 82.0701 343.59 82.2601 344.74C82.0901 344.23 81.9401 343.74 81.9101 343.74C81.1301 342 78.5901 339.11 76.4701 339.35C76.119 339.4 75.7822 339.523 75.4816 339.711C75.1811 339.899 74.9234 340.148 74.7254 340.442C74.5274 340.737 74.3934 341.069 74.3322 341.418C74.271 341.768 74.2839 342.126 74.3701 342.47C74.6901 343.94 76.1701 345.06 77.4701 345.66C79.1106 346.153 80.8174 346.389 82.5301 346.36C82.6101 346.8 82.6801 347.24 82.7601 347.68C83.1401 349.81 83.5301 351.92 83.8501 354.01C83.9601 354.75 84.0401 355.48 84.1301 356.21L83.8301 355.31C83.0401 353.57 80.5001 350.68 78.3801 350.92C78.0335 350.97 77.7012 351.092 77.4043 351.278C77.1074 351.464 76.8525 351.709 76.6558 351.999C76.4592 352.289 76.3251 352.616 76.2621 352.961C76.1991 353.306 76.2087 353.659 76.2901 354C76.6101 355.47 78.0901 356.59 79.3801 357.19C80.4804 357.577 81.6343 357.789 82.8001 357.82L85.1301 356.51L86.9701 355.51L92.0001 350C91.8863 349.958 91.7693 349.924 91.6501 349.9C89.5501 349.52 86.8201 352.23 85.9201 353.9C85.9201 354.01 85.3601 355.29 85.0901 355.99C84.9901 355.27 84.8901 354.55 84.7601 353.82C84.4001 351.72 83.9601 349.61 83.5401 347.49C83.4001 346.85 83.2801 346.2 83.1601 345.55C83.4501 345.55 86.9101 345.78 88.4001 345.21C89.7301 344.7 91.2901 343.68 91.7001 342.21C91.8034 341.873 91.8347 341.518 91.7922 341.168C91.7497 340.818 91.6342 340.481 91.4533 340.178C91.2723 339.876 91.0299 339.615 90.7417 339.412C90.4535 339.209 90.1259 339.069 89.7801 339C87.6801 338.62 84.9601 341.33 84.0601 343C83.9901 343.13 83.2601 345 83.0601 345.45C82.7901 344.02 82.5301 342.6 82.3301 341.19C82.0473 339.286 81.8903 337.365 81.8601 335.44C82.0001 335.44 85.6101 335.68 87.1401 335.1C87.8754 334.87 88.5517 334.483 89.1217 333.965C89.6917 333.447 90.1417 332.81 90.4401 332.1C90.5502 331.763 90.5881 331.407 90.5513 331.055C90.5144 330.702 90.4037 330.362 90.2263 330.055C90.0489 329.748 89.8088 329.482 89.5217 329.275C89.2346 329.067 88.9069 328.922 88.5601 328.85C86.4601 328.46 83.7301 331.18 82.8301 332.85C82.7601 332.98 81.9801 334.96 81.8301 335.33C81.8301 335.22 81.8301 335.1 81.8301 334.99C81.8599 333.06 82.054 331.137 82.4101 329.24C82.6001 328.19 82.8401 327.24 83.0901 326.24C83.7601 326.35 86.8201 326.83 88.2501 326.45C89.6801 326.07 91.2501 325.25 91.8601 323.86C92.0055 323.537 92.0815 323.187 92.0832 322.833C92.0849 322.479 92.0122 322.129 91.8699 321.804C91.7275 321.48 91.5187 321.189 91.2569 320.951C90.9951 320.712 90.6862 320.532 90.3501 320.42C88.3501 319.81 85.3501 322.21 84.2201 323.78C84.1601 323.86 83.6601 324.78 83.3001 325.48C83.4201 325.05 83.5401 324.6 83.6601 324.19C84.1301 322.65 84.6601 321.26 85.1101 320.03C85.3901 319.34 85.6501 318.72 85.8901 318.14C86.6101 317.9 89.4701 316.94 90.5501 315.96C91.6301 314.98 92.6901 313.49 92.5501 311.96C92.5308 311.606 92.4372 311.26 92.2754 310.944C92.1136 310.628 91.8872 310.35 91.6109 310.127C91.3346 309.905 91.0146 309.743 90.6716 309.652C90.3286 309.561 89.9704 309.543 89.6201 309.6C87.5201 310 85.9601 313.52 85.7201 315.41C85.7201 315.58 85.7201 318.17 85.7201 318.16C85.4701 318.72 85.2101 319.31 84.9301 319.97C84.4401 321.19 83.9301 322.57 83.3901 324.11C82.8378 325.766 82.3804 327.452 82.0201 329.16C81.6426 331.085 81.4352 333.039 81.4001 335V335.07C81.2301 334.47 80.6901 332.8 80.6401 332.68C79.8501 330.94 77.3101 328.05 75.1901 328.29C74.8392 328.339 74.5026 328.462 74.2024 328.651C73.9022 328.839 73.6451 329.089 73.4478 329.383C73.2506 329.677 73.1177 330.01 73.0578 330.359C72.9978 330.709 73.0123 331.067 73.1001 331.41C73.4201 332.86 74.9001 334 76.1901 334.58Z" fill="#263238"/>
<path d="M221.22 356.76C220.869 356.81 220.532 356.932 220.232 357.121C219.932 357.309 219.675 357.559 219.478 357.853C219.28 358.147 219.147 358.48 219.088 358.83C219.028 359.179 219.042 359.537 219.13 359.88C219.38 360.606 219.786 361.267 220.32 361.819C220.854 362.37 221.503 362.797 222.22 363.07C223.204 363.424 224.235 363.626 225.28 363.67L226.17 362.61L226.67 361.16C225.88 359.41 223.34 356.52 221.22 356.76Z" fill="#263238"/>
<path d="M210.25 371.87C209.953 372.063 209.7 372.316 209.507 372.613C209.315 372.91 209.186 373.244 209.131 373.594C209.075 373.944 209.093 374.301 209.185 374.643C209.276 374.985 209.438 375.304 209.66 375.58C210.56 376.79 212.38 377.18 213.8 377.18C214.73 377.112 215.644 376.903 216.51 376.56L217.09 373.64L217.03 373.58C215.59 372.33 212.07 370.77 210.25 371.87Z" fill="#263238"/>
<path d="M220.2 365.47C218.57 366.47 218.25 369.69 218.54 371.67L223.33 365.98C222.952 365.54 222.431 365.247 221.858 365.153C221.285 365.06 220.698 365.172 220.2 365.47V365.47Z" fill="#263238"/>
<path d="M205.43 358.32C205.74 358.64 206.04 358.97 206.35 359.32C207.84 360.88 209.35 362.43 210.75 364C211.25 364.55 211.75 365.11 212.2 365.67L211.45 365.09C209.84 364.09 206.12 363.09 204.45 364.43C204.187 364.667 203.976 364.957 203.832 365.281C203.688 365.605 203.613 365.956 203.613 366.31C203.613 366.665 203.688 367.015 203.832 367.339C203.976 367.663 204.187 367.953 204.45 368.19C205.53 369.24 207.39 369.36 208.79 369.19C210.388 368.713 211.903 367.991 213.28 367.05C213.75 367.64 214.22 368.22 214.65 368.82C214.93 369.23 215.23 369.6 215.49 370.03L216.28 371.27C216.64 371.89 217.01 372.51 217.36 373.12L218.13 372.21C217.83 371.71 217.52 371.21 217.19 370.68L216.37 369.45C216.11 369.04 215.78 368.63 215.48 368.22C214.76 367.22 213.99 366.34 213.19 365.43C214.672 364.609 216.021 363.567 217.19 362.34C217.677 361.746 218.029 361.052 218.221 360.308C218.412 359.563 218.439 358.786 218.3 358.03C218.211 357.691 218.053 357.374 217.834 357.099C217.616 356.825 217.343 356.599 217.032 356.436C216.722 356.273 216.381 356.177 216.031 356.154C215.681 356.13 215.33 356.18 215 356.3C213 357.14 212.26 360.91 212.44 362.8C212.44 362.92 212.73 364.27 212.9 365.01C212.41 364.46 211.9 363.91 211.43 363.38C209.96 361.83 208.43 360.3 206.91 358.77L205.53 357.37C205.78 357.22 208.78 355.49 209.71 354.18C210.198 353.588 210.549 352.896 210.741 352.153C210.933 351.41 210.96 350.634 210.82 349.88C210.726 349.539 210.56 349.221 210.335 348.948C210.11 348.675 209.83 348.452 209.514 348.293C209.197 348.135 208.851 348.045 208.497 348.029C208.143 348.013 207.79 348.071 207.46 348.2C205.46 349.04 204.72 352.81 204.9 354.71C204.9 354.85 205.31 356.79 205.44 357.28C204.44 356.28 203.44 355.2 202.44 354.14C201.155 352.707 199.966 351.19 198.88 349.6C199 349.53 202.14 347.73 203.09 346.4C203.577 345.807 203.929 345.115 204.12 344.373C204.312 343.63 204.339 342.855 204.2 342.1C204.106 341.759 203.94 341.441 203.715 341.168C203.49 340.895 203.21 340.672 202.894 340.513C202.577 340.355 202.231 340.265 201.877 340.249C201.523 340.233 201.17 340.291 200.84 340.42C198.84 341.26 198.1 345.03 198.28 346.93C198.28 347.08 198.73 349.16 198.83 349.53L198.63 349.26C197.586 347.635 196.686 345.922 195.94 344.14C195.52 343.14 195.17 342.2 194.85 341.26C196.454 340.604 197.948 339.707 199.28 338.6C200.23 337.53 201.14 335.92 200.85 334.44C200.789 334.094 200.656 333.764 200.46 333.471C200.264 333.179 200.009 332.931 199.712 332.742C199.414 332.554 199.081 332.43 198.733 332.378C198.385 332.326 198.03 332.347 197.69 332.44C195.69 333.06 194.47 336.73 194.43 338.63C194.43 338.73 194.53 339.79 194.61 340.56C194.48 340.13 194.33 339.69 194.2 339.28C193.73 337.74 193.4 336.28 193.12 335.01C192.96 334.28 192.83 333.62 192.72 333.01C193.835 331.694 194.739 330.213 195.4 328.62C195.643 327.893 195.723 327.12 195.635 326.358C195.547 325.596 195.293 324.863 194.89 324.21C194.679 323.925 194.411 323.688 194.102 323.513C193.793 323.339 193.451 323.232 193.098 323.199C192.745 323.166 192.389 323.208 192.054 323.322C191.718 323.436 191.41 323.619 191.15 323.86C189.62 325.35 190.25 329.15 191.15 330.86C191.23 331.01 192.64 333.18 192.66 333.15C192.76 333.75 192.87 334.39 193 335.09C193.26 336.38 193.56 337.83 194 339.39C194.446 341.088 194.993 342.758 195.64 344.39C196.356 346.213 197.229 347.969 198.25 349.64C198.254 349.657 198.254 349.674 198.25 349.69C197.78 349.29 196.41 348.19 196.3 348.12C194.69 347.12 190.97 346.12 189.3 347.47C189.037 347.706 188.827 347.996 188.682 348.319C188.538 348.642 188.464 348.991 188.464 349.345C188.464 349.699 188.538 350.049 188.682 350.372C188.827 350.695 189.037 350.984 189.3 351.22C190.38 352.28 192.23 352.39 193.64 352.22C195.23 351.98 198.14 350.07 198.37 349.92C199.461 351.588 200.656 353.185 201.95 354.7C202.7 355.58 203.48 356.45 204.28 357.31L203.42 356.63C201.81 355.63 198.09 354.63 196.42 355.98C196.155 356.217 195.943 356.506 195.798 356.83C195.653 357.154 195.578 357.505 195.578 357.86C195.578 358.215 195.653 358.566 195.798 358.89C195.943 359.214 196.155 359.504 196.42 359.74C197.49 360.79 199.35 360.91 200.75 360.69C202.424 360.148 204.003 359.348 205.43 358.32V358.32Z" fill="#263238"/>
<path d="M220.88 329.73C222.16 330.81 225.77 331.79 225.77 331.79C225.77 331.79 225.7 329.21 225.67 329.05C225.37 327.17 223.67 323.71 221.58 323.38C221.228 323.335 220.871 323.365 220.531 323.467C220.192 323.57 219.878 323.743 219.61 323.975C219.342 324.207 219.126 324.493 218.976 324.815C218.826 325.136 218.745 325.485 218.74 325.84C218.66 327.34 219.79 328.81 220.88 329.73Z" fill="#263238"/>
<path d="M194.51 341.08C194.51 341.08 193.02 338.96 192.91 338.84C191.63 337.44 188.31 335.48 186.37 336.37C186.052 336.528 185.772 336.75 185.546 337.024C185.32 337.297 185.155 337.615 185.061 337.957C184.966 338.298 184.945 338.656 184.998 339.006C185.052 339.357 185.178 339.692 185.37 339.99C186.13 341.29 187.88 341.89 189.3 342.06C191 342.25 194.51 341.08 194.51 341.08Z" fill="#263238"/>
<path d="M219 340.5C220.46 341.17 223.94 341.2 224.22 341.2C224.201 343.189 224.314 345.176 224.56 347.15C224.7 348.3 224.88 349.46 225.07 350.62C224.9 350.1 224.75 349.62 224.72 349.62C223.94 347.88 221.4 344.99 219.28 345.23C218.929 345.28 218.592 345.402 218.292 345.591C217.991 345.779 217.733 346.028 217.535 346.322C217.337 346.617 217.203 346.949 217.142 347.298C217.081 347.648 217.094 348.006 217.18 348.35C217.5 349.82 218.98 350.94 220.28 351.54C221.921 352.033 223.627 352.269 225.34 352.24C225.42 352.68 225.49 353.12 225.57 353.56C225.95 355.69 226.34 357.81 226.66 359.89C226.66 360.2 226.73 360.51 226.77 360.82L227.4 359.02C227.06 357.16 226.68 355.29 226.31 353.42C226.18 352.78 226.05 352.13 225.93 351.49C227.294 351.572 228.662 351.542 230.02 351.4L231.78 346.31L233.17 345.1C232.987 345.01 232.791 344.946 232.59 344.91C230.49 344.53 227.77 347.24 226.87 348.91C226.8 349.04 226.07 350.91 225.87 351.36C225.6 349.93 225.34 348.51 225.14 347.1C224.857 345.196 224.7 343.275 224.67 341.35C224.81 341.35 228.42 341.59 229.95 341.01C230.685 340.78 231.362 340.393 231.932 339.875C232.502 339.357 232.952 338.72 233.25 338.01C233.36 337.673 233.398 337.317 233.361 336.965C233.324 336.612 233.214 336.272 233.036 335.965C232.859 335.658 232.619 335.392 232.332 335.185C232.045 334.977 231.717 334.832 231.37 334.76C229.27 334.37 226.54 337.09 225.64 338.76C225.57 338.89 224.79 340.87 224.64 341.24C224.64 341.13 224.64 341.02 224.64 340.9C224.67 338.97 224.864 337.047 225.22 335.15C225.41 334.15 225.65 333.15 225.9 332.15C226.57 332.26 229.63 332.74 231.06 332.36C232.49 331.98 234.06 331.16 234.67 329.77C234.815 329.447 234.891 329.097 234.893 328.743C234.895 328.389 234.822 328.039 234.68 327.714C234.538 327.39 234.329 327.099 234.067 326.861C233.805 326.622 233.496 326.441 233.16 326.33C231.16 325.72 228.16 328.12 227.03 329.69C226.97 329.77 226.47 330.69 226.11 331.39C226.23 330.96 226.35 330.51 226.47 330.1C226.94 328.56 227.47 327.17 227.92 325.94C228.2 325.25 228.46 324.63 228.7 324.05C229.42 323.81 232.28 322.85 233.36 321.87C234.44 320.89 235.5 319.4 235.36 317.87C235.341 317.516 235.247 317.169 235.085 316.854C234.924 316.538 234.697 316.26 234.421 316.037C234.145 315.815 233.825 315.653 233.482 315.562C233.139 315.471 232.78 315.453 232.43 315.51C230.33 315.91 228.77 319.43 228.54 321.32C228.54 321.49 228.49 324.08 228.54 324.07C228.29 324.63 228.03 325.22 227.76 325.88C227.26 327.1 226.71 328.48 226.21 330.02C225.658 331.676 225.2 333.362 224.84 335.07C224.434 336.985 224.196 338.933 224.13 340.89V341C223.96 340.4 223.42 338.73 223.37 338.61C222.58 336.87 220.04 333.98 217.92 334.22C217.569 334.269 217.233 334.392 216.932 334.581C216.632 334.769 216.375 335.018 216.178 335.313C215.981 335.607 215.848 335.94 215.788 336.289C215.728 336.639 215.742 336.997 215.83 337.34C216.26 338.78 217.74 339.9 219 340.5Z" fill="#263238"/>
<path d="M370.64 253.16L366.65 248.21L370.24 245.38L372.65 248.39L371.83 250.3L372.51 251.82L371.1 252.83" fill="white"/>
<path d="M370.64 253.16L366.65 248.21L370.24 245.38L372.65 248.39L371.83 250.3L372.51 251.82L371.1 252.83" stroke="#263238" stroke-linecap="round" stroke-linejoin="round"/>
<path d="M403 261.75C403 261.75 400.27 259.31 399.25 259.47C398.23 259.63 384.85 261.87 384.85 261.87L372.54 251.82L370.66 253.16L382.44 267.94L395.24 267.14L392.49 281.14L380.84 290L399.84 301.35L403.67 289.27L418.8 274.37L412.92 267L403 261.75Z" fill="black" stroke="#263238" stroke-linecap="round" stroke-linejoin="round"/>
<path d="M406.9 258.52L404.75 263.04L403.96 262.32L402.45 273.31L412.93 266.96L411.88 265.3L412.12 261.87L406.9 258.52Z" fill="white" stroke="#263238" stroke-linecap="round" stroke-linejoin="round"/>
<path d="M402.45 273.31L408.58 269.59L403.46 265.99L402.45 273.31Z" fill="white" stroke="#263238" stroke-linecap="round" stroke-linejoin="round"/>
<path d="M419 247.75C419 247.75 423.63 242.33 428.34 245.75C433.05 249.17 431.75 252.51 435.11 250.68C438.47 248.85 444.78 244.2 448.58 250.12C452.38 256.04 449.45 262.24 447.06 263.66C444.67 265.08 445.3 262.37 445.35 261.06C445.4 259.75 441.48 258.06 440.61 260.76C439.74 263.46 435.17 267.62 429.37 267.23C423.57 266.84 422.45 259.71 422.58 255.52C422.572 254.262 422.236 253.029 421.607 251.94C420.978 250.851 420.076 249.945 418.99 249.31L419 247.75Z" fill="#263238" stroke="#263238" stroke-linecap="round" stroke-linejoin="round"/>
<path d="M407.9 246.63C407.9 246.63 405 253.09 405.6 256.9C406.2 260.71 405.88 263.64 407.82 264.38C409.76 265.12 416.19 261.23 417.61 258.66C419.03 256.09 421.06 252.38 420.5 248.82C419.94 245.26 413.12 240.08 407.9 246.63Z" fill="white" stroke="#263238" stroke-linecap="round" stroke-linejoin="round"/>
<path d="M409 253.41C408.85 253.91 408.53 254.25 408.28 254.17C408.03 254.09 407.95 253.63 408.1 253.17C408.25 252.71 408.57 252.33 408.82 252.41C409.07 252.49 409.11 252.91 409 253.41Z" fill="#263238"/>
<path d="M413.62 255.33C413.47 255.83 413.14 256.18 412.89 256.1C412.64 256.02 412.56 255.56 412.71 255.1C412.86 254.64 413.19 254.26 413.44 254.33C413.69 254.4 413.77 254.83 413.62 255.33Z" fill="#263238"/>
<path d="M410.17 254.24C410.17 254.24 410.47 254.46 410.05 255.24C409.63 256.02 408.62 255.74 408.73 256.41C408.84 257.08 410.11 257.41 410.11 257.41" stroke="#263238" stroke-linecap="round" stroke-linejoin="round"/>
<path d="M407.84 258.57C407.84 258.57 409.45 260.09 410.89 259.72" stroke="#263238" stroke-linecap="round" stroke-linejoin="round"/>
<path d="M415.14 253.73L412.15 252.97" stroke="#263238" stroke-linecap="round" stroke-linejoin="round"/>
<path d="M409.79 251.84L408.36 250.56" stroke="#263238" stroke-linecap="round" stroke-linejoin="round"/>
<path d="M407.9 246.63C407.9 246.63 407.47 247.63 406.97 249C408.66 248.12 411.57 247.13 414.23 248.77C416.89 250.41 418.23 254.18 418.77 256.49C419.9 254.2 420.91 251.49 420.5 248.82C419.94 245.26 413.12 240.08 407.9 246.63Z" fill="#263238" stroke="#263238" stroke-linecap="round" stroke-linejoin="round"/>
<path d="M418.08 256.39C418.08 256.39 420.16 254.48 420.08 256.22C420 257.96 417.61 258.99 417.08 259.07C416.55 259.15 416.59 258.48 416.59 258.48" fill="white"/>
<path d="M418.08 256.39C418.08 256.39 420.16 254.48 420.08 256.22C420 257.96 417.61 258.99 417.08 259.07C416.55 259.15 416.59 258.48 416.59 258.48" stroke="#263238" stroke-linecap="round" stroke-linejoin="round"/>
<path d="M418.79 274.38L415.59 297.19C415.52 297.676 415.281 298.121 414.915 298.448C414.55 298.776 414.08 298.964 413.59 298.98H412.9C412.368 299 411.848 298.815 411.448 298.464C411.048 298.112 410.798 297.62 410.75 297.09L409.5 283.37L418.79 274.38Z" fill="black" stroke="#263238" stroke-linecap="round" stroke-linejoin="round"/>
<path d="M413 294.06L402.73 285L400.43 286.93L410.29 298.34C410.506 298.573 410.772 298.754 411.069 298.869C411.365 298.983 411.684 299.028 412 299H412.81C413.121 298.987 413.424 298.905 413.699 298.76C413.974 298.615 414.213 298.411 414.399 298.162C414.585 297.913 414.713 297.625 414.773 297.32C414.834 297.016 414.826 296.701 414.75 296.4V296.4" fill="black"/>
<path d="M413 294.06L402.73 285L400.43 286.93L410.29 298.34C410.506 298.573 410.772 298.754 411.069 298.869C411.365 298.983 411.684 299.028 412 299H412.81C413.121 298.987 413.424 298.905 413.699 298.76C413.974 298.615 414.213 298.411 414.399 298.162C414.585 297.913 414.713 297.625 414.773 297.32C414.834 297.016 414.826 296.701 414.75 296.4V296.4" stroke="#263238" stroke-linecap="round" stroke-linejoin="round"/>
<path d="M402.73 284.99L400.32 281.14L394.9 280.54L394.93 283.77L397.53 285.94L399.18 286.17L400.43 286.92L402.73 284.99Z" fill="white" stroke="#263238" stroke-linecap="round" stroke-linejoin="round"/>
<path d="M373.71 297C373.71 297 362.39 311.73 363.01 314.17C363.63 316.61 380.17 342.44 380.17 342.44L382.47 340.92L373.38 312.54L391.65 305.27L373.71 297Z" fill="white" stroke="#263238" stroke-linecap="round" stroke-linejoin="round"/>
<path d="M382.83 302.46L384.17 308.35L390.22 306.03L382.83 302.46Z" fill="#263238" stroke="#263238" stroke-miterlimit="10"/>
<path d="M380.17 342.39L377.17 347.39C377.17 347.39 374.78 350.97 375.48 351.19C377.01 351.68 380.97 349.08 382.1 348.28C383.23 347.48 384.44 346.95 385.19 346.42C385.94 345.89 387.44 345.58 385.39 343.68C384.7 343.05 382.51 340.87 382.51 340.87L380.17 342.39Z" fill="white" stroke="#263238" stroke-linecap="round" stroke-linejoin="round"/>
<path d="M398.86 292.3C393.764 290.268 388.552 288.541 383.25 287.13C374.08 284.64 367.3 282.71 367.43 285C367.56 287.29 384.24 324.18 384.24 324.18L387.1 323.27L382.74 302.93C382.74 302.93 389.74 307.83 394.91 305.4C400.08 302.97 402.05 296.4 401.69 294.16" fill="#263238"/>
<path d="M398.86 292.3C393.764 290.268 388.552 288.541 383.25 287.13C374.08 284.64 367.3 282.71 367.43 285C367.56 287.29 384.24 324.18 384.24 324.18L387.1 323.27L382.74 302.93C382.74 302.93 389.74 307.83 394.91 305.4C400.08 302.97 402.05 296.4 401.69 294.16" stroke="#263238" stroke-linecap="round" stroke-linejoin="round"/>
<path d="M381.3 286.6C373.14 284.39 367.3 282.87 367.43 285C367.56 287.29 384.24 324.18 384.24 324.18L387.1 323.27L382.74 302.93C384.23 299.3 382.65 291.67 381.3 286.6Z" fill="white" stroke="#263238" stroke-linecap="round" stroke-linejoin="round"/>
<path d="M382.74 302.93L375.55 292.5" stroke="#263238" stroke-linecap="round" stroke-linejoin="round"/>
<path d="M384.24 324.18L381.56 329.23C381.56 329.23 376.15 334.47 377.35 334.74C378.55 335.01 388.72 330.64 389.48 329.6C390.24 328.56 387.1 323.27 387.1 323.27L384.24 324.18Z" fill="white" stroke="#263238" stroke-linecap="round" stroke-linejoin="round"/>
<path d="M371.8 250.72L397.02 280.75" stroke="#263238" stroke-miterlimit="10"/>
<path d="M294.2 157.72L368.21 246.28" stroke="#263238" stroke-miterlimit="10"/>
<path d="M399.18 286.16V432.16" stroke="#263238" stroke-miterlimit="10"/>
<path d="M158.33 245.59C158.33 245.59 163.65 276.72 157.87 286.59C152.09 296.46 137.59 289.36 137.59 289.36V431.16" stroke="#263238" stroke-miterlimit="10"/>
<path d="M126.39 257.24C126.39 257.24 131.1 256.7 131.46 257.79C131.658 258.683 131.658 259.607 131.46 260.5C131.46 260.5 134.17 263.4 134.17 265.39C134.17 267.38 131.28 268.29 131.28 268.29L130.74 272.99L123.5 273.35L122.59 267.74C122.59 267.74 119.87 257.06 126.39 257.24Z" fill="white" stroke="#263238" stroke-linecap="round" stroke-linejoin="round"/>
<path d="M127.84 265L125.84 262.1C126.511 261.009 126.884 259.761 126.92 258.48C126.92 256.48 126.74 252.87 122.58 252.87C118.42 252.87 115.7 256.13 114.8 263.19C113.9 270.25 118.05 273.69 124.03 272.42C130.01 271.15 127.84 265 127.84 265Z" fill="#263238" stroke="#263238" stroke-linecap="round" stroke-linejoin="round"/>
<path d="M127.66 263.76C127.66 263.76 124.58 263.4 124.76 265.76C124.808 266.267 125.008 266.748 125.334 267.139C125.661 267.53 126.098 267.813 126.589 267.951C127.079 268.089 127.6 268.074 128.082 267.91C128.565 267.745 128.986 267.439 129.29 267.03" fill="white"/>
<path d="M127.66 263.76C127.66 263.76 124.58 263.4 124.76 265.76C124.808 266.267 125.008 266.748 125.334 267.139C125.661 267.53 126.098 267.813 126.589 267.951C127.079 268.089 127.6 268.074 128.082 267.91C128.565 267.745 128.986 267.439 129.29 267.03" stroke="#263238" stroke-linecap="round" stroke-linejoin="round"/>
<path d="M123.37 275.12L116.7 277C116.7 277 116.18 278.3 115.4 280C114.35 282.31 111.46 287 111.46 287L98.1101 290.81L93.8201 304.64L92.8701 310.36L100.49 306.54L100.97 293.2L112.97 291.35L118.12 278.35L123.37 275.12Z" fill="#263238" stroke="#263238" stroke-linecap="round" stroke-linejoin="round"/>
<path d="M134 273.17C134 273.17 128.75 270.82 124.77 271.36C120.79 271.9 121.15 273.9 121.15 273.9L121.33 276.61C121.33 276.61 128 274.62 134 273.17Z" fill="black" stroke="#263238" stroke-linecap="round" stroke-linejoin="round"/>
<path d="M116.07 286.39L119.82 303.73C119.849 303.938 119.927 304.136 120.047 304.308C120.168 304.48 120.327 304.621 120.513 304.719C120.699 304.816 120.905 304.868 121.115 304.87C121.325 304.872 121.533 304.824 121.72 304.73L130.19 300.5L116.07 286.39Z" fill="black" stroke="#263238" stroke-linecap="round" stroke-linejoin="round"/>
<path d="M125.49 295.62L123.5 299.6" stroke="#263238" stroke-linecap="round" stroke-linejoin="round"/>
<path d="M143.04 313.18L153.97 331.26L152.52 355.71L157.77 355.53L163.02 326.37L155.35 305.94L143.04 313.18Z" fill="#263238" stroke="#263238" stroke-linecap="round" stroke-linejoin="round"/>
<path d="M121.32 276.61C121.32 276.61 116.07 285.66 116.07 286.39C116.07 287.12 136.53 306.84 136.53 306.84L152.1 296.52L142.32 279.52L156.4 265.7L157.48 247.05L154.95 246.87L150.42 260.45L135.42 272.27L121.32 276.61Z" fill="black" stroke="#263238" stroke-linecap="round" stroke-linejoin="round"/>
<path d="M154.95 246.87L155.13 242.71L159.65 239.27L160.02 240.17V242.89L160.2 245.06L157.48 247.05L154.95 246.87Z" fill="white" stroke="#263238" stroke-linecap="round" stroke-linejoin="round"/>
<path d="M136.53 306.84C136.53 306.84 139.97 312.63 142.53 314.44C145.09 316.25 153 310.64 155 309C157 307.36 164.6 297.6 164.6 297.6L171.66 327.68L176.01 325.87C176.01 325.87 173.46 285.87 172.2 284.75C170.94 283.63 151.38 296.33 151.38 296.33L136.53 306.84Z" fill="#263238" stroke="#263238" stroke-linecap="round" stroke-linejoin="round"/>
<path d="M176 325.88H182.15C183.24 325.88 185.95 324.25 186.15 325.52C186.35 326.79 180.9 330.22 178.72 331.31C176.627 332.123 174.44 332.67 172.21 332.94L171.66 327.69L176 325.88Z" fill="white" stroke="#263238" stroke-linecap="round" stroke-linejoin="round"/>
<path d="M157.77 355.53L160.85 361.14C160.85 361.14 164.65 362.77 164.65 363.5C164.65 364.23 158.5 363.86 157.95 363.86C157.4 363.86 151.26 357.86 151.26 357.86L152.52 355.68L157.77 355.53Z" fill="white" stroke="#263238" stroke-linecap="round" stroke-linejoin="round"/>
<path d="M159.65 239.27L218.74 158.25" stroke="#263238" stroke-miterlimit="10"/>
<path d="M12 432.2H486" stroke="#263238" stroke-linecap="round" stroke-linejoin="round"/>
</g>
<defs>
<clipPath id="clip0_580_327">
<rect width="500" height="433" fill="white"/>
</clipPath>
</defs>
</svg>
