<svg width="337" height="215" viewBox="0 0 337 215" fill="none" xmlns="http://www.w3.org/2000/svg">
<g clip-path="url(#clip0_580_773)">
<path d="M184.752 94.2008C180.085 91.0649 174.491 89.6108 168.89 90.077C163.288 90.5433 158.011 92.9022 153.925 96.7668C149.839 100.631 147.186 105.772 146.401 111.345C145.617 116.918 146.748 122.593 149.608 127.437" stroke="#263238" stroke-width="0.969642" stroke-linecap="round" stroke-linejoin="round"/>
<path d="M193.563 104.727C193.081 103.64 192.522 102.589 191.893 101.58" stroke="#263238" stroke-width="0.969642" stroke-linecap="round" stroke-linejoin="round"/>
<path d="M191.45 128.646C193.297 125.894 194.577 122.799 195.213 119.545C195.85 116.291 195.831 112.942 195.158 109.695" stroke="#263238" stroke-width="0.969642" stroke-linecap="round" stroke-linejoin="round"/>
<path d="M146.303 90.1412C144.617 91.8343 143.107 93.6933 141.795 95.69" stroke="#263238" stroke-width="0.969642" stroke-linecap="round" stroke-linejoin="round"/>
<path d="M198.413 136.097C203.399 129.643 205.965 121.641 205.662 113.486C205.36 105.331 202.208 97.5414 196.756 91.4756C191.304 85.4098 183.899 81.4527 175.832 80.2945C167.765 79.1363 159.547 80.8505 152.613 85.1381" stroke="#263238" stroke-width="0.969642" stroke-linecap="round" stroke-linejoin="round"/>
<path d="M143.333 136.097C139.893 131.639 137.581 126.413 136.595 120.866C135.608 115.319 135.977 109.616 137.669 104.243" stroke="#263238" stroke-width="0.969642" stroke-linecap="round" stroke-linejoin="round"/>
<path d="M132.428 144.905C134.593 147.673 137.048 150.2 139.752 152.443" stroke="#263238" stroke-width="0.969642" stroke-linecap="round" stroke-linejoin="round"/>
<path d="M198.534 74.4383C189.815 68.4593 179.394 65.4723 168.836 65.9254C158.278 66.3784 148.15 70.247 139.974 76.9509C131.797 83.6547 126.011 92.8325 123.484 103.108C120.958 113.383 121.826 124.201 125.96 133.94" stroke="#263238" stroke-width="0.969642" stroke-linecap="round" stroke-linejoin="round"/>
<path d="M216.463 97.1078C215.151 93.7192 213.464 90.488 211.436 87.4739" stroke="#263238" stroke-width="0.969642" stroke-linecap="round" stroke-linejoin="round"/>
<path d="M204.667 150.112C209.441 145.552 213.239 140.068 215.831 133.994C218.424 127.919 219.757 121.38 219.748 114.774" stroke="#263238" stroke-width="0.969642" stroke-linecap="round" stroke-linejoin="round"/>
<path d="M102.647 114.774C102.648 131.003 108.387 146.708 118.847 159.105C129.308 171.501 143.814 179.788 159.795 182.497" stroke="#263238" stroke-width="0.969642" stroke-linecap="round" stroke-linejoin="round"/>
<path d="M226.008 155.641C234.363 144.32 239.044 130.702 239.417 116.63C239.79 102.558 235.836 88.7105 228.092 76.962C220.347 65.2134 209.186 56.1306 196.117 50.9423C183.048 45.7541 168.702 44.7109 155.022 47.954" stroke="#263238" stroke-width="0.969642" stroke-linecap="round" stroke-linejoin="round"/>
<path d="M102.647 114.774C102.648 99.3786 107.813 84.4295 117.315 72.3253C126.816 60.221 140.103 51.6634 155.043 48.0254" stroke="#263238" stroke-width="0.969642" stroke-linecap="round" stroke-linejoin="round"/>
<path d="M211.436 170.15C213.178 168.868 214.854 167.508 216.463 166.07" stroke="#263238" stroke-width="0.969642" stroke-linecap="round" stroke-linejoin="round"/>
<path d="M182.312 182.497C190.112 181.189 197.625 178.532 204.514 174.643" stroke="#263238" stroke-width="0.969642" stroke-linecap="round" stroke-linejoin="round"/>
<path d="M170.903 176.347C163.957 176.338 157.298 173.572 152.386 168.654C147.474 163.736 144.711 157.067 144.703 150.112V141.279C144.703 140.9 144.853 140.537 145.121 140.269C145.388 140.001 145.751 139.851 146.129 139.851H149.695C150.073 139.851 150.436 140.001 150.703 140.269C150.97 140.537 151.121 140.9 151.121 141.279C151.121 141.658 150.97 142.021 150.703 142.289C150.436 142.557 150.073 142.707 149.695 142.707H147.571V150.112C147.571 156.312 150.031 162.259 154.409 166.643C158.788 171.027 164.726 173.491 170.919 173.491C177.111 173.491 183.049 171.027 187.428 166.643C191.806 162.259 194.266 156.312 194.266 150.112V142.707H192.127C191.749 142.707 191.386 142.557 191.119 142.289C190.851 142.021 190.701 141.658 190.701 141.279C190.701 140.9 190.851 140.537 191.119 140.269C191.386 140.001 191.749 139.851 192.127 139.851H195.692C196.071 139.851 196.433 140.001 196.701 140.269C196.968 140.537 197.119 140.9 197.119 141.279V150.112C197.111 157.07 194.345 163.741 189.43 168.659C184.515 173.578 177.852 176.342 170.903 176.347Z" fill="#263238"/>
<path d="M198.529 198.297V195.441C198.53 195.066 198.457 194.694 198.314 194.347C198.171 194 197.96 193.685 197.695 193.42C197.43 193.155 197.116 192.944 196.769 192.801C196.423 192.658 196.052 192.584 195.677 192.585H146.129C145.754 192.584 145.383 192.658 145.037 192.801C144.69 192.944 144.376 193.155 144.111 193.42C143.846 193.685 143.636 194 143.493 194.347C143.35 194.694 143.276 195.066 143.277 195.441V198.297H198.529Z" fill="#263238"/>
<path d="M173.684 196.063C173.731 195.859 173.755 195.65 173.755 195.441V174.918H168.051V195.441C168.051 195.65 168.075 195.859 168.122 196.063H173.684Z" fill="#263238"/>
<path d="M188.547 114.774C188.587 112.429 188.159 110.099 187.291 107.92C186.422 105.741 185.128 103.758 183.486 102.085C181.843 100.412 179.884 99.0835 177.724 98.1765C175.563 97.2696 173.244 96.8025 170.901 96.8025C168.558 96.8025 166.239 97.2696 164.078 98.1765C161.917 99.0835 159.959 100.412 158.316 102.085C156.673 103.758 155.38 105.741 154.511 107.92C153.642 110.099 153.215 112.429 153.255 114.774V150.112C153.334 154.746 155.227 159.164 158.528 162.413C161.829 165.663 166.272 167.483 170.901 167.483C175.53 167.483 179.973 165.663 183.274 162.413C186.574 159.164 188.468 154.746 188.547 150.112V114.774Z" stroke="#263238" stroke-width="0.969642" stroke-linecap="round" stroke-linejoin="round"/>
<path d="M188.547 114.774C188.587 112.429 188.159 110.099 187.291 107.92C186.422 105.741 185.128 103.758 183.486 102.085C181.843 100.412 179.884 99.0835 177.724 98.1765C175.563 97.2696 173.244 96.8025 170.901 96.8025C168.558 96.8025 166.239 97.2696 164.078 98.1765C161.917 99.0835 159.959 100.412 158.316 102.085C156.673 103.758 155.38 105.741 154.511 107.92C153.642 110.099 153.215 112.429 153.255 114.774V150.112C153.334 154.746 155.227 159.164 158.528 162.413C161.829 165.663 166.272 167.483 170.901 167.483C175.53 167.483 179.973 165.663 183.274 162.413C186.574 159.164 188.468 154.746 188.547 150.112V114.774Z" fill="#E8E8E8"/>
<path d="M163.594 116.636H153.255V120.92H163.594C164.162 120.92 164.706 120.694 165.107 120.292C165.508 119.891 165.734 119.346 165.734 118.778C165.734 118.21 165.508 117.665 165.107 117.263C164.706 116.861 164.162 116.636 163.594 116.636Z" fill="white"/>
<path d="M188.547 116.636H178.212C177.645 116.636 177.101 116.861 176.7 117.263C176.299 117.665 176.073 118.21 176.073 118.778C176.073 119.346 176.299 119.891 176.7 120.292C177.101 120.694 177.645 120.92 178.212 120.92H188.547V116.636Z" fill="white"/>
<path d="M170.903 116.636C170.48 116.636 170.067 116.761 169.715 116.997C169.363 117.232 169.089 117.567 168.927 117.958C168.765 118.349 168.723 118.78 168.805 119.196C168.888 119.611 169.092 119.993 169.391 120.292C169.69 120.592 170.071 120.796 170.486 120.879C170.901 120.961 171.331 120.919 171.722 120.757C172.113 120.595 172.447 120.32 172.682 119.968C172.917 119.616 173.043 119.201 173.043 118.778C173.043 118.21 172.817 117.665 172.416 117.263C172.015 116.861 171.471 116.636 170.903 116.636Z" fill="white"/>
<path d="M170.903 125.296C170.48 125.296 170.067 125.421 169.715 125.657C169.363 125.892 169.089 126.226 168.927 126.618C168.765 127.009 168.723 127.44 168.805 127.855C168.888 128.271 169.092 128.653 169.391 128.952C169.69 129.252 170.071 129.456 170.486 129.538C170.901 129.621 171.331 129.579 171.722 129.416C172.113 129.254 172.447 128.98 172.682 128.628C172.917 128.275 173.043 127.861 173.043 127.438C173.043 126.869 172.817 126.325 172.416 125.923C172.015 125.521 171.471 125.296 170.903 125.296Z" fill="white"/>
<path d="M170.903 133.94C170.48 133.94 170.067 134.066 169.715 134.301C169.363 134.536 169.089 134.871 168.927 135.262C168.765 135.654 168.723 136.084 168.805 136.5C168.888 136.915 169.092 137.297 169.391 137.597C169.69 137.896 170.071 138.1 170.486 138.183C170.901 138.266 171.331 138.223 171.722 138.061C172.113 137.899 172.447 137.624 172.682 137.272C172.917 136.92 173.043 136.506 173.043 136.082C173.043 135.514 172.817 134.969 172.416 134.567C172.015 134.166 171.471 133.94 170.903 133.94Z" fill="white"/>
<path d="M163.594 125.296H153.255V129.58H163.594C164.162 129.58 164.706 129.354 165.107 128.952C165.508 128.55 165.734 128.006 165.734 127.438C165.734 126.869 165.508 126.325 165.107 125.923C164.706 125.521 164.162 125.296 163.594 125.296Z" fill="white"/>
<path d="M188.547 125.296H178.212C177.645 125.296 177.101 125.521 176.7 125.923C176.299 126.325 176.073 126.869 176.073 127.438C176.073 128.006 176.299 128.55 176.7 128.952C177.101 129.354 177.645 129.58 178.212 129.58H188.547V125.296Z" fill="white"/>
<path d="M163.594 133.94H153.255V138.224H163.594C164.162 138.224 164.706 137.998 165.107 137.597C165.508 137.195 165.734 136.65 165.734 136.082C165.734 135.514 165.508 134.969 165.107 134.567C164.706 134.166 164.162 133.94 163.594 133.94Z" fill="white"/>
<path d="M188.547 133.94H178.212C177.645 133.94 177.101 134.166 176.7 134.567C176.299 134.969 176.073 135.514 176.073 136.082C176.073 136.65 176.299 137.195 176.7 137.597C177.101 137.998 177.645 138.224 178.212 138.224H188.547V133.94Z" fill="white"/>
<path d="M188.547 114.774C188.587 112.429 188.159 110.099 187.291 107.92C186.422 105.741 185.128 103.758 183.486 102.085C181.843 100.412 179.884 99.0835 177.724 98.1765C175.563 97.2696 173.244 96.8025 170.901 96.8025C168.558 96.8025 166.239 97.2696 164.078 98.1765C161.917 99.0835 159.959 100.412 158.316 102.085C156.673 103.758 155.38 105.741 154.511 107.92C153.642 110.099 153.215 112.429 153.255 114.774V150.112C153.334 154.746 155.227 159.164 158.528 162.413C161.829 165.663 166.272 167.483 170.901 167.483C175.53 167.483 179.973 165.663 183.274 162.413C186.574 159.164 188.468 154.746 188.547 150.112V114.774Z" stroke="#263238" stroke-width="0.969642" stroke-miterlimit="10"/>
<path d="M153.255 150.112C153.334 154.746 155.227 159.164 158.528 162.413C161.829 165.663 166.272 167.483 170.901 167.483C175.529 167.483 179.973 165.663 183.274 162.413C186.574 159.164 188.468 154.746 188.547 150.112H153.255Z" fill="#263238" stroke="#263238" stroke-width="0.969642" stroke-miterlimit="10"/>
<path d="M320.58 141.211C342.615 119.148 342.615 83.3753 320.58 61.3115C298.546 39.2477 262.82 39.2478 240.785 61.3115C218.75 83.3753 218.75 119.148 240.785 141.211C262.82 163.275 298.546 163.275 320.58 141.211Z" fill="#E8E8E8"/>
<path d="M272.592 77.8859H233.175C231.189 77.8859 229.579 79.4979 229.579 81.4865V120.955C229.579 122.944 231.189 124.556 233.175 124.556H272.592C274.578 124.556 276.188 122.944 276.188 120.955V81.4865C276.188 79.4979 274.578 77.8859 272.592 77.8859Z" fill="white"/>
<g opacity="0.1">
<path opacity="0.1" d="M233.974 124.561H249.529L259.441 77.8859H243.254L233.358 124.51C233.562 124.542 233.768 124.559 233.974 124.561Z" fill="black"/>
<path opacity="0.1" d="M266.032 77.8859H262.14L252.234 124.561H256.125L266.032 77.8859Z" fill="black"/>
</g>
<path d="M271.792 125.724H233.974C232.503 125.721 231.092 125.136 230.051 124.095C229.01 123.054 228.422 121.643 228.417 120.17V82.2872C228.42 80.8124 229.006 79.3987 230.048 78.3558C231.089 77.3129 232.501 76.7258 233.974 76.7231H271.792C273.266 76.7245 274.679 77.311 275.721 78.354C276.764 79.397 277.351 80.8115 277.354 82.2872V120.17C277.348 121.644 276.76 123.056 275.718 124.097C274.676 125.138 273.264 125.723 271.792 125.724ZM233.974 79.0538C233.117 79.0538 232.295 79.3943 231.689 80.0006C231.082 80.6068 230.741 81.4292 230.74 82.2872V120.17C230.74 121.029 231.08 121.854 231.687 122.462C232.293 123.07 233.116 123.412 233.974 123.414H271.792C272.217 123.414 272.638 123.33 273.031 123.167C273.423 123.004 273.78 122.765 274.081 122.463C274.381 122.162 274.619 121.804 274.781 121.411C274.944 121.017 275.027 120.596 275.026 120.17V82.2872C275.026 81.8622 274.942 81.4413 274.78 81.0487C274.617 80.6561 274.379 80.2994 274.079 79.9991C273.778 79.6988 273.422 79.4607 273.029 79.2985C272.637 79.1363 272.216 79.0532 271.792 79.0538H233.974Z" fill="white" stroke="#263238" stroke-width="0.932567" stroke-miterlimit="10"/>
<path d="M327.411 77.8859H287.994C286.008 77.8859 284.398 79.4979 284.398 81.4865V120.955C284.398 122.944 286.008 124.556 287.994 124.556H327.411C329.397 124.556 331.007 122.944 331.007 120.955V81.4865C331.007 79.4979 329.397 77.8859 327.411 77.8859Z" fill="white"/>
<g opacity="0.1">
<path opacity="0.1" d="M292.863 124.561H308.418L318.325 77.8859H302.143L292.221 124.51C292.433 124.543 292.648 124.561 292.863 124.561Z" fill="black"/>
<path opacity="0.1" d="M324.92 77.8859H321.029L311.117 124.561H315.014L324.92 77.8859Z" fill="black"/>
</g>
<path d="M326.612 125.724H288.794C287.322 125.721 285.912 125.136 284.871 124.095C283.83 123.054 283.242 121.643 283.237 120.17V82.2872C283.24 80.8124 283.826 79.3987 284.867 78.3558C285.909 77.3129 287.321 76.7258 288.794 76.7231H326.612C328.085 76.7245 329.499 77.311 330.541 78.354C331.584 79.397 332.171 80.8115 332.174 82.2872V120.17C332.168 121.644 331.58 123.056 330.538 124.097C329.495 125.138 328.084 125.723 326.612 125.724ZM288.794 79.0538C287.937 79.0538 287.115 79.3943 286.508 80.0006C285.902 80.6068 285.561 81.4292 285.559 82.2872V120.17C285.559 121.029 285.9 121.854 286.506 122.462C287.113 123.07 287.935 123.412 288.794 123.414H326.612C327.037 123.414 327.458 123.33 327.851 123.167C328.243 123.004 328.6 122.765 328.9 122.463C329.201 122.162 329.439 121.804 329.601 121.411C329.763 121.017 329.847 120.596 329.846 120.17V82.2872C329.846 81.8622 329.762 81.4413 329.6 81.0487C329.437 80.6561 329.199 80.2994 328.898 79.9991C328.598 79.6988 328.241 79.4607 327.849 79.2985C327.457 79.1363 327.036 79.0532 326.612 79.0538H288.794Z" fill="white" stroke="#263238" stroke-width="0.932567" stroke-miterlimit="10"/>
<path d="M282.208 210.17C296.225 210.17 307.588 208.496 307.588 206.431C307.588 204.367 296.225 202.693 282.208 202.693C268.191 202.693 256.828 204.367 256.828 206.431C256.828 208.496 268.191 210.17 282.208 210.17Z" fill="#E8E8E8"/>
<path d="M293.423 184.654C293.423 184.654 293.357 195.125 292.252 196.849C290.933 198.889 289.996 201.739 293.49 202.515C296.984 203.29 299.062 207.15 303.223 207.405C307.384 207.66 307.807 205.875 305.994 204.442C304.18 203.009 299.576 199.036 298.97 197.104C298.364 195.171 299.54 184.654 299.54 184.654H293.423Z" fill="white"/>
<path opacity="0.1" d="M298.985 190.734C299.209 187.648 299.54 184.654 299.54 184.654H293.428C293.428 184.654 293.428 187.332 293.25 190.203C295.144 190.539 297.062 190.716 298.985 190.734Z" fill="black"/>
<path d="M293.423 184.654C293.423 184.654 293.357 195.125 292.252 196.849C290.933 198.889 289.996 201.739 293.49 202.515C296.984 203.29 299.062 207.15 303.223 207.405C307.384 207.66 307.807 205.875 305.994 204.442C304.18 203.009 299.576 199.036 298.97 197.104C298.364 195.171 299.54 184.654 299.54 184.654H293.423Z" stroke="#263238" stroke-width="0.932567" stroke-linecap="round" stroke-linejoin="round"/>
<path d="M305.974 204.442C304.275 203.095 302.662 201.642 301.145 200.092C299.694 201.194 295.441 200.153 294.188 199.164C292.66 197.96 292.981 197.343 292.257 196.803L292.232 196.849C290.913 198.889 289.975 201.739 293.47 202.515C296.964 203.29 299.042 207.151 303.203 207.406C307.364 207.661 307.797 205.85 305.974 204.442Z" fill="#BFBFBF" stroke="#263238" stroke-width="0.932567" stroke-miterlimit="10"/>
<path d="M269.928 180.86C269.928 180.86 265.344 190.438 263.612 191.606C261.519 193.003 259.441 195.252 262.308 197.256C265.176 199.261 265.43 203.575 269.133 205.355C272.836 207.135 273.992 205.631 272.948 203.667C271.904 201.704 269.383 196.328 269.663 194.329C269.943 192.33 275.581 182.9 275.581 182.9L269.928 180.86Z" fill="white"/>
<path opacity="0.1" d="M269.928 180.86C269.928 180.86 268.288 184.297 266.602 187.301C267.963 188.652 269.531 189.777 271.247 190.632C273.004 187.225 275.582 182.915 275.582 182.915L269.928 180.86Z" fill="black"/>
<path d="M269.928 180.86C269.928 180.86 265.344 190.438 263.612 191.606C261.519 193.003 259.441 195.252 262.308 197.256C265.176 199.261 265.43 203.575 269.133 205.355C272.836 207.135 273.992 205.631 272.948 203.667C271.904 201.704 269.383 196.328 269.663 194.329C269.943 192.33 275.581 182.9 275.581 182.9L269.928 180.86Z" stroke="#263238" stroke-width="0.932567" stroke-linecap="round" stroke-linejoin="round"/>
<path d="M272.948 203.642C271.972 201.773 271.121 199.84 270.402 197.858C268.593 198.333 264.835 195.91 264.422 194.431C263.622 191.58 264.096 192.315 263.663 191.55L263.622 191.58C261.529 192.978 259.451 195.227 262.318 197.231C265.186 199.235 265.441 203.55 269.143 205.33C272.846 207.11 273.992 205.605 272.948 203.642Z" fill="#BFBFBF" stroke="#263238" stroke-width="0.932567" stroke-miterlimit="10"/>
<path d="M294.162 113.086C294.162 113.086 301.176 146.746 301.644 157.726C302.113 168.707 300.289 188.291 300.289 188.291L292.502 187.781C292.502 187.781 292.451 181.992 291.671 173.934C291.208 169.145 289.751 163.556 289.914 157.905C289.914 157.905 282.514 135.929 282.784 126.285C283.054 116.641 282.784 113.866 282.784 113.866L294.162 113.086Z" fill="#263238" stroke="#263238" stroke-width="0.932567" stroke-linecap="round" stroke-linejoin="round"/>
<path d="M275.413 113.086C275.413 113.086 268.14 119.104 272.357 131.237C274.018 136.051 280.425 158.073 280.425 158.073C278.665 160.089 277.175 162.326 275.994 164.729C273.071 170.512 270.942 179.519 267.335 184.685L272.673 188.291C272.673 188.291 289.909 166.656 291.009 159.787C292.109 152.917 286.935 125.448 286.935 125.448L285.279 114.285L275.413 113.086Z" fill="#263238" stroke="#263238" stroke-width="0.932567" stroke-linecap="round" stroke-linejoin="round"/>
<path d="M307.67 90.2738C307.574 89.1338 307.19 88.037 306.554 87.0863C307.088 86.3827 307.55 85.6276 307.934 84.8321C308.322 83.8988 307.807 82.5779 306.732 84.1589C305.658 85.7399 304.476 86.8925 304.904 88.8662C305.129 90.1404 304.898 91.4532 304.252 92.5739L306.732 94.517L311.678 90.59L307.67 90.2738Z" fill="white" stroke="#263238" stroke-width="0.932567" stroke-linecap="round" stroke-linejoin="round"/>
<path d="M309.999 80.1855L305.841 81.3174C305.459 81.4216 305.233 81.8168 305.337 82.2L307.706 90.9256C307.81 91.3088 308.205 91.535 308.587 91.4308L312.746 90.2989C313.128 90.1947 313.354 89.7995 313.25 89.4163L310.881 80.6907C310.777 80.3075 310.382 80.0813 309.999 80.1855Z" fill="#263238" stroke="#263238" stroke-width="0.932567" stroke-linecap="round" stroke-linejoin="round"/>
<path d="M310.91 80.7991L305.366 82.3083L307.678 90.8223L313.222 89.313L310.91 80.7991Z" fill="#E8E8E8" stroke="#263238" stroke-width="0.932567" stroke-linecap="round" stroke-linejoin="round"/>
<path d="M309.799 83.7457C309.731 83.4833 309.562 83.2585 309.329 83.1208C309.096 82.9831 308.818 82.9437 308.556 83.0113C308.294 83.079 308.069 83.2481 307.932 83.4814C307.794 83.7148 307.755 83.9933 307.822 84.2557C307.889 84.5107 308.22 85.7092 308.332 86.1325L310.308 85.597C310.196 85.2043 309.86 83.9599 309.799 83.7457Z" fill="#263238"/>
<path d="M309.615 86.9792C309.86 86.9131 310.071 86.7577 310.208 86.5436C310.345 86.3294 310.397 86.0719 310.354 85.8215L308.393 86.3315C308.478 86.5737 308.651 86.7749 308.877 86.8949C309.104 87.015 309.367 87.0451 309.615 86.9792Z" fill="#263238"/>
<path d="M311.459 88.04L310.175 88.3919L309.91 87.4229C310.276 87.2805 310.575 87.0081 310.752 86.6579C310.929 86.3077 310.97 85.9045 310.868 85.5257L310.725 85.0157C310.723 85.0048 310.718 84.9945 310.712 84.9855C310.706 84.9764 310.697 84.9688 310.688 84.963C310.678 84.9573 310.668 84.9536 310.657 84.9521C310.645 84.9507 310.634 84.9515 310.624 84.9545L310.41 85.0106C310.399 85.0135 310.388 85.0186 310.379 85.0257C310.371 85.0328 310.363 85.0416 310.358 85.0517C310.353 85.0618 310.35 85.0729 310.349 85.0843C310.348 85.0956 310.35 85.107 310.354 85.1177C310.356 85.1286 310.361 85.1389 310.367 85.148C310.374 85.157 310.382 85.1646 310.391 85.1704C310.401 85.1761 310.411 85.1798 310.423 85.1813C310.434 85.1828 310.445 85.1819 310.455 85.1789L310.583 85.1432L310.7 85.5767C310.749 85.7565 310.762 85.9442 310.738 86.1291C310.715 86.3139 310.655 86.4923 310.562 86.654C310.47 86.8158 310.346 86.9577 310.199 87.0717C310.052 87.1856 309.884 87.2695 309.704 87.3184C309.525 87.3673 309.337 87.3802 309.153 87.3566C308.968 87.333 308.79 87.2731 308.628 87.1805C308.467 87.088 308.325 86.9644 308.211 86.817C308.097 86.6696 308.014 86.5011 307.965 86.3213L307.843 85.8878L307.97 85.8572C307.992 85.8501 308.01 85.8353 308.021 85.8155C308.032 85.7957 308.036 85.7724 308.031 85.7501C308.028 85.739 308.023 85.7286 308.016 85.7195C308.009 85.7104 308 85.7028 307.99 85.6971C307.98 85.6914 307.969 85.6878 307.958 85.6864C307.947 85.685 307.935 85.6858 307.924 85.6889L307.715 85.745C307.704 85.748 307.694 85.7531 307.685 85.7601C307.676 85.7671 307.668 85.7758 307.662 85.7858C307.657 85.7957 307.653 85.8067 307.652 85.8181C307.65 85.8295 307.651 85.8411 307.654 85.8521L307.797 86.3621C307.9 86.7404 308.139 87.0673 308.468 87.28C308.797 87.4927 309.193 87.5763 309.579 87.5147L309.839 88.4837L308.556 88.8305C308.533 88.8364 308.513 88.8467 308.495 88.8607C308.476 88.8747 308.461 88.8921 308.45 88.912C308.438 88.932 308.431 88.954 308.428 88.9767C308.425 88.9995 308.427 89.0226 308.433 89.0447L308.479 89.213L311.719 88.3307L311.673 88.1624C311.667 88.1402 311.657 88.1194 311.643 88.1013C311.629 88.0831 311.611 88.0679 311.591 88.0565C311.571 88.0451 311.55 88.0378 311.527 88.0349C311.504 88.0321 311.481 88.0338 311.459 88.04Z" fill="#263238"/>
<path d="M311.984 82.787C311.474 82.8431 311.051 83.6438 311.209 84.7709C311.367 85.898 312.401 84.674 312.462 84.317C312.523 83.96 312.956 82.6901 311.984 82.787Z" fill="white" stroke="#263238" stroke-width="0.932567" stroke-linecap="round" stroke-linejoin="round"/>
<path d="M313.104 84.47C312.968 84.4679 312.834 84.4964 312.71 84.5534C312.587 84.6104 312.478 84.6943 312.392 84.7991C312.305 84.9039 312.243 85.0267 312.21 85.1587C312.178 85.2906 312.175 85.4282 312.202 85.5614C312.299 86.6579 312.513 86.4029 312.513 86.4029C312.518 86.8547 312.61 87.3014 312.783 87.7187C313.038 88.2032 313.71 87.4688 313.71 87.0302C313.71 86.5916 313.639 84.2864 313.104 84.47Z" fill="white" stroke="#263238" stroke-width="0.932567" stroke-linecap="round" stroke-linejoin="round"/>
<path d="M312.518 86.3824C312.518 86.3824 313.399 86.1223 313.608 85.4797L312.518 86.3824Z" fill="white"/>
<path d="M312.518 86.3824C312.518 86.3824 313.399 86.1223 313.608 85.4797" stroke="#263238" stroke-width="0.932567" stroke-linecap="round" stroke-linejoin="round"/>
<path d="M304.863 91.0184C305.034 90.3126 305.048 89.5779 304.904 88.8662C304.476 86.8925 305.652 85.7348 306.732 84.1589C307.812 82.583 308.321 83.8988 307.934 84.8321C307.55 85.6275 307.088 86.3827 306.554 87.0863C307.242 88.0096 307.632 89.1221 307.669 90.2738C307.669 90.6461 307.669 91.7579 307.669 91.7579" fill="white"/>
<path d="M304.863 91.0184C305.034 90.3126 305.048 89.5779 304.904 88.8662C304.476 86.8925 305.652 85.7348 306.732 84.1589C307.812 82.583 308.321 83.8988 307.934 84.8321C307.55 85.6275 307.088 86.3827 306.554 87.0863C307.242 88.0096 307.632 89.1221 307.669 90.2738C307.669 90.6461 307.669 91.7579 307.669 91.7579" stroke="#263238" stroke-width="0.932567" stroke-linecap="round" stroke-linejoin="round"/>
<path d="M291.203 78.6917C292.975 78.3194 293.52 77.8655 293.52 77.8655C292.191 72.5054 296.958 54.4769 281.933 53.6456C266.908 52.8143 275.312 78.3602 275.312 78.3602L276.947 78.5693L276.106 73.4336L278.062 78.6968C283.848 79.3241 287.556 79.2068 289.889 78.911C289.572 76.5947 289.54 74.2482 289.792 71.924C290.086 74.2132 290.558 76.4759 291.203 78.6917Z" fill="#263238"/>
<path d="M281.928 53.9669C281.344 53.3867 280.582 53.0206 279.765 52.9281C278.948 52.8355 278.124 53.0218 277.425 53.4569" stroke="#263238" stroke-width="0.932567" stroke-linecap="round" stroke-linejoin="round"/>
<path d="M293.372 81.9608V81.7976C293.342 81.869 293.311 81.92 293.372 81.9608Z" fill="white" stroke="#263238" stroke-width="0.932567" stroke-linecap="round" stroke-linejoin="round"/>
<path d="M304.252 92.5739L297.121 99.2039L297.254 89.2691C297.278 87.7687 296.922 86.2867 296.22 84.9608C295.519 83.6349 294.493 82.5082 293.24 81.6854L293.51 107.833C300.514 108.277 306.753 94.517 306.753 94.517C306.499 94.0332 306.144 93.6095 305.713 93.2743C305.281 92.9391 304.783 92.7003 304.252 92.5739Z" fill="white"/>
<path opacity="0.1" d="M296.026 104.625C294.967 104.722 294.727 102.692 294.743 100.719C294.446 101.461 294.249 102.24 294.157 103.034C294.065 105.283 294.065 107.512 294.101 109.419C302.077 105.798 302.174 102.57 304.221 99.2753C302.917 100.933 298.068 104.436 296.026 104.625Z" fill="black"/>
<path d="M304.252 92.5739L297.121 99.2039L297.254 89.2691C297.278 87.7687 296.922 86.2867 296.22 84.9608C295.519 83.6349 294.493 82.5082 293.24 81.6854L293.51 107.833C300.514 108.277 306.753 94.517 306.753 94.517C306.499 94.0332 306.144 93.6095 305.713 93.2743C305.281 92.9391 304.783 92.7003 304.252 92.5739V92.5739Z" stroke="#263238" stroke-width="0.932567" stroke-linecap="round" stroke-linejoin="round"/>
<path d="M302.739 93.4306L304.303 91.9465L307.731 94.3027L306.732 95.9653L302.739 93.4306Z" fill="#E8E8E8" stroke="#263238" stroke-width="0.932567" stroke-linecap="round" stroke-linejoin="round"/>
<path d="M296.057 94.1601C293.184 106.91 294.61 115.289 294.61 115.289C294.61 115.289 287.678 120.211 273.106 116.039C273.106 116.039 275.755 109.445 275.042 104.416C274.609 101.32 271.705 90.1923 271.705 90.1923C271.705 90.1923 270.33 85.3268 270.962 81.3998C272.179 80.6093 274.787 79.6556 279.396 79.319C279.473 79.0609 279.526 78.7963 279.554 78.5286C279.701 77.2317 279.733 75.9245 279.651 74.6219C279.585 73.0919 279.457 71.873 279.457 71.873H285.019C285.019 71.873 285.091 73.2806 285.269 74.933C285.366 75.9071 285.503 76.9731 285.676 77.8911C285.762 78.3506 285.873 78.8051 286.008 79.2527C291.559 80.0892 293.648 81.5375 294.05 82.7972C295.94 88.4787 296.668 91.4367 296.057 94.1601Z" fill="white" stroke="#263238" stroke-width="0.932567" stroke-linecap="round" stroke-linejoin="round"/>
<path d="M285.284 75.8306C284.831 76.8506 284.265 77.6564 282.305 77.6462C280.848 77.6462 279.534 76.3559 279.386 75.8612C279.544 74.7443 279.386 74.3312 279.32 73.0664C281.193 73.0135 283.068 73.1227 284.922 73.3928C285.002 74.2111 285.122 75.0247 285.284 75.8306Z" fill="#263238"/>
<path d="M288.982 64.9115C288.982 64.1567 288.982 63.6926 288.982 63.6926C288.569 61.7138 286.124 61.6118 284.999 61.6169C283.812 61.6554 282.629 61.4488 281.525 61.01C281.887 61.876 282.485 62.622 283.252 63.1622C279.065 62.2289 278.739 60.0155 278.897 58.8221C277.41 64.0292 275.479 64.2485 275.479 64.2485C275.479 64.2485 275.479 64.7126 275.566 65.4623C275.066 65.5772 274.624 65.8691 274.322 66.2842C274.02 66.6993 273.877 67.2098 273.921 67.7216C273.915 68.273 274.125 68.8047 274.506 69.203C274.887 69.6014 275.408 69.8348 275.958 69.8534C276.068 69.8485 276.177 69.8332 276.284 69.8075C277.17 73.2551 278.989 77.0036 282.712 76.8557C286.435 76.7078 287.953 72.8216 288.554 69.3128C288.664 69.323 288.775 69.323 288.885 69.3128C289.437 69.2574 289.945 68.9853 290.297 68.5562C290.649 68.1271 290.817 67.5759 290.764 67.0229C290.766 66.5163 290.588 66.0255 290.261 65.6386C289.935 65.2517 289.481 64.994 288.982 64.9115Z" fill="white" stroke="#263238" stroke-width="0.932567" stroke-linecap="round" stroke-linejoin="round"/>
<path d="M281.525 70.751L282.167 71.2151C282.248 71.2755 282.346 71.3082 282.447 71.3082C282.548 71.3082 282.646 71.2755 282.727 71.2151L283.318 70.7612" stroke="#263238" stroke-width="0.932567" stroke-linecap="round" stroke-linejoin="round"/>
<path d="M283.97 67.8491C283.97 67.8491 284.765 66.7985 286.349 67.538" stroke="#263238" stroke-width="0.932567" stroke-linecap="round" stroke-linejoin="round"/>
<path d="M280.507 67.8491C280.507 67.8491 279.717 66.7985 278.128 67.538" stroke="#263238" stroke-width="0.932567" stroke-linecap="round" stroke-linejoin="round"/>
<path d="M284.001 72.6023C283.559 72.9524 283.018 73.1534 282.455 73.1763C281.892 73.1992 281.337 73.0429 280.868 72.7298" stroke="#263238" stroke-width="0.932567" stroke-linecap="round" stroke-linejoin="round"/>
<path d="M290.729 160.904C290.548 161.463 290.337 162.013 290.098 162.551" stroke="white" stroke-width="0.932567" stroke-linecap="round" stroke-linejoin="round"/>
<path d="M283.293 123.74L284.953 125.229C286.435 126.557 287.409 128.36 287.709 130.329C289.13 139.382 291.412 148.689 291.132 158.522" stroke="white" stroke-width="0.932567" stroke-linecap="round" stroke-linejoin="round"/>
<path d="M289.578 124.005L286.945 127.774L287.276 127.31" stroke="white" stroke-width="0.932567" stroke-linecap="round" stroke-linejoin="round"/>
<path d="M279.172 108.884L279.926 109.659" stroke="#263238" stroke-width="0.932567" stroke-linecap="round" stroke-linejoin="round"/>
<path d="M273.717 98.1992C274.51 101.452 275.921 104.522 277.873 107.242" stroke="#263238" stroke-width="0.932567" stroke-linecap="round" stroke-linejoin="round"/>
<path d="M273.864 63.7112L273.299 63.7339L273.38 65.7468L273.944 65.7241L273.864 63.7112Z" fill="white" stroke="#263238" stroke-width="0.932567" stroke-linecap="round" stroke-linejoin="round"/>
<path d="M291.105 62.9846L290.54 63.0074L290.621 65.0203L291.186 64.9975L291.105 62.9846Z" fill="white" stroke="#263238" stroke-width="0.932567" stroke-linecap="round" stroke-linejoin="round"/>
<path d="M281.846 54.5738C279.447 54.6714 277.179 55.6961 275.519 57.4326C273.859 59.1692 272.936 61.4824 272.943 63.8864C272.944 63.9315 272.953 63.976 272.971 64.0172C272.99 64.0585 273.016 64.0957 273.049 64.1266C273.081 64.1576 273.12 64.1816 273.162 64.1972C273.204 64.2129 273.249 64.2199 273.294 64.2179H273.89C273.978 64.2139 274.06 64.176 274.12 64.1122C274.18 64.0484 274.213 63.9637 274.211 63.8762C274.225 61.8138 275.032 59.8362 276.464 58.3538C277.896 56.8714 279.843 55.9983 281.902 55.9156C283.96 55.8329 285.97 56.547 287.516 57.9097C289.063 59.2724 290.025 61.179 290.204 63.2336C290.209 63.3206 290.249 63.4021 290.314 63.4603C290.378 63.5185 290.464 63.5489 290.551 63.5447H291.146C291.191 63.5434 291.235 63.5331 291.276 63.5142C291.317 63.4954 291.353 63.4684 291.383 63.4351C291.413 63.4017 291.436 63.3625 291.451 63.32C291.465 63.2775 291.471 63.2325 291.467 63.1877C291.296 60.7815 290.196 58.5366 288.4 56.9287C286.604 55.3208 284.253 54.4762 281.846 54.5738Z" fill="#E8E8E8" stroke="#263238" stroke-width="0.932567" stroke-linecap="round" stroke-linejoin="round"/>
<path d="M274.904 64.9421H274.772C274.388 64.9579 274.011 65.0492 273.662 65.2108C273.313 65.3725 273 65.6013 272.739 65.8843C272.214 66.4558 271.936 67.213 271.968 67.9894C272 68.7658 272.338 69.4977 272.909 70.0243C273.479 70.5508 274.236 70.8287 275.011 70.7969H275.138L274.904 64.9421Z" fill="#E8E8E8" stroke="#263238" stroke-width="0.932567" stroke-linecap="round" stroke-linejoin="round"/>
<path d="M275.693 67.8338C275.78 70.0064 275.933 71.4038 275.184 71.4497C274.435 71.4956 274.12 70.0778 274.033 67.8797C273.946 65.6816 274.145 64.3097 274.894 64.2587C275.643 64.2077 275.607 65.6612 275.693 67.8338Z" fill="white" stroke="#263238" stroke-width="0.932567" stroke-linecap="round" stroke-linejoin="round"/>
<path d="M289.624 64.3505H289.756C290.14 64.3351 290.523 64.3956 290.884 64.5284C291.244 64.6613 291.575 64.864 291.858 65.125C292.14 65.3859 292.368 65.7 292.529 66.0493C292.69 66.3985 292.781 66.7762 292.797 67.1606C292.812 67.545 292.752 67.9287 292.619 68.2898C292.486 68.6509 292.284 68.9822 292.023 69.2649C291.763 69.5477 291.449 69.7762 291.1 69.9376C290.751 70.0989 290.374 70.1899 289.99 70.2053H289.858L289.624 64.3505Z" fill="#E8E8E8" stroke="#263238" stroke-width="0.932567" stroke-linecap="round" stroke-linejoin="round"/>
<path d="M289.043 67.2983C289.13 69.4709 289.094 70.8683 289.843 70.8683C290.591 70.8683 290.79 69.4148 290.703 67.2422C290.617 65.0696 290.301 63.6722 289.557 63.6977C288.814 63.7232 288.956 65.1257 289.043 67.2983Z" fill="white" stroke="#263238" stroke-width="0.932567" stroke-linecap="round" stroke-linejoin="round"/>
<path d="M277.028 65.9213C277.028 65.9213 278.968 64.3148 280.807 65.7683" stroke="#263238" stroke-width="0.932567" stroke-linecap="round" stroke-linejoin="round"/>
<path d="M287.678 65.6C287.678 65.6 285.641 64.1567 283.899 65.753" stroke="#263238" stroke-width="0.932567" stroke-linecap="round" stroke-linejoin="round"/>
<path d="M278.663 78.6101C278.663 78.6101 279.824 81.5273 284.133 82.1801C284.133 82.1801 282.412 85.7501 280.059 84.3476C277.242 82.6748 276.702 79.2017 276.702 79.2017L278.663 78.6101Z" fill="#E8E8E8" stroke="#263238" stroke-width="0.932567" stroke-linecap="round" stroke-linejoin="round"/>
<path d="M286.558 78.9722C286.574 79.7488 286.316 80.5062 285.83 81.1115C285.343 81.7167 284.66 82.1312 283.899 82.2821C283.899 82.2821 285.992 85.7195 287.709 83.8121C289.425 81.9047 288.091 79.3088 288.091 79.3088L286.558 78.9722Z" fill="#E8E8E8" stroke="#263238" stroke-width="0.932567" stroke-linecap="round" stroke-linejoin="round"/>
<path d="M285.6 89.0957C285.6 89.1966 285.57 89.2952 285.514 89.379C285.458 89.4629 285.379 89.5283 285.286 89.5669C285.193 89.6055 285.09 89.6156 284.992 89.5959C284.893 89.5762 284.802 89.5276 284.731 89.4563C284.659 89.385 284.611 89.2941 284.591 89.1952C284.572 89.0963 284.582 88.9937 284.62 88.9005C284.659 88.8073 284.724 88.7277 284.808 88.6716C284.892 88.6156 284.99 88.5857 285.091 88.5857C285.226 88.5857 285.355 88.6394 285.451 88.7351C285.547 88.8307 285.6 88.9604 285.6 89.0957Z" fill="#E8E8E8" stroke="#263238" stroke-width="0.932567" stroke-linecap="round" stroke-linejoin="round"/>
<path d="M286.293 99.1376C286.293 99.2384 286.263 99.337 286.207 99.4209C286.151 99.5048 286.071 99.5701 285.978 99.6087C285.885 99.6473 285.783 99.6574 285.684 99.6378C285.585 99.6181 285.494 99.5695 285.423 99.4982C285.352 99.4269 285.303 99.336 285.284 99.2371C285.264 99.1381 285.274 99.0356 285.313 98.9424C285.351 98.8492 285.417 98.7696 285.5 98.7135C285.584 98.6575 285.683 98.6276 285.783 98.6276C285.918 98.6276 286.048 98.6813 286.143 98.7769C286.239 98.8726 286.293 99.0023 286.293 99.1376Z" fill="#E8E8E8" stroke="#263238" stroke-width="0.932567" stroke-linecap="round" stroke-linejoin="round"/>
<path d="M286.944 109.419C286.944 109.52 286.915 109.619 286.859 109.703C286.803 109.786 286.723 109.852 286.63 109.89C286.537 109.929 286.435 109.939 286.336 109.919C286.237 109.9 286.146 109.851 286.075 109.78C286.004 109.708 285.955 109.618 285.936 109.519C285.916 109.42 285.926 109.317 285.965 109.224C286.003 109.131 286.068 109.051 286.152 108.995C286.236 108.939 286.334 108.909 286.435 108.909C286.57 108.909 286.7 108.963 286.795 109.059C286.891 109.154 286.944 109.284 286.944 109.419Z" fill="#E8E8E8" stroke="#263238" stroke-width="0.932567" stroke-linecap="round" stroke-linejoin="round"/>
<path d="M331.827 41.0435H228.626C228.148 41.0435 227.76 41.4316 227.76 41.9105V43.772C227.76 44.2508 228.148 44.639 228.626 44.639H331.827C332.305 44.639 332.693 44.2508 332.693 43.772V41.9105C332.693 41.4316 332.305 41.0435 331.827 41.0435Z" fill="white"/>
<path d="M331.654 44.639H228.799" stroke="#263238" stroke-width="0.932567" stroke-linecap="round" stroke-linejoin="round"/>
<path d="M228.799 41.0435H331.654" stroke="#263238" stroke-width="0.932567" stroke-linecap="round" stroke-linejoin="round"/>
<path d="M260.816 65.2379C260.816 65.2379 256.563 64.6412 256.334 65.7836C256.105 66.926 256.232 68.7569 256.965 69.3536C258.351 70.4858 258.096 72.6023 258.096 72.6023L261.661 72.2555L261.753 70.4705C261.936 69.8882 262.264 69.3618 262.706 68.9405C263.989 67.7318 263.48 66.3905 263.261 64.7738C263.042 63.1571 261.977 63.8762 261.891 64.7126C261.865 65.4584 261.927 66.2047 262.074 66.9362L260.816 65.2379Z" fill="white" stroke="#263238" stroke-width="0.932567" stroke-linecap="round" stroke-linejoin="round"/>
<path d="M261.814 66.8087C261.814 66.8087 260.795 67.0178 259.991 68.4611L261.814 66.8087Z" fill="white"/>
<path d="M261.814 66.8087C261.814 66.8087 260.795 67.0178 259.991 68.4611" stroke="#263238" stroke-width="0.932567" stroke-linecap="round" stroke-linejoin="round"/>
<path d="M261.814 67.1861H256.66C256.302 67.1969 255.948 67.122 255.625 66.9677C255.303 66.8133 255.022 66.5839 254.806 66.2987C254.621 66.0395 254.522 65.7294 254.522 65.4113C254.522 65.0932 254.621 64.783 254.806 64.5239L257.383 60.7346C257.606 60.4532 257.889 60.2259 258.212 60.0696C258.535 59.9133 258.889 59.8322 259.247 59.8322C259.606 59.8322 259.96 59.9133 260.282 60.0696C260.605 60.2259 260.889 60.4532 261.111 60.7346L263.694 64.5239C263.878 64.783 263.977 65.0932 263.977 65.4113C263.977 65.7294 263.878 66.0395 263.694 66.2987C263.476 66.5882 263.191 66.8202 262.863 66.9748C262.536 67.1294 262.176 67.2019 261.814 67.1861ZM255.702 64.9421C255.605 65.0773 255.553 65.2396 255.553 65.4062C255.553 65.5727 255.605 65.735 255.702 65.8703C255.815 66.0179 255.961 66.1365 256.128 66.2163C256.295 66.2962 256.479 66.3349 256.665 66.3293H261.814C262 66.3353 262.184 66.2968 262.351 66.2169C262.519 66.1371 262.665 66.0182 262.777 65.8703C262.875 65.7353 262.927 65.5729 262.927 65.4062C262.927 65.2394 262.875 65.077 262.777 64.9421L260.2 61.1579C260.087 61.0066 259.94 60.8849 259.771 60.8032C259.601 60.7214 259.415 60.6821 259.227 60.6887C259.039 60.6817 258.853 60.7208 258.685 60.8026C258.516 60.8844 258.37 61.0064 258.259 61.1579L255.677 64.9472L255.702 64.9421Z" fill="#263238"/>
<path d="M257.693 65.2889C257.958 66.6353 257.795 67.1147 257.184 67.0433C256.573 66.9719 255.957 65.3195 256.802 64.9421C257.648 64.5647 258.33 64.274 258.33 64.274C258.601 64.1274 258.902 64.046 259.21 64.0363C259.517 64.0265 259.823 64.0887 260.103 64.2179C261.315 63.7946 261.529 64.6769 261.529 64.6769C261.529 64.6769 262.405 67.2269 261.676 67.3136C260.948 67.4003 260.347 65.1869 260.347 65.1869C260.347 65.1869 261.259 67.6145 260.423 67.6553C259.588 67.6961 259.104 65.2991 259.104 65.2991C259.104 65.2991 259.649 67.4054 258.86 67.4768C258.07 67.5482 257.693 65.2889 257.693 65.2889Z" fill="white" stroke="#263238" stroke-width="0.932567" stroke-linecap="round" stroke-linejoin="round"/>
<path d="M259.619 43.675H258.784V60.4183H259.619V43.675Z" fill="white" stroke="#263238" stroke-width="0.932567" stroke-linecap="round" stroke-linejoin="round"/>
<path d="M260.082 60.1583L259.537 60.959C259.502 61.0046 259.456 61.0415 259.404 61.0668C259.352 61.0922 259.295 61.1053 259.237 61.1053C259.179 61.1053 259.122 61.0922 259.07 61.0668C259.018 61.0415 258.972 61.0046 258.936 60.959L258.396 60.1583C258.264 59.9696 258.432 59.735 258.692 59.735H259.782C260.047 59.735 260.21 59.99 260.082 60.1583Z" fill="white" stroke="#263238" stroke-width="0.932567" stroke-linecap="round" stroke-linejoin="round"/>
<path d="M259.685 54.5381H258.794C258.549 54.5381 258.351 54.7367 258.351 54.9818V58.6946C258.351 58.9396 258.549 59.1383 258.794 59.1383H259.685C259.93 59.1383 260.128 58.9396 260.128 58.6946V54.9818C260.128 54.7367 259.93 54.5381 259.685 54.5381Z" fill="white" stroke="#263238" stroke-width="0.932567" stroke-linecap="round" stroke-linejoin="round"/>
<path d="M259.685 40.4672H258.794C258.549 40.4672 258.351 40.6658 258.351 40.9109V44.6237C258.351 44.8687 258.549 45.0674 258.794 45.0674H259.685C259.93 45.0674 260.128 44.8687 260.128 44.6237V40.9109C260.128 40.6658 259.93 40.4672 259.685 40.4672Z" fill="white" stroke="#263238" stroke-width="0.932567" stroke-linecap="round" stroke-linejoin="round"/>
<path d="M249.697 67.186H244.543C244.185 67.1969 243.83 67.122 243.508 66.9677C243.185 66.8133 242.904 66.5839 242.689 66.2986C242.504 66.0395 242.405 65.7293 242.405 65.4112C242.405 65.0932 242.504 64.783 242.689 64.5238L245.266 60.7346C245.489 60.4531 245.773 60.2257 246.096 60.0695C246.419 59.9132 246.774 59.832 247.132 59.832C247.491 59.832 247.846 59.9132 248.169 60.0695C248.492 60.2257 248.776 60.4531 248.999 60.7346L251.576 64.5238C251.761 64.783 251.86 65.0932 251.86 65.4112C251.86 65.7293 251.761 66.0395 251.576 66.2986C251.359 66.5881 251.074 66.8202 250.746 66.9748C250.419 67.1294 250.059 67.2019 249.697 67.186ZM243.585 64.942C243.488 65.0773 243.436 65.2396 243.436 65.4061C243.436 65.5727 243.488 65.735 243.585 65.8702C243.697 66.0179 243.843 66.1365 244.011 66.2163C244.178 66.2962 244.362 66.3349 244.548 66.3292H249.702C249.888 66.3348 250.073 66.2962 250.241 66.2164C250.409 66.1366 250.556 66.018 250.67 65.8702C250.767 65.735 250.819 65.5727 250.819 65.4061C250.819 65.2396 250.767 65.0773 250.67 64.942L248.093 61.1578C247.98 61.0066 247.833 60.8849 247.664 60.8031C247.494 60.7214 247.308 60.6821 247.12 60.6886C246.932 60.6816 246.746 60.7207 246.578 60.8026C246.409 60.8844 246.263 61.0064 246.152 61.1578L243.57 64.9471L243.585 64.942Z" fill="#263238"/>
<path d="M247.502 43.675H246.667V60.4183H247.502V43.675Z" fill="white" stroke="#263238" stroke-width="0.932567" stroke-linecap="round" stroke-linejoin="round"/>
<path d="M247.965 60.1583L247.4 60.959C247.364 61.0046 247.319 61.0415 247.267 61.0668C247.215 61.0922 247.157 61.1053 247.1 61.1053C247.042 61.1053 246.985 61.0922 246.932 61.0668C246.88 61.0415 246.835 61.0046 246.799 60.959L246.259 60.1583C246.127 59.9696 246.295 59.735 246.555 59.735H247.645C247.909 59.735 248.093 59.99 247.965 60.1583Z" fill="white" stroke="#263238" stroke-width="0.932567" stroke-linecap="round" stroke-linejoin="round"/>
<path d="M247.568 54.5381H246.677C246.432 54.5381 246.234 54.7367 246.234 54.9818V58.6946C246.234 58.9396 246.432 59.1383 246.677 59.1383H247.568C247.813 59.1383 248.011 58.9396 248.011 58.6946V54.9818C248.011 54.7367 247.813 54.5381 247.568 54.5381Z" fill="white" stroke="#263238" stroke-width="0.932567" stroke-linecap="round" stroke-linejoin="round"/>
<path d="M247.568 40.4672H246.677C246.432 40.4672 246.234 40.6658 246.234 40.9109V44.6237C246.234 44.8687 246.432 45.0674 246.677 45.0674H247.568C247.813 45.0674 248.011 44.8687 248.011 44.6237V40.9109C248.011 40.6658 247.813 40.4672 247.568 40.4672Z" fill="white" stroke="#263238" stroke-width="0.932567" stroke-linecap="round" stroke-linejoin="round"/>
<path d="M302.209 67.1861H297.055C296.697 67.1978 296.342 67.1233 296.02 66.9688C295.697 66.8144 295.416 66.5845 295.201 66.2987C295.016 66.0395 294.917 65.7294 294.917 65.4113C294.917 65.0932 295.016 64.783 295.201 64.5239L297.778 60.7346C298.001 60.4532 298.284 60.2259 298.607 60.0696C298.93 59.9133 299.284 59.8322 299.642 59.8322C300.001 59.8322 300.355 59.9133 300.677 60.0696C301 60.2259 301.284 60.4532 301.506 60.7346L304.084 64.5239C304.268 64.783 304.367 65.0932 304.367 65.4113C304.367 65.7294 304.268 66.0395 304.084 66.2987C303.866 66.5874 303.582 66.8191 303.256 66.9736C302.929 67.1282 302.57 67.2011 302.209 67.1861ZM296.097 64.9421C295.999 65.077 295.947 65.2395 295.947 65.4062C295.947 65.5729 295.999 65.7353 296.097 65.8703C296.209 66.0182 296.355 66.1371 296.523 66.2169C296.69 66.2968 296.874 66.3353 297.06 66.3293H302.214C302.4 66.3353 302.584 66.2968 302.751 66.2169C302.919 66.1371 303.065 66.0182 303.177 65.8703C303.275 65.7353 303.327 65.5729 303.327 65.4062C303.327 65.2395 303.275 65.077 303.177 64.9421L300.6 61.1579C300.483 61.0113 300.335 60.8929 300.167 60.8115C299.998 60.7301 299.814 60.6878 299.627 60.6878C299.44 60.6878 299.255 60.7301 299.087 60.8115C298.918 60.8929 298.77 61.0113 298.654 61.1579L296.077 64.9472L296.097 64.9421Z" fill="#263238"/>
<path d="M300.009 43.675H299.174V60.4183H300.009V43.675Z" fill="white" stroke="#263238" stroke-width="0.932567" stroke-linecap="round" stroke-linejoin="round"/>
<path d="M300.473 60.1583L299.933 60.959C299.897 61.0046 299.851 61.0415 299.799 61.0668C299.747 61.0922 299.69 61.1053 299.632 61.1053C299.574 61.1053 299.517 61.0922 299.465 61.0668C299.413 61.0415 299.368 61.0046 299.332 60.959L298.792 60.1583C298.659 59.9696 298.828 59.735 299.087 59.735H300.177C300.437 59.735 300.605 59.99 300.473 60.1583Z" fill="white" stroke="#263238" stroke-width="0.932567" stroke-linecap="round" stroke-linejoin="round"/>
<path d="M300.081 54.5381H299.189C298.944 54.5381 298.746 54.7367 298.746 54.9818V58.6946C298.746 58.9396 298.944 59.1383 299.189 59.1383H300.081C300.325 59.1383 300.524 58.9396 300.524 58.6946V54.9818C300.524 54.7367 300.325 54.5381 300.081 54.5381Z" fill="white" stroke="#263238" stroke-width="0.932567" stroke-linecap="round" stroke-linejoin="round"/>
<path d="M300.081 40.4672H299.189C298.944 40.4672 298.746 40.6658 298.746 40.9109V44.6237C298.746 44.8687 298.944 45.0674 299.189 45.0674H300.081C300.325 45.0674 300.524 44.8687 300.524 44.6237V40.9109C300.524 40.6658 300.325 40.4672 300.081 40.4672Z" fill="white" stroke="#263238" stroke-width="0.932567" stroke-linecap="round" stroke-linejoin="round"/>
<path d="M313.756 67.186H308.602C308.244 67.1969 307.89 67.122 307.567 66.9677C307.245 66.8133 306.964 66.5839 306.748 66.2986C306.563 66.0395 306.464 65.7293 306.464 65.4112C306.464 65.0932 306.563 64.783 306.748 64.5238L309.325 60.7346C309.548 60.4531 309.832 60.2257 310.155 60.0695C310.478 59.9132 310.833 59.832 311.192 59.832C311.55 59.832 311.905 59.9132 312.228 60.0695C312.551 60.2257 312.835 60.4531 313.058 60.7346L315.635 64.5238C315.82 64.783 315.919 65.0932 315.919 65.4112C315.919 65.7293 315.82 66.0395 315.635 66.2986C315.418 66.5881 315.133 66.8202 314.805 66.9748C314.478 67.1294 314.118 67.2019 313.756 67.186ZM307.644 64.942C307.547 65.0773 307.495 65.2396 307.495 65.4061C307.495 65.5727 307.547 65.735 307.644 65.8702C307.757 66.0179 307.903 66.1365 308.07 66.2163C308.237 66.2962 308.421 66.3349 308.607 66.3292H313.761C313.947 66.3348 314.132 66.2962 314.3 66.2164C314.468 66.1366 314.615 66.018 314.729 65.8702C314.826 65.735 314.878 65.5727 314.878 65.4061C314.878 65.2396 314.826 65.0773 314.729 64.942L312.152 61.1578C312.04 61.0066 311.892 60.8849 311.723 60.8031C311.554 60.7214 311.367 60.6821 311.179 60.6886C310.991 60.6816 310.805 60.7207 310.637 60.8026C310.468 60.8844 310.322 61.0064 310.211 61.1578L307.629 64.9471L307.644 64.942Z" fill="#263238"/>
<path d="M311.561 43.675H310.726V60.4183H311.561V43.675Z" fill="white" stroke="#263238" stroke-width="0.932567" stroke-linecap="round" stroke-linejoin="round"/>
<path d="M312.024 60.1583L311.479 60.959C311.443 61.0046 311.398 61.0415 311.346 61.0668C311.294 61.0922 311.237 61.1053 311.179 61.1053C311.121 61.1053 311.064 61.0922 311.012 61.0668C310.96 61.0415 310.914 61.0046 310.878 60.959L310.338 60.1583C310.206 59.9696 310.374 59.735 310.634 59.735H311.724C311.989 59.735 312.152 59.99 312.024 60.1583Z" fill="white" stroke="#263238" stroke-width="0.932567" stroke-linecap="round" stroke-linejoin="round"/>
<path d="M311.627 54.5381H310.736C310.491 54.5381 310.292 54.7367 310.292 54.9818V58.6946C310.292 58.9396 310.491 59.1383 310.736 59.1383H311.627C311.872 59.1383 312.07 58.9396 312.07 58.6946V54.9818C312.07 54.7367 311.872 54.5381 311.627 54.5381Z" fill="white" stroke="#263238" stroke-width="0.932567" stroke-linecap="round" stroke-linejoin="round"/>
<path d="M311.627 40.4672H310.736C310.491 40.4672 310.292 40.6658 310.292 40.9109V44.6237C310.292 44.8687 310.491 45.0674 310.736 45.0674H311.627C311.872 45.0674 312.07 44.8687 312.07 44.6237V40.9109C312.07 40.6658 311.872 40.4672 311.627 40.4672Z" fill="white" stroke="#263238" stroke-width="0.932567" stroke-linecap="round" stroke-linejoin="round"/>
<path d="M262.212 71.4497L262.482 73.6274L256.94 73.8875L257.403 71.7047L262.212 71.4497Z" fill="#E8E8E8" stroke="#263238" stroke-width="0.932567" stroke-linecap="round" stroke-linejoin="round"/>
<path d="M271.608 89.7536C271.608 89.7536 261.987 98.6123 259.766 98.75C259.221 98.7857 258.748 99.1274 258.289 98.8163C257.271 98.1227 255.799 96.6539 256.013 90.6869C256.125 87.4229 258.096 73.8212 258.096 73.8212L261.661 73.6631L262.527 88.9631C265.583 85.7909 270.895 81.3947 270.901 81.3947C272.561 86.7089 271.608 89.7536 271.608 89.7536Z" fill="white" stroke="#263238" stroke-width="0.932567" stroke-linecap="round" stroke-linejoin="round"/>
<path d="M295.873 102.07C296.113 101.012 296.569 100.015 297.213 99.1427L295.873 102.07Z" fill="white"/>
<path d="M295.873 102.07C296.113 101.012 296.569 100.015 297.213 99.1427" stroke="#263238" stroke-width="0.932567" stroke-linecap="round" stroke-linejoin="round"/>
<path d="M261.438 92.5636C261.809 92.3953 262.696 90.7378 262.512 87.9073" stroke="#263238" stroke-width="0.932567" stroke-linecap="round" stroke-linejoin="round"/>
<path d="M264.855 56.2313V50.1368C264.856 49.8424 264.974 49.5604 265.182 49.3521C265.39 49.1439 265.671 49.0264 265.965 49.025H275.52C275.814 49.0264 276.096 49.1439 276.304 49.3521C276.512 49.5604 276.629 49.8424 276.631 50.1368V56.2313C276.631 56.5262 276.514 56.809 276.306 57.0175C276.097 57.226 275.815 57.3431 275.52 57.3431H272.194L272.459 59.6636H270.743V61.8566L268.706 58.2866H270.371L270.198 57.3482H265.96C265.814 57.3476 265.67 57.3181 265.536 57.2616C265.401 57.2052 265.279 57.1227 265.177 57.019C265.074 56.9153 264.993 56.7923 264.938 56.6572C264.882 56.522 264.854 56.3773 264.855 56.2313Z" fill="white" stroke="#263238" stroke-width="0.932567" stroke-linecap="round" stroke-linejoin="round"/>
<path d="M273.137 51.1108H266.678" stroke="#263238" stroke-width="0.932567" stroke-linecap="round" stroke-linejoin="round"/>
<path d="M274.807 52.8398H266.678" stroke="#263238" stroke-width="0.932567" stroke-linecap="round" stroke-linejoin="round"/>
<path d="M273.554 54.5636H266.678" stroke="#263238" stroke-width="0.932567" stroke-linecap="round" stroke-linejoin="round"/>
<path d="M52.3457 207.074C65.4795 207.074 76.1265 205.505 76.1265 203.57C76.1265 201.635 65.4795 200.067 52.3457 200.067C39.212 200.067 28.5649 201.635 28.5649 203.57C28.5649 205.505 39.212 207.074 52.3457 207.074Z" fill="#E8E8E8"/>
<path d="M50.2625 147.736C73.1348 147.736 91.6764 129.17 91.6764 106.267C91.6764 83.3652 73.1348 64.7993 50.2625 64.7993C27.3903 64.7993 8.84863 83.3652 8.84863 106.267C8.84863 129.17 27.3903 147.736 50.2625 147.736Z" fill="#E8E8E8"/>
<path d="M31.1622 133.384C31.1622 133.384 32.2165 139.504 28.6562 146.384H73.1771C73.1771 146.384 71.1398 143.176 69.0056 133.384H31.1622Z" fill="white" stroke="#263238" stroke-width="0.87381" stroke-linecap="round" stroke-linejoin="round"/>
<path d="M41.3131 134.797C38.8762 134.992 36.5405 135.858 34.5633 137.297C32.5861 138.737 31.0443 140.696 30.1078 142.957C29.629 144.12 29.1299 145.298 28.6562 146.399C25.9466 152.677 28.5085 161.812 35.4354 161.812H67.1975C73.4775 161.812 75.194 153.85 73.6915 147.853C72.7237 143.997 70.773 140.126 67.4419 137.413C62.9904 133.767 49.982 134.103 41.3131 134.797Z" fill="#263238" stroke="#263238" stroke-width="0.87381" stroke-linecap="round" stroke-linejoin="round"/>
<path d="M10.9878 128.06C10.9878 128.06 5.29343 131.507 5.10498 133.384H12.0879L14.8638 131.39L13.9266 133.394H16.0506C16.0506 133.394 18.3069 131.64 18.4291 129.697L18.1999 128.06L14.1253 126.244L10.9878 128.06Z" fill="white" stroke="#263238" stroke-width="0.87381" stroke-linecap="round" stroke-linejoin="round"/>
<path d="M77.6901 115.396C77.6901 115.396 76.7784 109.394 74.7767 100.749C72.7751 92.1048 68.8634 91.4265 68.8634 91.4265H68.8277C63.7344 89.2335 50.4917 88.0503 50.4917 88.0503H49.8805C49.8805 88.0503 36.6073 89.2335 31.5445 91.4265H31.5089C31.5089 91.4265 27.5616 92.1201 25.5599 100.749C23.5582 109.378 22.6414 115.396 22.6414 115.396C22.6414 115.396 19.0251 116.376 12.5158 124.576C11.4939 125.877 10.624 127.29 9.92334 128.789C9.92334 128.789 14.925 127.142 18.4292 129.666C18.4292 129.666 29.9096 124.791 30.4851 119.65C30.4851 119.466 30.531 119.262 30.5564 119.043C30.8824 126.846 31.1625 133.364 31.1625 133.364H69.169C69.169 133.364 69.4542 126.846 69.7802 119.043C69.7802 119.262 69.826 119.466 69.8464 119.65C70.427 124.791 83.1349 130.554 83.1349 130.554C86.6188 125.188 91.6764 128.152 91.6764 128.152L77.6901 115.396Z" fill="white"/>
<path opacity="0.3" d="M30.4851 119.66C30.4851 119.507 30.5259 119.334 30.5462 119.15L29.716 101.091C29.716 101.091 27.424 101.56 28.0811 107.104C28.7381 112.648 30.1184 111.694 29.3493 113.831C28.5802 115.968 25.5955 113.52 24.6074 115.361C23.6193 117.202 30.1286 116.809 27.4393 121.552C24.75 126.295 18.4292 129.712 18.4292 129.712C18.4292 129.712 29.9147 124.811 30.4851 119.66Z" fill="black"/>
<g opacity="0.3">
<path opacity="0.3" d="M70.0249 119.66C70.0249 119.507 71.5223 119.772 70.0249 119.66L70.4782 104.202C70.4782 104.202 70.3662 111.679 71.1658 113.831C71.9655 115.983 74.9196 113.52 75.9026 115.361C76.8856 117.202 70.3814 116.809 73.0758 121.552C75.7702 126.295 82.0808 129.712 82.0808 129.712C82.0808 129.712 70.6055 124.811 70.0249 119.66Z" fill="black"/>
</g>
<path opacity="0.3" d="M69.4442 123.179C69.1946 129.029 69.0061 133.379 69.0061 133.379H34.835C57.755 133.379 69.4696 123.179 69.4696 123.179H69.4442Z" fill="black"/>
<path d="M77.6901 115.396C77.6901 115.396 76.7784 109.394 74.7768 100.749C72.7751 92.1048 68.8634 91.4265 68.8634 91.4265H68.8277C63.7344 89.2335 50.4917 88.0503 50.4917 88.0503H49.8805C49.8805 88.0503 36.6073 89.2335 31.5445 91.4265H31.5089C31.5089 91.4265 27.5616 92.1201 25.5599 100.749C23.5582 109.378 22.6414 115.396 22.6414 115.396C22.6414 115.396 19.0251 116.376 12.5158 124.576C11.4939 125.877 10.624 127.29 9.92334 128.789V128.789C9.92334 128.789 14.925 127.142 18.4292 129.666C18.4292 129.666 29.9096 124.791 30.4851 119.65C30.4851 119.466 30.531 119.262 30.5564 119.043C30.8824 126.846 31.1625 133.364 31.1625 133.364H69.169C69.169 133.364 69.4542 126.846 69.7802 119.043C69.7802 119.262 69.826 119.466 69.8464 119.65C70.427 124.791 83.1349 130.554 83.1349 130.554C86.6188 125.188 91.6764 128.152 91.6764 128.152L77.6901 115.396Z" stroke="#263238" stroke-width="0.87381" stroke-linecap="round" stroke-linejoin="round"/>
<path d="M23.8584 115.361C25.6912 115.269 27.4875 115.896 28.8651 117.11" stroke="#263238" stroke-width="0.87381" stroke-linecap="round" stroke-linejoin="round"/>
<path d="M27.439 101.632C27.439 101.632 29.7921 102.142 30.332 113.596L29.624 98.5614" stroke="#263238" stroke-width="0.87381" stroke-linecap="round" stroke-linejoin="round"/>
<path d="M30.3628 115.187L30.47 117.508" stroke="#263238" stroke-width="0.87381" stroke-linecap="round" stroke-linejoin="round"/>
<path d="M76.4779 115.361C74.6487 115.262 72.8527 115.88 71.4712 117.085" stroke="#263238" stroke-width="0.87381" stroke-linecap="round" stroke-linejoin="round"/>
<path d="M70.5693 101.632C70.6136 100.612 70.6613 99.5915 70.7124 98.5715" stroke="#263238" stroke-width="0.87381" stroke-linecap="round" stroke-linejoin="round"/>
<path d="M57.3015 88.8764C56.6852 91.967 53.7005 93.0839 50.1046 93.0839C46.5087 93.0839 43.5342 91.9721 42.9077 88.8917H43.0503C43.4228 88.8409 43.7712 88.6782 44.0494 88.4251C44.3277 88.172 44.5227 87.8403 44.6089 87.4739C44.6588 87.3278 44.6846 87.1745 44.6853 87.02V83.3939H55.6869V87.02C55.6856 87.2468 55.727 87.4717 55.8091 87.683C55.9277 87.9979 56.129 88.275 56.3916 88.485C56.6542 88.695 56.9686 88.8302 57.3015 88.8764Z" fill="white"/>
<path d="M55.5949 86.1072C53.7715 87.9024 51.7392 89.0193 49.7783 89.106C47.741 89.1978 45.3777 87.525 44.415 85.8828C44.4548 85.7401 44.4737 85.5923 44.4711 85.4442V84.3324L55.4727 84.4497V85.4442C55.4727 85.6788 55.7528 85.9542 55.5949 86.1072Z" fill="#263238"/>
<path d="M57.3015 88.8764C56.6852 91.967 53.7005 93.0839 50.1046 93.0839C46.5087 93.0839 43.5342 91.9721 42.9077 88.8917H43.0503C43.4228 88.8409 43.7712 88.6782 44.0494 88.4251C44.3277 88.172 44.5227 87.8403 44.6089 87.4739C44.6588 87.3278 44.6846 87.1745 44.6853 87.02V83.3939H55.6869V87.02C55.6856 87.2468 55.727 87.4717 55.8091 87.683C55.9277 87.9979 56.129 88.275 56.3916 88.485C56.6542 88.695 56.9686 88.8302 57.3015 88.8764V88.8764Z" stroke="#263238" stroke-width="0.87381" stroke-linecap="round" stroke-linejoin="round"/>
<path d="M42.0673 75.6063C42.0673 75.6063 38.2524 71.2866 38.7516 65.3349C39.2507 59.3832 44.1301 59.3832 44.1301 59.3832C44.1301 59.3832 50.0129 54.1863 56.5782 57.4401C63.1435 60.6939 62.6902 71.9751 57.8312 74.7801L42.0673 75.6063Z" fill="#263238"/>
<path d="M58.8853 72.6992C58.9363 71.7098 58.9312 71.0979 58.9312 71.0979C58.4932 68.4663 55.2793 68.201 53.8022 68.1551C47.6138 67.946 45.9839 64.1465 45.9839 64.1465C42.2301 63.0194 41.1656 71.0979 41.1656 71.0979C41.1656 71.0979 41.1656 71.7098 41.2166 72.6992C40.5535 72.826 39.9581 73.1873 39.5391 73.7173C39.1202 74.2473 38.9057 74.9106 38.9347 75.5859C38.9347 77.1975 40.096 78.4979 41.5323 78.4979C41.6776 78.4972 41.8225 78.4836 41.9653 78.4572L42.6376 82.2515C42.7649 83.1032 43.5646 85.1178 44.2827 85.5972C45.8107 86.6172 48.2301 88.0706 50.0484 88.0706C51.6171 88.0706 53.8175 86.7752 55.4422 85.8929C56.3489 85.3829 57.3472 83.4296 57.4337 82.4045L57.8565 78.5693C58.0952 78.5579 58.3333 78.5341 58.5695 78.4979C60.0008 78.4979 61.1672 77.1975 61.1672 75.5859C61.1962 74.9106 60.9817 74.2473 60.5628 73.7173C60.1438 73.1873 59.5484 72.826 58.8853 72.6992Z" fill="white" stroke="#263238" stroke-width="0.87381" stroke-linecap="round" stroke-linejoin="round"/>
<path d="M39.9331 70.2512H39.2607V72.6482H39.9331V70.2512Z" fill="white" stroke="#263238" stroke-width="0.87381" stroke-linecap="round" stroke-linejoin="round"/>
<path d="M60.4746 70.2512H59.8022V72.6482H60.4746V70.2512Z" fill="white" stroke="#263238" stroke-width="0.87381" stroke-linecap="round" stroke-linejoin="round"/>
<path d="M49.8652 59.781C47.0059 59.7804 44.2578 60.8905 42.1992 62.8775C40.1407 64.8646 38.9321 67.5737 38.8279 70.4349C38.8259 70.4882 38.8346 70.5413 38.8537 70.5911C38.8728 70.6409 38.9018 70.6862 38.939 70.7244C38.9762 70.7626 39.0207 70.7928 39.0699 70.8131C39.1191 70.8335 39.172 70.8436 39.2252 70.8429H39.9383C40.0419 70.8429 40.1414 70.8024 40.2157 70.73C40.2899 70.6576 40.3329 70.559 40.3356 70.4553C40.4489 68.0009 41.5025 65.6846 43.2772 63.9879C45.0519 62.2911 47.4114 61.3443 49.8652 61.3443C52.319 61.3443 54.6785 62.2911 56.4532 63.9879C58.2279 65.6846 59.2815 68.0009 59.3948 70.4553C59.3988 70.5595 59.4429 70.6581 59.5179 70.7304C59.593 70.8026 59.6931 70.843 59.7972 70.8429H60.5052C60.5586 70.8436 60.6117 70.8335 60.6612 70.8132C60.7106 70.7929 60.7555 70.7627 60.7931 70.7246C60.8306 70.6866 60.8602 70.6413 60.8798 70.5915C60.8995 70.5417 60.9089 70.4884 60.9075 70.4349C60.8021 67.5733 59.5924 64.8641 57.533 62.8772C55.4737 60.8902 52.725 59.7804 49.8652 59.781Z" fill="white" stroke="#263238" stroke-width="0.87381" stroke-linecap="round" stroke-linejoin="round"/>
<path d="M41.0793 71.7864H40.9265C40.0249 71.8209 39.1717 72.2038 38.546 72.8547C37.9203 73.5056 37.5708 74.3739 37.5708 75.2773C37.5708 76.1808 37.9203 77.0491 38.546 77.7C39.1717 78.3509 40.0249 78.7338 40.9265 78.7683H41.0793V71.7864Z" fill="#263238" stroke="#263238" stroke-width="0.87381" stroke-miterlimit="10"/>
<path d="M41.9093 75.29C41.9093 77.8757 42.0214 79.5587 41.13 79.5587C40.2387 79.5587 39.9331 77.8757 39.9331 75.29C39.9331 72.7043 40.2387 71.0162 41.13 71.0162C42.0214 71.0162 41.9093 72.6788 41.9093 75.29Z" fill="white" stroke="#263238" stroke-width="0.87381" stroke-linecap="round" stroke-linejoin="round"/>
<path d="M58.6562 71.7864H58.8091C59.7106 71.8209 60.5638 72.2038 61.1895 72.8547C61.8152 73.5056 62.1647 74.3739 62.1647 75.2773C62.1647 76.1808 61.8152 77.0491 61.1895 77.7C60.5638 78.3509 59.7106 78.7338 58.8091 78.7683H58.6562V71.7864Z" fill="#263238" stroke="#263238" stroke-width="0.87381" stroke-miterlimit="10"/>
<path d="M57.8209 75.29C57.8209 77.8757 57.7139 79.5587 58.6053 79.5587C59.4966 79.5587 59.8022 77.8757 59.8022 75.29C59.8022 72.7043 59.4966 71.0162 58.6053 71.0162C57.7139 71.0162 57.8209 72.6788 57.8209 75.29Z" fill="white" stroke="#263238" stroke-width="0.87381" stroke-linecap="round" stroke-linejoin="round"/>
<path d="M43.9058 75.9174C43.9058 75.9174 45.3574 77.7075 48.0772 76.2948" stroke="#263238" stroke-width="0.87381" stroke-linecap="round" stroke-linejoin="round"/>
<path d="M48.0771 82.8789C48.6775 83.3155 49.4005 83.5507 50.1425 83.5507C50.8845 83.5507 51.6075 83.3155 52.2079 82.8789" stroke="#263238" stroke-width="0.75" stroke-linecap="round" stroke-linejoin="round"/>
<path d="M43.5034 73.5153C43.5034 73.5153 46.1367 71.5059 48.4796 73.5153" stroke="#263238" stroke-width="0.87381" stroke-linecap="round" stroke-linejoin="round"/>
<path d="M56.4357 73.5816C56.4357 73.5816 53.8024 71.5416 51.4595 73.5816" stroke="#263238" stroke-width="0.87381" stroke-linecap="round" stroke-linejoin="round"/>
<path d="M52.0552 80.0637C52.0552 80.0637 52.2895 81.3693 49.9007 81.3387C49.315 81.3387 48.2505 80.9205 48.2148 80.0637" stroke="#263238" stroke-width="0.75" stroke-linecap="round" stroke-linejoin="round"/>
<path d="M44.4766 76.3916C44.6956 76.8251 45.1896 77.3249 46.2949 77.3504C47.4001 77.3759 47.5937 76.9373 47.6141 76.5089C47.1215 76.7482 46.5778 76.8627 46.0307 76.8422C45.4836 76.8218 44.9499 76.667 44.4766 76.3916Z" fill="#263238"/>
<path d="M56.0533 75.9174C56.0533 75.9174 54.6017 77.7075 51.8818 76.2948" stroke="#263238" stroke-width="0.87381" stroke-linecap="round" stroke-linejoin="round"/>
<path d="M55.4832 76.3916C55.2642 76.8251 54.7701 77.3249 53.6649 77.3504C52.5596 77.3759 52.3661 76.9373 52.3457 76.5089C52.8381 76.7487 53.3819 76.8634 53.9291 76.8429C54.4763 76.8225 55.01 76.6675 55.4832 76.3916Z" fill="#263238"/>
<path d="M45.383 56.8994C45.383 56.8994 44.0434 57.6491 44.1911 59.7809C44.1911 59.7809 43.7225 58.3427 42.001 58.97" stroke="#263238" stroke-width="0.87381" stroke-linecap="round" stroke-linejoin="round"/>
<path d="M50.1656 94.67C51.9212 94.6696 53.6337 94.126 55.0688 93.1135C56.5039 92.1011 57.5914 90.6693 58.1825 89.0141C57.719 88.9427 57.2606 88.8815 56.8175 88.8203C56.1195 89.9585 55.1418 90.8984 53.9777 91.5505C52.8136 92.2026 51.502 92.5449 50.1682 92.5449C48.8343 92.5449 47.5227 92.2026 46.3586 91.5505C45.1945 90.8984 44.2168 89.9585 43.5188 88.8203C43.0757 88.8815 42.6173 88.9427 42.1538 89.0141C42.7446 90.6685 43.8314 92.0997 45.2655 93.1121C46.6996 94.1245 48.411 94.6686 50.1656 94.67Z" fill="#263238" stroke="#263238" stroke-width="0.87381" stroke-linecap="round" stroke-linejoin="round"/>
<path d="M69.7798 119.063C70.0039 114.093 70.2297 109.12 70.4572 104.146" stroke="#263238" stroke-width="0.87381" stroke-linecap="round" stroke-linejoin="round"/>
<path d="M69.9479 68.2572V62.7645C69.9479 62.494 69.8406 62.2345 69.6496 62.0433C69.4585 61.852 69.1994 61.7445 68.9293 61.7445H60.3419C60.0717 61.7445 59.8126 61.852 59.6216 62.0433C59.4306 62.2345 59.3232 62.494 59.3232 62.7645V68.2572C59.3232 68.5277 59.4306 68.7872 59.6216 68.9785C59.8126 69.1697 60.0717 69.2772 60.3419 69.2772H63.3368L63.0974 71.3682H64.6254V73.3419L66.4539 70.1238H64.9514L65.1093 69.2772H68.9242C69.0584 69.2779 69.1914 69.252 69.3156 69.201C69.4397 69.1501 69.5526 69.075 69.6478 68.9803C69.7429 68.8855 69.8184 68.7728 69.8699 68.6487C69.9214 68.5246 69.9479 68.3916 69.9479 68.2572Z" fill="white" stroke="#263238" stroke-width="0.87381" stroke-linecap="round" stroke-linejoin="round"/>
<path d="M60.9839 63.6467H66.8056" stroke="#263238" stroke-width="0.87381" stroke-linecap="round" stroke-linejoin="round"/>
<path d="M60.9839 65.2023H68.303" stroke="#263238" stroke-width="0.87381" stroke-linecap="round" stroke-linejoin="round"/>
<path d="M60.9839 66.7578H67.1774" stroke="#263238" stroke-width="0.87381" stroke-linecap="round" stroke-linejoin="round"/>
<path d="M96.3313 130.727C96.3313 132.349 93.7847 133.364 90.6574 133.364C87.5301 133.364 84.9834 132.344 84.9834 130.727C84.9834 129.11 87.5301 127.784 90.6574 127.784C93.7847 127.784 96.3313 129.1 96.3313 130.727Z" fill="white" stroke="#263238" stroke-width="0.87381" stroke-linecap="round" stroke-linejoin="round"/>
<path d="M86.9851 132.777C87.1379 132.742 87.2602 131.885 85.8799 131.247C84.9223 130.809 84.8969 130.345 85.4469 129.773C85.997 129.202 86.9342 128.723 87.6574 128.932C88.834 129.268 89.6133 131.722 90.1379 131.191C90.9274 130.987 89.9749 128.738 88.564 127.999C91.1107 128.631 91.233 131.569 92.4044 131.334C93.3008 131.161 91.7525 128.243 90.4129 127.381C91.2714 127.782 92.0222 128.382 92.6031 129.131C93.4536 130.37 93.5504 130.788 94.1311 130.61C94.8849 130.37 93.0869 127.647 92.8628 127.351C93.9935 127.8 94.2075 128.748 94.5538 129.131C94.9002 129.513 95.0631 130.151 95.5419 129.901C96.0207 129.651 95.5776 128.764 95.2567 128.243C93.7287 125.77 91.182 125.357 88.7576 125.663C86.8425 125.908 84.6422 126.713 83.4758 128.243C83.1791 128.625 83.0046 129.087 82.9755 129.57C82.9464 130.052 83.064 130.532 83.3128 130.946C83.7203 131.808 85.177 133.185 86.9851 132.777Z" fill="white" stroke="#263238" stroke-width="0.87381" stroke-linecap="round" stroke-linejoin="round"/>
<path d="M97.8189 133.384H4.08627C3.80779 133.384 3.58203 133.61 3.58203 133.889V134.7C3.58203 134.979 3.80779 135.205 4.08627 135.205H97.8189C98.0974 135.205 98.3231 134.979 98.3231 134.7V133.889C98.3231 133.61 98.0974 133.384 97.8189 133.384Z" fill="#BFBFBF" stroke="#263238" stroke-width="0.87381" stroke-miterlimit="10"/>
<path d="M6.8366 133.384L-0.0597717 112.398C-0.0857629 112.316 -0.0925088 112.229 -0.079481 112.144C-0.0664531 112.06 -0.0340066 111.979 0.0153215 111.909C0.0646497 111.839 0.129521 111.781 0.204855 111.74C0.280189 111.699 0.363943 111.677 0.449562 111.673H22.2337L29.9909 133.384H6.8366Z" fill="#263238"/>
<path d="M22.8298 111.673L29.9605 132.165H49.0605V132.884C49.0605 133.02 49.0068 133.149 48.9113 133.245C48.8158 133.341 48.6862 133.394 48.5511 133.394H28.7381L21.8773 112.52C21.8469 112.426 21.839 112.327 21.8542 112.229C21.8694 112.132 21.9073 112.04 21.9649 111.96C22.0224 111.88 22.098 111.814 22.1854 111.769C22.2729 111.724 22.3697 111.7 22.4682 111.699L22.8298 111.673Z" fill="white" stroke="#263238" stroke-width="0.87381" stroke-linecap="round" stroke-linejoin="round"/>
<path d="M12.7141 122.531C12.6468 122.175 12.481 121.844 12.2354 121.578C12.342 121.451 12.4757 121.351 12.6265 121.284C12.7773 121.217 12.9414 121.185 13.1063 121.19C13.4913 121.206 13.8604 121.348 14.1574 121.594C14.4544 121.84 14.663 122.176 14.7515 122.552C14.7986 122.714 14.8063 122.886 14.774 123.052C14.7417 123.218 14.6703 123.374 14.5658 123.508C14.4612 123.641 14.3265 123.747 14.1728 123.817C14.0191 123.888 13.8508 123.921 13.6819 123.913C13.2913 123.904 12.9163 123.758 12.6224 123.5C12.7693 123.199 12.8019 122.855 12.7141 122.531Z" fill="white"/>
<path d="M56.8482 133.384H63.8108C64.7384 132.704 65.49 131.812 66.003 130.782C66.516 129.752 66.7755 128.614 66.7599 127.463V124.184C66.7599 124.059 66.7354 123.936 66.6878 123.821C66.6402 123.706 66.5704 123.601 66.4824 123.513C66.3944 123.425 66.29 123.355 66.1751 123.307C66.0601 123.26 65.9369 123.235 65.8125 123.235H54.872C54.7479 123.235 54.6249 123.26 54.5103 123.307C54.3956 123.355 54.2915 123.425 54.2039 123.513C54.1164 123.601 54.0471 123.706 54 123.821C53.953 123.936 53.9291 124.059 53.9298 124.184V127.463C53.9102 128.611 54.1648 129.748 54.6724 130.778C55.1801 131.808 55.926 132.701 56.8482 133.384Z" fill="white" stroke="#263238" stroke-width="0.87381" stroke-linecap="round" stroke-linejoin="round"/>
<path d="M68.7358 124.633C68.4423 124.448 68.1061 124.342 67.7597 124.326C67.4134 124.31 67.0688 124.384 66.7595 124.541V125.724C67.0613 125.673 67.3711 125.735 67.6305 125.897C68.6135 126.469 68.4047 127.636 67.7171 128.825C67.4026 129.498 66.8618 130.04 66.1891 130.355C65.9881 130.845 65.7336 131.312 65.4302 131.747C66.7392 132.033 67.9361 130.921 68.8733 129.299C69.9734 127.392 70.3045 125.54 68.7358 124.633Z" fill="white" stroke="#263238" stroke-width="0.87381" stroke-linecap="round" stroke-linejoin="round"/>
<path d="M60.4744 118.069C60.7275 117.243 60.8529 116.383 60.8463 115.519C60.8463 110.725 56.3438 110.159 56.3438 104.712" stroke="#263238" stroke-width="0.87381" stroke-linecap="round" stroke-linejoin="round"/>
<path d="M57.2808 122.297C58.0963 121.788 58.8013 121.12 59.3537 120.333" stroke="#263238" stroke-width="0.87381" stroke-linecap="round" stroke-linejoin="round"/>
<path d="M60.0831 109.282C59.8308 108.813 59.7258 108.28 59.7818 107.752" stroke="#263238" stroke-width="0.87381" stroke-linecap="round" stroke-linejoin="round"/>
<path d="M63.5914 116.014C63.3622 114.514 62.5015 113.107 61.6509 111.826" stroke="#263238" stroke-width="0.87381" stroke-linecap="round" stroke-linejoin="round"/>
<path d="M60.9839 122.353C60.9839 122.353 62.4711 121.726 63.2861 118.895" stroke="#263238" stroke-width="0.87381" stroke-linecap="round" stroke-linejoin="round"/>
<path d="M70.0807 161.796H31.9418C29.157 161.796 26.8994 164.057 26.8994 166.845V192.09C26.8994 194.879 29.157 197.139 31.9418 197.139H70.0807C72.8655 197.139 75.1231 194.879 75.1231 192.09V166.845C75.1231 164.057 72.8655 161.796 70.0807 161.796Z" fill="white" stroke="#263238" stroke-width="0.87381" stroke-miterlimit="10"/>
<path d="M38.9551 186.113L39.5306 196.196L39.5968 196.282C40.0526 196.895 40.6465 197.391 41.3302 197.73C42.0138 198.069 42.7678 198.241 43.5306 198.233C44.2933 198.224 45.0433 198.035 45.7193 197.681C46.3953 197.327 46.9781 196.818 47.4202 196.196L47.6341 186.113H38.9551Z" fill="white" stroke="#263238" stroke-width="0.87381" stroke-linecap="round" stroke-linejoin="round"/>
<path d="M49.5391 206.049C45.6756 206.727 41.7236 206.727 37.8601 206.049C37.4994 205.692 37.1892 205.287 36.9382 204.845C36.5477 204.149 36.3271 203.371 36.2943 202.573C36.2616 201.775 36.4176 200.981 36.7497 200.255L39.0774 196.099L48.3014 196.201L50.3795 199.995C50.8782 200.896 51.093 201.926 50.9958 202.951C50.8985 203.976 50.4937 204.948 49.8345 205.738C49.7415 205.847 49.6429 205.951 49.5391 206.049Z" fill="#BFBFBF" stroke="#263238" stroke-width="0.87381" stroke-miterlimit="10"/>
<path d="M47.2725 200.816C47.843 201.068 48.3873 201.375 48.8972 201.734L47.2725 200.816Z" fill="#BFBFBF"/>
<path d="M47.2725 200.816C47.843 201.068 48.3873 201.375 48.8972 201.734" stroke="#263238" stroke-width="0.87381" stroke-miterlimit="10"/>
<path d="M38.5732 201.734C39.5856 201.04 40.7255 200.555 41.9268 200.305C43.1282 200.056 44.367 200.047 45.5715 200.281" fill="#BFBFBF"/>
<path d="M38.5732 201.734C39.5856 201.04 40.7255 200.555 41.9268 200.305C43.1282 200.056 44.367 200.047 45.5715 200.281" stroke="#263238" stroke-width="0.87381" stroke-miterlimit="10"/>
<path d="M33.9893 144.502L38.0639 191.259H48.602C48.602 191.259 49.6462 162.699 50.3083 144.155C50.3516 143.055 50.1722 141.958 49.7808 140.929C49.3894 139.9 48.7941 138.961 48.0309 138.169C47.2676 137.377 46.3521 136.747 45.3395 136.318C44.3269 135.89 43.2381 135.67 42.1386 135.674C41.0099 135.67 39.8927 135.901 38.8578 136.352C37.8229 136.804 36.893 137.465 36.1268 138.295C35.3607 139.125 34.775 140.105 34.4071 141.174C34.0391 142.242 33.8969 143.376 33.9893 144.502Z" fill="#263238"/>
<path d="M44.4764 136.006C43.7091 135.78 42.9128 135.668 42.1131 135.674V135.674C40.9866 135.674 39.8722 135.907 38.8403 136.36C37.8085 136.813 36.8816 137.475 36.1182 138.305C35.3548 139.134 34.7714 140.113 34.405 141.18C34.0386 142.247 33.897 143.378 33.9893 144.502L35.4358 161.796" stroke="white" stroke-width="0.87381" stroke-linecap="round" stroke-linejoin="round"/>
<path d="M48.8768 139.193C48.4594 138.599 47.9682 138.061 47.4151 137.592C47.4151 137.592 46.7784 137.082 46.4932 136.918" stroke="white" stroke-width="0.87381" stroke-linecap="round" stroke-linejoin="round"/>
<path d="M49.6104 161.796C49.8192 156.008 50.1452 149.235 50.3234 144.155C50.3721 142.894 50.128 141.639 49.6104 140.488" stroke="white" stroke-width="0.87381" stroke-linecap="round" stroke-linejoin="round"/>
<path d="M56.0991 186.113L56.6747 196.196L56.7409 196.282C57.1966 196.895 57.7906 197.391 58.4742 197.73C59.1578 198.069 59.9118 198.241 60.6746 198.233C61.4374 198.224 62.1873 198.035 62.8633 197.681C63.5393 197.327 64.1221 196.818 64.5642 196.196L64.7781 186.113H56.0991Z" fill="white" stroke="#263238" stroke-width="0.87381" stroke-linecap="round" stroke-linejoin="round"/>
<path d="M66.6832 206.049C62.8197 206.727 58.8677 206.727 55.0042 206.049C54.6443 205.692 54.3358 205.287 54.0874 204.845C53.6949 204.15 53.4727 203.372 53.4391 202.574C53.4054 201.776 53.5613 200.981 53.8939 200.255L56.2266 196.099L65.4455 196.201L67.5236 199.995C68.0223 200.896 68.2371 201.926 68.1399 202.951C68.0426 203.976 67.6378 204.948 66.9786 205.738C66.8856 205.847 66.787 205.951 66.6832 206.049Z" fill="#BFBFBF" stroke="#263238" stroke-width="0.87381" stroke-miterlimit="10"/>
<path d="M64.4165 200.816C64.9877 201.067 65.532 201.374 66.0413 201.734L64.4165 200.816Z" fill="#BFBFBF"/>
<path d="M64.4165 200.816C64.9877 201.067 65.532 201.374 66.0413 201.734" stroke="#263238" stroke-width="0.87381" stroke-miterlimit="10"/>
<path d="M55.7275 201.734C56.7401 201.041 57.88 200.555 59.0812 200.305C60.2825 200.056 61.5213 200.048 62.7258 200.281" fill="#BFBFBF"/>
<path d="M55.7275 201.734C56.7401 201.041 57.88 200.555 59.0812 200.305C60.2825 200.056 61.5213 200.048 62.7258 200.281" stroke="#263238" stroke-width="0.87381" stroke-miterlimit="10"/>
<path d="M51.1485 144.502L55.2231 191.259H65.7612C65.7612 191.259 66.8054 162.699 67.4726 144.155C67.5124 143.053 67.3292 141.954 66.9341 140.924C66.5389 139.894 65.9398 138.954 65.1729 138.162C64.406 137.37 63.4871 136.741 62.4713 136.314C61.4556 135.886 60.364 135.669 59.2621 135.674C58.1364 135.675 57.0231 135.91 55.9925 136.363C54.9619 136.817 54.0362 137.479 53.2739 138.308C52.5116 139.138 51.9292 140.116 51.5634 141.182C51.1976 142.248 51.0563 143.379 51.1485 144.502Z" fill="#263238"/>
<path d="M62.6237 136.378C61.5659 135.907 60.4199 135.667 59.2621 135.674C58.1364 135.675 57.0231 135.91 55.9925 136.363C54.9619 136.817 54.0362 137.479 53.2739 138.308C52.5116 139.138 51.9292 140.116 51.5634 141.182C51.1976 142.248 51.0563 143.379 51.1485 144.502L52.6765 161.796" stroke="white" stroke-width="0.87381" stroke-linecap="round" stroke-linejoin="round"/>
<path d="M66.0213 139.193C65.6066 138.597 65.1151 138.059 64.5596 137.592" stroke="white" stroke-width="0.87381" stroke-linecap="round" stroke-linejoin="round"/>
<path d="M67.1979 161.796C67.4067 156.008 67.2896 149.235 67.4729 144.155C67.5142 143.039 67.327 141.927 66.9229 140.886" stroke="white" stroke-width="0.87381" stroke-linecap="round" stroke-linejoin="round"/>
<path d="M192.01 64.9216V43.1599C192.01 42.1076 191.593 41.0984 190.85 40.3543C190.106 39.6102 189.099 39.1921 188.048 39.1921H153.953C152.902 39.1921 151.894 39.6102 151.151 40.3543C150.408 41.0984 149.99 42.1076 149.99 43.1599V64.9216C149.99 65.974 150.408 66.9832 151.151 67.7273C151.894 68.4714 152.902 68.8894 153.953 68.8894H165.825L164.888 77.1718H171V84.9799L178.253 72.2299H172.304L172.931 68.8843H188.048C189.098 68.8843 190.105 68.467 190.848 67.724C191.591 66.981 192.009 65.9731 192.01 64.9216Z" fill="white" stroke="#263238" stroke-width="1.02547" stroke-linecap="round" stroke-linejoin="round"/>
<path d="M156.5 46.6382H179.552" stroke="#263238" stroke-width="1.02547" stroke-linecap="round" stroke-linejoin="round"/>
<path d="M156.5 52.8041H185.501" stroke="#263238" stroke-width="1.02547" stroke-linecap="round" stroke-linejoin="round"/>
<path d="M156.5 58.97H181.039" stroke="#263238" stroke-width="1.02547" stroke-linecap="round" stroke-linejoin="round"/>
<path d="M218.052 158.104L238.65 164.979L233.541 170.099L243.076 179.646L222.478 172.771L227.587 167.651L218.052 158.104Z" fill="#E8E8E8" stroke="#263238" stroke-width="1.02547" stroke-linecap="round" stroke-linejoin="round"/>
<path d="M123.948 158.104L103.35 164.979L108.459 170.099L98.9243 179.646L119.522 172.771L114.413 167.651L123.948 158.104Z" fill="#E8E8E8" stroke="#263238" stroke-width="1.02547" stroke-linecap="round" stroke-linejoin="round"/>
<path d="M170.424 0.391357L160.711 19.8428H167.944V33.3476L177.652 13.8962H170.424V0.391357Z" fill="#E8E8E8" stroke="#263238" stroke-width="1.02547" stroke-linecap="round" stroke-linejoin="round"/>
</g>
<defs>
<clipPath id="clip0_580_773">
<rect width="337" height="215" fill="white"/>
</clipPath>
</defs>
</svg>
