<svg width="262" height="223" viewBox="0 0 262 223" fill="none" xmlns="http://www.w3.org/2000/svg">
<g clip-path="url(#clip0_580_1846)">
<path d="M238.591 141.48C238.591 141.48 232.511 138.106 232.061 145.748C231.611 153.39 230.483 203.102 230.483 203.102" stroke="#263238" stroke-width="2" stroke-linecap="round" stroke-linejoin="round"/>
<path d="M228.885 146.425C228.885 146.425 233.832 157.446 231.591 202.425" stroke="#263238" stroke-width="2" stroke-linecap="round" stroke-linejoin="round"/>
<path d="M233.777 143.016C233.777 143.016 231.447 144.498 230.127 142.804C228.806 141.11 231.022 137.978 229.068 136.644C227.114 135.31 223.736 137.345 223.736 137.345C223.736 137.345 226.333 138.106 226.248 139.524C226.164 140.942 224.913 141.5 224.764 140.858C224.616 140.215 223.355 137.118 221.242 138.417C220.635 138.777 220.107 139.255 219.689 139.824C219.272 140.393 218.974 141.04 218.814 141.727C218.814 141.727 223.726 141.203 224.022 143.051C224.319 144.899 222.009 142.73 219.981 142.611C217.953 142.493 216.103 142.789 216.236 144.014C216.281 145.098 216.217 146.184 216.043 147.255C217.153 146.332 218.557 145.837 220.001 145.862C222.232 145.99 222.148 147.408 220.12 147.29C218.091 147.171 216.35 149.098 216.35 149.098C216.35 149.098 218.2 152.254 220.55 153.815C222.9 155.376 223.745 154.803 224.013 153.613C224.28 152.422 223.656 149.325 225.076 149.409C226.496 149.493 222.726 154.759 224.537 155.07C226.347 155.381 227.807 154.853 228.282 153.662L228.776 152.472C228.776 152.472 228.143 149.389 228.42 148.184C228.697 146.978 229.028 148.218 229.35 149.666C229.672 151.113 229.874 154.576 230.493 154.408C231.111 154.24 233.095 151.716 233.56 150.728C234.025 149.74 230.948 146.712 230.982 146.104C231.017 145.496 233.391 146.652 233.762 147.285C234.031 147.765 234.274 148.26 234.49 148.767C234.49 148.767 235.974 147.838 235.934 144.992C235.894 142.147 233.777 143.016 233.777 143.016Z" fill="white"/>
<path opacity="0.3" d="M233.777 143.016C233.777 143.016 231.447 144.498 230.127 142.804C228.806 141.11 231.022 137.978 229.068 136.644C227.114 135.31 223.736 137.345 223.736 137.345C223.736 137.345 226.333 138.106 226.248 139.524C226.164 140.942 224.913 141.5 224.764 140.858C224.616 140.215 223.355 137.118 221.242 138.417C220.635 138.777 220.107 139.255 219.689 139.824C219.272 140.393 218.974 141.04 218.814 141.727C218.814 141.727 223.726 141.203 224.022 143.051C224.319 144.899 222.009 142.73 219.981 142.611C217.953 142.493 216.103 142.789 216.236 144.014C216.281 145.098 216.217 146.184 216.043 147.255C217.153 146.332 218.557 145.837 220.001 145.862C222.232 145.99 222.148 147.408 220.12 147.29C218.091 147.171 216.35 149.098 216.35 149.098C216.35 149.098 218.2 152.254 220.55 153.815C222.9 155.376 223.745 154.803 224.013 153.613C224.28 152.422 223.656 149.325 225.076 149.409C226.496 149.493 222.726 154.759 224.537 155.07C226.347 155.381 227.807 154.853 228.282 153.662L228.776 152.472C228.776 152.472 228.143 149.389 228.42 148.184C228.697 146.978 229.028 148.218 229.35 149.666C229.672 151.113 229.874 154.576 230.493 154.408C231.111 154.24 233.095 151.716 233.56 150.728C234.025 149.74 230.948 146.712 230.982 146.104C231.017 145.496 233.391 146.652 233.762 147.285C234.031 147.765 234.274 148.26 234.49 148.767C234.49 148.767 235.974 147.838 235.934 144.992C235.894 142.147 233.777 143.016 233.777 143.016Z" fill="#263238"/>
<path d="M221.984 149.69C223.503 147.818 225.734 145.284 227.609 144.074" stroke="#263238" stroke-linecap="round" stroke-linejoin="round"/>
<path d="M220.224 151.973C220.224 151.973 220.614 151.429 221.248 150.619" stroke="#263238" stroke-linecap="round" stroke-linejoin="round"/>
<path d="M228.598 144.538C228.598 144.538 230.854 147.719 231.269 150.995" stroke="#263238" stroke-linecap="round" stroke-linejoin="round"/>
<path d="M226.046 146.42C226.046 146.42 226.679 146.055 226.442 150.1" stroke="#263238" stroke-linecap="round" stroke-linejoin="round"/>
<path d="M227.693 142.646C227.693 142.646 228.979 141.5 228.301 139.228" stroke="#263238" stroke-linecap="round" stroke-linejoin="round"/>
<path d="M225.952 144.587L225.032 142.908" stroke="#263238" stroke-linecap="round" stroke-linejoin="round"/>
<path d="M224.018 146.302C224.018 146.302 221.099 144.098 219.274 143.99" stroke="#263238" stroke-linecap="round" stroke-linejoin="round"/>
<path d="M242.068 137.014C242.068 137.014 241.974 140.354 239.362 140.517C236.75 140.68 235.138 136.338 232.466 137.38C229.795 138.422 229.538 143.189 229.538 143.189C229.538 143.189 232.071 141.11 233.436 142.162C234.801 143.214 234.485 144.829 233.748 144.573C233.011 144.316 229.038 143.431 228.905 146.425C228.85 147.278 228.968 148.133 229.253 148.939C229.538 149.744 229.983 150.484 230.562 151.113C230.562 151.113 233.387 145.847 235.444 146.805C237.502 147.764 233.748 148.599 232.244 150.545C230.74 152.491 229.771 154.541 231.101 155.248C232.218 155.942 233.262 156.746 234.218 157.649C234.218 157.649 233.861 154.892 235.514 152.753C237.166 150.614 238.526 151.661 237.027 153.608C235.528 155.554 236.27 158.607 236.27 158.607C236.27 158.607 240.693 158.913 243.859 157.619C247.025 156.325 247.044 155.105 246.025 154.008C245.006 152.911 241.484 151.444 242.533 150.081C243.582 148.717 246.292 156.078 247.841 154.477C249.389 152.877 249.849 151.064 248.983 149.774L248.113 148.485C248.113 148.485 244.591 147.003 243.572 145.921C242.553 144.839 244.022 145.333 245.689 145.995C247.356 146.657 250.962 148.816 251.219 148.085C251.477 147.354 250.294 143.639 249.622 142.513C248.949 141.386 243.814 142.384 243.23 141.935C242.647 141.485 245.422 139.899 246.307 139.959C247.193 140.018 248.286 140.23 248.286 140.23C248.286 140.23 248.365 138.121 245.486 136.214C242.607 134.307 242.068 137.014 242.068 137.014Z" fill="white"/>
<path opacity="0.2" d="M242.068 137.014C242.068 137.014 241.974 140.354 239.362 140.517C236.75 140.68 235.138 136.338 232.466 137.38C229.795 138.422 229.538 143.189 229.538 143.189C229.538 143.189 232.071 141.11 233.436 142.162C234.801 143.214 234.485 144.829 233.748 144.573C233.011 144.316 229.038 143.431 228.905 146.425C228.85 147.278 228.968 148.133 229.253 148.939C229.538 149.744 229.983 150.484 230.562 151.113C230.562 151.113 233.387 145.847 235.444 146.805C237.502 147.764 233.748 148.599 232.244 150.545C230.74 152.491 229.771 154.541 231.101 155.248C232.218 155.942 233.262 156.746 234.218 157.649C234.218 157.649 233.861 154.892 235.514 152.753C237.166 150.614 238.526 151.661 237.027 153.608C235.528 155.554 236.27 158.607 236.27 158.607C236.27 158.607 240.693 158.913 243.859 157.619C247.025 156.325 247.044 155.105 246.025 154.008C245.006 152.911 241.484 151.444 242.533 150.081C243.582 148.717 246.292 156.078 247.841 154.477C249.389 152.877 249.849 151.064 248.983 149.774L248.113 148.485C248.113 148.485 244.591 147.003 243.572 145.921C242.553 144.839 244.022 145.333 245.689 145.995C247.356 146.657 250.962 148.816 251.219 148.085C251.477 147.354 250.294 143.639 249.622 142.513C248.949 141.386 243.814 142.384 243.23 141.935C242.647 141.485 245.422 139.899 246.307 139.959C247.193 140.018 248.286 140.23 248.286 140.23C248.286 140.23 248.365 138.121 245.486 136.214C242.607 134.307 242.068 137.014 242.068 137.014Z" fill="#263238"/>
<path d="M240.717 153.356C239.876 150.56 238.857 146.598 238.927 143.901" stroke="#263238" stroke-linecap="round" stroke-linejoin="round"/>
<path d="M241.806 156.666C241.806 156.666 241.529 155.91 241.148 154.724" stroke="#263238" stroke-linecap="round" stroke-linejoin="round"/>
<path d="M240.064 143.229C240.064 143.229 244.789 143.145 248.355 144.958" stroke="#263238" stroke-linecap="round" stroke-linejoin="round"/>
<path d="M240.213 147.062C240.213 147.062 240.272 146.183 244.17 149.182" stroke="#263238" stroke-linecap="round" stroke-linejoin="round"/>
<path d="M237.561 142.853C237.561 142.853 237.294 140.784 234.549 139.914" stroke="#263238" stroke-linecap="round" stroke-linejoin="round"/>
<path d="M238.309 145.911L235.999 145.684" stroke="#263238" stroke-linecap="round" stroke-linejoin="round"/>
<path d="M238.709 149.009C238.709 149.009 234.51 150.431 233.159 152.18" stroke="#263238" stroke-linecap="round" stroke-linejoin="round"/>
<path d="M214.045 159.244C214.045 159.244 227.332 168.018 227.104 201.975" stroke="#263238" stroke-width="2" stroke-linecap="round" stroke-linejoin="round"/>
<path d="M230.428 156.928C230.428 156.928 230.003 160.771 226.966 160.717C223.928 160.662 222.484 155.49 219.308 156.443C216.132 157.397 215.376 162.865 215.376 162.865C215.376 162.865 218.497 160.707 219.976 162.045C221.455 163.384 220.931 165.222 220.105 164.856C219.279 164.491 214.782 163.098 214.342 166.541C214.199 167.521 214.256 168.52 214.512 169.477C214.767 170.434 215.214 171.329 215.826 172.108C215.826 172.108 219.585 166.294 221.866 167.593C224.146 168.892 219.739 169.505 217.819 171.609C215.9 173.714 214.599 175.991 216.053 176.93C217.279 177.833 218.41 178.859 219.427 179.992C219.427 179.992 219.274 176.776 221.406 174.465C223.538 172.153 224.987 173.477 223.073 175.591C221.158 177.705 221.727 181.292 221.727 181.292C221.727 181.292 226.807 182.062 230.582 180.877C234.356 179.691 234.49 178.278 233.416 176.925C232.343 175.571 228.42 173.536 229.761 172.064C231.101 170.592 233.53 179.335 235.469 177.636C237.408 175.937 238.111 173.887 237.23 172.316L236.305 170.745C236.305 170.745 232.382 168.714 231.309 167.356C230.235 165.997 231.883 166.724 233.743 167.642C235.603 168.561 239.565 171.397 239.926 170.572C240.287 169.747 239.273 165.37 238.625 163.992C237.977 162.614 231.937 163.3 231.304 162.727C230.671 162.154 234.03 160.583 235.044 160.751C235.799 160.877 236.547 161.042 237.284 161.245C237.284 161.245 237.571 158.815 234.43 156.345C231.289 153.875 230.428 156.928 230.428 156.928Z" fill="white"/>
<path opacity="0.3" d="M230.428 156.928C230.428 156.928 230.003 160.771 226.966 160.717C223.928 160.662 222.484 155.49 219.308 156.443C216.132 157.397 215.376 162.865 215.376 162.865C215.376 162.865 218.497 160.707 219.976 162.045C221.455 163.384 220.931 165.222 220.105 164.856C219.279 164.491 214.782 163.098 214.342 166.541C214.199 167.521 214.256 168.52 214.512 169.477C214.767 170.434 215.214 171.329 215.826 172.108C215.826 172.108 219.585 166.294 221.866 167.593C224.146 168.892 219.739 169.505 217.819 171.609C215.9 173.714 214.599 175.991 216.053 176.93C217.279 177.833 218.41 178.859 219.427 179.992C219.427 179.992 219.274 176.776 221.406 174.465C223.538 172.153 224.987 173.477 223.073 175.591C221.158 177.705 221.727 181.292 221.727 181.292C221.727 181.292 226.807 182.062 230.582 180.877C234.356 179.691 234.49 178.278 233.416 176.925C232.343 175.571 228.42 173.536 229.761 172.064C231.101 170.592 233.53 179.335 235.469 177.636C237.408 175.937 238.111 173.887 237.23 172.316L236.305 170.745C236.305 170.745 232.382 168.714 231.309 167.356C230.235 165.997 231.883 166.724 233.743 167.642C235.603 168.561 239.565 171.397 239.926 170.572C240.287 169.747 239.273 165.37 238.625 163.992C237.977 162.614 231.937 163.3 231.304 162.727C230.671 162.154 234.03 160.583 235.044 160.751C235.799 160.877 236.547 161.042 237.284 161.245C237.284 161.245 237.571 158.815 234.43 156.345C231.289 153.875 230.428 156.928 230.428 156.928Z" fill="#263238"/>
<path d="M227.332 175.655C226.62 172.355 225.823 167.687 226.15 164.58" stroke="#263238" stroke-linecap="round" stroke-linejoin="round"/>
<path d="M228.272 179.577C228.272 179.577 228.024 178.678 227.693 177.275" stroke="#263238" stroke-linecap="round" stroke-linejoin="round"/>
<path d="M227.53 163.888C227.53 163.888 232.971 164.239 236.928 166.669" stroke="#263238" stroke-linecap="round" stroke-linejoin="round"/>
<path d="M227.337 168.334C227.337 168.334 227.49 167.346 231.705 171.15" stroke="#263238" stroke-linecap="round" stroke-linejoin="round"/>
<path d="M224.676 163.241C224.676 163.241 224.562 160.83 221.48 159.565" stroke="#263238" stroke-linecap="round" stroke-linejoin="round"/>
<path d="M225.249 166.837L222.608 166.358" stroke="#263238" stroke-linecap="round" stroke-linejoin="round"/>
<path d="M225.423 170.453C225.423 170.453 220.441 171.693 218.715 173.585" stroke="#263238" stroke-linecap="round" stroke-linejoin="round"/>
<path d="M219.224 186.009C219.224 186.009 227.782 192.53 228.682 202.203L226.906 169.816" stroke="#263238" stroke-width="2" stroke-linecap="round" stroke-linejoin="round"/>
<path d="M239.941 181.287C228.682 179.261 228.682 202.203 228.682 202.203" stroke="#263238" stroke-width="2" stroke-linecap="round" stroke-linejoin="round"/>
<path d="M230.033 201.975C230.033 201.975 223.503 154.522 242.4 154.522" stroke="#263238" stroke-width="2" stroke-linecap="round" stroke-linejoin="round"/>
<path d="M235.652 179.918C234.114 178.194 230.844 178.194 228.925 182.611C227.005 187.027 228.732 186.256 228.732 186.256C228.732 186.256 232.382 185.105 234.668 184.335C236.953 183.564 240.05 181.647 240.243 182.803C240.436 183.959 238.704 185.105 236.587 185.491C234.47 185.876 228.9 187.407 229.474 188.563C230.048 189.719 231.398 193.167 231.398 193.167C233.041 191.776 234.775 190.493 236.587 189.329C239.09 187.793 240.628 188.371 239.283 190.095C237.937 191.819 234.089 193.745 234.861 196.047C235.632 198.349 240.262 201.234 240.262 201.234C240.262 201.234 240.836 196.433 242.187 194.896C243.537 193.36 243.532 195.089 243.146 197.776C242.953 198.921 242.824 200.075 242.76 201.234L248.142 203.151C249.023 201.813 249.986 200.531 251.026 199.313L252.016 198.354C252.016 198.354 247.786 194.704 247.593 192.426C247.4 190.149 250.477 192.426 251.437 192.812C252.397 193.197 253.935 195.879 253.935 195.879C253.935 195.879 254.9 191.468 255.092 189.951L255.285 188.415C255.285 188.415 251.244 186.879 249.706 186.879C248.167 186.879 247.4 188.03 247.4 186.493C247.4 184.957 248.939 183.999 250.67 184.191C252.237 184.45 253.781 184.835 255.285 185.342C255.285 185.342 256.438 184.379 256.052 181.499C255.666 178.619 254.707 178.619 252.401 179.39C250.096 180.16 248.553 181.86 246.822 181.86C245.09 181.86 246.055 179.75 247.207 179.172C248.36 178.594 251.244 177.443 251.823 177.251C252.401 177.058 248.746 174.371 246.822 173.99C244.897 173.61 242.409 174.978 242.592 176.87C242.958 180.882 237.19 181.672 235.652 179.918Z" fill="white"/>
<path d="M248.029 199.688C248.088 200.266 248.128 200.849 248.148 201.427" stroke="#263238" stroke-linecap="round" stroke-linejoin="round"/>
<path d="M244.166 185.906C245.855 189.71 247.071 193.706 247.786 197.806" stroke="#263238" stroke-linecap="round" stroke-linejoin="round"/>
<path d="M243.473 184.364C242.523 182.319 241.806 181.074 241.806 181.074C242.845 180.574 243.708 179.769 244.279 178.767C244.73 177.859 245.389 177.07 246.203 176.465" stroke="#263238" stroke-linecap="round" stroke-linejoin="round"/>
<path d="M235.073 187.6C235.073 187.6 241.999 184.72 241.999 185.298" stroke="#263238" stroke-linecap="round" stroke-linejoin="round"/>
<path d="M245.842 183.954C245.842 183.954 248.919 182.418 251.61 182.418" stroke="#263238" stroke-linecap="round" stroke-linejoin="round"/>
<path d="M244.715 188.588C243.381 189.682 242.157 190.903 241.059 192.234C239.937 193.556 239.029 195.047 238.368 196.65" stroke="#263238" stroke-linecap="round" stroke-linejoin="round"/>
<path d="M246.802 189.329C246.802 189.329 250.843 188.178 252.955 190.095" stroke="#263238" stroke-linecap="round" stroke-linejoin="round"/>
<path d="M254.113 163.394C252.021 162.159 249.706 162.129 248.568 160.825C247.43 159.521 249.661 158.849 250.853 159.343C252.045 159.837 254.811 161.255 255.33 161.566C255.849 161.877 255.493 157.357 254.524 155.638C253.554 153.919 250.898 152.946 249.577 154.334C246.782 157.268 242.419 153.42 242.716 151.128C243.013 148.836 240.871 146.371 236.285 147.818C231.7 149.266 233.401 150.061 233.401 150.061C233.401 150.061 236.666 152.062 238.764 153.302C240.861 154.541 244.324 155.599 243.577 156.498C242.83 157.397 240.826 156.848 239.149 155.51C237.473 154.171 232.659 150.97 232.165 152.16C231.67 153.351 229.939 156.606 229.939 156.606C232.07 156.933 234.177 157.4 236.246 158.004C239.046 158.879 239.619 160.415 237.433 160.534C235.247 160.652 231.269 159.012 230.013 161.102C228.757 163.191 229.622 168.561 229.622 168.561C229.622 168.561 233.629 165.849 235.672 165.859C237.715 165.869 236.409 167 234.124 168.472C233.134 169.078 232.178 169.738 231.26 170.448L233.337 175.769C234.926 175.554 236.527 175.44 238.13 175.428L239.486 175.522C239.486 175.522 239.486 169.939 241.089 168.285C242.691 166.63 242.978 170.458 243.319 171.436C243.661 172.414 242.637 175.334 242.637 175.334C242.637 175.334 246.594 173.165 247.89 172.306L249.181 171.441C249.181 171.441 247.697 167.39 246.708 166.23C245.719 165.069 244.329 165.242 245.486 164.254C246.644 163.266 248.385 163.76 249.374 165.207C250.202 166.559 250.922 167.975 251.526 169.441C251.526 169.441 253.01 169.683 254.934 167.504C256.858 165.325 256.21 164.624 254.113 163.394ZM235.919 169.539C234.381 168.774 238.032 167.237 238.032 167.237C239.382 167.035 237.458 170.31 235.924 169.529L235.919 169.539ZM238.506 162.371C237.853 162.045 239.817 161.383 239.817 161.383C242.667 161.912 239.169 162.692 238.511 162.361L238.506 162.371Z" fill="white"/>
<path d="M235.88 173.442C235.481 173.867 235.07 174.277 234.648 174.672" stroke="#263238" stroke-linecap="round" stroke-linejoin="round"/>
<path d="M243.77 161.492C242.003 165.261 239.778 168.798 237.146 172.024" stroke="#263238" stroke-linecap="round" stroke-linejoin="round"/>
<path d="M244.482 159.961C245.407 157.901 245.877 156.542 245.877 156.542C246.94 157.011 248.121 157.142 249.26 156.918C250.243 156.662 251.271 156.641 252.263 156.858" stroke="#263238" stroke-linecap="round" stroke-linejoin="round"/>
<path d="M242.81 159.442C243.245 159.067 236.533 155.732 236.533 155.732" stroke="#263238" stroke-linecap="round" stroke-linejoin="round"/>
<path d="M246.347 161.477C246.347 161.477 249.527 162.791 251.293 164.822" stroke="#263238" stroke-linecap="round" stroke-linejoin="round"/>
<path d="M242.107 163.626C240.405 163.341 238.679 163.22 236.953 163.266C235.218 163.285 233.497 163.577 231.853 164.13" stroke="#263238" stroke-linecap="round" stroke-linejoin="round"/>
<path d="M242.914 165.726C242.914 165.726 246.431 168.018 246.377 170.868" stroke="#263238" stroke-linecap="round" stroke-linejoin="round"/>
<path d="M224.24 189.991C222.559 189.003 220.694 188.973 219.788 187.921C218.883 186.869 220.664 186.34 221.624 186.74C222.583 187.141 224.804 188.277 225.23 188.524C225.655 188.771 225.358 185.14 224.577 183.772C223.795 182.403 221.658 181.603 220.62 182.724C218.369 185.081 214.857 181.988 215.099 180.141C215.341 178.293 213.615 176.312 209.91 177.478C206.205 178.644 207.59 179.286 207.59 179.286C207.59 179.286 210.217 180.896 211.903 181.889C213.59 182.882 216.355 183.737 215.777 184.463C215.198 185.189 213.566 184.745 212.215 183.663C210.865 182.581 206.991 180.007 206.591 180.966C206.19 181.924 204.805 184.567 204.805 184.567C206.52 184.828 208.215 185.203 209.88 185.688C212.131 186.395 212.591 187.635 210.83 187.728C209.069 187.822 205.883 186.503 204.894 188.183C203.905 189.863 204.582 194.185 204.582 194.185C204.582 194.185 207.808 192.007 209.45 192.011C211.092 192.016 210.044 192.93 208.208 194.116C207.41 194.602 206.638 195.131 205.898 195.702L207.57 199.985C208.849 199.811 210.138 199.718 211.429 199.708L212.522 199.787C212.522 199.787 212.522 195.292 213.813 193.963C215.104 192.634 215.332 195.712 215.604 196.497C215.876 197.282 215.055 199.634 215.055 199.634C215.055 199.634 218.25 197.89 219.284 197.194L220.323 196.502C220.323 196.502 219.126 193.242 218.314 192.308C217.503 191.374 216.395 191.513 217.325 190.702C218.255 189.892 219.655 190.322 220.451 191.473C221.119 192.562 221.7 193.701 222.188 194.882C222.188 194.882 223.38 195.074 224.928 193.321C226.476 191.567 225.917 190.984 224.24 189.991ZM209.598 194.931C208.362 194.314 211.3 193.079 211.3 193.079C212.383 192.925 210.835 195.553 209.593 194.936L209.598 194.931ZM211.686 189.161C211.157 188.899 212.739 188.371 212.739 188.371C215.035 188.815 212.21 189.433 211.686 189.166V189.161Z" fill="white"/>
<path d="M209.593 198.083C209.272 198.423 208.94 198.754 208.604 199.071" stroke="#263238" stroke-linecap="round" stroke-linejoin="round"/>
<path d="M215.915 188.469C214.491 191.5 212.7 194.346 210.583 196.942" stroke="#263238" stroke-linecap="round" stroke-linejoin="round"/>
<path d="M216.489 187.234C217.231 185.579 217.612 184.483 217.612 184.483C218.466 184.859 219.416 184.965 220.332 184.784C221.122 184.579 221.949 184.562 222.746 184.735" stroke="#263238" stroke-linecap="round" stroke-linejoin="round"/>
<path d="M210.088 183.846C210.088 183.846 215.495 186.528 215.143 186.81" stroke="#263238" stroke-linecap="round" stroke-linejoin="round"/>
<path d="M218.002 188.455C218.002 188.455 220.56 189.512 221.96 191.142" stroke="#263238" stroke-linecap="round" stroke-linejoin="round"/>
<path d="M214.574 190.184C213.205 189.952 211.817 189.854 210.429 189.892C209.032 189.909 207.647 190.144 206.323 190.589" stroke="#263238" stroke-linecap="round" stroke-linejoin="round"/>
<path d="M215.223 191.873C215.223 191.873 218.057 193.716 218.003 196.013" stroke="#263238" stroke-linecap="round" stroke-linejoin="round"/>
<path d="M217.374 158.286C217.374 158.286 215.257 159.822 213.912 158.286C212.566 156.75 214.49 153.677 212.561 152.526C210.632 151.375 207.565 153.484 207.565 153.484C207.565 153.484 210.063 154.062 210.063 155.406C210.063 156.75 208.91 157.323 208.718 156.75C208.525 156.177 207.179 153.292 205.255 154.635C204.7 155.009 204.227 155.491 203.864 156.052C203.501 156.613 203.255 157.242 203.143 157.901C203.143 157.901 207.753 157.13 208.139 158.859C208.525 160.588 206.215 158.666 204.295 158.666C202.376 158.666 200.64 159.052 200.833 160.203C200.937 161.224 200.937 162.254 200.833 163.275C201.829 162.344 203.125 161.799 204.488 161.739C206.6 161.739 206.6 163.083 204.681 163.083C202.762 163.083 201.218 165.004 201.218 165.004C201.218 165.004 203.143 167.884 205.448 169.228C207.753 170.572 208.525 169.999 208.718 168.843C208.91 167.687 208.139 164.812 209.484 164.812C210.83 164.812 207.565 169.999 209.291 170.187C211.018 170.374 212.368 169.806 212.754 168.65L213.14 167.499C213.14 167.499 212.368 164.619 212.561 163.468C212.754 162.317 213.14 163.468 213.521 164.812C213.902 166.155 214.292 169.421 214.866 169.228C215.44 169.035 217.176 166.541 217.562 165.582C217.948 164.624 214.866 161.932 214.866 161.359C214.866 160.786 217.176 161.739 217.562 162.317C217.84 162.752 218.096 163.2 218.329 163.661C218.329 163.661 219.674 162.702 219.482 160.01C219.289 157.318 217.374 158.286 217.374 158.286Z" fill="white"/>
<path d="M206.625 165.246C207.956 163.394 209.924 160.875 211.631 159.63" stroke="#263238" stroke-linecap="round" stroke-linejoin="round"/>
<path d="M205.067 167.499C205.067 167.499 205.408 166.966 205.957 166.165" stroke="#263238" stroke-linecap="round" stroke-linejoin="round"/>
<path d="M212.561 160.01C212.561 160.01 214.866 162.89 215.445 165.963" stroke="#263238" stroke-linecap="round" stroke-linejoin="round"/>
<path d="M210.261 161.912C210.261 161.912 210.835 161.527 210.835 165.37" stroke="#263238" stroke-linecap="round" stroke-linejoin="round"/>
<path d="M211.606 158.286C211.606 158.286 212.759 157.13 211.987 155.021" stroke="#263238" stroke-linecap="round" stroke-linejoin="round"/>
<path d="M210.068 160.203L209.104 158.666" stroke="#263238" stroke-linecap="round" stroke-linejoin="round"/>
<path d="M208.337 161.912C208.337 161.912 205.453 159.99 203.722 159.99" stroke="#263238" stroke-linecap="round" stroke-linejoin="round"/>
<path d="M236.79 201.299H221.925V222.664H236.79V201.299Z" fill="#263238" stroke="#263238" stroke-width="2" stroke-linecap="round" stroke-linejoin="round"/>
<path d="M102.904 37.1177C102.904 37.1177 103.083 30.8044 102.859 25.3753C102.636 19.9463 103.088 8.30762 103.088 8.30762" stroke="#263238" stroke-miterlimit="10"/>
<path d="M102.983 15.1544L100.514 13.213" stroke="#263238" stroke-miterlimit="10"/>
<path d="M102.953 16.4882L103.834 15.0704" stroke="#263238" stroke-miterlimit="10"/>
<path d="M102.755 22.1051L104.946 20.2921" stroke="#263238" stroke-miterlimit="10"/>
<path d="M103.087 10.6937L101.929 9.64148" stroke="#263238" stroke-miterlimit="10"/>
<path d="M102.736 23.0881L101.286 21.537" stroke="#263238" stroke-miterlimit="10"/>
<path d="M102.859 29.184L99.8467 26.4374" stroke="#263238" stroke-miterlimit="10"/>
<path d="M102.938 32.568C103.706 32.2707 104.453 31.9225 105.174 31.5256" stroke="#263238" stroke-miterlimit="10"/>
<path d="M101.261 16.1277C100.049 15.194 95.9833 15.3571 95.2017 17.2985C94.4201 19.2399 96.9083 22.4064 99.2827 22.1841C100.218 22.0952 100.623 22.031 100.989 21.5074L97.6503 18.247L101.266 21.1517C101.368 20.9626 101.451 20.7641 101.514 20.5589C101.553 20.4156 101.593 20.2575 101.622 20.0945C101.875 18.9336 102.404 17.0021 101.261 16.1277Z" fill="white"/>
<path d="M109.131 13.875V13.9442C108.805 15.3916 107.153 16.2116 105.753 16.0881C105.559 16.0717 105.367 16.0369 105.179 15.9844C104.852 16.5016 104.649 17.0876 104.588 17.6962C104.526 18.3049 104.606 18.9195 104.823 19.4918C104.881 19.6554 104.959 19.8113 105.055 19.9561C105.466 19.6202 109.859 15.8757 109.859 15.8757L105.298 20.2624C106.673 21.7444 109.898 21.532 111.021 18.8101C112.144 16.0881 110.714 14.2653 109.131 13.875Z" fill="white"/>
<path d="M106.896 8.81152C104.531 8.31752 102.414 9.3648 102.444 11.8299C102.457 12.3733 102.581 12.9083 102.809 13.4019C103.037 13.8955 103.364 14.3373 103.769 14.7L106.208 11.3803L104.16 15.0013C104.619 15.3139 105.15 15.5043 105.704 15.5546C107.098 15.6732 108.756 14.8531 109.082 13.4057C109.423 11.7903 109.26 9.33022 106.896 8.81152Z" fill="white"/>
<path d="M104.136 0.240601C104.136 0.240601 103.893 0.314701 102.379 1.05076C101.493 1.53874 100.837 2.35727 100.553 3.3274C100.269 4.29752 100.382 5.34034 100.866 6.22788C101.285 7.0571 102.01 7.69122 102.889 7.9964L103.497 2.12274L103.24 8.07544C103.355 8.08727 103.471 8.08727 103.586 8.07544C104.576 7.97664 106.124 6.80092 106.272 4.39514C106.421 1.98936 104.136 0.240601 104.136 0.240601Z" fill="white"/>
<path d="M97.2247 5.58077L101.791 9.22649C101.836 9.06595 101.851 8.89849 101.835 8.73249C101.622 6.64781 99.5398 5.43751 98.1646 5.00279C96.7894 4.56807 95.8347 5.34365 96.7202 7.33941C97.6056 9.33517 99.9256 10.3034 100.96 10.0021C101.205 9.94163 101.426 9.80709 101.593 9.61675L97.2247 5.58077Z" fill="white"/>
<path d="M100.366 10.2539C99.666 10.2035 98.9866 9.99504 98.3791 9.64418C97.7716 9.29333 97.2517 8.80928 96.8588 8.22855C96.3739 8.1826 95.8902 8.32794 95.5112 8.63351C95.1322 8.93908 94.888 9.38061 94.8307 9.86369C94.3657 12.0373 95.9387 14.3097 98.2093 14.033C98.9224 13.9959 99.5991 13.707 100.119 13.2179L96.0624 9.51789L100.406 12.8227C100.491 12.6702 100.545 12.5023 100.564 12.3287C100.704 11.6328 100.635 10.911 100.366 10.2539Z" fill="white"/>
<path d="M100.341 22.3422C99.9723 22.4999 99.5792 22.5935 99.1787 22.6188C97.6947 22.7571 96.181 21.5962 95.4291 20.2328C94.9876 20.2626 94.5687 20.4394 94.2396 20.7349C93.9105 21.0305 93.6902 21.4276 93.6137 21.863C93.1636 24.4071 95.5231 27.7613 97.9074 27.2278C98.5273 27.1073 99.1012 26.8165 99.5646 26.388L94.3607 21.3887L99.8663 26.062C100.181 25.6588 100.384 25.1801 100.455 24.6738C100.716 23.9105 100.675 23.0766 100.341 22.3422Z" fill="white"/>
<path d="M110.813 27.544C109.062 25.5186 106.98 27.3315 106.98 27.3315C106.98 27.3315 105.703 27.7514 105.219 29.5595C105.07 30.108 105.093 30.6887 105.283 31.2243L110.546 28.1615L105.411 31.5108C105.906 32.4197 106.935 32.9928 108.379 32.5729C110.685 31.9406 112.559 29.5842 110.813 27.544Z" fill="white"/>
<path d="M106.451 35.2108H99.1641V45.985H106.451V35.2108Z" fill="#263238"/>
<path d="M186.873 45.896H90.7695V223.356H186.873V45.896Z" fill="white" stroke="#263238" stroke-miterlimit="10"/>
<path d="M173.32 48.1438H92.7681V220.654H173.32V48.1438Z" fill="#263238" stroke="#263238" stroke-linecap="round" stroke-linejoin="round"/>
<path d="M173.32 74.8988H92.7681V77.4429H173.32V74.8988Z" fill="white" stroke="#263238" stroke-miterlimit="10"/>
<path d="M173.32 104.312H92.7681V106.856H173.32V104.312Z" fill="white" stroke="#263238" stroke-miterlimit="10"/>
<path d="M147.359 48.1733H145.648V74.8938H147.359V48.1733Z" fill="white" stroke="#263238" stroke-miterlimit="10"/>
<path d="M119.975 48.1733H118.263V74.8938H119.975V48.1733Z" fill="white" stroke="#263238" stroke-miterlimit="10"/>
<path d="M147.359 106.885H145.648V133.606H147.359V106.885Z" fill="white" stroke="#263238" stroke-miterlimit="10"/>
<path d="M119.975 106.885H118.263V133.606H119.975V106.885Z" fill="white" stroke="#263238" stroke-miterlimit="10"/>
<path d="M133.533 77.5862H131.822V104.307H133.533V77.5862Z" fill="white" stroke="#263238" stroke-miterlimit="10"/>
<path d="M173.32 133.611H92.7681V136.155H173.32V133.611Z" fill="white" stroke="#263238" stroke-miterlimit="10"/>
<path d="M173.32 162.925H92.7681V221.553H173.32V162.925Z" fill="white" stroke="#263238" stroke-miterlimit="10"/>
<path d="M133.533 136.199H131.822V162.92H133.533V136.199Z" fill="white" stroke="#263238" stroke-miterlimit="10"/>
<path d="M175.293 45.8812V223.316L186.879 223.356V45.8812H175.293Z" fill="#263238" stroke="#263238" stroke-linecap="round" stroke-linejoin="round"/>
<path d="M152.682 50.2482H148.546V74.8345H152.682V50.2482Z" fill="white" stroke="#263238" stroke-miterlimit="10"/>
<path d="M152.682 69.5537H148.546V71.5692H152.682V69.5537Z" fill="white" stroke="#263238" stroke-miterlimit="10"/>
<path d="M152.682 52.7429H148.546V54.7584H152.682V52.7429Z" fill="white" stroke="#263238" stroke-miterlimit="10"/>
<path d="M156.911 50.2482H152.776V74.8345H156.911V50.2482Z" fill="white" stroke="#263238" stroke-miterlimit="10"/>
<path d="M156.911 69.5537H152.776V71.5692H156.911V69.5537Z" fill="white" stroke="#263238" stroke-miterlimit="10"/>
<path d="M156.911 52.7429H152.776V54.7584H156.911V52.7429Z" fill="white" stroke="#263238" stroke-miterlimit="10"/>
<path d="M161.146 50.2482H157.01V74.8345H161.146V50.2482Z" fill="white" stroke="#263238" stroke-miterlimit="10"/>
<path d="M161.146 69.5537H157.01V71.5692H161.146V69.5537Z" fill="white" stroke="#263238" stroke-miterlimit="10"/>
<path d="M161.146 52.7429H157.01V54.7584H161.146V52.7429Z" fill="white" stroke="#263238" stroke-miterlimit="10"/>
<path d="M165.375 50.2482H161.24V74.8345H165.375V50.2482Z" fill="white" stroke="#263238" stroke-miterlimit="10"/>
<path d="M172.266 50.2482H165.34V74.8345H172.266V50.2482Z" fill="white" stroke="#263238" stroke-miterlimit="10"/>
<path d="M165.375 69.5537H161.24V71.5692H165.375V69.5537Z" fill="white" stroke="#263238" stroke-miterlimit="10"/>
<path d="M165.375 52.7429H161.24V54.7584H165.375V52.7429Z" fill="white" stroke="#263238" stroke-miterlimit="10"/>
<path d="M125.015 50.2482H120.88V74.8345H125.015V50.2482Z" fill="white" stroke="#263238" stroke-miterlimit="10"/>
<path d="M125.015 69.5537H120.88V71.5692H125.015V69.5537Z" fill="white" stroke="#263238" stroke-miterlimit="10"/>
<path d="M125.015 52.7429H120.88V54.7584H125.015V52.7429Z" fill="white" stroke="#263238" stroke-miterlimit="10"/>
<path d="M129.245 50.2482H125.109V74.8345H129.245V50.2482Z" fill="white" stroke="#263238" stroke-miterlimit="10"/>
<path d="M129.245 69.5537H125.109V71.5692H129.245V69.5537Z" fill="white" stroke="#263238" stroke-miterlimit="10"/>
<path d="M129.245 52.7429H125.109V54.7584H129.245V52.7429Z" fill="white" stroke="#263238" stroke-miterlimit="10"/>
<path d="M133.479 50.2482H129.344V74.8345H133.479V50.2482Z" fill="white" stroke="#263238" stroke-miterlimit="10"/>
<path d="M133.479 69.5537H129.344V71.5692H133.479V69.5537Z" fill="white" stroke="#263238" stroke-miterlimit="10"/>
<path d="M133.479 52.7429H129.344V54.7584H133.479V52.7429Z" fill="white" stroke="#263238" stroke-miterlimit="10"/>
<path d="M137.709 50.2482H133.573V74.8345H137.709V50.2482Z" fill="white" stroke="#263238" stroke-miterlimit="10"/>
<path d="M144.599 50.2482H137.674V74.8345H144.599V50.2482Z" fill="white" stroke="#263238" stroke-miterlimit="10"/>
<path d="M137.709 69.5537H133.573V71.5692H137.709V69.5537Z" fill="white" stroke="#263238" stroke-miterlimit="10"/>
<path d="M137.709 52.7429H133.573V54.7584H137.709V52.7429Z" fill="white" stroke="#263238" stroke-miterlimit="10"/>
<path d="M125.015 109.049H120.88V133.635H125.015V109.049Z" fill="white" stroke="#263238" stroke-miterlimit="10"/>
<path d="M125.015 128.354H120.88V130.37H125.015V128.354Z" fill="white" stroke="#263238" stroke-miterlimit="10"/>
<path d="M125.015 111.549H120.88V113.564H125.015V111.549Z" fill="white" stroke="#263238" stroke-miterlimit="10"/>
<path d="M129.245 109.049H125.109V133.635H129.245V109.049Z" fill="white" stroke="#263238" stroke-miterlimit="10"/>
<path d="M129.245 128.354H125.109V130.37H129.245V128.354Z" fill="white" stroke="#263238" stroke-miterlimit="10"/>
<path d="M129.245 111.549H125.109V113.564H129.245V111.549Z" fill="white" stroke="#263238" stroke-miterlimit="10"/>
<path d="M133.479 109.049H129.344V133.635H133.479V109.049Z" fill="white" stroke="#263238" stroke-miterlimit="10"/>
<path d="M133.479 128.354H129.344V130.37H133.479V128.354Z" fill="white" stroke="#263238" stroke-miterlimit="10"/>
<path d="M133.479 111.549H129.344V113.564H133.479V111.549Z" fill="white" stroke="#263238" stroke-miterlimit="10"/>
<path d="M137.709 109.049H133.573V133.635H137.709V109.049Z" fill="white" stroke="#263238" stroke-miterlimit="10"/>
<path d="M144.599 109.049H137.674V133.635H144.599V109.049Z" fill="white" stroke="#263238" stroke-miterlimit="10"/>
<path d="M137.709 128.354H133.573V130.37H137.709V128.354Z" fill="white" stroke="#263238" stroke-miterlimit="10"/>
<path d="M137.709 111.549H133.573V113.564H137.709V111.549Z" fill="white" stroke="#263238" stroke-miterlimit="10"/>
<path d="M152.326 109.049H148.19V133.635H152.326V109.049Z" fill="white" stroke="#263238" stroke-miterlimit="10"/>
<path d="M152.326 128.354H148.19V130.37H152.326V128.354Z" fill="white" stroke="#263238" stroke-miterlimit="10"/>
<path d="M152.326 111.549H148.19V113.564H152.326V111.549Z" fill="white" stroke="#263238" stroke-miterlimit="10"/>
<path d="M156.56 109.049H152.425V133.635H156.56V109.049Z" fill="white" stroke="#263238" stroke-miterlimit="10"/>
<path d="M156.56 128.354H152.425V130.37H156.56V128.354Z" fill="white" stroke="#263238" stroke-miterlimit="10"/>
<path d="M156.56 111.549H152.425V113.564H156.56V111.549Z" fill="white" stroke="#263238" stroke-miterlimit="10"/>
<path d="M160.79 109.049H156.654V133.635H160.79V109.049Z" fill="white" stroke="#263238" stroke-miterlimit="10"/>
<path d="M160.79 128.354H156.654V130.37H160.79V128.354Z" fill="white" stroke="#263238" stroke-miterlimit="10"/>
<path d="M160.79 111.549H156.654V113.564H160.79V111.549Z" fill="white" stroke="#263238" stroke-miterlimit="10"/>
<path d="M165.024 109.049H160.889V133.635H165.024V109.049Z" fill="white" stroke="#263238" stroke-miterlimit="10"/>
<path d="M171.91 109.049H164.984V133.635H171.91V109.049Z" fill="white" stroke="#263238" stroke-miterlimit="10"/>
<path d="M165.024 128.354H160.889V130.37H165.024V128.354Z" fill="white" stroke="#263238" stroke-miterlimit="10"/>
<path d="M165.024 111.549H160.889V113.564H165.024V111.549Z" fill="white" stroke="#263238" stroke-miterlimit="10"/>
<path d="M97.8781 109.049H93.7427V133.635H97.8781V109.049Z" fill="white" stroke="#263238" stroke-miterlimit="10"/>
<path d="M97.8781 128.354H93.7427V130.37H97.8781V128.354Z" fill="white" stroke="#263238" stroke-miterlimit="10"/>
<path d="M97.8781 111.549H93.7427V113.564H97.8781V111.549Z" fill="white" stroke="#263238" stroke-miterlimit="10"/>
<path d="M102.112 109.049H97.9766V133.635H102.112V109.049Z" fill="white" stroke="#263238" stroke-miterlimit="10"/>
<path d="M102.112 128.354H97.9766V130.37H102.112V128.354Z" fill="white" stroke="#263238" stroke-miterlimit="10"/>
<path d="M102.112 111.549H97.9766V113.564H102.112V111.549Z" fill="white" stroke="#263238" stroke-miterlimit="10"/>
<path d="M106.341 109.049H102.206V133.635H106.341V109.049Z" fill="white" stroke="#263238" stroke-miterlimit="10"/>
<path d="M106.341 128.354H102.206V130.37H106.341V128.354Z" fill="white" stroke="#263238" stroke-miterlimit="10"/>
<path d="M106.341 111.549H102.206V113.564H106.341V111.549Z" fill="white" stroke="#263238" stroke-miterlimit="10"/>
<path d="M110.576 109.049H106.44V133.635H110.576V109.049Z" fill="white" stroke="#263238" stroke-miterlimit="10"/>
<path d="M117.462 109.049H110.537V133.635H117.462V109.049Z" fill="white" stroke="#263238" stroke-miterlimit="10"/>
<path d="M110.576 128.354H106.44V130.37H110.576V128.354Z" fill="white" stroke="#263238" stroke-miterlimit="10"/>
<path d="M110.576 111.549H106.44V113.564H110.576V111.549Z" fill="white" stroke="#263238" stroke-miterlimit="10"/>
<path d="M97.3488 50.2482H93.2134V74.8345H97.3488V50.2482Z" fill="white" stroke="#263238" stroke-miterlimit="10"/>
<path d="M97.3488 69.5537H93.2134V71.5692H97.3488V69.5537Z" fill="white" stroke="#263238" stroke-miterlimit="10"/>
<path d="M97.3488 52.7429H93.2134V54.7584H97.3488V52.7429Z" fill="white" stroke="#263238" stroke-miterlimit="10"/>
<path d="M101.578 50.2482H97.4424V74.8345H101.578V50.2482Z" fill="white" stroke="#263238" stroke-miterlimit="10"/>
<path d="M101.578 69.5537H97.4424V71.5692H101.578V69.5537Z" fill="white" stroke="#263238" stroke-miterlimit="10"/>
<path d="M101.578 52.7429H97.4424V54.7584H101.578V52.7429Z" fill="white" stroke="#263238" stroke-miterlimit="10"/>
<path d="M105.812 50.2482H101.677V74.8345H105.812V50.2482Z" fill="white" stroke="#263238" stroke-miterlimit="10"/>
<path d="M105.812 69.5537H101.677V71.5692H105.812V69.5537Z" fill="white" stroke="#263238" stroke-miterlimit="10"/>
<path d="M105.812 52.7429H101.677V54.7584H105.812V52.7429Z" fill="white" stroke="#263238" stroke-miterlimit="10"/>
<path d="M110.042 50.2482H105.906V74.8345H110.042V50.2482Z" fill="white" stroke="#263238" stroke-miterlimit="10"/>
<path d="M116.933 50.2482H110.007V74.8345H116.933V50.2482Z" fill="white" stroke="#263238" stroke-miterlimit="10"/>
<path d="M110.042 69.5537H105.906V71.5692H110.042V69.5537Z" fill="white" stroke="#263238" stroke-miterlimit="10"/>
<path d="M110.042 52.7429H105.906V54.7584H110.042V52.7429Z" fill="white" stroke="#263238" stroke-miterlimit="10"/>
<path d="M109.587 79.5474H105.451V104.134H109.587V79.5474Z" fill="white" stroke="#263238" stroke-miterlimit="10"/>
<path d="M109.587 98.8529H105.451V100.868H109.587V98.8529Z" fill="white" stroke="#263238" stroke-miterlimit="10"/>
<path d="M109.587 82.047H105.451V84.0625H109.587V82.047Z" fill="white" stroke="#263238" stroke-miterlimit="10"/>
<path d="M105.506 79.5474H101.37V104.134H105.506V79.5474Z" fill="white" stroke="#263238" stroke-miterlimit="10"/>
<path d="M105.506 98.8529H101.37V100.868H105.506V98.8529Z" fill="white" stroke="#263238" stroke-miterlimit="10"/>
<path d="M105.506 82.047H101.37V84.0625H105.506V82.047Z" fill="white" stroke="#263238" stroke-miterlimit="10"/>
<path d="M101.424 79.5474H97.2891V104.134H101.424V79.5474Z" fill="white" stroke="#263238" stroke-miterlimit="10"/>
<path d="M101.424 98.8529H97.2891V100.868H101.424V98.8529Z" fill="white" stroke="#263238" stroke-miterlimit="10"/>
<path d="M101.424 82.047H97.2891V84.0625H101.424V82.047Z" fill="white" stroke="#263238" stroke-miterlimit="10"/>
<path d="M97.3488 79.5474H93.2134V104.134H97.3488V79.5474Z" fill="white" stroke="#263238" stroke-miterlimit="10"/>
<path d="M97.3488 98.8529H93.2134V100.868H97.3488V98.8529Z" fill="white" stroke="#263238" stroke-miterlimit="10"/>
<path d="M97.3488 82.047H93.2134V84.0625H97.3488V82.047Z" fill="white" stroke="#263238" stroke-miterlimit="10"/>
<path d="M113.816 79.5474H109.681V104.134H113.816V79.5474Z" fill="white" stroke="#263238" stroke-miterlimit="10"/>
<path d="M113.816 98.8529H109.681V100.868H113.816V98.8529Z" fill="white" stroke="#263238" stroke-miterlimit="10"/>
<path d="M113.816 82.047H109.681V84.0625H113.816V82.047Z" fill="white" stroke="#263238" stroke-miterlimit="10"/>
<path d="M118.046 79.5474H113.91V104.134H118.046V79.5474Z" fill="white" stroke="#263238" stroke-miterlimit="10"/>
<path d="M118.046 98.8529H113.91V100.868H118.046V98.8529Z" fill="white" stroke="#263238" stroke-miterlimit="10"/>
<path d="M118.046 82.047H113.91V84.0625H118.046V82.047Z" fill="white" stroke="#263238" stroke-miterlimit="10"/>
<path d="M122.28 79.5474H118.145V104.134H122.28V79.5474Z" fill="white" stroke="#263238" stroke-miterlimit="10"/>
<path d="M129.17 79.5474H122.245V104.134H129.17V79.5474Z" fill="white" stroke="#263238" stroke-miterlimit="10"/>
<path d="M122.28 98.8529H118.145V100.868H122.28V98.8529Z" fill="white" stroke="#263238" stroke-miterlimit="10"/>
<path d="M122.28 82.047H118.145V84.0625H122.28V82.047Z" fill="white" stroke="#263238" stroke-miterlimit="10"/>
<path d="M138.989 79.5474H134.854V104.134H138.989V79.5474Z" fill="white" stroke="#263238" stroke-miterlimit="10"/>
<path d="M138.989 98.8529H134.854V100.868H138.989V98.8529Z" fill="white" stroke="#263238" stroke-miterlimit="10"/>
<path d="M138.989 82.047H134.854V84.0625H138.989V82.047Z" fill="white" stroke="#263238" stroke-miterlimit="10"/>
<path d="M143.224 79.5474H139.088V104.134H143.224V79.5474Z" fill="white" stroke="#263238" stroke-miterlimit="10"/>
<path d="M143.224 98.8529H139.088V100.868H143.224V98.8529Z" fill="white" stroke="#263238" stroke-miterlimit="10"/>
<path d="M143.224 82.047H139.088V84.0625H143.224V82.047Z" fill="white" stroke="#263238" stroke-miterlimit="10"/>
<path d="M151.691 79.5413L147.835 81.1669L157.531 104.099L161.386 102.474L151.691 79.5413Z" fill="white" stroke="#263238" stroke-miterlimit="10"/>
<path d="M159.305 97.5461L155.449 99.1716L156.244 101.051L160.099 99.4256L159.305 97.5461Z" fill="white" stroke="#263238" stroke-miterlimit="10"/>
<path d="M152.678 81.8719L148.822 83.4974L149.617 85.377L153.472 83.7514L152.678 81.8719Z" fill="white" stroke="#263238" stroke-miterlimit="10"/>
<path d="M157.535 104.089H166.167L170.05 102.474L161.388 102.464L157.535 104.089Z" fill="white" stroke="#263238" stroke-miterlimit="10"/>
<path d="M151.693 79.5325H159.8L170.05 102.474L161.388 102.464L151.693 79.5325Z" fill="white" stroke="#263238" stroke-miterlimit="10"/>
<path d="M147.305 79.5474H143.169V104.134H147.305V79.5474Z" fill="white" stroke="#263238" stroke-miterlimit="10"/>
<path d="M147.305 98.8529H143.169V100.868H147.305V98.8529Z" fill="white" stroke="#263238" stroke-miterlimit="10"/>
<path d="M147.305 82.047H143.169V84.0625H147.305V82.047Z" fill="white" stroke="#263238" stroke-miterlimit="10"/>
<path d="M147.305 79.5474H151.693L147.834 81.1578L157.535 104.089H147.305V79.5474Z" fill="white" stroke="#263238" stroke-miterlimit="10"/>
<path d="M109.587 138.244H105.451V162.831H109.587V138.244Z" fill="white" stroke="#263238" stroke-miterlimit="10"/>
<path d="M109.587 157.55H105.451V159.565H109.587V157.55Z" fill="white" stroke="#263238" stroke-miterlimit="10"/>
<path d="M109.587 140.739H105.451V142.755H109.587V140.739Z" fill="white" stroke="#263238" stroke-miterlimit="10"/>
<path d="M105.506 138.244H101.37V162.831H105.506V138.244Z" fill="white" stroke="#263238" stroke-miterlimit="10"/>
<path d="M105.506 157.55H101.37V159.565H105.506V157.55Z" fill="white" stroke="#263238" stroke-miterlimit="10"/>
<path d="M105.506 140.739H101.37V142.755H105.506V140.739Z" fill="white" stroke="#263238" stroke-miterlimit="10"/>
<path d="M101.424 138.244H97.2891V162.831H101.424V138.244Z" fill="white" stroke="#263238" stroke-miterlimit="10"/>
<path d="M101.424 157.55H97.2891V159.565H101.424V157.55Z" fill="white" stroke="#263238" stroke-miterlimit="10"/>
<path d="M101.424 140.739H97.2891V142.755H101.424V140.739Z" fill="white" stroke="#263238" stroke-miterlimit="10"/>
<path d="M97.3488 138.244H93.2134V162.831H97.3488V138.244Z" fill="white" stroke="#263238" stroke-miterlimit="10"/>
<path d="M97.3488 157.55H93.2134V159.565H97.3488V157.55Z" fill="white" stroke="#263238" stroke-miterlimit="10"/>
<path d="M97.3488 140.739H93.2134V142.755H97.3488V140.739Z" fill="white" stroke="#263238" stroke-miterlimit="10"/>
<path d="M113.816 138.244H109.681V162.831H113.816V138.244Z" fill="white" stroke="#263238" stroke-miterlimit="10"/>
<path d="M113.816 157.55H109.681V159.565H113.816V157.55Z" fill="white" stroke="#263238" stroke-miterlimit="10"/>
<path d="M113.816 140.739H109.681V142.755H113.816V140.739Z" fill="white" stroke="#263238" stroke-miterlimit="10"/>
<path d="M118.046 138.244H113.91V162.831H118.046V138.244Z" fill="white" stroke="#263238" stroke-miterlimit="10"/>
<path d="M118.046 157.55H113.91V159.565H118.046V157.55Z" fill="white" stroke="#263238" stroke-miterlimit="10"/>
<path d="M118.046 140.739H113.91V142.755H118.046V140.739Z" fill="white" stroke="#263238" stroke-miterlimit="10"/>
<path d="M122.28 138.244H118.145V162.831H122.28V138.244Z" fill="white" stroke="#263238" stroke-miterlimit="10"/>
<path d="M129.17 138.244H122.245V162.831H129.17V138.244Z" fill="white" stroke="#263238" stroke-miterlimit="10"/>
<path d="M122.28 157.55H118.145V159.565H122.28V157.55Z" fill="white" stroke="#263238" stroke-miterlimit="10"/>
<path d="M122.28 140.739H118.145V142.755H122.28V140.739Z" fill="white" stroke="#263238" stroke-miterlimit="10"/>
<path d="M138.989 138.244H134.854V162.831H138.989V138.244Z" fill="white" stroke="#263238" stroke-miterlimit="10"/>
<path d="M138.989 157.55H134.854V159.565H138.989V157.55Z" fill="white" stroke="#263238" stroke-miterlimit="10"/>
<path d="M138.989 140.739H134.854V142.755H138.989V140.739Z" fill="white" stroke="#263238" stroke-miterlimit="10"/>
<path d="M143.224 138.244H139.088V162.831H143.224V138.244Z" fill="white" stroke="#263238" stroke-miterlimit="10"/>
<path d="M143.224 157.55H139.088V159.565H143.224V157.55Z" fill="white" stroke="#263238" stroke-miterlimit="10"/>
<path d="M143.224 140.739H139.088V142.755H143.224V140.739Z" fill="white" stroke="#263238" stroke-miterlimit="10"/>
<path d="M151.687 138.235L147.832 139.861L157.527 162.793L161.383 161.168L151.687 138.235Z" fill="white" stroke="#263238" stroke-miterlimit="10"/>
<path d="M159.204 155.803L155.354 157.433L156.15 159.31L160 157.68L159.204 155.803Z" fill="white" stroke="#263238" stroke-width="0.99925" stroke-miterlimit="10"/>
<path d="M152.674 140.566L148.819 142.192L149.613 144.071L153.469 142.446L152.674 140.566Z" fill="white" stroke="#263238" stroke-miterlimit="10"/>
<path d="M157.535 162.786H166.167L170.05 161.171L161.388 161.156L157.535 162.786Z" fill="white" stroke="#263238" stroke-miterlimit="10"/>
<path d="M151.693 138.225H159.8L170.05 161.171L161.388 161.156L151.693 138.225Z" fill="white" stroke="#263238" stroke-miterlimit="10"/>
<path d="M147.305 138.244H143.169V162.831H147.305V138.244Z" fill="white" stroke="#263238" stroke-miterlimit="10"/>
<path d="M147.305 157.55H143.169V159.565H147.305V157.55Z" fill="white" stroke="#263238" stroke-miterlimit="10"/>
<path d="M147.305 140.739H143.169V142.755H147.305V140.739Z" fill="white" stroke="#263238" stroke-miterlimit="10"/>
<path d="M147.305 138.244H151.693L147.834 139.85L157.535 162.786H147.305V138.244Z" fill="white" stroke="#263238" stroke-miterlimit="10"/>
<path d="M131.822 162.92V220.569" stroke="#263238" stroke-miterlimit="10"/>
<path d="M93.4209 170.058H173.3" stroke="#263238" stroke-miterlimit="10"/>
<path d="M109.814 174.934V185.387" stroke="#263238" stroke-width="2" stroke-miterlimit="10"/>
<path d="M113.302 174.934V185.387" stroke="#263238" stroke-width="2" stroke-miterlimit="10"/>
<path d="M149.932 174.934V185.387" stroke="#263238" stroke-width="2" stroke-miterlimit="10"/>
<path d="M153.419 174.934V185.387" stroke="#263238" stroke-width="2" stroke-miterlimit="10"/>
<path d="M195.564 46.8149V29.0902H221.376" stroke="#263238" stroke-miterlimit="10"/>
<path d="M223.276 29.0902H234.148V73.0562H195.564V49.5023" stroke="#263238" stroke-miterlimit="10"/>
<path d="M220.11 67.1282H200.763V35.0182H228.944V67.1282H222.326" stroke="#263238" stroke-miterlimit="10"/>
<path d="M220.273 44.8982H209.435V57.2482H220.273V44.8982Z" stroke="#263238" stroke-miterlimit="10"/>
<path d="M237.577 67.3061V56.2504H253.678" stroke="#263238" stroke-miterlimit="10"/>
<path d="M254.86 56.2504H261.642V83.6723H237.577V68.9807" stroke="#263238" stroke-miterlimit="10"/>
<path d="M252.886 79.9771H240.821V59.9454H258.397V79.9771H254.266" stroke="#263238" stroke-miterlimit="10"/>
<path d="M252.99 66.1106H246.228V73.8121H252.99V66.1106Z" stroke="#263238" stroke-miterlimit="10"/>
<path d="M-17.5576 223.356H261.434" stroke="#263238" stroke-linecap="round" stroke-linejoin="round"/>
<path d="M2.22911 154.196C2.22911 154.196 -0.73889 114.676 0.74511 110.23C2.22911 105.784 11.3804 106.031 13.1118 106.031C14.8431 106.031 50.9538 106.031 56.1478 108.501C61.3418 110.971 62.0838 171.733 62.0838 171.733H4.70244L2.22911 154.196Z" fill="#263238" stroke="#263238" stroke-miterlimit="10"/>
<path d="M64.0575 150.985C64.0575 150.985 58.1215 150.985 56.9343 156.913C55.7471 162.841 60.4217 187.294 60.768 194.21C61.1143 201.126 62.3311 210.759 62.3311 210.759H83.3545L88.0538 150.985H64.0575Z" fill="#263238" stroke="#263238" stroke-miterlimit="10"/>
<path d="M88.0539 150.985C88.0539 150.985 82.1179 150.985 80.6339 156.913C79.1499 162.841 82.6125 187.294 82.6125 194.21C82.6125 201.126 83.3545 210.759 83.3545 210.759H90.7746C90.7746 210.759 91.5166 192.975 91.5166 190.505C91.5166 188.035 94.4846 162.347 93.0006 157.16C91.5166 151.973 90.2799 151.479 88.0539 150.985Z" fill="#636363" stroke="#263238" stroke-miterlimit="10"/>
<path d="M25.3549 108.624C25.3549 108.624 5.69189 116.652 5.69189 117.516C5.69189 118.381 12.3699 141.599 14.8432 145.18C17.3166 148.762 19.0479 152.714 19.7899 154.196C20.5319 155.678 23.7472 159.383 26.3442 159.383C28.9412 159.383 32.0329 156.295 40.3186 155.06C48.6042 153.825 56.0242 153.949 57.5082 152.837C58.9922 151.726 57.1372 148.762 56.8899 148.144C56.6425 147.527 55.6532 145.304 55.6532 145.304C55.6532 145.304 63.6915 151.973 66.9069 152.22C70.1222 152.467 72.4719 150.861 72.9665 148.762C73.4612 146.662 71.6062 141.599 70.3695 138.882C69.1329 136.165 63.3205 131.842 60.7235 128.508C58.1265 125.173 54.7875 121.221 52.4379 118.504C50.3903 116.112 47.8624 114.177 45.0179 112.823C42.7919 111.835 37.1032 109.365 33.5169 108.995C29.9306 108.624 25.3549 108.624 25.3549 108.624Z" fill="white" stroke="#263238" stroke-miterlimit="10"/>
<path d="M63.8942 137.563C63.8942 137.563 61.0944 145.304 62.0837 147.28C63.0731 149.256 65.7096 149.913 65.7096 149.913" stroke="#263238" stroke-miterlimit="10"/>
<path d="M22.3867 111.218L38.7107 127.026L41.1841 115.17" stroke="#263238" stroke-miterlimit="10"/>
<path d="M64.6809 138.511C64.6809 138.511 68.6382 141.352 69.9986 140.364C71.3589 139.376 70.9879 137.523 70.1222 135.547C69.2566 133.571 66.4123 132.46 65.2993 133.324C64.1863 134.189 63.8153 137.647 64.6809 138.511Z" fill="white" stroke="#263238" stroke-miterlimit="10"/>
<path d="M24.1182 103.437L24.7365 110.847L37.8452 123.691L39.8238 114.552L40.6895 110.724C40.6895 110.724 32.1565 109.242 29.4358 107.389C26.7152 105.537 24.1182 103.437 24.1182 103.437Z" fill="white" stroke="#263238" stroke-miterlimit="10"/>
<path d="M40.6895 110.724C40.6895 110.724 32.1565 109.242 29.4358 107.389C26.7152 105.537 24.1182 103.437 24.1182 103.437L24.7365 110.847L28.0508 114.093C30.628 114.819 33.1953 115.17 34.9415 114.498C36.8791 113.794 38.7309 112.875 40.4619 111.756L40.6895 110.724Z" fill="#263238" stroke="#263238" stroke-miterlimit="10"/>
<path d="M20.2002 97.7167C20.2002 97.7167 17.8901 87.1747 17.8901 85.3667C17.8901 83.5587 24.1576 74.3308 32.7301 75.8128C41.3027 77.2948 46.0861 82.2348 46.4176 83.7168C46.749 85.1987 45.4282 88.1627 45.4282 88.1627C45.6892 89.0214 45.8551 89.906 45.9229 90.8007C45.9229 91.7887 44.4389 96.0667 44.4389 96.0667L43.9442 91.6207C43.9442 91.6207 39.8237 92.7767 37.5136 92.7767C35.2035 92.7767 31.2461 91.2947 31.2461 91.2947C31.2461 91.2947 32.0722 93.9277 31.2461 95.2467C30.42 96.5657 27.9517 97.7167 27.9517 97.7167C27.9517 97.7167 27.6202 100.35 26.6309 100.35C25.4104 100.288 24.1974 100.123 23.005 99.8557C22.3421 99.6927 20.2002 97.7167 20.2002 97.7167Z" fill="#263238" stroke="#263238" stroke-miterlimit="10"/>
<path d="M23.9944 98.8677C23.9944 98.8677 23.663 94.9157 20.3636 95.9037C17.0642 96.8917 19.211 100.513 21.0264 102.326C22.8419 104.139 23.3316 102.82 23.3316 102.82C23.3316 102.82 23.8263 106.609 26.2996 108.748C28.7729 110.887 32.567 114.839 36.5243 114.345C40.4817 113.851 43.2864 108.911 43.7811 105.29C44.2758 101.669 44.6022 93.1027 44.6022 92.1147C44.4831 91.0004 44.2629 89.8992 43.9443 88.8247C43.9443 88.8247 40.4817 91.2947 37.3504 90.6327C34.2192 89.9708 30.9198 88.6567 29.4358 88.6567C27.9518 88.6567 28.2783 90.8007 28.7729 91.4577C29.2676 92.1147 30.5883 93.4337 29.1043 94.2587C27.6203 95.0837 25.6417 95.9037 25.6417 95.9037V99.3617L23.9944 98.8677Z" fill="white" stroke="#263238" stroke-miterlimit="10"/>
<path d="M39.7694 97.0696L38.9582 105.996L34.897 104.82" stroke="#263238" stroke-miterlimit="10"/>
<path d="M36.3416 105.542C36.3416 105.542 34.363 105.542 33.2747 105.635C32.621 105.743 31.9568 105.773 31.296 105.724C30.8459 105.635 30.3067 105.275 31.207 106.174C32.1073 107.073 34.8181 108.15 36.2625 108.338C37.7069 108.525 38.7012 108.066 39.7796 107.35C40.8579 106.633 41.7582 105.907 41.224 105.729C40.4796 105.597 39.7243 105.536 38.9683 105.547V106.001L36.3416 105.542Z" fill="#263238" stroke="#263238" stroke-miterlimit="10"/>
<path d="M33.4969 100.132C33.822 100.132 34.0855 99.5883 34.0855 98.9171C34.0855 98.246 33.822 97.7019 33.4969 97.7019C33.1717 97.7019 32.9082 98.246 32.9082 98.9171C32.9082 99.5883 33.1717 100.132 33.4969 100.132Z" fill="#263238"/>
<path d="M42.2974 98.7393C42.2974 99.4112 42.0352 99.9546 41.7137 99.9546C41.3921 99.9546 41.125 99.4112 41.125 98.7393C41.125 98.0675 41.3872 97.5192 41.7137 97.5192C42.0401 97.5192 42.2974 98.0675 42.2974 98.7393Z" fill="#263238"/>
<path d="M31.2861 97.0695C31.2861 97.0695 33.7248 95.3553 35.7085 96.0815" stroke="#263238" stroke-miterlimit="10"/>
<path d="M40.2246 96.1705C40.2246 96.1705 42.7523 94.9948 43.8357 96.0767" stroke="#263238" stroke-miterlimit="10"/>
<path d="M35.0801 101.15C35.0801 101.15 34.536 101.782 32.7305 102.321" stroke="#263238" stroke-miterlimit="10"/>
<path d="M40.0415 100.765C40.5757 101.133 41.1519 101.436 41.758 101.669" stroke="#263238" stroke-miterlimit="10"/>
<path d="M47.7388 124.185L48.6044 121.962C48.6044 121.962 49.7174 123.074 52.6854 123.074C55.6534 123.074 60.4764 125.173 60.4764 125.173L60.8474 125.791C60.8474 125.791 61.7131 123.197 63.3208 122.703C64.9284 122.209 67.5254 120.48 67.8964 119.986L68.2674 119.492L69.9988 120.974L62.3314 131.101L47.9861 125.544L47.7388 124.185Z" fill="white" stroke="#263238" stroke-miterlimit="10"/>
<path d="M47.8623 123.321L44.1523 142.957L57.0137 145.921L61.713 126.902L47.8623 123.321Z" fill="white" stroke="#263238" stroke-miterlimit="10"/>
<path d="M61.713 126.902L69.9986 120.974L65.052 139.993L57.0137 145.921L61.713 126.902Z" fill="white" stroke="#263238" stroke-miterlimit="10"/>
<path d="M31.9092 139.376L37.5138 137.069C37.5138 137.069 42.4604 131.803 42.9551 131.309C43.4498 130.815 48.3964 130.321 48.3964 130.321L53.8378 133.942C53.8378 133.942 54.8271 134.767 53.8378 135.093C52.8484 135.419 50.7065 134.436 50.7065 134.436L48.5597 133.117L47.2438 133.779L50.0437 136.081C50.0437 136.081 50.8698 138.225 50.8698 139.376C50.8546 140.115 50.6861 140.843 50.3751 141.515L48.7278 143.822L43.7812 141.352C43.7812 141.352 40.8132 143.491 40.1503 143.822C39.4875 144.153 33.225 143.659 33.225 143.659L31.9092 139.376Z" fill="white" stroke="#263238" stroke-miterlimit="10"/>
<path d="M43.7368 133.606L45.4879 133.275L46.9917 133.69" stroke="#263238" stroke-miterlimit="10"/>
<path d="M42.0698 136.856C42.0698 136.856 45.9876 135.77 46.2399 135.77C46.4921 135.77 49.4107 138.768 49.4107 138.768L49.7421 142.019" stroke="#263238" stroke-miterlimit="10"/>
<path d="M42.2378 138.936L45.4037 139.02L48.3222 140.937C48.6183 141.869 48.7554 142.844 48.7278 143.822" stroke="#263238" stroke-miterlimit="10"/>
<path d="M9.15447 115.17C9.15447 115.17 5.52362 115.664 5.02895 118.791C4.53429 121.918 1.23981 148.268 2.22914 151.232C3.21847 154.196 21.5211 149.093 22.179 148.762C22.837 148.431 33.225 145.304 33.3931 144.647C33.5613 143.99 33.8878 138.551 32.4038 138.225C30.9198 137.899 16.7377 138.388 16.7377 138.388L14.759 121.261" fill="white"/>
<path d="M9.15447 115.17C9.15447 115.17 5.52362 115.664 5.02895 118.791C4.53429 121.918 1.23981 148.268 2.22914 151.232C3.21847 154.196 21.5211 149.093 22.179 148.762C22.837 148.431 33.225 145.304 33.3931 144.647C33.5613 143.99 33.8878 138.551 32.4038 138.225C30.9198 137.899 16.7377 138.388 16.7377 138.388L14.759 121.261" stroke="#263238" stroke-miterlimit="10"/>
<path d="M16.7378 138.388L7.99707 139.87" stroke="#263238" stroke-miterlimit="10"/>
<path d="M6.34961 137.894L13.9328 138.882" stroke="#263238" stroke-miterlimit="10"/>
<path d="M67.7724 129.125C67.7724 129.125 64.4334 132.583 64.5571 133.448C64.6807 134.312 66.4121 132.954 66.7831 132.583C67.1541 132.213 68.8854 131.225 68.8854 130.237C68.8854 129.249 68.5144 128.137 67.7724 129.125Z" fill="white" stroke="#263238" stroke-miterlimit="10"/>
<path d="M68.1437 131.225C68.1437 131.225 69.133 132.213 69.133 133.077C69.133 133.942 67.0307 136.782 66.0414 136.782C65.052 136.782 65.794 134.806 66.2887 133.942C66.7834 133.077 68.1437 131.225 68.1437 131.225Z" fill="white" stroke="#263238" stroke-miterlimit="10"/>
<path d="M69.1329 133.077C69.1329 133.077 70.3695 133.448 70.3695 134.559C70.3695 135.671 68.0199 137.523 67.4016 137.647C66.7832 137.77 66.9069 136.659 67.4016 135.794C67.8962 134.93 69.1329 133.077 69.1329 133.077Z" fill="white" stroke="#263238" stroke-miterlimit="10"/>
<path d="M70.3694 134.559C70.6226 135.185 70.7079 135.866 70.6167 136.535C70.493 137.77 68.638 138.511 68.0197 138.511C67.4014 138.511 67.4014 137.647 67.4014 137.647C68.4479 136.674 69.4388 135.643 70.3694 134.559Z" fill="white" stroke="#263238" stroke-miterlimit="10"/>
<path d="M31.4737 223.356H29.124L27.9517 207.795H32.651L31.4737 223.356Z" fill="white" stroke="#263238" stroke-miterlimit="10"/>
<path d="M9.9561 223.356H7.60644L6.43408 207.795H11.1334L9.9561 223.356Z" fill="white" stroke="#263238" stroke-miterlimit="10"/>
<path d="M87.6187 223.356H85.2691L84.0967 207.795H88.796L87.6187 223.356Z" fill="white" stroke="#263238" stroke-miterlimit="10"/>
<path d="M66.1006 223.356H63.751L62.5786 207.795H67.2779L66.1006 223.356Z" fill="white" stroke="#263238" stroke-miterlimit="10"/>
<path d="M84.3439 178.021H28.1992V210.625H84.3439V178.021Z" fill="#263238" stroke="#263238" stroke-miterlimit="10"/>
<path d="M125.07 172.805C125.07 172.805 131.006 170.335 132.326 169.347C133.647 168.359 135.458 170.498 134.632 172.805C133.805 175.112 131.664 179.227 128.369 181.203C125.075 183.179 122.433 184.824 121.77 185.481C121.107 186.138 121.276 188.613 118.476 189.601C115.676 190.589 112.208 188.613 110.23 185.481C108.251 182.349 106.93 180.215 106.93 180.215C106.93 180.215 107.098 177.908 110.393 176.757C113.687 175.606 119.297 175.107 119.297 175.107L125.07 172.805Z" fill="white" stroke="#263238" stroke-miterlimit="10"/>
<path d="M57.5081 152.837C57.5081 152.837 61.421 151.889 62.4103 152.383C63.3996 152.877 66.699 156.009 66.699 156.009C66.699 156.009 86.6489 156.335 88.1329 156.997C89.6169 157.659 104.952 169.347 108.251 170.992C111.55 172.637 114.35 174.119 114.35 174.119L111.877 184.987V185.975L112.045 187.625C112.045 187.625 103.468 184.987 101.326 184.493C99.1838 183.999 90.2798 179.39 89.4537 179.39C88.6276 179.39 81.8705 177.414 81.8705 177.414C81.8705 177.414 80.8811 176.757 70.1617 175.769C59.4423 174.781 47.407 173.625 43.1183 173.462C38.8295 173.299 33.225 172.968 31.083 172.143C28.9411 171.318 25.147 165.558 24.4891 162.1C23.8312 158.642 30.7516 155.678 33.7196 154.359C36.6876 153.04 47.7385 151.395 49.7171 151.395C51.6958 151.395 57.5081 152.837 57.5081 152.837Z" fill="white" stroke="#263238" stroke-miterlimit="10"/>
<path d="M61.2579 157.654L57.9585 162.431L62.4105 159.467" fill="white"/>
<path d="M61.2579 157.654L57.9585 162.431L62.4105 159.467" stroke="#263238" stroke-miterlimit="10"/>
<path d="M111.877 171.98C111.877 171.98 116.661 168.191 117.65 167.04C118.639 165.889 121.939 159.63 122.597 157.654C123.255 155.678 124.907 154.69 126.059 156.172C127.212 157.654 128.038 160.618 128.696 161.937C129.354 163.256 128.369 169.673 126.391 171.817C124.412 173.961 121.677 179.153 121.113 180.215C119.629 183.011 117.319 183.342 115.835 183.505C114.351 183.668 110.725 179.721 110.725 179.721L111.877 171.98Z" fill="white" stroke="#263238" stroke-miterlimit="10"/>
<path d="M38.5031 160.949C38.5031 160.949 43.4498 159.961 47.9018 160.455C52.3538 160.949 61.421 163.745 65.2151 164.733C69.0092 165.721 75.7663 166.215 78.9025 167.371C82.0387 168.527 90.2798 170.004 96.5423 170.004C102.805 170.004 112.372 170.829 112.372 170.829C112.372 170.829 111.056 180.378 111.382 182.191C111.708 183.65 112.149 185.08 112.703 186.469C112.703 186.469 100.005 187.457 96.3791 187.951C92.7532 188.445 78.0764 186.143 75.6031 185.481C73.1297 184.819 69.5038 183.836 67.1938 183.836C64.8837 183.836 60.4317 184.824 54.001 185.481C47.5703 186.138 38.5031 183.342 37.3505 183.179C36.1979 183.016 32.0724 181.529 31.0831 180.872C30.0938 180.215 24.321 170.004 26.2997 165.721C28.2783 161.438 30.7517 160.781 30.7517 160.781" fill="white"/>
<path d="M38.5031 160.949C38.5031 160.949 43.4498 159.961 47.9018 160.455C52.3538 160.949 61.421 163.745 65.2151 164.733C69.0092 165.721 75.7663 166.215 78.9025 167.371C82.0387 168.527 90.2798 170.004 96.5423 170.004C102.805 170.004 112.372 170.829 112.372 170.829C112.372 170.829 111.056 180.378 111.382 182.191C111.708 183.65 112.149 185.08 112.703 186.469C112.703 186.469 100.005 187.457 96.3791 187.951C92.7532 188.445 78.0764 186.143 75.6031 185.481C73.1298 184.819 69.5038 183.836 67.1938 183.836C64.8837 183.836 60.4317 184.824 54.001 185.481C47.5703 186.138 38.5031 183.342 37.3505 183.179C36.1979 183.016 32.0724 181.529 31.0831 180.872C30.0938 180.215 24.321 170.004 26.2997 165.721C28.2783 161.438 30.7517 160.781 30.7517 160.781" stroke="#263238" stroke-miterlimit="10"/>
<path d="M68.8359 177.562C72.0166 178.194 75.3853 180.121 79.9412 181.904C86.0207 184.28 98.1895 184.063 99.7576 184.28C101.326 184.498 105.308 184.28 105.308 184.28" fill="white"/>
<path d="M68.8359 177.562C72.0166 178.194 75.3853 180.121 79.9412 181.904C86.0207 184.28 98.1895 184.063 99.7576 184.28C101.326 184.498 105.308 184.28 105.308 184.28" stroke="#263238" stroke-miterlimit="10"/>
<path d="M44.3105 179.795L46.126 180.057C51.409 180.847 61.4606 177.947 65.6752 177.419" fill="white"/>
<path d="M44.3105 179.795L46.126 180.057C51.409 180.847 61.4606 177.947 65.6752 177.419" stroke="#263238" stroke-miterlimit="10"/>
<path d="M38.9927 179.266C38.9927 179.266 39.9424 179.266 42.4207 179.558L38.9927 179.266Z" fill="white"/>
<path d="M38.9927 179.266C38.9927 179.266 39.9424 179.266 42.4207 179.558" stroke="#263238" stroke-miterlimit="10"/>
<path d="M6.92359 150.985C6.92359 150.985 0.987592 150.985 -0.199609 156.913C-1.38681 162.841 3.26306 187.294 3.63406 194.21C4.00506 201.126 5.19721 210.759 5.19721 210.759H26.2205L30.9199 150.985H6.92359Z" fill="#263238" stroke="#263238" stroke-miterlimit="10"/>
<path d="M30.9201 150.985C30.9201 150.985 24.9841 150.985 23.5001 156.913C22.0161 162.841 25.4788 187.294 25.4788 194.21C25.4788 201.126 26.2208 210.759 26.2208 210.759H33.6408C33.6408 210.759 34.3828 192.975 34.3828 190.505C34.3828 188.035 37.3508 162.347 35.8668 157.16C34.3828 151.973 33.1461 151.479 30.9201 150.985Z" fill="#636363" stroke="#263238" stroke-miterlimit="10"/>
<path d="M79.209 223.356H76.8594L75.687 207.795H80.3863L79.209 223.356Z" fill="white" stroke="#263238" stroke-miterlimit="10"/>
<path d="M99.2432 223.356H96.8936L95.7212 207.795H100.421L99.2432 223.356Z" fill="white" stroke="#263238" stroke-miterlimit="10"/>
<path d="M108.642 223.356H106.292L105.12 207.795H109.819L108.642 223.356Z" fill="white" stroke="#263238" stroke-miterlimit="10"/>
<path d="M128.429 223.356H126.079L124.907 207.795H129.606L128.429 223.356Z" fill="white" stroke="#263238" stroke-miterlimit="10"/>
<path d="M76.3054 187.541H127.973C128.924 187.541 129.837 187.918 130.509 188.59C131.182 189.261 131.56 190.172 131.56 191.122V216.44H72.6943V191.122C72.6943 190.65 72.7879 190.182 72.9697 189.746C73.1514 189.31 73.4178 188.914 73.7535 188.581C74.0891 188.248 74.4874 187.985 74.9254 187.806C75.3634 187.628 75.8324 187.537 76.3054 187.541Z" fill="#263238" stroke="#263238" stroke-miterlimit="10"/>
<path d="M127.998 187.541H109.201C108.25 187.541 107.338 187.918 106.665 188.59C105.993 189.261 105.615 190.172 105.615 191.122V216.44H131.585V191.122C131.583 190.173 131.205 189.263 130.533 188.591C129.861 187.92 128.949 187.542 127.998 187.541Z" fill="#636363" stroke="#263238" stroke-miterlimit="10"/>
</g>
<defs>
<clipPath id="clip0_580_1846">
<rect width="262" height="223" fill="white"/>
</clipPath>
</defs>
</svg>
