<svg width="390" height="316" viewBox="0 0 390 316" fill="none" xmlns="http://www.w3.org/2000/svg">
<path d="M341.897 87.533H272.228V245.577H341.897V87.533Z" stroke="#263238" stroke-width="0.75" stroke-linecap="round" stroke-linejoin="round"/>
<path d="M335.782 93.6482H278.343V239.461H335.782V93.6482Z" stroke="#263238" stroke-width="0.75" stroke-linecap="round" stroke-linejoin="round"/>
<path d="M284.872 158.029L283.304 160.751" stroke="#263238" stroke-width="0.75" stroke-linecap="round" stroke-linejoin="round"/>
<path d="M301.361 129.481L286.681 154.909" stroke="#263238" stroke-width="0.75" stroke-linecap="round" stroke-linejoin="round"/>
<path d="M314.831 106.144L303.708 125.41" stroke="#263238" stroke-width="0.75" stroke-linecap="round" stroke-linejoin="round"/>
<path d="M317.187 102.072L316.001 104.116" stroke="#263238" stroke-width="0.75" stroke-linecap="round" stroke-linejoin="round"/>
<path d="M289.544 227.332L288.21 229.641" stroke="#263238" stroke-width="0.75" stroke-linecap="round" stroke-linejoin="round"/>
<path d="M292.633 221.982L291.221 224.439" stroke="#263238" stroke-width="0.75" stroke-linecap="round" stroke-linejoin="round"/>
<path d="M311.47 189.354L295.659 216.748" stroke="#263238" stroke-width="0.75" stroke-linecap="round" stroke-linejoin="round"/>
<path d="M325.47 165.104L313.092 186.554" stroke="#263238" stroke-width="0.75" stroke-linecap="round" stroke-linejoin="round"/>
<path d="M328.536 159.8L327.312 161.922" stroke="#263238" stroke-width="0.75" stroke-linecap="round" stroke-linejoin="round"/>
<path d="M307.063 209.884L295.659 229.641" stroke="#263238" stroke-width="0.75" stroke-linecap="round" stroke-linejoin="round"/>
<path d="M321.649 184.62L308.724 207.006" stroke="#263238" stroke-width="0.75" stroke-linecap="round" stroke-linejoin="round"/>
<path d="M324.683 179.37L323.154 182.014" stroke="#263238" stroke-width="0.75" stroke-linecap="round" stroke-linejoin="round"/>
<path d="M283.304 178.481L281.572 181.484" stroke="#263238" stroke-width="0.75" stroke-linecap="round" stroke-linejoin="round"/>
<path d="M298.459 152.234L284.692 176.079" stroke="#263238" stroke-width="0.75" stroke-linecap="round" stroke-linejoin="round"/>
<path d="M317.374 119.474L300.082 149.418" stroke="#263238" stroke-width="0.75" stroke-linecap="round" stroke-linejoin="round"/>
<path d="M328.739 99.7867L318.708 117.165" stroke="#263238" stroke-width="0.75" stroke-linecap="round" stroke-linejoin="round"/>
<path d="M117.772 87.533H48.1025V245.577H117.772V87.533Z" stroke="#263238" stroke-width="0.75" stroke-linecap="round" stroke-linejoin="round"/>
<path d="M111.657 93.6482H54.2178V239.461H111.657V93.6482Z" stroke="#263238" stroke-width="0.75" stroke-linecap="round" stroke-linejoin="round"/>
<path d="M60.7465 158.029L59.1787 160.751" stroke="#263238" stroke-width="0.75" stroke-linecap="round" stroke-linejoin="round"/>
<path d="M77.2279 129.481L62.5483 154.909" stroke="#263238" stroke-width="0.75" stroke-linecap="round" stroke-linejoin="round"/>
<path d="M90.7063 106.144L79.5835 125.41" stroke="#263238" stroke-width="0.75" stroke-linecap="round" stroke-linejoin="round"/>
<path d="M93.0538 102.072L91.876 104.116" stroke="#263238" stroke-width="0.75" stroke-linecap="round" stroke-linejoin="round"/>
<path d="M65.4188 227.332L64.085 229.641" stroke="#263238" stroke-width="0.75" stroke-linecap="round" stroke-linejoin="round"/>
<path d="M68.5075 221.982L67.0879 224.439" stroke="#263238" stroke-width="0.75" stroke-linecap="round" stroke-linejoin="round"/>
<path d="M87.3443 189.354L71.5259 216.748" stroke="#263238" stroke-width="0.75" stroke-linecap="round" stroke-linejoin="round"/>
<path d="M101.345 165.104L88.959 186.554" stroke="#263238" stroke-width="0.75" stroke-linecap="round" stroke-linejoin="round"/>
<path d="M104.411 159.8L103.178 161.922" stroke="#263238" stroke-width="0.75" stroke-linecap="round" stroke-linejoin="round"/>
<path d="M82.9373 209.884L71.5259 229.641" stroke="#263238" stroke-width="0.75" stroke-linecap="round" stroke-linejoin="round"/>
<path d="M97.5232 184.62L84.5986 207.006" stroke="#263238" stroke-width="0.75" stroke-linecap="round" stroke-linejoin="round"/>
<path d="M100.55 179.37L99.0288 182.014" stroke="#263238" stroke-width="0.75" stroke-linecap="round" stroke-linejoin="round"/>
<path d="M59.1784 178.481L57.439 181.484" stroke="#263238" stroke-width="0.75" stroke-linecap="round" stroke-linejoin="round"/>
<path d="M74.3261 152.234L60.5591 176.079" stroke="#263238" stroke-width="0.75" stroke-linecap="round" stroke-linejoin="round"/>
<path d="M93.2413 119.474L75.9565 149.418" stroke="#263238" stroke-width="0.75" stroke-linecap="round" stroke-linejoin="round"/>
<path d="M104.606 99.7867L94.5747 117.165" stroke="#263238" stroke-width="0.75" stroke-linecap="round" stroke-linejoin="round"/>
<path d="M23.0098 311.455H366.99" stroke="#263238" stroke-linecap="round" stroke-linejoin="round"/>
<path d="M142.498 249.664H136.531V269.952H142.498V249.664Z" fill="white"/>
<path opacity="0.2" d="M142.498 249.664H136.531V269.952H142.498V249.664Z" fill="black"/>
<path d="M148.473 251.895H142.506V269.952H148.473V251.895Z" fill="white"/>
<path d="M155.922 251.895H151.71V269.952H155.922V251.895Z" fill="white"/>
<path opacity="0.9" d="M155.922 251.895H151.71V269.952H155.922V251.895Z" fill="white"/>
<path d="M151.718 249.991H147.896V269.959H151.718V249.991Z" fill="white"/>
<path opacity="0.1" d="M151.718 249.991H147.896V269.959H151.718V249.991Z" fill="black"/>
<path d="M161.897 249.664H155.93V269.952H161.897V249.664Z" fill="white"/>
<path d="M167.863 251.895H161.896V269.952H167.863V251.895Z" fill="white"/>
<path opacity="0.2" d="M167.863 251.895H161.896V269.952H167.863V251.895Z" fill="#263238"/>
<path d="M175.32 251.895H171.108V269.952H175.32V251.895Z" fill="white"/>
<path opacity="0.8" d="M175.32 251.895H171.108V269.952H175.32V251.895Z" fill="white"/>
<path d="M171.109 249.991H167.287V269.959H171.109V249.991Z" fill="white"/>
<path opacity="0.1" d="M171.109 249.991H167.287V269.959H171.109V249.991Z" fill="black"/>
<path d="M203.79 269.959H209.757V249.672H203.79V269.959Z" fill="white"/>
<path opacity="0.2" d="M203.79 269.959H209.757V249.672H203.79V269.959Z" fill="black"/>
<path d="M197.816 269.959H203.783V251.902H197.816V269.959Z" fill="white"/>
<path d="M190.367 269.959H194.579V251.902H190.367V269.959Z" fill="white"/>
<path opacity="0.9" d="M190.367 269.959H194.579V251.902H190.367V269.959Z" fill="white"/>
<path d="M194.571 269.952H198.393V249.984H194.571V269.952Z" fill="white"/>
<path opacity="0.1" d="M194.571 269.952H198.393V249.984H194.571V269.952Z" fill="black"/>
<path d="M184.392 269.959H190.359V249.672H184.392V269.959Z" fill="white"/>
<path d="M178.425 269.959H184.392V251.902H178.425V269.959Z" fill="white"/>
<path opacity="0.2" d="M178.425 269.959H184.392V251.902H178.425V269.959Z" fill="#263238"/>
<path d="M175.18 269.952H179.002V249.984H175.18V269.952Z" fill="white"/>
<path opacity="0.1" d="M175.18 269.952H179.002V249.984H175.18V269.952Z" fill="black"/>
<path d="M238.188 269.959H244.155V249.672H238.188V269.959Z" fill="white"/>
<path opacity="0.2" d="M238.188 269.959H244.155V249.672H238.188V269.959Z" fill="black"/>
<path d="M232.214 269.959H238.181V251.902H232.214V269.959Z" fill="white"/>
<path d="M224.765 269.959H228.977V251.902H224.765V269.959Z" fill="white"/>
<path opacity="0.9" d="M224.765 269.959H228.977V251.902H224.765V269.959Z" fill="white"/>
<path d="M228.969 269.952H232.791V249.984H228.969V269.952Z" fill="white"/>
<path opacity="0.1" d="M228.969 269.952H232.791V249.984H228.969V269.952Z" fill="black"/>
<path d="M218.79 269.959H224.757V249.672H218.79V269.959Z" fill="white"/>
<path d="M248.04 269.243L251.959 268.192L246.684 248.513L242.765 249.563L248.04 269.243Z" fill="white"/>
<path d="M212.823 269.959H218.79V251.902H212.823V269.959Z" fill="white"/>
<path opacity="0.2" d="M212.823 269.959H218.79V251.902H212.823V269.959Z" fill="#263238"/>
<path d="M209.578 269.952H213.4V249.984H209.578V269.952Z" fill="white"/>
<path opacity="0.1" d="M209.578 269.952H213.4V249.984H209.578V269.952Z" fill="black"/>
<path d="M250.038 296.313L254.046 295.239L248.795 275.642L244.787 276.716L250.038 296.313Z" fill="white"/>
<path opacity="0.2" d="M250.038 296.313L254.046 295.239L248.795 275.642L244.787 276.716L250.038 296.313Z" fill="black"/>
<path d="M239.741 296.113H245.708V278.056H239.741V296.113Z" fill="white"/>
<path d="M232.276 296.113H236.488V278.056H232.276V296.113Z" fill="white"/>
<path opacity="0.9" d="M232.276 296.113H236.488V278.056H232.276V296.113Z" fill="white"/>
<path d="M236.488 296.121H240.31V276.153H236.488V296.121Z" fill="white"/>
<path opacity="0.1" d="M236.488 296.121H240.31V276.153H236.488V296.121Z" fill="black"/>
<path d="M226.317 296.121H232.284V275.833H226.317V296.121Z" fill="white"/>
<path d="M220.342 296.113H226.309V278.056H220.342V296.113Z" fill="white"/>
<path opacity="0.2" d="M220.342 296.113H226.309V278.056H220.342V296.113Z" fill="#263238"/>
<path d="M212.893 296.113H217.105V278.056H212.893V296.113Z" fill="white"/>
<path opacity="0.8" d="M212.893 296.113H217.105V278.056H212.893V296.113Z" fill="white"/>
<path d="M217.097 296.121H220.919V276.153H217.097V296.121Z" fill="white"/>
<path opacity="0.1" d="M217.097 296.121H220.919V276.153H217.097V296.121Z" fill="black"/>
<path d="M184.423 275.833H178.456V296.121H184.423V275.833Z" fill="white"/>
<path opacity="0.2" d="M184.423 275.833H178.456V296.121H184.423V275.833Z" fill="black"/>
<path d="M190.39 278.063H184.423V296.12H190.39V278.063Z" fill="white"/>
<path d="M197.847 278.063H193.635V296.12H197.847V278.063Z" fill="white"/>
<path opacity="0.9" d="M197.847 278.063H193.635V296.12H197.847V278.063Z" fill="white"/>
<path d="M193.635 276.153H189.813V296.121H193.635V276.153Z" fill="white"/>
<path opacity="0.1" d="M193.635 276.153H189.813V296.121H193.635V276.153Z" fill="black"/>
<path d="M203.814 275.833H197.847V296.121H203.814V275.833Z" fill="white"/>
<path d="M209.781 278.063H203.814V296.12H209.781V278.063Z" fill="white"/>
<path opacity="0.2" d="M209.781 278.063H203.814V296.12H209.781V278.063Z" fill="#263238"/>
<path d="M213.026 276.153H209.204V296.121H213.026V276.153Z" fill="white"/>
<path opacity="0.1" d="M213.026 276.153H209.204V296.121H213.026V276.153Z" fill="black"/>
<path d="M150.025 275.833H144.058V296.121H150.025V275.833Z" fill="white"/>
<path opacity="0.2" d="M150.025 275.833H144.058V296.121H150.025V275.833Z" fill="black"/>
<path d="M155.992 278.063H150.025V296.12H155.992V278.063Z" fill="white"/>
<path d="M163.449 278.063H159.237V296.12H163.449V278.063Z" fill="white"/>
<path opacity="0.9" d="M163.449 278.063H159.237V296.12H163.449V278.063Z" fill="white"/>
<path d="M159.237 276.153H155.415V296.121H159.237V276.153Z" fill="white"/>
<path opacity="0.1" d="M159.237 276.153H155.415V296.121H159.237V276.153Z" fill="black"/>
<path d="M169.416 275.833H163.449V296.121H169.416V275.833Z" fill="white"/>
<path d="M144.046 276.7L140.143 275.654L134.892 295.251L138.795 296.296L144.046 276.7Z" fill="white"/>
<path d="M175.383 278.063H169.416V296.12H175.383V278.063Z" fill="white"/>
<path opacity="0.2" d="M175.383 278.063H169.416V296.12H175.383V278.063Z" fill="#263238"/>
<path d="M178.628 276.153H174.806V296.121H178.628V276.153Z" fill="white"/>
<path opacity="0.1" d="M178.628 276.153H174.806V296.121H178.628V276.153Z" fill="black"/>
<path d="M141.118 311.455H135.151L134.332 299.911H141.937L141.118 311.455Z" fill="#263238"/>
<path d="M254.849 311.455H248.882L248.063 299.911H255.668L254.849 311.455Z" fill="#263238"/>
<path d="M261.425 242.004H128.575C127.816 242.004 127.088 242.306 126.551 242.843C126.014 243.379 125.712 244.108 125.712 244.867V299.139C125.712 299.898 126.014 300.626 126.551 301.163C127.088 301.7 127.816 302.002 128.575 302.002H261.425C262.184 302.002 262.912 301.7 263.449 301.163C263.986 300.626 264.287 299.898 264.287 299.139V244.867C264.287 244.108 263.986 243.379 263.449 242.843C262.912 242.306 262.184 242.004 261.425 242.004V242.004ZM258.554 247.737V269.959H131.414V247.737H258.554ZM131.445 296.3V274.054H258.585V296.3H131.445Z" fill="white" stroke="#263238" stroke-width="0.75" stroke-linecap="round" stroke-linejoin="round"/>
<path d="M241.784 128.007H149.861C146.906 128.007 144.51 130.403 144.51 133.358V153.092C144.51 156.047 146.906 158.443 149.861 158.443H241.784C244.739 158.443 247.135 156.047 247.135 153.092V133.358C247.135 130.403 244.739 128.007 241.784 128.007Z" fill="#263238" stroke="#263238" stroke-linecap="round" stroke-linejoin="round"/>
<path d="M240.146 126.369H148.223C145.268 126.369 142.873 128.765 142.873 131.72V151.454C142.873 154.409 145.268 156.805 148.223 156.805H240.146C243.102 156.805 245.497 154.409 245.497 151.454V131.72C245.497 128.765 243.102 126.369 240.146 126.369Z" fill="white" stroke="#263238" stroke-linecap="round" stroke-linejoin="round"/>
<path d="M240.146 126.369H148.223C145.268 126.369 142.873 128.765 142.873 131.72V151.454C142.873 154.409 145.268 156.805 148.223 156.805H240.146C243.102 156.805 245.497 154.409 245.497 151.454V131.72C245.497 128.765 243.102 126.369 240.146 126.369Z" stroke="#263238" stroke-linecap="round" stroke-linejoin="round"/>
<path d="M165.594 150.573H152.077V133.475H161.086L165.594 137.983V150.573Z" fill="white"/>
<path opacity="0.5" d="M165.594 150.573H152.077V133.475H161.086L165.594 137.983V150.573Z" fill="white"/>
<path d="M165.594 150.573H152.077V133.475H161.086L165.594 137.983V150.573Z" stroke="#263238" stroke-linecap="round" stroke-linejoin="round"/>
<path d="M161.085 137.984H165.594L161.085 133.475V137.984Z" fill="white" stroke="#263238" stroke-linecap="round" stroke-linejoin="round"/>
<path d="M155.08 142.546C154.867 142.526 154.67 142.427 154.526 142.269C154.383 142.112 154.303 141.906 154.303 141.692C154.303 141.479 154.383 141.273 154.526 141.115C154.67 140.957 154.867 140.859 155.08 140.838H162.591C162.803 140.859 163.001 140.957 163.144 141.115C163.288 141.273 163.367 141.479 163.367 141.692C163.367 141.906 163.288 142.112 163.144 142.269C163.001 142.427 162.803 142.526 162.591 142.546H155.08Z" fill="#858585" stroke="#263238" stroke-width="0.75" stroke-linecap="round" stroke-linejoin="round"/>
<path d="M155.08 146.142C154.867 146.122 154.67 146.023 154.526 145.865C154.383 145.707 154.303 145.502 154.303 145.288C154.303 145.075 154.383 144.869 154.526 144.711C154.67 144.553 154.867 144.454 155.08 144.434H160.953C161.165 144.454 161.363 144.553 161.506 144.711C161.65 144.869 161.729 145.075 161.729 145.288C161.729 145.502 161.65 145.707 161.506 145.865C161.363 146.023 161.165 146.122 160.953 146.142H155.08Z" fill="#858585" stroke="#263238" stroke-width="0.75" stroke-linecap="round" stroke-linejoin="round"/>
<path d="M199.766 143.529H174.611C174.162 143.559 173.742 143.758 173.435 144.086C173.128 144.414 172.958 144.847 172.958 145.296C172.958 145.745 173.128 146.178 173.435 146.506C173.742 146.834 174.162 147.033 174.611 147.063H199.766V143.529Z" fill="white"/>
<path d="M174.611 147.063C174.162 147.033 173.742 146.834 173.435 146.506C173.128 146.178 172.958 145.745 172.958 145.296C172.958 144.847 173.128 144.414 173.435 144.086C173.742 143.758 174.162 143.559 174.611 143.529H234.515C234.757 143.513 234.999 143.547 235.227 143.628C235.456 143.71 235.665 143.837 235.842 144.003C236.019 144.169 236.16 144.369 236.256 144.591C236.353 144.814 236.403 145.054 236.403 145.296C236.403 145.538 236.353 145.778 236.256 146.001C236.16 146.223 236.019 146.423 235.842 146.589C235.665 146.754 235.456 146.882 235.227 146.964C234.999 147.045 234.757 147.079 234.515 147.063H174.611Z" stroke="#263238" stroke-linecap="round" stroke-linejoin="round"/>
<path d="M200.335 138.74H198.439V137.843L200.241 133.576H201.325V137.843H201.793V138.74H201.325V139.887H200.335V138.74ZM200.335 137.843V135.386L199.36 137.851L200.335 137.843Z" fill="#263238"/>
<path d="M202.254 138.397V137.905H203.19V138.467C203.19 138.919 203.385 139.083 203.705 139.083C204.025 139.083 204.22 138.919 204.22 138.467V137.055C204.22 136.603 204.017 136.431 203.705 136.431C203.393 136.431 203.19 136.603 203.19 137.055V137.11H202.254L202.433 133.584H205.046V134.489H203.315L203.237 135.994C203.324 135.846 203.45 135.725 203.601 135.644C203.753 135.563 203.923 135.525 204.095 135.534C204.82 135.534 205.195 136.049 205.195 136.977V138.397C205.195 139.411 204.688 139.957 203.713 139.957C202.738 139.957 202.254 139.411 202.254 138.397Z" fill="#263238"/>
<path d="M205.826 136.08V134.52C205.814 134.388 205.83 134.254 205.873 134.127C205.915 134.001 205.983 133.885 206.073 133.787C206.163 133.688 206.273 133.61 206.395 133.556C206.517 133.502 206.648 133.474 206.782 133.474C206.915 133.474 207.047 133.502 207.169 133.556C207.291 133.61 207.4 133.688 207.49 133.787C207.58 133.885 207.648 134.001 207.691 134.127C207.733 134.254 207.749 134.388 207.737 134.52V136.08C207.749 136.213 207.733 136.347 207.691 136.473C207.648 136.599 207.58 136.715 207.49 136.814C207.4 136.912 207.291 136.991 207.169 137.045C207.047 137.098 206.915 137.126 206.782 137.126C206.648 137.126 206.517 137.098 206.395 137.045C206.273 136.991 206.163 136.912 206.073 136.814C205.983 136.715 205.915 136.599 205.873 136.473C205.83 136.347 205.814 136.213 205.826 136.08V136.08ZM207.105 136.127V134.458C207.105 134.185 206.981 134.068 206.786 134.068C206.591 134.068 206.458 134.185 206.458 134.458V136.127C206.458 136.408 206.575 136.525 206.786 136.525C206.996 136.525 207.105 136.4 207.105 136.127ZM209.071 133.584H209.703L207.261 139.895H206.63L209.071 133.584ZM208.595 138.974V137.414C208.583 137.281 208.599 137.148 208.641 137.021C208.684 136.895 208.752 136.779 208.842 136.681C208.932 136.582 209.042 136.504 209.164 136.45C209.286 136.396 209.417 136.368 209.551 136.368C209.684 136.368 209.816 136.396 209.938 136.45C210.06 136.504 210.169 136.582 210.259 136.681C210.349 136.779 210.417 136.895 210.46 137.021C210.502 137.148 210.518 137.281 210.506 137.414V138.974C210.518 139.107 210.502 139.241 210.46 139.367C210.417 139.493 210.349 139.609 210.259 139.708C210.169 139.806 210.06 139.885 209.938 139.938C209.816 139.992 209.684 140.02 209.551 140.02C209.417 140.02 209.286 139.992 209.164 139.938C209.042 139.885 208.932 139.806 208.842 139.708C208.752 139.609 208.684 139.493 208.641 139.367C208.599 139.241 208.583 139.107 208.595 138.974ZM209.874 139.021V137.352C209.874 137.071 209.75 136.954 209.547 136.954C209.344 136.954 209.227 137.071 209.227 137.352V139.021C209.227 139.302 209.344 139.419 209.547 139.419C209.75 139.419 209.874 139.302 209.874 139.021V139.021Z" fill="#263238"/>
<path d="M241.784 163.326H149.861C146.906 163.326 144.51 165.721 144.51 168.676V188.41C144.51 191.366 146.906 193.761 149.861 193.761H241.784C244.739 193.761 247.135 191.366 247.135 188.41V168.676C247.135 165.721 244.739 163.326 241.784 163.326Z" fill="#263238" stroke="#263238" stroke-linecap="round" stroke-linejoin="round"/>
<path d="M240.146 161.688H148.223C145.268 161.688 142.873 164.083 142.873 167.038V186.772C142.873 189.728 145.268 192.123 148.223 192.123H240.146C243.102 192.123 245.497 189.728 245.497 186.772V167.038C245.497 164.083 243.102 161.688 240.146 161.688Z" fill="white" stroke="#263238" stroke-linecap="round" stroke-linejoin="round"/>
<path d="M219.609 178.629H174.611C174.162 178.659 173.742 178.858 173.435 179.186C173.128 179.514 172.958 179.947 172.958 180.396C172.958 180.845 173.128 181.278 173.435 181.606C173.742 181.934 174.162 182.133 174.611 182.163H219.609V178.629Z" fill="white"/>
<path d="M174.611 182.163C174.162 182.133 173.742 181.934 173.435 181.606C173.128 181.278 172.958 180.845 172.958 180.396C172.958 179.947 173.128 179.514 173.435 179.186C173.742 178.858 174.162 178.659 174.611 178.629H234.515C234.757 178.613 234.999 178.647 235.227 178.728C235.456 178.81 235.665 178.937 235.842 179.103C236.019 179.269 236.16 179.469 236.256 179.691C236.353 179.914 236.403 180.154 236.403 180.396C236.403 180.638 236.353 180.878 236.256 181.101C236.16 181.323 236.019 181.523 235.842 181.689C235.665 181.854 235.456 181.982 235.227 182.063C234.999 182.145 234.757 182.179 234.515 182.163H174.611Z" stroke="#263238" stroke-linecap="round" stroke-linejoin="round"/>
<path d="M198.557 173.528V172.967C198.526 172.712 198.571 172.454 198.686 172.225C198.801 171.996 198.981 171.807 199.204 171.68V171.68C198.992 171.556 198.821 171.372 198.713 171.151C198.604 170.931 198.564 170.683 198.596 170.439V170.182C198.596 169.781 198.755 169.396 199.039 169.112C199.323 168.828 199.707 168.669 200.109 168.669C200.51 168.669 200.895 168.828 201.179 169.112C201.463 169.396 201.622 169.781 201.622 170.182V170.439C201.65 170.683 201.607 170.931 201.498 171.151C201.388 171.371 201.217 171.554 201.006 171.68C201.23 171.805 201.412 171.995 201.528 172.224C201.645 172.453 201.691 172.711 201.661 172.967V173.528C201.661 173.942 201.497 174.339 201.204 174.631C200.912 174.924 200.515 175.088 200.101 175.088C199.687 175.088 199.29 174.924 198.998 174.631C198.705 174.339 198.541 173.942 198.541 173.528H198.557ZM200.67 173.473V172.865C200.67 172.389 200.475 172.155 200.109 172.155C199.742 172.155 199.547 172.389 199.547 172.865V173.473C199.547 173.949 199.742 174.183 200.109 174.183C200.475 174.183 200.67 173.949 200.67 173.473V173.473ZM200.67 170.627V170.127C200.67 169.714 200.491 169.495 200.148 169.495C199.805 169.495 199.625 169.714 199.625 170.127V170.627C199.625 171.04 199.805 171.258 200.148 171.258C200.491 171.258 200.631 171.04 200.631 170.627H200.67Z" fill="#263238"/>
<path d="M202.254 173.497V173.006H203.19V173.567C203.19 174.02 203.385 174.183 203.705 174.183C204.024 174.183 204.219 174.02 204.219 173.567V172.155C204.219 171.703 204.017 171.531 203.705 171.531C203.393 171.531 203.19 171.703 203.19 172.155V172.21H202.254L202.433 168.684H205.046V169.589H203.315L203.237 171.095C203.324 170.946 203.45 170.825 203.601 170.744C203.752 170.663 203.923 170.625 204.095 170.634C204.82 170.634 205.194 171.149 205.194 172.077V173.497C205.209 173.7 205.182 173.904 205.114 174.096C205.047 174.288 204.94 174.464 204.802 174.614C204.663 174.763 204.495 174.882 204.308 174.963C204.122 175.044 203.92 175.086 203.716 175.086C203.513 175.086 203.311 175.044 203.124 174.963C202.938 174.882 202.77 174.763 202.631 174.614C202.492 174.464 202.386 174.288 202.318 174.096C202.251 173.904 202.224 173.7 202.238 173.497H202.254Z" fill="#263238"/>
<path d="M205.826 171.18V169.62C205.814 169.488 205.83 169.354 205.873 169.227C205.915 169.101 205.983 168.985 206.073 168.887C206.163 168.788 206.273 168.71 206.395 168.656C206.517 168.602 206.648 168.574 206.782 168.574C206.915 168.574 207.047 168.602 207.169 168.656C207.291 168.71 207.4 168.788 207.49 168.887C207.58 168.985 207.648 169.101 207.691 169.227C207.733 169.354 207.749 169.488 207.737 169.62V171.18C207.749 171.313 207.733 171.447 207.691 171.573C207.648 171.699 207.58 171.815 207.49 171.914C207.4 172.012 207.291 172.091 207.169 172.145C207.047 172.198 206.915 172.226 206.782 172.226C206.648 172.226 206.517 172.198 206.395 172.145C206.273 172.091 206.163 172.012 206.073 171.914C205.983 171.815 205.915 171.699 205.873 171.573C205.83 171.447 205.814 171.313 205.826 171.18V171.18ZM207.105 171.227V169.558C207.105 169.285 206.981 169.16 206.786 169.16C206.591 169.16 206.458 169.285 206.458 169.558V171.227C206.458 171.508 206.575 171.625 206.786 171.625C206.996 171.625 207.105 171.5 207.105 171.227ZM209.071 168.684H209.703L207.261 174.994H206.63L209.071 168.684ZM208.595 174.074V172.514C208.583 172.381 208.599 172.248 208.641 172.121C208.684 171.995 208.752 171.879 208.842 171.781C208.932 171.682 209.042 171.604 209.164 171.55C209.286 171.496 209.417 171.468 209.551 171.468C209.684 171.468 209.816 171.496 209.938 171.55C210.06 171.604 210.169 171.682 210.259 171.781C210.349 171.879 210.417 171.995 210.46 172.121C210.502 172.248 210.518 172.381 210.506 172.514V174.074C210.518 174.207 210.502 174.341 210.46 174.467C210.417 174.593 210.349 174.709 210.259 174.808C210.169 174.906 210.06 174.985 209.938 175.038C209.816 175.092 209.684 175.12 209.551 175.12C209.417 175.12 209.286 175.092 209.164 175.038C209.042 174.985 208.932 174.906 208.842 174.808C208.752 174.709 208.684 174.593 208.641 174.467C208.599 174.341 208.583 174.207 208.595 174.074ZM209.874 174.121V172.452C209.874 172.171 209.75 172.054 209.547 172.054C209.344 172.054 209.227 172.171 209.227 172.452V174.121C209.227 174.402 209.344 174.519 209.547 174.519C209.75 174.519 209.874 174.402 209.874 174.121V174.121Z" fill="#263238"/>
<path d="M165.594 185.673H152.077V168.575H161.086L165.594 173.083V185.673Z" fill="white"/>
<path opacity="0.5" d="M165.594 185.673H152.077V168.575H161.086L165.594 173.083V185.673Z" fill="white" stroke="#263238" stroke-linecap="round" stroke-linejoin="round"/>
<path d="M165.594 185.673H152.077V168.575H161.086L165.594 173.083V185.673Z" stroke="#263238" stroke-linecap="round" stroke-linejoin="round"/>
<path d="M155.08 177.646C154.867 177.626 154.67 177.527 154.526 177.369C154.383 177.211 154.303 177.006 154.303 176.792C154.303 176.579 154.383 176.373 154.526 176.215C154.67 176.057 154.867 175.959 155.08 175.938H162.591C162.803 175.959 163.001 176.057 163.144 176.215C163.288 176.373 163.367 176.579 163.367 176.792C163.367 177.006 163.288 177.211 163.144 177.369C163.001 177.527 162.803 177.626 162.591 177.646H155.08Z" fill="#858585" stroke="#263238" stroke-width="0.75" stroke-linecap="round" stroke-linejoin="round"/>
<path d="M155.08 181.242C154.867 181.222 154.67 181.123 154.526 180.965C154.383 180.807 154.303 180.602 154.303 180.388C154.303 180.175 154.383 179.969 154.526 179.811C154.67 179.653 154.867 179.554 155.08 179.534H160.953C161.165 179.554 161.363 179.653 161.506 179.811C161.65 179.969 161.729 180.175 161.729 180.388C161.729 180.602 161.65 180.807 161.506 180.965C161.363 181.123 161.165 181.222 160.953 181.242H155.08Z" fill="#858585" stroke="#263238" stroke-width="0.75" stroke-linecap="round" stroke-linejoin="round"/>
<path d="M161.085 173.083H165.594L161.085 168.575V173.083Z" fill="white" stroke="#263238" stroke-linecap="round" stroke-linejoin="round"/>
<path d="M254.35 80.8485H137.288C134.333 80.8485 131.937 83.2441 131.937 86.1993V113.398C131.937 116.353 134.333 118.749 137.288 118.749H254.35C257.305 118.749 259.701 116.353 259.701 113.398V86.1993C259.701 83.2441 257.305 80.8485 254.35 80.8485Z" fill="#263238" stroke="#263238" stroke-linecap="round" stroke-linejoin="round"/>
<path d="M252.712 79.2104H135.65C132.694 79.2104 130.299 81.6061 130.299 84.5613V111.76C130.299 114.715 132.694 117.111 135.65 117.111H252.712C255.667 117.111 258.063 114.715 258.063 111.76V84.5613C258.063 81.6061 255.667 79.2104 252.712 79.2104Z" fill="white" stroke="#263238" stroke-linecap="round" stroke-linejoin="round"/>
<path d="M174.892 113.991H149.861V82.3304H166.546L174.892 90.6686V113.991Z" fill="white"/>
<path opacity="0.7" d="M174.892 113.991H149.861V82.3304H166.546L174.892 90.6686V113.991Z" fill="white"/>
<path d="M174.892 113.991H149.861V82.3304H166.546L174.892 90.6686V113.991Z" stroke="#263238" stroke-linecap="round" stroke-linejoin="round"/>
<path d="M166.545 90.6686H174.891L166.545 82.3304V90.6686Z" fill="white" stroke="#263238" stroke-linecap="round" stroke-linejoin="round"/>
<path d="M157.248 94.5686H152.334V99.4826H157.248V94.5686Z" stroke="white" stroke-width="0.75" stroke-linecap="round" stroke-linejoin="round"/>
<path d="M162.302 94.5686H157.388V99.4826H162.302V94.5686Z" stroke="white" stroke-width="0.75" stroke-linecap="round" stroke-linejoin="round"/>
<path d="M167.364 94.5686H162.45V99.4826H167.364V94.5686Z" stroke="white" stroke-width="0.75" stroke-linecap="round" stroke-linejoin="round"/>
<path d="M172.419 94.5686H167.505V99.4826H172.419V94.5686Z" stroke="white" stroke-width="0.75" stroke-linecap="round" stroke-linejoin="round"/>
<path d="M157.248 99.4827H152.334V104.397H157.248V99.4827Z" stroke="white" stroke-width="0.75" stroke-linecap="round" stroke-linejoin="round"/>
<path d="M162.302 99.4827H157.388V104.397H162.302V99.4827Z" stroke="white" stroke-width="0.75" stroke-linecap="round" stroke-linejoin="round"/>
<path d="M167.364 99.4827H162.45V104.397H167.364V99.4827Z" stroke="white" stroke-width="0.75" stroke-linecap="round" stroke-linejoin="round"/>
<path d="M172.419 99.4827H167.505V104.397H172.419V99.4827Z" stroke="white" stroke-width="0.75" stroke-linecap="round" stroke-linejoin="round"/>
<path d="M157.248 104.397H152.334V109.311H157.248V104.397Z" stroke="white" stroke-width="0.75" stroke-linecap="round" stroke-linejoin="round"/>
<path d="M162.302 104.397H157.388V109.311H162.302V104.397Z" stroke="white" stroke-width="0.75" stroke-linecap="round" stroke-linejoin="round"/>
<path d="M167.364 104.397H162.45V109.311H167.364V104.397Z" stroke="white" stroke-width="0.75" stroke-linecap="round" stroke-linejoin="round"/>
<path d="M172.419 104.397H167.505V109.311H172.419V104.397Z" stroke="white" stroke-width="0.75" stroke-linecap="round" stroke-linejoin="round"/>
<path d="M152.427 108.835L157.388 104.28L159.845 104.397L162.528 99.5528L164.907 101.94L167.575 99.1394L169.962 94.5686" stroke="white" stroke-width="2" stroke-linecap="round" stroke-linejoin="round"/>
<path d="M167.146 95.996L169.962 94.5686L170.531 97.6418" stroke="white" stroke-width="2" stroke-linecap="round" stroke-linejoin="round"/>
<path d="M184.735 97.1504H183.3V96.1988C184.439 96.1988 184.86 95.9492 185.156 95.1146H186.061V103.695H184.712L184.735 97.1504Z" fill="#263238"/>
<path d="M187.66 101.675V97.1505C187.66 96.6064 187.876 96.0847 188.261 95.7C188.646 95.3153 189.168 95.0991 189.712 95.0991C190.256 95.0991 190.777 95.3153 191.162 95.7C191.547 96.0847 191.763 96.6064 191.763 97.1505V101.675C191.763 102.219 191.547 102.74 191.162 103.125C190.777 103.51 190.256 103.726 189.712 103.726C189.168 103.726 188.646 103.51 188.261 103.125C187.876 102.74 187.66 102.219 187.66 101.675V101.675ZM190.414 101.76V97.0803C190.414 96.4719 190.141 96.2379 189.712 96.2379C189.283 96.2379 189.01 96.4719 189.01 97.0803V101.76C189.01 102.377 189.283 102.611 189.712 102.611C190.141 102.611 190.414 102.377 190.414 101.76Z" fill="#263238"/>
<path d="M192.574 101.675V97.1505C192.574 96.6064 192.79 96.0847 193.175 95.7C193.56 95.3153 194.082 95.0991 194.626 95.0991C195.17 95.0991 195.691 95.3153 196.076 95.7C196.461 96.0847 196.677 96.6064 196.677 97.1505V101.675C196.677 102.219 196.461 102.74 196.076 103.125C195.691 103.51 195.17 103.726 194.626 103.726C194.082 103.726 193.56 103.51 193.175 103.125C192.79 102.74 192.574 102.219 192.574 101.675V101.675ZM195.328 101.76V97.0803C195.328 96.4719 195.055 96.2379 194.626 96.2379C194.197 96.2379 193.924 96.4719 193.924 97.0803V101.76C193.924 102.377 194.197 102.611 194.626 102.611C195.055 102.611 195.328 102.377 195.328 101.76Z" fill="#263238"/>
<path d="M197.511 98.5155V96.3705C197.511 96.025 197.648 95.6937 197.893 95.4494C198.137 95.2051 198.468 95.0679 198.814 95.0679C199.159 95.0679 199.491 95.2051 199.735 95.4494C199.979 95.6937 200.116 96.025 200.116 96.3705V98.5155C200.116 98.8609 199.979 99.1923 199.735 99.4366C199.491 99.6808 199.159 99.8181 198.814 99.8181C198.468 99.8181 198.137 99.6808 197.893 99.4366C197.648 99.1923 197.511 98.8609 197.511 98.5155V98.5155ZM199.258 98.5779V96.3081C199.258 95.9259 199.087 95.7621 198.814 95.7621C198.541 95.7621 198.369 95.9259 198.369 96.3081V98.5779C198.369 98.9601 198.533 99.1161 198.814 99.1161C199.095 99.1161 199.258 98.9601 199.258 98.5779V98.5779ZM201.934 95.1147H202.8L199.469 103.695H198.611L201.934 95.1147ZM201.279 102.462V100.309C201.279 100.138 201.312 99.969 201.378 99.811C201.443 99.6529 201.539 99.5094 201.66 99.3884C201.781 99.2674 201.925 99.1715 202.083 99.106C202.241 99.0406 202.41 99.0069 202.581 99.0069C202.752 99.0069 202.922 99.0406 203.08 99.106C203.238 99.1715 203.381 99.2674 203.502 99.3884C203.623 99.5094 203.719 99.6529 203.785 99.811C203.85 99.969 203.884 100.138 203.884 100.309V102.462C203.884 102.633 203.85 102.803 203.785 102.961C203.719 103.119 203.623 103.262 203.502 103.383C203.381 103.504 203.238 103.6 203.08 103.666C202.922 103.731 202.752 103.765 202.581 103.765C202.41 103.765 202.241 103.731 202.083 103.666C201.925 103.6 201.781 103.504 201.66 103.383C201.539 103.262 201.443 103.119 201.378 102.961C201.312 102.803 201.279 102.633 201.279 102.462ZM203.026 102.525V100.247C203.026 99.8649 202.854 99.7089 202.581 99.7089C202.308 99.7089 202.144 99.8649 202.144 100.247V102.525C202.144 102.899 202.3 103.063 202.581 103.063C202.862 103.063 203.026 102.899 203.026 102.525V102.525Z" fill="#263238"/>
<path d="M206.068 101.027V97.634C206.068 97.2472 206.222 96.8762 206.495 96.6026C206.769 96.3291 207.14 96.1754 207.526 96.1754C207.913 96.1754 208.284 96.3291 208.558 96.6026C208.831 96.8762 208.985 97.2472 208.985 97.634V98.3048H208.049V97.5716C208.049 97.1582 207.846 96.9866 207.55 96.9866C207.253 96.9866 207.058 97.1582 207.058 97.5716V101.097C207.058 101.511 207.253 101.674 207.55 101.674C207.846 101.674 208.049 101.511 208.049 101.097V100.13H208.985V101.027C208.985 101.414 208.831 101.785 208.558 102.058C208.284 102.332 207.913 102.486 207.526 102.486C207.14 102.486 206.769 102.332 206.495 102.058C206.222 101.785 206.068 101.414 206.068 101.027Z" fill="#263238"/>
<path d="M209.523 100.988V97.673C209.523 97.2738 209.682 96.8908 209.964 96.6085C210.247 96.3262 210.63 96.1676 211.029 96.1676C211.428 96.1676 211.811 96.3262 212.093 96.6085C212.376 96.8908 212.534 97.2738 212.534 97.673V100.988C212.534 101.387 212.376 101.77 212.093 102.052C211.811 102.335 211.428 102.493 211.029 102.493C210.63 102.493 210.247 102.335 209.964 102.052C209.682 101.77 209.523 101.387 209.523 100.988V100.988ZM211.544 101.05V97.6106C211.544 97.1582 211.349 96.9866 211.029 96.9866C210.709 96.9866 210.514 97.1582 210.514 97.6106V101.05C210.514 101.503 210.717 101.674 211.029 101.674C211.341 101.674 211.544 101.503 211.544 101.05Z" fill="#263238"/>
<path d="M213.197 96.1754H214.617L215.249 100.692L215.88 96.1754H217.292V102.486H216.356V97.712L215.631 102.486H214.804L214.086 97.712V102.486H213.221L213.197 96.1754Z" fill="#263238"/>
<path d="M218.049 96.1754H219.507C220.498 96.1754 220.982 96.7292 220.982 97.7354V98.3594C220.982 99.3656 220.498 99.9194 219.507 99.9194H219.039V102.486H218.049V96.1754ZM219.507 99.0146C219.819 99.0146 219.991 98.8742 219.991 98.4218V97.6418C219.991 97.1894 219.819 97.049 219.507 97.049H219.039V98.9834L219.507 99.0146Z" fill="#263238"/>
<path d="M221.52 96.1754H222.511V101.581H224.141V102.486H221.52V96.1754Z" fill="#263238"/>
<path d="M224.64 96.1754H227.338V97.0802H225.63V98.7416H226.98V99.6464H225.622V101.581H227.331V102.486H224.64V96.1754Z" fill="#263238"/>
<path d="M228.665 97.0802H227.635V96.1754H230.693V97.0802H229.655V102.486H228.665V97.0802Z" fill="#263238"/>
<path d="M231.176 96.1754H233.875V97.0802H232.167V98.7416H233.524V99.6464H232.167V101.581H233.875V102.486H231.176V96.1754Z" fill="#263238"/>
<path d="M234.444 96.1754H235.958C236.948 96.1754 237.432 96.7292 237.432 97.7354V100.926C237.432 101.932 236.948 102.486 235.958 102.486H234.444V96.1754ZM235.934 101.581C236.254 101.581 236.441 101.417 236.441 100.972V97.6886C236.441 97.244 236.254 97.0802 235.934 97.0802H235.435V101.581H235.934Z" fill="#263238"/>
<path d="M241.784 198.652H149.861C146.906 198.652 144.51 201.048 144.51 204.003V223.737C144.51 226.692 146.906 229.087 149.861 229.087H241.784C244.739 229.087 247.135 226.692 247.135 223.737V204.003C247.135 201.048 244.739 198.652 241.784 198.652Z" fill="#263238" stroke="#263238" stroke-linecap="round" stroke-linejoin="round"/>
<path d="M240.146 197.014H148.223C145.268 197.014 142.873 199.41 142.873 202.365V222.099C142.873 225.054 145.268 227.45 148.223 227.45H240.146C243.102 227.45 245.497 225.054 245.497 222.099V202.365C245.497 199.41 243.102 197.014 240.146 197.014Z" fill="white" stroke="#263238" stroke-linecap="round" stroke-linejoin="round"/>
<path d="M216.434 213.737H174.61C174.143 213.737 173.695 213.923 173.364 214.253C173.033 214.584 172.848 215.032 172.848 215.5C172.848 215.967 173.033 216.416 173.364 216.746C173.695 217.077 174.143 217.263 174.61 217.263H216.434V213.737Z" fill="white"/>
<path d="M174.61 217.263C174.143 217.263 173.695 217.077 173.364 216.746C173.033 216.416 172.848 215.967 172.848 215.5C172.848 215.032 173.033 214.584 173.364 214.253C173.695 213.923 174.143 213.737 174.61 213.737H234.514C234.746 213.737 234.975 213.783 235.189 213.871C235.403 213.96 235.597 214.09 235.761 214.253C235.925 214.417 236.054 214.611 236.143 214.825C236.232 215.039 236.277 215.268 236.277 215.5C236.277 215.731 236.232 215.961 236.143 216.174C236.054 216.388 235.925 216.583 235.761 216.746C235.597 216.91 235.403 217.04 235.189 217.128C234.975 217.217 234.746 217.263 234.514 217.263H174.61Z" stroke="#263238" stroke-linecap="round" stroke-linejoin="round"/>
<path d="M165.594 220.78H152.077V203.683H161.086L165.594 208.183V220.78Z" fill="white"/>
<path opacity="0.5" d="M165.594 220.78H152.077V203.683H161.086L165.594 208.183V220.78Z" fill="white"/>
<path d="M165.594 220.78H152.077V203.683H161.086L165.594 208.183V220.78Z" stroke="#263238" stroke-linecap="round" stroke-linejoin="round"/>
<path d="M155.08 212.754C154.867 212.734 154.67 212.635 154.526 212.477C154.383 212.319 154.303 212.114 154.303 211.9C154.303 211.687 154.383 211.481 154.526 211.323C154.67 211.165 154.867 211.066 155.08 211.046H162.591C162.803 211.066 163.001 211.165 163.144 211.323C163.288 211.481 163.367 211.687 163.367 211.9C163.367 212.114 163.288 212.319 163.144 212.477C163.001 212.635 162.803 212.734 162.591 212.754H155.08Z" fill="#858585" stroke="#263238" stroke-width="0.75" stroke-linecap="round" stroke-linejoin="round"/>
<path d="M155.079 216.342C154.854 216.342 154.637 216.253 154.478 216.093C154.319 215.934 154.229 215.718 154.229 215.492C154.229 215.267 154.319 215.05 154.478 214.891C154.637 214.731 154.854 214.642 155.079 214.642H160.953C161.178 214.642 161.394 214.731 161.554 214.891C161.713 215.05 161.803 215.267 161.803 215.492C161.803 215.718 161.713 215.934 161.554 216.093C161.394 216.253 161.178 216.342 160.953 216.342H155.079Z" fill="#858585" stroke="#263238" stroke-width="0.75" stroke-linecap="round" stroke-linejoin="round"/>
<path d="M161.085 208.183H165.594L161.085 203.683V208.183Z" fill="white" stroke="#263238" stroke-linecap="round" stroke-linejoin="round"/>
<path d="M200.616 204.689H198.611V203.792H201.583V204.658L200.023 210.118H199.009L200.616 204.689Z" fill="#263238"/>
<path d="M202.207 208.605V205.29C202.207 204.89 202.366 204.508 202.648 204.225C202.93 203.943 203.313 203.784 203.712 203.784C204.112 203.784 204.495 203.943 204.777 204.225C205.059 204.508 205.218 204.89 205.218 205.29V208.605C205.218 209.004 205.059 209.387 204.777 209.669C204.495 209.951 204.112 210.11 203.712 210.11C203.313 210.11 202.93 209.951 202.648 209.669C202.366 209.387 202.207 209.004 202.207 208.605ZM204.227 208.667V205.227C204.227 204.775 204.024 204.603 203.712 204.603C203.4 204.603 203.198 204.775 203.198 205.227V208.667C203.198 209.119 203.4 209.283 203.712 209.283C204.024 209.283 204.227 209.119 204.227 208.667Z" fill="#263238"/>
<path d="M205.826 206.288V204.728C205.814 204.595 205.83 204.462 205.873 204.335C205.915 204.209 205.983 204.093 206.073 203.995C206.163 203.896 206.273 203.818 206.395 203.764C206.517 203.71 206.648 203.682 206.782 203.682C206.915 203.682 207.047 203.71 207.169 203.764C207.291 203.818 207.4 203.896 207.49 203.995C207.58 204.093 207.648 204.209 207.691 204.335C207.733 204.462 207.749 204.595 207.737 204.728V206.288C207.749 206.421 207.733 206.555 207.691 206.681C207.648 206.807 207.58 206.923 207.49 207.022C207.4 207.12 207.291 207.199 207.169 207.252C207.047 207.306 206.915 207.334 206.782 207.334C206.648 207.334 206.517 207.306 206.395 207.252C206.273 207.199 206.163 207.12 206.073 207.022C205.983 206.923 205.915 206.807 205.873 206.681C205.83 206.555 205.814 206.421 205.826 206.288V206.288ZM207.105 206.335V204.666C207.105 204.385 206.981 204.268 206.786 204.268C206.591 204.268 206.458 204.385 206.458 204.666V206.335C206.458 206.608 206.575 206.725 206.786 206.725C206.996 206.725 207.105 206.6 207.105 206.335ZM209.04 203.792H209.672L207.23 210.094H206.598L209.04 203.792ZM208.564 209.182V207.622C208.552 207.489 208.568 207.355 208.61 207.229C208.653 207.103 208.721 206.987 208.811 206.888C208.901 206.79 209.01 206.711 209.132 206.658C209.254 206.604 209.386 206.576 209.519 206.576C209.653 206.576 209.785 206.604 209.906 206.658C210.028 206.711 210.138 206.79 210.228 206.888C210.318 206.987 210.386 207.103 210.429 207.229C210.471 207.355 210.487 207.489 210.475 207.622V209.182C210.487 209.315 210.471 209.448 210.429 209.575C210.386 209.701 210.318 209.817 210.228 209.915C210.138 210.014 210.028 210.092 209.906 210.146C209.785 210.2 209.653 210.228 209.519 210.228C209.386 210.228 209.254 210.2 209.132 210.146C209.01 210.092 208.901 210.014 208.811 209.915C208.721 209.817 208.653 209.701 208.61 209.575C208.568 209.448 208.552 209.315 208.564 209.182V209.182ZM209.843 209.221V207.559C209.843 207.279 209.718 207.162 209.516 207.162C209.313 207.162 209.196 207.279 209.196 207.559V209.221C209.196 209.502 209.313 209.619 209.516 209.619C209.718 209.619 209.874 209.502 209.874 209.221H209.843Z" fill="#263238"/>
<path d="M92.3833 42.9561L112.968 27.0441L133.552 42.9561H92.3833Z" fill="#263238" stroke="#263238" stroke-linecap="round" stroke-linejoin="round"/>
<path d="M118.349 25.796H107.585V35H118.349V25.796Z" fill="#263238" stroke="#263238" stroke-linecap="round" stroke-linejoin="round"/>
<path d="M112.967 2.92651V35.0001" stroke="#263238" stroke-width="0.75" stroke-linecap="round" stroke-linejoin="round"/>
<path d="M256.44 42.9561L277.032 27.0441L297.617 42.9561H256.44Z" fill="#263238" stroke="#263238" stroke-linecap="round" stroke-linejoin="round"/>
<path d="M282.415 25.796H271.651V35H282.415V25.796Z" fill="#263238" stroke="#263238" stroke-linecap="round" stroke-linejoin="round"/>
<path d="M277.033 1.36646V35.0001" stroke="#263238" stroke-width="0.75" stroke-linecap="round" stroke-linejoin="round"/>
<path d="M285.067 291.3L284.63 304.17L291.291 304.49L293.717 291.3H285.067Z" fill="white" stroke="#263238" stroke-linecap="round" stroke-linejoin="round"/>
<path d="M272.033 308.117C274.279 307.337 278.163 306.011 279.622 305.098C280.792 304.365 282.422 301.978 283.631 301.308C283.885 301.198 284.158 301.141 284.435 301.141C284.711 301.141 284.984 301.198 285.238 301.308C285.434 301.526 285.562 301.797 285.605 302.088C285.638 302.213 285.708 302.327 285.805 302.413C285.903 302.5 286.023 302.556 286.152 302.574C286.281 302.592 286.413 302.572 286.53 302.516C286.648 302.46 286.746 302.371 286.814 302.259C287 301.893 287.267 301.573 287.594 301.323C288.623 300.746 291.408 300.582 292.32 301.323C293.834 302.563 294.38 306.838 294.66 308.764C294.731 309.186 294.66 311.526 294.66 311.526H270.356V310.457C270.352 309.94 270.513 309.435 270.814 309.015C271.115 308.594 271.542 308.28 272.033 308.117V308.117Z" fill="white" stroke="#263238" stroke-linecap="round" stroke-linejoin="round"/>
<path d="M294.676 311.51H270.355V310.441C270.355 310.176 270.4 309.912 270.488 309.661H294.707C294.707 310.48 294.676 311.51 294.676 311.51Z" fill="#858585" stroke="#263238" stroke-linecap="round" stroke-linejoin="round"/>
<path d="M289.271 191.523L284.162 296.199L293.522 297.759C293.522 297.759 299.418 267.463 300.136 257.542C300.308 255.202 300.136 248.143 300.136 248.143L306.758 215.547C306.758 215.547 311.118 211.522 311.625 192.357L289.271 191.523Z" fill="#263238" stroke="#263238" stroke-linecap="round" stroke-linejoin="round"/>
<path opacity="0.7" d="M303.124 232.036C303.482 230.523 303.904 229.033 304.411 227.551C304.489 227.34 304.582 227.145 304.676 226.95C304.908 224.735 305.265 222.534 305.744 220.359C305.91 219.547 306.347 218.815 306.985 218.284C307.167 217.873 307.438 217.508 307.78 217.215C308.121 216.922 308.524 216.709 308.958 216.592C308.671 214.578 308.233 212.588 307.648 210.64C307.055 208.597 306.088 206.639 305.799 204.525C305.721 203.979 305.409 203.41 305.51 203.347C304.84 203.086 304.184 202.789 303.545 202.458L303.428 202.365C302.83 212.244 302.728 222.147 303.124 232.036V232.036Z" fill="black"/>
<path d="M288.826 251.395C290.483 251.012 292.004 250.184 293.225 249.001" stroke="#7F7F7F" stroke-width="0.75" stroke-linecap="round" stroke-linejoin="round"/>
<path d="M282.929 298.188L294.247 299.116L295.089 295.45L282.929 294.498V298.188Z" fill="white" stroke="#263238" stroke-linecap="round" stroke-linejoin="round"/>
<path d="M315.611 289.717L318.022 304.763L324.184 304.279L323.981 288.874L315.611 289.717Z" fill="white" stroke="#263238" stroke-linecap="round" stroke-linejoin="round"/>
<path d="M305.292 308.117C307.546 307.337 311.43 306.011 312.881 305.098C314.051 304.365 315.689 301.978 316.89 301.308C317.145 301.198 317.42 301.141 317.698 301.141C317.975 301.141 318.25 301.198 318.505 301.308C318.646 301.453 318.746 301.633 318.794 301.83C318.835 301.979 318.921 302.113 319.039 302.213C319.157 302.314 319.302 302.377 319.456 302.394C319.61 302.412 319.766 302.383 319.903 302.312C320.041 302.241 320.154 302.13 320.229 301.994C320.388 301.725 320.6 301.491 320.853 301.308C321.882 300.73 324.667 300.567 325.58 301.308C327.093 302.548 327.639 306.822 327.92 308.749C327.982 309.17 327.92 311.51 327.92 311.51H303.623V310.441C303.622 309.928 303.783 309.427 304.082 309.01C304.382 308.593 304.805 308.281 305.292 308.117V308.117Z" fill="white" stroke="#263238" stroke-linecap="round" stroke-linejoin="round"/>
<path d="M327.943 311.51H303.623V310.441C303.62 310.176 303.662 309.912 303.748 309.661H327.967C327.967 310.48 327.943 311.51 327.943 311.51Z" fill="#858585" stroke="#263238" stroke-linecap="round" stroke-linejoin="round"/>
<path d="M302.297 194.682C302.297 194.682 304.637 208.23 306.79 219.595C308.256 227.301 308.35 250.069 308.35 250.069L315.822 297.08L325.034 295.84C325.034 295.84 325.143 266.902 324.106 257.62C323.872 255.553 323.489 249.414 323.489 249.414C323.489 249.414 323.84 224.86 325.736 216.654C327.093 210.804 329.792 204.658 326.516 192.669L302.297 194.682Z" fill="#263238" stroke="#263238" stroke-linecap="round" stroke-linejoin="round"/>
<path d="M310.37 251.395C311.307 252.692 312.7 253.587 314.27 253.899" stroke="#7F7F7F" stroke-width="0.75" stroke-linecap="round" stroke-linejoin="round"/>
<path d="M314.277 294.966L314.808 298.414L326.227 297.189L326.149 293.476L314.277 294.966Z" fill="white" stroke="#263238" stroke-linecap="round" stroke-linejoin="round"/>
<path d="M258.827 132.009L256.308 127.773C256.308 127.773 255.7 120.855 254.296 119.505C252.892 118.156 249.772 114.186 249.327 114.966C248.625 116.214 251.222 118.437 251.222 118.437L251.698 121.011C251.698 121.011 247.494 117.984 246.308 117.984C246.308 117.984 242.954 114.014 241.769 114.006C240.583 113.998 242.252 116.752 242.252 116.752C242.252 116.752 241.121 115.886 240.903 116.424C240.685 116.962 242.362 118.803 242.362 118.803C242.362 118.803 241.714 119.505 242.689 121.011C242.554 121.497 242.556 122.011 242.693 122.497C242.831 122.982 243.099 123.421 243.469 123.764C244.764 124.794 251.722 128.733 251.722 128.733L254.062 134.239L258.827 132.009Z" fill="#858585" stroke="#263238" stroke-linecap="round" stroke-linejoin="round"/>
<path d="M243.282 118.912C243.282 118.912 244.202 119.287 243.82 120.636C244.187 121.158 244.393 121.777 244.413 122.415C244.506 123.6 250.512 123.015 252.135 125.535" stroke="#263238" stroke-width="0.75" stroke-linecap="round" stroke-linejoin="round"/>
<path d="M243.282 117.454L245.731 120.043" stroke="#263238" stroke-width="0.75" stroke-linecap="round" stroke-linejoin="round"/>
<path d="M284.832 130.94L268.757 143.467L257.743 128.46L252.135 131.268C252.135 131.268 260.949 155.619 267.618 155.619C274.708 155.619 288.186 144.231 288.186 144.231C288.186 144.231 289.037 142.055 284.832 130.94Z" fill="white" stroke="#263238" stroke-linecap="round" stroke-linejoin="round"/>
<path d="M269.365 144.66C269.741 145.459 270.021 146.299 270.2 147.164" stroke="#263238" stroke-width="0.75" stroke-linecap="round" stroke-linejoin="round"/>
<path d="M284.833 130.94L288.257 176.266V195.095C288.257 195.095 307.983 197.435 327.444 194.596L326.773 175.213L328.746 132.009C328.746 132.009 319.714 125.48 305.846 125.48C291.977 125.48 284.833 130.94 284.833 130.94Z" fill="white" stroke="#263238" stroke-linecap="round" stroke-linejoin="round"/>
<path opacity="0.2" d="M327.444 194.596L326.82 177.225C326.485 185.595 317.249 182.451 315.159 182.061C312.92 181.64 310.346 189.019 310.346 189.019C310.346 189.019 301.766 190.493 295.051 189.97C288.335 189.448 288.233 183.317 288.233 183.317V195.095C288.233 195.095 307.983 197.466 327.444 194.596Z" fill="black"/>
<path d="M297.5 175.829C305.772 174.939 313.71 172.08 320.65 167.491Z" fill="white"/>
<path d="M297.5 175.829C305.772 174.939 313.71 172.08 320.65 167.491" stroke="#263238" stroke-width="0.75" stroke-linecap="round" stroke-linejoin="round"/>
<path d="M294.06 176.063C294.06 176.063 294.723 176.063 295.893 175.977Z" fill="white"/>
<path d="M294.06 176.063C294.06 176.063 294.723 176.063 295.893 175.977" stroke="#263238" stroke-width="0.75" stroke-linecap="round" stroke-linejoin="round"/>
<path d="M300.737 133.124L297.32 131.884L294.06 135.035L296.447 125.285L299.325 123.023L300.791 123.951L307.343 123.702L312.437 124.115L314.863 123.366L317.452 125.956L311.688 136.977L309.27 132.804L303.935 133.467L300.737 133.124Z" fill="white"/>
<path opacity="0.5" d="M300.737 133.124L297.32 131.884L294.06 135.035L296.447 125.285L299.325 123.023L300.791 123.951L307.343 123.702L312.437 124.115L314.863 123.366L317.452 125.956L311.688 136.977L309.27 132.804L303.935 133.467L300.737 133.124Z" fill="white"/>
<path d="M300.737 133.124L297.32 131.884L294.06 135.035L296.447 125.285L299.325 123.023L300.791 123.951L307.343 123.702L312.437 124.115L314.863 123.366L317.452 125.956L311.688 136.977L309.27 132.804L303.935 133.467L300.737 133.124Z" stroke="#263238" stroke-linecap="round" stroke-linejoin="round"/>
<path d="M312.086 125.925L311.306 114.006L303.771 115.34L302.211 120.94L300.651 125.792L299.91 125.87L301.962 137.008L312.835 126.088L312.086 125.925Z" fill="#858585"/>
<path d="M293.561 114.833C293.561 117.859 294.029 124.63 298.186 125.418C302.492 126.237 307.429 121.338 309.2 119.38C309.643 118.894 309.99 118.327 310.221 117.711L311.165 115.207C311.782 115.255 312.399 115.125 312.944 114.833H293.561Z" fill="#263238" stroke="#263238" stroke-width="0.5" stroke-linecap="round" stroke-linejoin="round"/>
<path d="M312.086 125.925L311.306 114.006L303.771 115.34L302.211 120.94L300.651 125.792L299.91 125.87L301.962 137.008L312.835 126.088L312.086 125.925Z" stroke="#263238" stroke-linecap="round" stroke-linejoin="round"/>
<path d="M298.584 99.5294C298.584 99.5294 295.019 96.815 296.767 94.6778C297.679 93.5702 298.865 95.0288 298.865 95.0288C298.865 95.0288 298.233 91.628 300.768 91.1288C303.108 90.692 303.014 93.3752 303.014 93.3752C303.014 93.3752 304.223 91.0742 306.337 91.589C308.022 91.9946 307.375 94.3814 307.375 94.3814C307.375 94.3814 309.621 91.589 311.945 92.8214C313.95 93.8744 312.296 96.4016 312.296 96.4016C312.296 96.4016 314.683 95.5592 316.017 96.9008C317.351 98.2424 316.017 100.021 316.017 100.021C316.017 100.021 318.646 100.021 318.763 101.986C318.88 103.952 316.727 104.326 316.727 104.326C316.727 104.326 319.769 105.309 319.792 107.696C319.816 110.083 317.78 109.318 317.78 109.318C317.78 109.318 319.043 111.565 317.99 112.758C317.872 112.918 317.718 113.048 317.541 113.137C317.363 113.226 317.167 113.273 316.969 113.273C316.77 113.273 316.574 113.226 316.397 113.137C316.219 113.048 316.065 112.918 315.947 112.758C315.947 112.758 317.265 115.59 315.596 116.416C314.402 117.001 313.7 115.566 313.7 115.566C313.7 115.566 312.694 118.015 311.477 116.518C310.261 115.02 304.223 103.484 304.223 103.484L298.584 99.5294Z" fill="#263238" stroke="#263238" stroke-width="0.75" stroke-linecap="round" stroke-linejoin="round"/>
<path d="M297.554 99.6386L295.308 104.319C295.078 104.806 294.958 105.339 294.957 105.879V107.345L293.717 110.465C293.653 110.628 293.601 110.794 293.561 110.964C293.163 112.626 291.268 121.549 295.901 123.366C299.988 124.973 305.744 121.096 307.858 119.505C308.385 119.108 308.83 118.613 309.169 118.047L310.573 115.769C311.169 115.947 311.806 115.932 312.393 115.726C312.98 115.52 313.487 115.134 313.841 114.622C315.097 112.821 316.547 111.846 314.824 110.223C313.1 108.601 311.509 111.198 311.509 111.198L311.743 106.62L309.746 103.11L309.644 100.902C309.644 100.902 303.108 100.177 298.724 97.7822L297.554 99.6386Z" fill="white" stroke="#263238" stroke-width="0.75" stroke-linecap="round" stroke-linejoin="round"/>
<path d="M297.554 99.6386L295.308 104.319C295.078 104.806 294.958 105.339 294.957 105.879V107.345L293.717 110.465C293.653 110.628 293.601 110.794 293.561 110.964C293.163 112.626 291.268 121.549 295.901 123.366C299.988 124.973 305.744 121.096 307.858 119.505C308.385 119.108 308.83 118.613 309.169 118.047L310.573 115.769C311.169 115.947 311.806 115.932 312.393 115.726C312.98 115.52 313.487 115.134 313.841 114.622C315.097 112.821 316.547 111.846 314.824 110.223C313.1 108.601 311.509 111.198 311.509 111.198L311.743 106.62L309.746 103.11L309.644 100.902C309.644 100.902 303.108 100.177 298.724 97.7822L297.554 99.6386Z" fill="#858585" stroke="#263238" stroke-linecap="round" stroke-linejoin="round"/>
<path d="M301.532 115.621C300.268 118.062 298.552 117.657 297.476 117.048" stroke="#263238" stroke-width="0.75" stroke-linecap="round" stroke-linejoin="round"/>
<path d="M301.555 110.075C301.384 110.629 301.033 111.011 300.776 110.933C300.518 110.855 300.432 110.332 300.604 109.779C300.776 109.225 301.127 108.835 301.384 108.921C301.641 109.006 301.727 109.521 301.555 110.075Z" fill="#263238"/>
<path d="M296.345 108.46C296.173 109.022 295.822 109.404 295.565 109.318C295.308 109.233 295.222 108.718 295.393 108.164C295.565 107.61 295.924 107.228 296.173 107.314C296.423 107.4 296.517 107.907 296.345 108.46Z" fill="#263238"/>
<path d="M295.971 104.857C296.177 104.799 296.394 104.784 296.606 104.814C296.819 104.843 297.023 104.916 297.206 105.028C297.389 105.14 297.547 105.289 297.67 105.465C297.793 105.641 297.878 105.84 297.921 106.05" stroke="#263238" stroke-width="0.75" stroke-linecap="round" stroke-linejoin="round"/>
<path d="M300.456 106.986C300.456 106.986 302.273 105.075 303.498 107.103" stroke="#263238" stroke-width="0.75" stroke-linecap="round" stroke-linejoin="round"/>
<path d="M297.96 108.952C297.796 109.697 297.446 110.388 296.941 110.96C296.436 111.532 295.793 111.966 295.074 112.22L296.493 114.474" stroke="#263238" stroke-width="0.75" stroke-linecap="round" stroke-linejoin="round"/>
<path d="M307.016 198.379L306.618 200.789C306.561 201.187 306.659 201.592 306.893 201.919C307.127 202.246 307.479 202.47 307.874 202.544L332.888 206.647C333.286 206.704 333.691 206.605 334.018 206.371C334.345 206.137 334.569 205.786 334.643 205.391L335.033 202.981L307.016 198.379Z" fill="white" stroke="#263238" stroke-width="0.75" stroke-linecap="round" stroke-linejoin="round"/>
<path d="M336.154 187.793L310.854 183.641C310.101 183.518 309.391 184.027 309.268 184.78L306.76 200.058C306.637 200.811 307.147 201.521 307.899 201.644L333.199 205.797C333.952 205.92 334.662 205.41 334.785 204.658L337.293 189.379C337.416 188.627 336.906 187.917 336.154 187.793Z" fill="white"/>
<path opacity="0.5" d="M336.154 187.793L310.854 183.641C310.101 183.518 309.391 184.027 309.268 184.78L306.76 200.058C306.637 200.811 307.147 201.521 307.899 201.644L333.199 205.797C333.952 205.92 334.662 205.41 334.785 204.658L337.293 189.379C337.416 188.627 336.906 187.917 336.154 187.793Z" fill="white"/>
<path d="M336.154 187.793L310.854 183.641C310.101 183.518 309.391 184.027 309.268 184.78L306.76 200.058C306.637 200.811 307.147 201.521 307.899 201.644L333.199 205.797C333.952 205.92 334.662 205.41 334.785 204.658L337.293 189.379C337.416 188.627 336.906 187.917 336.154 187.793Z" stroke="#263238" stroke-linecap="round" stroke-linejoin="round"/>
<path d="M326.391 190.641L325.01 195.321L320.33 198.667C319.668 200.716 318.887 202.724 317.99 204.681C317.931 204.79 317.9 204.913 317.9 205.037C317.901 205.161 317.933 205.283 317.994 205.392C318.055 205.5 318.142 205.591 318.248 205.657C318.354 205.722 318.475 205.759 318.599 205.765C319.246 205.765 320.003 205.461 320.416 204.205C320.416 204.205 320.596 206.67 322.117 205.165C322.117 205.165 323.045 207.552 324.495 205.672C324.495 205.672 327.857 206.171 328.395 203.745C328.934 201.319 329.729 197.045 329.729 197.045L331.866 192.03L326.391 190.641Z" fill="#858585" stroke="#263238" stroke-linecap="round" stroke-linejoin="round"/>
<path d="M320.385 203.246L320.915 199.635" stroke="#263238" stroke-width="0.75" stroke-linecap="round" stroke-linejoin="round"/>
<path d="M321.22 203.48C321.22 203.48 321.586 204.673 322.413 204.478C323.24 204.283 324.418 205.204 326.992 204.12" stroke="#263238" stroke-width="0.75" stroke-linecap="round" stroke-linejoin="round"/>
<path d="M328.746 132.009C328.746 132.009 340.446 164.519 340.228 169.269C340.01 174.019 331.687 194.682 331.687 194.682L325.26 192.638L329.55 168.403L325.704 151.563C325.704 151.563 324.831 139.216 328.746 132.009Z" fill="white" stroke="#263238" stroke-linecap="round" stroke-linejoin="round"/>
<path d="M330.993 167.865C331.424 167.535 331.924 167.305 332.456 167.193C332.988 167.081 333.538 167.09 334.066 167.218" stroke="#263238" stroke-width="0.75" stroke-linecap="round" stroke-linejoin="round"/>
<path d="M323.388 193.153C323.155 192.844 322.981 192.495 322.873 192.123C322.423 192.114 321.987 192.277 321.652 192.577C321.317 192.877 321.108 193.293 321.068 193.741C321.027 194.189 321.158 194.636 321.434 194.991C321.709 195.347 322.109 195.584 322.553 195.656C323.02 195.733 323.498 195.622 323.882 195.347C324.267 195.072 324.527 194.656 324.605 194.19C324.103 193.977 323.678 193.615 323.388 193.153V193.153Z" fill="white"/>
<path d="M95.1132 124.536L96.5328 131.533L80.7612 132.196L83.499 112.805L94.1226 114.037L95.1132 124.536Z" fill="white"/>
<path d="M102.18 113.92L88.9902 117.82C89.1548 119.332 89.4684 120.824 89.9262 122.274C90.7062 124.521 95.4564 128.514 98.5062 128.467C101.556 128.421 101.899 118.702 101.899 118.702L103.74 117.68C103.845 117.62 103.937 117.538 104.008 117.44C104.08 117.342 104.13 117.23 104.155 117.112C104.18 116.993 104.18 116.87 104.154 116.752C104.128 116.633 104.077 116.522 104.005 116.424L102.18 113.92Z" fill="#263238" stroke="#263238" stroke-width="0.75" stroke-linecap="round" stroke-linejoin="round"/>
<path d="M95.1132 124.536L96.5328 131.533L80.7612 132.196L83.499 112.805L94.1226 114.037L95.1132 124.536Z" stroke="#263238" stroke-linecap="round" stroke-linejoin="round"/>
<path d="M95.8387 99.8882C95.8387 99.8882 99.6685 100.668 99.2785 96.5108C98.8885 92.3534 91.7515 94.8962 88.0309 95.3642C84.3103 95.8322 72.2983 100.317 76.5493 107.4C76.5493 107.4 74.0455 111.393 83.0623 118.093C83.0623 118.093 87.3445 116.081 89.6923 119.022L91.5253 115.449L96.2053 107.228L95.8387 99.8882Z" fill="#263238" stroke="#263238" stroke-linecap="round" stroke-linejoin="round"/>
<path d="M95.5576 99.2642C95.5576 99.2642 99.2236 101.308 101.33 98.7494C101.33 98.7494 101.564 104.209 95.5576 99.2642Z" fill="#263238" stroke="#263238" stroke-linecap="round" stroke-linejoin="round"/>
<path d="M95.9397 98.6948C95.9397 98.6948 101.4 104.443 101.213 108.382V111.978L104.099 115.223C104.179 115.306 104.24 115.406 104.278 115.516C104.315 115.625 104.327 115.742 104.314 115.857C104.3 115.972 104.261 116.083 104.2 116.181C104.138 116.279 104.056 116.362 103.958 116.424L102.281 117.586C102.281 117.586 102.773 126.79 99.8865 127.118C97.0005 127.446 92.1957 123.998 91.2363 121.97C90.5137 120.109 89.9908 118.177 89.6763 116.206C88.8363 115.978 88.0836 115.505 87.5151 114.846C86.9465 114.187 86.5882 113.373 86.4861 112.509C86.1507 109.482 89.2005 109.568 89.9883 111.549L90.6279 113.164L92.6091 113.094C92.6091 113.094 91.4781 110.239 92.1489 109.396C92.8197 108.554 95.4561 106.503 94.2471 104.545C93.0381 102.587 93.4437 99.2564 95.9397 98.6948Z" fill="white" stroke="#263238" stroke-linecap="round" stroke-linejoin="round"/>
<path d="M99.0601 119.388C99.2872 119.791 99.6353 120.113 100.055 120.308C100.475 120.502 100.946 120.56 101.4 120.472" stroke="#263238" stroke-width="0.75" stroke-linecap="round" stroke-linejoin="round"/>
<path d="M97.6245 108.406C97.6245 108.406 98.8647 106.682 100.043 108.258" stroke="#263238" stroke-linecap="round" stroke-linejoin="round"/>
<path d="M99.5826 112.002C99.5826 112.54 99.372 112.984 99.0834 112.992C98.7948 113 98.5452 112.571 98.5296 112.033C98.514 111.495 98.7402 111.05 99.0288 111.042C99.3174 111.034 99.567 111.44 99.5826 112.002Z" fill="#263238"/>
<path d="M74.5676 284.787L72.29 304.389L79.0682 305.434L82.8044 286.059L74.5676 284.787Z" fill="white" stroke="#263238" stroke-linecap="round" stroke-linejoin="round"/>
<path d="M71.3774 198.176C71.3774 198.176 71.6504 209.533 75.6596 217.52L76.5722 247.659L71.9468 296.222L82.235 297.205L91.595 246.411L94.715 200.391L71.3774 198.176Z" fill="white" stroke="#263238" stroke-linecap="round" stroke-linejoin="round"/>
<path opacity="0.2" d="M93.2643 222.52L92.4063 217.114L88.5063 200.103L87.7887 199.736L71.4087 198.176C71.4087 198.176 71.4087 200.04 71.7753 202.794L79.8639 207.38C80.0547 210.26 80.7051 213.091 81.7905 215.765C81.8877 215.999 81.9232 216.253 81.8936 216.504C81.8639 216.755 81.7702 216.995 81.6214 217.199C81.4725 217.404 81.2736 217.566 81.0436 217.672C80.8137 217.777 80.5606 217.822 80.3085 217.801C79.4739 217.738 78.7485 217.801 78.7485 218.347C78.7485 219.61 84.8481 223.69 84.8481 223.69C84.8481 223.69 91.0023 243.58 90.7839 250.927L91.6185 246.403L93.2643 222.52Z" fill="black"/>
<path d="M95.2534 286.074L95.9944 305.793H102.851L103.584 286.074H95.2534Z" fill="white" stroke="#263238" stroke-linecap="round" stroke-linejoin="round"/>
<path d="M113.771 308.569C111.507 307.88 109.305 307.003 107.187 305.949C106.173 305.317 104.754 303.25 103.709 302.665C103.489 302.57 103.253 302.522 103.014 302.522C102.776 302.522 102.54 302.57 102.32 302.665C101.821 303.071 101.798 305.184 101.798 305.184C101.798 305.184 100.916 303.032 100.277 302.665C99.3875 302.166 96.9695 302.018 96.1817 302.665C94.8713 303.734 94.3955 307.446 94.1381 309.115C94.0757 309.482 94.1381 311.51 94.1381 311.51H115.198V310.582C115.2 310.139 115.063 309.708 114.807 309.347C114.551 308.986 114.189 308.714 113.771 308.569V308.569Z" fill="#263238" stroke="#263238" stroke-linecap="round" stroke-linejoin="round"/>
<path d="M109.598 199.112L107.913 244.672L105.097 296.69H94.38C94.38 296.69 92.1336 256.762 92.6952 245.21L87.0714 218.495C87.0714 218.495 81.1668 210.617 82.5708 201.062L109.598 199.112Z" fill="white" stroke="#263238" stroke-linecap="round" stroke-linejoin="round"/>
<path d="M93.4282 292.821L93.7792 299.077H105.518L106.431 292.821H93.4282Z" fill="white" stroke="#263238" stroke-linecap="round" stroke-linejoin="round"/>
<path d="M71.089 292.283L70.8472 298.539L82.5316 299.654L84.037 293.515L71.089 292.283Z" fill="white" stroke="#263238" stroke-linecap="round" stroke-linejoin="round"/>
<path d="M127.366 169.121L111.15 158.809L128.24 141.72L144.464 152.031L127.366 169.121Z" fill="white" stroke="#263238" stroke-linecap="round" stroke-linejoin="round"/>
<path d="M128.294 165.595L115.252 157.304L128.996 143.56L142.038 151.852L128.294 165.595Z" fill="white" stroke="#263238" stroke-width="0.75" stroke-linecap="round" stroke-linejoin="round"/>
<path d="M129.246 151.36L131.523 149.083L128.598 147.226L126.321 149.496L129.246 151.36Z" stroke="#263238" stroke-width="0.75" stroke-linecap="round" stroke-linejoin="round"/>
<path d="M125.713 154.902L127.99 152.624L125.057 150.76L122.788 153.037L125.713 154.902Z" stroke="#263238" stroke-width="0.75" stroke-linecap="round" stroke-linejoin="round"/>
<path d="M122.054 158.56L124.324 156.282L121.399 154.418L119.122 156.696L122.054 158.56Z" stroke="#263238" stroke-width="0.75" stroke-linecap="round" stroke-linejoin="round"/>
<path d="M134.823 144.379L132.67 146.54C132.568 146.642 132.491 146.765 132.443 146.901C132.395 147.036 132.378 147.181 132.394 147.324C132.41 147.467 132.457 147.605 132.534 147.727C132.61 147.849 132.712 147.953 132.834 148.03L135.954 150.034C136.298 150.254 136.706 150.349 137.112 150.305C137.517 150.261 137.896 150.081 138.185 149.793L140.174 147.796L134.823 144.379Z" fill="#858585" stroke="#263238" stroke-linecap="round" stroke-linejoin="round"/>
<path d="M77.1187 131.065L79.9345 124.879C79.9345 124.879 96.2442 123.054 100.597 136.689L77.1187 131.065Z" fill="#858585" stroke="#263238" stroke-linecap="round" stroke-linejoin="round"/>
<path d="M67.8599 136.338C67.8599 136.338 63.8351 167.171 64.9037 178.099C65.7461 186.741 71.4401 194.058 71.4401 194.058L79.8797 190.75L75.5897 178.099C75.5897 178.099 76.9235 155.323 78.1871 150.019L67.8599 136.338Z" fill="#858585" stroke="#263238" stroke-linecap="round" stroke-linejoin="round"/>
<path d="M68.9985 192.544L71.3775 195.391L81.1275 191.593L79.8639 187.794L68.9985 192.544Z" fill="#858585" stroke="#263238" stroke-linecap="round" stroke-linejoin="round"/>
<path d="M67.8596 136.338C67.8596 136.338 66.5882 154.051 70.1996 166.5C73.811 178.949 70.1996 199.393 70.1996 199.393C70.1996 199.393 86.8214 210.149 112.32 201.92C112.32 201.92 109.161 141.392 104.941 138.022C100.721 134.653 76.9076 121.791 67.8596 136.338Z" fill="#858585" stroke="#263238" stroke-linecap="round" stroke-linejoin="round"/>
<path opacity="0.2" d="M112.32 201.92C112.32 201.92 111.236 181.172 109.496 163.294C105.807 154.34 99.7777 142.414 99.4579 159.16C98.9899 183.379 113.896 181.952 102.086 186.172C99.4459 187.172 96.6173 187.577 93.8021 187.359C90.987 187.14 88.2547 186.304 85.8001 184.908C85.6038 184.808 85.379 184.777 85.163 184.822C84.9471 184.867 84.7529 184.984 84.6127 185.154C84.4725 185.325 84.3947 185.538 84.3922 185.758C84.3897 185.979 84.4626 186.193 84.5989 186.367C87.5629 190.134 92.0635 192.482 95.5189 193.831C95.8309 193.951 96.0947 194.17 96.2692 194.455C96.4436 194.74 96.5189 195.074 96.4833 195.406C96.4476 195.738 96.3031 196.049 96.0722 196.291C95.8414 196.532 95.5371 196.69 95.2069 196.741C84.0841 198.387 75.3637 192.474 71.3623 189.034C70.8943 194.994 70.1221 199.393 70.1221 199.393C70.1221 199.393 86.8219 210.149 112.32 201.92Z" fill="black"/>
<path d="M104.957 138.03C106.477 138.728 107.797 139.799 108.792 141.144C109.788 142.488 110.427 144.063 110.651 145.721C111.493 151.524 116.891 169.347 116.891 169.347L118.685 168.185C120.182 168.858 121.416 170.006 122.195 171.452C122.973 172.897 123.253 174.559 122.99 176.18C122.99 176.18 118.607 184.76 113.817 183.145C108.896 181.476 106.142 177.451 103.677 170.868C102.375 167.358 98.6152 156.781 98.6152 156.781" fill="#858585"/>
<path d="M104.957 138.03C106.477 138.728 107.797 139.799 108.792 141.144C109.788 142.488 110.427 144.063 110.651 145.721C111.493 151.524 116.891 169.347 116.891 169.347L118.685 168.185C120.182 168.858 121.416 170.006 122.195 171.452C122.973 172.897 123.253 174.559 122.99 176.18C122.99 176.18 118.607 184.76 113.817 183.145C108.896 181.476 106.142 177.451 103.677 170.868C102.375 167.358 98.6152 156.781 98.6152 156.781" stroke="#263238" stroke-linecap="round" stroke-linejoin="round"/>
<path d="M119.043 174.511C119.072 174.969 119.051 175.43 118.981 175.884" stroke="#263238" stroke-width="0.75" stroke-linecap="round" stroke-linejoin="round"/>
<path d="M115.822 178.099C115.822 178.099 117.296 175.759 117.086 170.712C117.795 171.249 118.336 171.977 118.646 172.81" stroke="#263238" stroke-width="0.75" stroke-linecap="round" stroke-linejoin="round"/>
<path d="M119.862 167.694L125.486 163.684C125.767 162.438 126.379 161.29 127.258 160.362C128.136 159.434 129.249 158.76 130.478 158.412C130.478 158.412 133.076 154.122 134.55 154.621C136.024 155.12 132.795 156.867 132.514 159.114L133.707 160.713C133.707 160.713 137.607 160.026 138.559 158.763C138.559 158.763 138.348 161.438 136.804 161.883C136.804 161.883 136.804 163.918 135.751 163.848L128.013 166.032L123.513 174.433L119.862 167.694Z" fill="white" stroke="#263238" stroke-linecap="round" stroke-linejoin="round"/>
<path d="M96.8369 187.194C97.7261 187.112 98.6076 186.96 99.4733 186.741" stroke="#263238" stroke-width="0.75" stroke-linecap="round" stroke-linejoin="round"/>
<path d="M74.7314 174.409C74.7314 174.409 83.0228 187.092 95.0114 187.264" stroke="#263238" stroke-width="0.75" stroke-linecap="round" stroke-linejoin="round"/>
<path d="M117.437 167.834C117.437 167.834 123.302 172.264 122.741 177.607L124.854 173.559C124.854 173.559 124.784 170.151 119.933 166.539L117.437 167.834Z" fill="#858585" stroke="#263238" stroke-linecap="round" stroke-linejoin="round"/>
<path d="M94.1381 311.51H115.198V310.582C115.198 310.354 115.161 310.127 115.089 309.911H94.1069C94.1069 310.621 94.1381 311.51 94.1381 311.51Z" fill="white" stroke="#263238" stroke-width="0.75" stroke-linecap="round" stroke-linejoin="round"/>
<path d="M89.6999 308.569C87.4366 307.88 85.2346 307.003 83.1167 305.949C82.1027 305.317 80.6831 303.25 79.6457 302.665C79.4251 302.57 79.1876 302.521 78.9476 302.521C78.7076 302.521 78.4701 302.57 78.2495 302.665C77.7503 303.071 77.7269 305.184 77.7269 305.184C77.7269 305.184 76.8533 303.032 76.2059 302.665C75.3167 302.166 72.8987 302.018 72.1109 302.665C70.8005 303.734 70.3247 307.446 70.0673 309.115C70.0049 309.482 70.0673 311.51 70.0673 311.51H91.1273V310.582C91.1289 310.139 90.9921 309.708 90.7362 309.347C90.4802 308.986 90.1179 308.714 89.6999 308.569V308.569Z" fill="#263238" stroke="#263238" stroke-linecap="round" stroke-linejoin="round"/>
<path d="M70.0517 311.51H91.1117V310.582C91.1116 310.354 91.0747 310.127 91.0025 309.911H70.0205C70.0205 310.621 70.0517 311.51 70.0517 311.51Z" fill="white" stroke="#263238" stroke-width="0.75" stroke-linecap="round" stroke-linejoin="round"/>
<path d="M101.119 245.514C101.119 245.514 98.8804 249.375 95.2534 247.901" stroke="#263238" stroke-width="0.75" stroke-linecap="round" stroke-linejoin="round"/>
<path d="M85.5112 246.871C85.5112 246.871 81.4942 250.303 78.1714 247.901" stroke="#263238" stroke-width="0.75" stroke-linecap="round" stroke-linejoin="round"/>
<path d="M127.428 146.953L127.99 149.746H132.966L128.918 148.802L129.113 146.899L127.428 146.953Z" fill="white"/>
</svg>
