<svg width="293" height="231" viewBox="0 0 293 231" fill="none" xmlns="http://www.w3.org/2000/svg">
<g clip-path="url(#clip0_580_2170)">
<path d="M250.187 152.694L249.73 156.796L257.705 147.473C258.659 147.573 259.618 147.623 260.577 147.625" stroke="#263238" stroke-linecap="round" stroke-linejoin="round"/>
<path d="M240.196 124.402C239.148 125.983 238.491 127.791 238.28 129.676C237.524 136.491 242.868 142.937 250.943 145.92L250.533 149.582" stroke="#263238" stroke-linecap="round" stroke-linejoin="round"/>
<path d="M243.296 121.009C242.776 121.43 242.283 121.882 241.819 122.363" stroke="#263238" stroke-linecap="round" stroke-linejoin="round"/>
<path d="M273.205 121.009C269.564 118.514 265.355 116.975 260.963 116.532C256.322 115.963 251.614 116.655 247.333 118.536" stroke="#263238" stroke-linecap="round" stroke-linejoin="round"/>
<path d="M266.126 147.074C273.744 145.498 279.516 140.628 280.19 134.311C280.682 129.893 278.614 125.633 274.916 122.363" stroke="#263238" stroke-linecap="round" stroke-linejoin="round"/>
<path d="M247.339 125.539C247.984 125.659 248.646 125.65 249.288 125.514C249.929 125.377 250.538 125.115 251.078 124.742L253.926 126.951C253.726 127.015 253.744 126.594 253.955 126.582C254.166 126.57 254.324 126.764 254.47 126.916C255.139 127.625 256.264 127.648 257.219 127.443C258.174 127.238 259.106 126.857 260.079 126.892C260.657 126.953 261.226 127.085 261.772 127.285C265.687 128.498 269.759 129.108 273.814 129.705" stroke="#263238" stroke-linecap="round" stroke-linejoin="round"/>
<path d="M243.976 129.705C244.562 129.67 247.826 129.705 248.294 129.313L249.091 130.701L249.97 129.852C250.123 130.438 250.275 131.024 250.422 131.575C251.084 131.733 251.008 130.455 251.594 130.074C251.774 129.986 251.981 129.969 252.173 130.027C252.365 130.084 252.529 130.212 252.631 130.385C252.823 130.745 252.916 131.149 252.9 131.557L256.909 131.885L257.688 131.95C257.967 131.525 258.379 131.205 258.86 131.041C258.713 131.967 259.88 132.495 260.806 132.682C265.365 133.612 269.947 134.415 274.553 135.091" stroke="#263238" stroke-linecap="round" stroke-linejoin="round"/>
<path d="M245.757 136.069C246.126 136.327 246.577 135.847 247.028 135.788C247.48 135.729 247.849 136.069 248.247 136.274C248.646 136.479 249.302 136.392 249.326 135.946C249.419 136.532 250.146 136.743 250.738 136.825L266.126 138.988" stroke="#263238" stroke-linecap="round" stroke-linejoin="round"/>
<path d="M39.8481 116.051L46.0129 124.349L44.7764 113.491C46.2503 112.775 47.66 111.934 48.9897 110.977C55.3068 106.406 57.8501 99.0515 55.5354 93.1271C53.9121 88.9899 50.109 86.1771 45.3038 85.011" stroke="#263238" stroke-linecap="round" stroke-linejoin="round"/>
<path d="M15.4998 102.96C15.3077 104.839 15.5648 106.737 16.2499 108.498C18.7463 114.885 26.4697 118.108 35.0019 116.995" stroke="#263238" stroke-linecap="round" stroke-linejoin="round"/>
<path d="M16.6661 98.5125C16.4043 99.1276 16.1793 99.7576 15.9922 100.399" stroke="#263238" stroke-linecap="round" stroke-linejoin="round"/>
<path d="M43.153 84.6125C38.7686 84.0884 34.3228 84.6769 30.2258 86.3236C25.853 87.9772 22.0067 90.7789 19.0918 94.4339" stroke="#263238" stroke-linecap="round" stroke-linejoin="round"/>
<path d="M22.3501 100.64C23.6107 100.246 24.6642 99.3699 25.2801 98.2018L28.7961 98.8347C28.6437 98.9812 28.4679 98.6003 28.6496 98.489C28.8313 98.3776 29.0598 98.489 29.2356 98.5476C30.1615 98.864 31.1635 98.3659 31.9136 97.7389C32.6637 97.1119 33.3083 96.3325 34.1932 95.9223C34.7337 95.7063 35.2984 95.5568 35.875 95.4769C39.9067 94.7386 43.7918 93.379 47.6653 92.0254" stroke="#263238" stroke-linecap="round" stroke-linejoin="round"/>
<path d="M21.3071 105.896C21.8287 105.585 24.7176 104.103 24.952 103.552L26.3057 104.413C26.4346 104.027 26.5635 103.634 26.6866 103.241L27.8879 104.56C28.5501 104.396 27.8879 103.3 28.2043 102.702C28.3222 102.54 28.4973 102.429 28.6942 102.391C28.8911 102.352 29.0951 102.391 29.265 102.497C29.5997 102.722 29.8686 103.031 30.0444 103.394L33.7421 101.823L34.4687 101.519C34.5103 101.015 34.7162 100.54 35.0547 100.165C35.3594 101.062 36.6369 100.979 37.5393 100.716C42.0125 99.4266 46.4446 98.0085 50.8357 96.4614" stroke="#263238" stroke-linecap="round" stroke-linejoin="round"/>
<path d="M25.8428 110.701C26.294 110.76 26.4698 110.115 26.839 109.857C27.2082 109.6 27.7004 109.734 28.1458 109.723C28.5911 109.711 29.1361 109.342 28.9486 108.937C29.306 109.412 30.0503 109.26 30.607 109.06L45.257 103.816" stroke="#263238" stroke-linecap="round" stroke-linejoin="round"/>
<path d="M218.537 15.5173H72.4239C69.5791 15.5173 67.2729 17.8235 67.2729 20.6683V152.296C67.2729 155.14 69.5791 157.447 72.4239 157.447H218.537C221.382 157.447 223.688 155.14 223.688 152.296V20.6683C223.688 17.8235 221.382 15.5173 218.537 15.5173Z" fill="white"/>
<path opacity="0.2" d="M223.688 93.2618V152.448C223.688 153.773 223.162 155.043 222.226 155.98C221.29 156.918 220.02 157.445 218.695 157.446H72.2715C70.9458 157.446 69.6744 156.92 68.737 155.982C67.7996 155.045 67.2729 153.774 67.2729 152.448V140.728H67.5835V148.627C67.5835 149.378 67.7315 150.121 68.019 150.815C68.3065 151.509 68.7279 152.139 69.259 152.669C69.7902 153.2 70.4208 153.621 71.1146 153.907C71.8085 154.194 72.5521 154.341 73.3029 154.341H214.757C215.508 154.341 216.252 154.194 216.946 153.907C217.64 153.621 218.27 153.2 218.801 152.669C219.332 152.139 219.754 151.509 220.041 150.815C220.329 150.121 220.477 149.378 220.477 148.627V102.04C220.477 100.985 220.058 99.9728 219.311 99.2266C218.565 98.4804 217.553 98.0612 216.498 98.0612H67.2729V93.2618H223.688Z" fill="black"/>
<path d="M218.537 15.5173H72.4239C69.5791 15.5173 67.2729 17.8235 67.2729 20.6683V152.296C67.2729 155.14 69.5791 157.447 72.4239 157.447H218.537C221.382 157.447 223.688 155.14 223.688 152.296V20.6683C223.688 17.8235 221.382 15.5173 218.537 15.5173Z" stroke="#263238" stroke-linecap="round" stroke-linejoin="round"/>
<path d="M210.069 110.115V103.335C210.07 103.006 210.006 102.679 209.88 102.375C209.754 102.07 209.57 101.793 209.337 101.56C209.104 101.327 208.827 101.142 208.522 101.017C208.217 100.891 207.891 100.826 207.561 100.827H83.3997C82.7345 100.827 82.0966 101.091 81.6262 101.562C81.1559 102.032 80.8916 102.67 80.8916 103.335V110.115C80.8916 110.78 80.6274 111.418 80.1571 111.889C79.6867 112.359 79.0487 112.623 78.3836 112.623C77.7168 112.623 77.0774 112.888 76.6059 113.36C76.1345 113.831 75.8696 114.471 75.8696 115.137V128.516C75.8696 131.601 77.0952 134.559 79.2766 136.741C81.458 138.922 84.4167 140.148 87.5017 140.148C87.9975 140.148 88.473 140.345 88.8235 140.695C89.1741 141.046 89.3711 141.521 89.3711 142.017V146.025C89.3711 147.505 89.9588 148.924 91.005 149.97C92.0512 151.016 93.4702 151.604 94.9498 151.604H196.011C197.491 151.604 198.91 151.016 199.956 149.97C201.002 148.924 201.59 147.505 201.59 146.025V142.017C201.59 141.521 201.787 141.046 202.138 140.695C202.488 140.345 202.964 140.148 203.459 140.148C204.987 140.148 206.5 139.847 207.911 139.262C209.322 138.678 210.604 137.821 211.685 136.741C212.765 135.661 213.621 134.378 214.206 132.967C214.791 131.556 215.091 130.043 215.091 128.516V115.137C215.091 114.472 214.827 113.833 214.357 113.362C213.887 112.89 213.249 112.625 212.583 112.623C211.918 112.623 211.279 112.359 210.808 111.889C210.337 111.419 210.071 110.781 210.069 110.115Z" fill="#263238"/>
<path d="M90.402 104.666H86.0598C85.5283 104.666 85.0185 104.877 84.6427 105.253C84.2668 105.628 84.0557 106.138 84.0557 106.67V107.783C84.0557 110.092 85.925 113.022 88.2338 113.022C90.5427 113.022 92.412 110.092 92.412 107.783V106.67C92.4105 106.138 92.198 105.628 91.8212 105.252C91.4445 104.876 90.9341 104.666 90.402 104.666Z" fill="white" stroke="#263238" stroke-linecap="round" stroke-linejoin="round"/>
<path d="M100.792 104.666H96.4499C95.9179 104.666 95.4075 104.876 95.0307 105.252C94.6539 105.628 94.4415 106.138 94.4399 106.67V107.783C94.4399 110.092 96.3093 113.022 98.6181 113.022C100.927 113.022 102.796 110.092 102.796 107.783V106.67C102.796 106.138 102.585 105.628 102.209 105.253C101.833 104.877 101.324 104.666 100.792 104.666Z" fill="white" stroke="#263238" stroke-linecap="round" stroke-linejoin="round"/>
<path d="M111.223 104.666H106.881C106.349 104.666 105.839 104.877 105.463 105.253C105.088 105.628 104.876 106.138 104.876 106.67V107.783C104.876 110.092 106.746 113.022 109.049 113.022C111.352 113.022 113.227 110.092 113.227 107.783V106.67C113.227 106.138 113.016 105.628 112.64 105.253C112.264 104.877 111.754 104.666 111.223 104.666Z" fill="white" stroke="#263238" stroke-linecap="round" stroke-linejoin="round"/>
<path d="M121.63 104.666H117.288C116.756 104.666 116.247 104.877 115.871 105.253C115.495 105.628 115.284 106.138 115.284 106.67V107.783C115.284 110.092 117.153 113.022 119.462 113.022C121.771 113.022 123.634 110.092 123.634 107.783V106.67C123.634 106.406 123.582 106.146 123.482 105.903C123.381 105.66 123.233 105.439 123.047 105.253C122.861 105.066 122.64 104.919 122.397 104.818C122.154 104.717 121.893 104.666 121.63 104.666Z" fill="white" stroke="#263238" stroke-linecap="round" stroke-linejoin="round"/>
<path d="M132.038 104.666H127.696C127.164 104.666 126.654 104.877 126.278 105.253C125.903 105.628 125.691 106.138 125.691 106.67V107.783C125.691 110.092 127.561 113.022 129.87 113.022C132.178 113.022 134.048 110.092 134.048 107.783V106.67C134.046 106.138 133.834 105.628 133.457 105.252C133.08 104.876 132.57 104.666 132.038 104.666Z" fill="white" stroke="#263238" stroke-linecap="round" stroke-linejoin="round"/>
<path d="M142.451 104.666H138.109C137.577 104.666 137.066 104.876 136.689 105.252C136.313 105.628 136.1 106.138 136.099 106.67V107.783C136.099 110.092 137.968 113.022 140.277 113.022C142.586 113.022 144.455 110.092 144.455 107.783V106.67C144.455 106.138 144.244 105.628 143.868 105.253C143.492 104.877 142.982 104.666 142.451 104.666Z" fill="white" stroke="#263238" stroke-linecap="round" stroke-linejoin="round"/>
<path d="M152.858 104.666H148.516C147.984 104.666 147.475 104.877 147.099 105.253C146.723 105.628 146.512 106.138 146.512 106.67V107.783C146.512 110.092 148.381 113.022 150.684 113.022C152.987 113.022 154.862 110.092 154.862 107.783V106.67C154.862 106.138 154.651 105.628 154.275 105.253C153.899 104.877 153.39 104.666 152.858 104.666Z" fill="white" stroke="#263238" stroke-linecap="round" stroke-linejoin="round"/>
<path d="M163.265 104.666H158.923C158.392 104.666 157.882 104.877 157.506 105.253C157.13 105.628 156.919 106.138 156.919 106.67V107.783C156.919 110.092 158.788 113.022 161.097 113.022C163.406 113.022 165.269 110.092 165.269 107.783V106.67C165.269 106.138 165.058 105.628 164.682 105.253C164.307 104.877 163.797 104.666 163.265 104.666Z" fill="white" stroke="#263238" stroke-linecap="round" stroke-linejoin="round"/>
<path d="M173.673 104.665H169.354C169.091 104.665 168.83 104.717 168.587 104.818C168.344 104.919 168.123 105.066 167.937 105.252C167.751 105.439 167.603 105.659 167.503 105.903C167.402 106.146 167.35 106.406 167.35 106.67V107.783C167.35 110.092 169.219 113.022 171.528 113.022C173.837 113.022 175.706 110.092 175.706 107.783V106.67C175.706 106.404 175.652 106.141 175.55 105.897C175.447 105.652 175.296 105.43 175.107 105.244C174.918 105.057 174.694 104.91 174.448 104.811C174.202 104.712 173.938 104.662 173.673 104.665Z" fill="white" stroke="#263238" stroke-linecap="round" stroke-linejoin="round"/>
<path d="M184.086 104.666H179.744C179.212 104.666 178.701 104.876 178.325 105.252C177.948 105.628 177.735 106.138 177.734 106.67V107.783C177.734 110.092 179.603 113.022 181.912 113.022C184.221 113.022 186.09 110.092 186.09 107.783V106.67C186.09 106.138 185.879 105.628 185.503 105.253C185.127 104.877 184.618 104.666 184.086 104.666Z" fill="white" stroke="#263238" stroke-linecap="round" stroke-linejoin="round"/>
<path d="M194.493 104.666H190.151C189.62 104.666 189.11 104.877 188.734 105.253C188.358 105.628 188.147 106.138 188.147 106.67V107.783C188.147 110.092 190.016 113.022 192.319 113.022C194.622 113.022 196.497 110.092 196.497 107.783V106.67C196.497 106.138 196.286 105.628 195.91 105.253C195.535 104.877 195.025 104.666 194.493 104.666Z" fill="white" stroke="#263238" stroke-linecap="round" stroke-linejoin="round"/>
<path d="M204.901 104.665H200.559C200.027 104.665 199.518 104.877 199.142 105.252C198.766 105.628 198.555 106.138 198.555 106.67V107.783C198.555 110.086 200.412 113.016 202.756 113.016C205.1 113.016 206.929 110.086 206.929 107.777V106.664C206.928 106.399 206.875 106.137 206.772 105.893C206.67 105.649 206.52 105.428 206.331 105.242C206.143 105.056 205.919 104.91 205.674 104.811C205.428 104.712 205.166 104.662 204.901 104.665Z" fill="white" stroke="#263238" stroke-linecap="round" stroke-linejoin="round"/>
<path d="M90.402 126.723H86.0598C85.5283 126.723 85.0185 126.934 84.6427 127.31C84.2668 127.685 84.0557 128.195 84.0557 128.727V129.84C84.0557 132.149 85.925 135.079 88.2338 135.079C90.5427 135.079 92.412 132.149 92.412 129.84V128.727C92.4105 128.195 92.198 127.685 91.8212 127.309C91.4445 126.933 90.9341 126.723 90.402 126.723Z" fill="white" stroke="#263238" stroke-linecap="round" stroke-linejoin="round"/>
<path d="M100.792 126.723H96.4499C95.9179 126.723 95.4075 126.933 95.0307 127.309C94.6539 127.685 94.4415 128.195 94.4399 128.727V129.84C94.4399 132.149 96.3093 135.079 98.6181 135.079C100.927 135.079 102.796 132.149 102.796 129.84V128.727C102.796 128.195 102.585 127.685 102.209 127.31C101.833 126.934 101.324 126.723 100.792 126.723Z" fill="white" stroke="#263238" stroke-linecap="round" stroke-linejoin="round"/>
<path d="M111.223 126.723H106.881C106.349 126.723 105.839 126.934 105.463 127.31C105.088 127.685 104.876 128.195 104.876 128.727V129.84C104.876 132.149 106.746 135.079 109.049 135.079C111.352 135.079 113.227 132.149 113.227 129.84V128.727C113.227 128.195 113.016 127.685 112.64 127.31C112.264 126.934 111.754 126.723 111.223 126.723Z" fill="white" stroke="#263238" stroke-linecap="round" stroke-linejoin="round"/>
<path d="M121.63 126.723H117.288C116.756 126.723 116.247 126.934 115.871 127.31C115.495 127.685 115.284 128.195 115.284 128.727V129.84C115.284 132.149 117.153 135.079 119.462 135.079C121.771 135.079 123.634 132.149 123.634 129.84V128.727C123.634 128.463 123.582 128.203 123.482 127.96C123.381 127.717 123.233 127.496 123.047 127.31C122.861 127.123 122.64 126.976 122.397 126.875C122.154 126.774 121.893 126.723 121.63 126.723Z" fill="white" stroke="#263238" stroke-linecap="round" stroke-linejoin="round"/>
<path d="M132.038 126.723H127.696C127.164 126.723 126.654 126.934 126.278 127.31C125.903 127.685 125.691 128.195 125.691 128.727V129.84C125.691 132.149 127.561 135.079 129.87 135.079C132.178 135.079 134.048 132.149 134.048 129.84V128.727C134.046 128.195 133.834 127.685 133.457 127.309C133.08 126.933 132.57 126.723 132.038 126.723Z" fill="white" stroke="#263238" stroke-linecap="round" stroke-linejoin="round"/>
<path d="M142.451 126.723H138.109C137.577 126.723 137.066 126.933 136.689 127.309C136.313 127.685 136.1 128.195 136.099 128.727V129.84C136.099 132.149 137.968 135.079 140.277 135.079C142.586 135.079 144.455 132.149 144.455 129.84V128.727C144.455 128.195 144.244 127.685 143.868 127.31C143.492 126.934 142.982 126.723 142.451 126.723Z" fill="white" stroke="#263238" stroke-linecap="round" stroke-linejoin="round"/>
<path d="M152.858 126.723H148.516C147.984 126.723 147.475 126.934 147.099 127.31C146.723 127.685 146.512 128.195 146.512 128.727V129.84C146.512 132.149 148.381 135.079 150.684 135.079C152.987 135.079 154.862 132.149 154.862 129.84V128.727C154.862 128.195 154.651 127.685 154.275 127.31C153.899 126.934 153.39 126.723 152.858 126.723Z" fill="white" stroke="#263238" stroke-linecap="round" stroke-linejoin="round"/>
<path d="M163.265 126.723H158.923C158.392 126.723 157.882 126.934 157.506 127.31C157.13 127.685 156.919 128.195 156.919 128.727V129.84C156.919 132.149 158.788 135.079 161.097 135.079C163.406 135.079 165.269 132.149 165.269 129.84V128.727C165.269 128.195 165.058 127.685 164.682 127.31C164.307 126.934 163.797 126.723 163.265 126.723Z" fill="white" stroke="#263238" stroke-linecap="round" stroke-linejoin="round"/>
<path d="M173.673 126.723H169.354C169.091 126.723 168.83 126.774 168.587 126.875C168.344 126.976 168.123 127.123 167.937 127.31C167.751 127.496 167.603 127.717 167.503 127.96C167.402 128.203 167.35 128.463 167.35 128.727V129.84C167.35 132.149 169.219 135.079 171.528 135.079C173.837 135.079 175.706 132.149 175.706 129.84V128.727C175.706 128.461 175.652 128.199 175.55 127.954C175.447 127.709 175.296 127.487 175.107 127.301C174.918 127.115 174.694 126.967 174.448 126.868C174.202 126.769 173.938 126.719 173.673 126.723Z" fill="white" stroke="#263238" stroke-linecap="round" stroke-linejoin="round"/>
<path d="M184.086 126.723H179.744C179.212 126.723 178.701 126.933 178.325 127.309C177.948 127.685 177.735 128.195 177.734 128.727V129.84C177.734 132.149 179.603 135.079 181.912 135.079C184.221 135.079 186.09 132.149 186.09 129.84V128.727C186.09 128.195 185.879 127.685 185.503 127.31C185.127 126.934 184.618 126.723 184.086 126.723Z" fill="white" stroke="#263238" stroke-linecap="round" stroke-linejoin="round"/>
<path d="M194.493 126.723H190.151C189.62 126.723 189.11 126.934 188.734 127.31C188.358 127.685 188.147 128.195 188.147 128.727V129.84C188.147 132.149 190.016 135.079 192.319 135.079C194.622 135.079 196.497 132.149 196.497 129.84V128.727C196.497 128.195 196.286 127.685 195.91 127.31C195.535 126.934 195.025 126.723 194.493 126.723Z" fill="white" stroke="#263238" stroke-linecap="round" stroke-linejoin="round"/>
<path d="M204.901 126.723H200.559C200.027 126.723 199.518 126.934 199.142 127.31C198.766 127.685 198.555 128.195 198.555 128.727V129.84C198.555 132.149 200.424 135.079 202.733 135.079C205.042 135.079 206.905 132.149 206.905 129.84V128.727C206.905 128.195 206.694 127.685 206.318 127.31C205.942 126.934 205.433 126.723 204.901 126.723Z" fill="white" stroke="#263238" stroke-linecap="round" stroke-linejoin="round"/>
<path d="M85.1984 116.051H80.8679C80.3364 116.051 79.8266 116.263 79.4508 116.638C79.0749 117.014 78.8638 117.524 78.8638 118.056V119.169C78.8638 121.472 80.7331 124.408 83.0419 124.408C85.3508 124.408 87.2143 121.478 87.2143 119.169V118.056C87.2143 117.791 87.162 117.53 87.0606 117.286C86.9591 117.042 86.8105 116.821 86.6231 116.634C86.4358 116.448 86.2135 116.301 85.969 116.201C85.7245 116.101 85.4626 116.05 85.1984 116.051Z" fill="white" stroke="#263238" stroke-linecap="round" stroke-linejoin="round"/>
<path d="M95.6061 116.051H91.2639C90.7324 116.051 90.2226 116.263 89.8468 116.638C89.4709 117.014 89.2598 117.524 89.2598 118.056V119.169C89.2598 121.472 91.1291 124.408 93.4379 124.408C95.7468 124.408 97.6161 121.478 97.6161 119.169V118.056C97.6146 117.523 97.4021 117.014 97.0253 116.638C96.6486 116.262 96.1382 116.051 95.6061 116.051Z" fill="white" stroke="#263238" stroke-linecap="round" stroke-linejoin="round"/>
<path d="M106.019 116.051H101.677C101.145 116.051 100.635 116.262 100.258 116.638C99.881 117.014 99.6685 117.523 99.667 118.056V119.169C99.667 121.472 101.542 124.408 103.845 124.408C106.148 124.408 108.023 121.478 108.023 119.169V118.056C108.023 117.524 107.812 117.014 107.436 116.638C107.061 116.263 106.551 116.051 106.019 116.051Z" fill="white" stroke="#263238" stroke-linecap="round" stroke-linejoin="round"/>
<path d="M116.426 116.051H112.084C111.553 116.051 111.043 116.263 110.667 116.638C110.291 117.014 110.08 117.524 110.08 118.056V119.169C110.08 121.472 111.949 124.408 114.252 124.408C116.555 124.408 118.431 121.478 118.431 119.169V118.056C118.431 117.792 118.379 117.532 118.278 117.289C118.177 117.045 118.03 116.824 117.844 116.638C117.657 116.452 117.437 116.305 117.193 116.204C116.95 116.103 116.69 116.051 116.426 116.051Z" fill="white" stroke="#263238" stroke-linecap="round" stroke-linejoin="round"/>
<path d="M126.834 116.051H122.474C121.942 116.051 121.433 116.263 121.057 116.638C120.681 117.014 120.47 117.524 120.47 118.056V119.169C120.47 121.472 122.339 124.408 124.648 124.408C126.957 124.408 128.82 121.478 128.82 119.169V118.056C128.82 117.527 128.612 117.02 128.239 116.645C127.867 116.269 127.362 116.056 126.834 116.051Z" fill="white" stroke="#263238" stroke-linecap="round" stroke-linejoin="round"/>
<path d="M137.241 116.051H132.899C132.368 116.051 131.858 116.263 131.482 116.638C131.106 117.014 130.895 117.524 130.895 118.056V119.169C130.895 121.472 132.764 124.408 135.073 124.408C137.382 124.408 139.251 121.478 139.251 119.169V118.056C139.25 117.523 139.037 117.014 138.661 116.638C138.284 116.262 137.773 116.051 137.241 116.051Z" fill="white" stroke="#263238" stroke-linecap="round" stroke-linejoin="round"/>
<path d="M147.672 116.051H143.33C142.798 116.051 142.287 116.262 141.911 116.638C141.534 117.014 141.321 117.523 141.32 118.056V119.169C141.32 121.472 143.195 124.408 145.498 124.408C147.801 124.408 149.676 121.478 149.676 119.169V118.056C149.676 117.524 149.465 117.014 149.089 116.638C148.713 116.263 148.204 116.051 147.672 116.051Z" fill="white" stroke="#263238" stroke-linecap="round" stroke-linejoin="round"/>
<path d="M158.062 116.051H153.719C153.188 116.051 152.678 116.263 152.302 116.638C151.926 117.014 151.715 117.524 151.715 118.056V119.169C151.715 121.472 153.585 124.408 155.888 124.408C158.191 124.408 160.066 121.478 160.066 119.169V118.056C160.066 117.524 159.855 117.014 159.479 116.638C159.103 116.263 158.593 116.051 158.062 116.051Z" fill="white" stroke="#263238" stroke-linecap="round" stroke-linejoin="round"/>
<path d="M168.469 116.051H164.127C163.595 116.051 163.085 116.263 162.71 116.638C162.334 117.014 162.123 117.524 162.123 118.056V119.169C162.123 121.472 163.992 124.408 166.301 124.408C168.61 124.408 170.473 121.478 170.473 119.169V118.056C170.473 117.524 170.262 117.014 169.886 116.638C169.51 116.263 169 116.051 168.469 116.051Z" fill="white" stroke="#263238" stroke-linecap="round" stroke-linejoin="round"/>
<path d="M178.877 116.051H174.534C174.003 116.051 173.493 116.263 173.117 116.638C172.741 117.014 172.53 117.524 172.53 118.056V119.169C172.53 121.472 174.4 124.408 176.708 124.408C179.017 124.408 180.887 121.478 180.887 119.169V118.056C180.885 117.523 180.673 117.014 180.296 116.638C179.919 116.262 179.409 116.051 178.877 116.051Z" fill="white" stroke="#263238" stroke-linecap="round" stroke-linejoin="round"/>
<path d="M189.278 116.051H184.936C184.404 116.051 183.893 116.262 183.517 116.638C183.14 117.014 182.927 117.523 182.926 118.056V119.169C182.926 121.472 184.801 124.408 187.104 124.408C189.407 124.408 191.282 121.478 191.282 119.169V118.056C191.282 117.524 191.071 117.014 190.695 116.638C190.319 116.263 189.81 116.051 189.278 116.051Z" fill="white" stroke="#263238" stroke-linecap="round" stroke-linejoin="round"/>
<path d="M199.697 116.051H195.355C194.828 116.059 194.326 116.274 193.956 116.649C193.587 117.024 193.38 117.529 193.38 118.056V119.169C193.38 121.472 195.249 124.408 197.552 124.408C199.855 124.408 201.73 121.478 201.73 119.169V118.056C201.73 117.79 201.678 117.527 201.575 117.282C201.473 117.037 201.322 116.815 201.133 116.628C200.944 116.442 200.719 116.295 200.473 116.196C200.226 116.097 199.963 116.048 199.697 116.051Z" fill="white" stroke="#263238" stroke-linecap="round" stroke-linejoin="round"/>
<path d="M210.105 116.051H205.762C205.231 116.051 204.721 116.263 204.345 116.638C203.969 117.014 203.758 117.524 203.758 118.056V119.169C203.758 121.472 205.628 124.408 207.936 124.408C210.245 124.408 212.109 121.478 212.109 119.169V118.056C212.109 117.524 211.898 117.014 211.522 116.638C211.146 116.263 210.636 116.051 210.105 116.051Z" fill="white" stroke="#263238" stroke-linecap="round" stroke-linejoin="round"/>
<path d="M185.235 137.833H105.726C104.687 137.833 103.845 138.675 103.845 139.714V145.422C103.845 146.461 104.687 147.303 105.726 147.303H185.235C186.274 147.303 187.116 146.461 187.116 145.422V139.714C187.116 138.675 186.274 137.833 185.235 137.833Z" fill="white" stroke="#263238" stroke-linecap="round" stroke-linejoin="round"/>
<path d="M195.883 138.39H191.54C191.009 138.39 190.499 138.601 190.123 138.977C189.747 139.353 189.536 139.862 189.536 140.394V141.507C189.536 143.816 191.405 146.746 193.714 146.746C196.023 146.746 197.887 143.816 197.887 141.507V140.394C197.887 139.862 197.675 139.353 197.3 138.977C196.924 138.601 196.414 138.39 195.883 138.39Z" fill="white" stroke="#263238" stroke-linecap="round" stroke-linejoin="round"/>
<path d="M99.4206 138.39H95.0783C94.5468 138.39 94.0371 138.601 93.6612 138.977C93.2854 139.353 93.0742 139.862 93.0742 140.394V141.507C93.0742 143.816 94.9436 146.746 97.2524 146.746C99.5612 146.746 101.431 143.816 101.431 141.507V140.394C101.429 139.862 101.217 139.352 100.84 138.976C100.463 138.601 99.9527 138.39 99.4206 138.39Z" fill="white" stroke="#263238" stroke-linecap="round" stroke-linejoin="round"/>
<path opacity="0.2" d="M90.6427 107.847C90.853 107.848 91.0628 107.868 91.2697 107.906C91.2697 107.865 91.2697 107.824 91.2697 107.783V106.67C91.2682 106.439 91.1755 106.218 91.0119 106.056C90.8483 105.893 90.6271 105.802 90.3966 105.802H86.0543C85.8248 105.804 85.605 105.896 85.4427 106.058C85.2804 106.22 85.1885 106.44 85.187 106.67V107.783C85.187 109.383 86.359 111.399 87.742 111.803C87.3142 110.027 88.2752 107.847 90.6427 107.847Z" fill="black"/>
<path opacity="0.2" d="M101.284 107.549C101.417 107.539 101.55 107.539 101.683 107.549V106.646C101.681 106.417 101.589 106.197 101.427 106.035C101.265 105.872 101.045 105.78 100.815 105.779H96.4732C96.2427 105.779 96.0215 105.87 95.8579 106.032C95.6943 106.195 95.6016 106.416 95.6001 106.646V107.759C95.6001 109.517 96.9889 111.715 98.5301 111.861C97.821 110.045 98.7528 107.549 101.284 107.549Z" fill="black"/>
<path opacity="0.2" d="M112.002 107.396H112.09V106.664C112.09 106.434 111.999 106.213 111.836 106.05C111.673 105.888 111.453 105.796 111.223 105.796H106.88C106.65 105.796 106.429 105.888 106.265 106.05C106.102 106.213 106.009 106.433 106.007 106.664V107.777C106.007 109.564 107.484 111.879 109.049 111.879C109.125 111.885 109.201 111.885 109.277 111.879C108.492 110.027 109.4 107.396 112.002 107.396Z" fill="black"/>
<path opacity="0.2" d="M121.748 107.097C121.991 107.09 122.235 107.11 122.474 107.156V106.646C122.474 106.416 122.383 106.195 122.22 106.033C122.058 105.87 121.837 105.779 121.607 105.779H117.265C117.035 105.779 116.814 105.87 116.651 106.033C116.489 106.195 116.397 106.416 116.397 106.646V107.759C116.397 109.435 117.687 111.568 119.14 111.861C118.144 110.021 119.005 107.097 121.748 107.097Z" fill="black"/>
<path opacity="0.2" d="M132.688 107.097H132.911V106.658C132.909 106.427 132.817 106.207 132.653 106.044C132.489 105.882 132.268 105.791 132.038 105.791H127.695C127.466 105.792 127.246 105.884 127.084 106.046C126.922 106.209 126.83 106.428 126.828 106.658V107.771C126.828 109.559 128.305 111.873 129.869 111.873C129.949 111.879 130.03 111.879 130.11 111.873C129.084 110.027 129.946 107.097 132.688 107.097Z" fill="black"/>
<path opacity="0.2" d="M143.183 107.156H143.318V106.646C143.316 106.417 143.225 106.197 143.062 106.035C142.9 105.872 142.68 105.78 142.451 105.779H138.108C137.878 105.779 137.657 105.87 137.493 106.032C137.33 106.195 137.237 106.416 137.235 106.646V107.759C137.235 109.547 138.712 111.861 140.277 111.861C140.372 111.87 140.468 111.87 140.564 111.861C139.603 110.016 140.476 107.156 143.183 107.156Z" fill="black"/>
<path opacity="0.2" d="M153.227 107.097C153.394 107.1 153.56 107.111 153.725 107.132V106.67C153.725 106.44 153.634 106.219 153.471 106.056C153.309 105.894 153.088 105.802 152.858 105.802H148.516C148.286 105.802 148.065 105.894 147.902 106.056C147.74 106.219 147.648 106.44 147.648 106.67V107.783C147.648 109.541 149.102 111.85 150.655 111.885C149.617 110.045 150.473 107.097 153.227 107.097Z" fill="black"/>
<path opacity="0.2" d="M164.133 107.25V106.664C164.133 106.434 164.042 106.213 163.879 106.05C163.716 105.888 163.496 105.796 163.266 105.796H158.923C158.693 105.796 158.473 105.888 158.31 106.05C158.148 106.213 158.056 106.434 158.056 106.664V107.777C158.056 109.564 159.527 111.879 161.098 111.879C161.255 111.877 161.411 111.851 161.56 111.803C160.717 109.998 161.578 107.332 164.133 107.25Z" fill="black"/>
<path opacity="0.2" d="M173.691 107.021C173.979 107.02 174.267 107.058 174.546 107.132V106.67C174.545 106.439 174.452 106.218 174.288 106.056C174.125 105.893 173.903 105.802 173.673 105.802H169.354C169.125 105.804 168.905 105.896 168.743 106.058C168.58 106.22 168.488 106.44 168.487 106.67V107.783C168.487 109.435 169.741 111.522 171.165 111.838C170.069 110.004 170.919 107.021 173.691 107.021Z" fill="black"/>
<path opacity="0.2" d="M184.332 107.021C184.541 107.022 184.748 107.041 184.953 107.08V106.67C184.952 106.44 184.86 106.22 184.698 106.058C184.535 105.896 184.316 105.804 184.086 105.802H179.744C179.513 105.802 179.292 105.893 179.128 106.056C178.965 106.218 178.872 106.439 178.871 106.67V107.783C178.871 109.541 180.277 111.774 181.801 111.885C180.699 110.045 181.543 107.021 184.332 107.021Z" fill="black"/>
<path opacity="0.2" d="M194.903 107.32C195.056 107.322 195.209 107.334 195.361 107.355V106.67C195.361 106.44 195.269 106.219 195.107 106.056C194.944 105.894 194.723 105.802 194.493 105.802H190.151C190.037 105.802 189.924 105.825 189.819 105.868C189.714 105.912 189.618 105.976 189.538 106.056C189.457 106.137 189.393 106.232 189.35 106.338C189.306 106.443 189.284 106.556 189.284 106.67V107.783C189.284 109.541 190.69 111.768 192.214 111.885C191.364 110.033 192.261 107.32 194.903 107.32Z" fill="black"/>
<path opacity="0.2" d="M205.768 107.185V106.67C205.768 106.44 205.677 106.219 205.514 106.056C205.352 105.894 205.131 105.802 204.901 105.802H200.559C200.329 105.802 200.108 105.894 199.945 106.056C199.783 106.219 199.691 106.44 199.691 106.67V107.783C199.691 109.57 201.162 111.885 202.733 111.885C202.959 111.882 203.182 111.834 203.389 111.744C202.557 109.975 203.342 107.384 205.768 107.185Z" fill="black"/>
<path opacity="0.2" d="M90.9415 128.838C91.0528 128.832 91.1643 128.832 91.2755 128.838V128.715C91.274 128.484 91.1813 128.264 91.0177 128.101C90.8542 127.939 90.633 127.848 90.4024 127.848H86.0601C85.8306 127.849 85.6109 127.941 85.4486 128.103C85.2863 128.266 85.1944 128.485 85.1929 128.715V129.828C85.1929 131.616 86.6696 133.93 88.2342 133.93C88.3424 133.928 88.4502 133.916 88.5565 133.895C87.2439 132.114 88.0408 128.838 90.9415 128.838Z" fill="black"/>
<path opacity="0.2" d="M101.138 128.838C101.32 128.839 101.503 128.854 101.683 128.885V128.733C101.681 128.503 101.589 128.283 101.427 128.121C101.265 127.959 101.045 127.867 100.815 127.865H96.4732C96.2427 127.865 96.0215 127.956 95.8579 128.119C95.6943 128.281 95.6016 128.502 95.6001 128.733V129.846C95.6001 131.633 97.0768 133.948 98.6414 133.948H98.7704C97.4284 132.143 98.2195 128.838 101.138 128.838Z" fill="black"/>
<path opacity="0.2" d="M111.481 128.985C111.677 128.985 111.873 129.003 112.067 129.037V128.727C112.067 128.613 112.044 128.5 112.001 128.395C111.957 128.29 111.893 128.194 111.813 128.113C111.732 128.033 111.636 127.969 111.531 127.925C111.426 127.882 111.313 127.859 111.199 127.859H106.857C106.626 127.859 106.405 127.951 106.242 128.113C106.078 128.276 105.985 128.496 105.984 128.727V129.84C105.984 131.598 107.437 133.901 108.99 133.942C107.824 132.12 108.638 128.985 111.481 128.985Z" fill="black"/>
<path opacity="0.2" d="M122.046 129.061C122.197 129.061 122.348 129.071 122.498 129.09V128.727C122.498 128.613 122.475 128.5 122.432 128.395C122.388 128.29 122.324 128.194 122.244 128.113C122.163 128.033 122.068 127.969 121.962 127.925C121.857 127.882 121.744 127.859 121.63 127.859H117.288C117.174 127.859 117.062 127.882 116.956 127.925C116.851 127.969 116.755 128.033 116.675 128.113C116.594 128.194 116.53 128.29 116.487 128.395C116.443 128.5 116.421 128.613 116.421 128.727V129.84C116.421 131.627 117.892 133.942 119.462 133.942H119.533C118.407 132.108 119.245 129.061 122.046 129.061Z" fill="black"/>
<path opacity="0.2" d="M132.243 128.838C132.467 128.838 132.691 128.86 132.911 128.902V128.733C132.909 128.502 132.817 128.281 132.653 128.119C132.489 127.956 132.268 127.865 132.038 127.865H127.695C127.466 127.867 127.246 127.959 127.084 128.121C126.922 128.283 126.83 128.503 126.828 128.733V129.846C126.828 131.633 128.305 133.948 129.869 133.948C128.533 132.155 129.319 128.838 132.243 128.838Z" fill="black"/>
<path opacity="0.2" d="M142.808 128.908C142.979 128.91 143.149 128.923 143.318 128.949V128.727C143.316 128.497 143.225 128.277 143.062 128.115C142.9 127.953 142.68 127.861 142.451 127.859H138.108C137.878 127.859 137.657 127.951 137.493 128.113C137.33 128.276 137.237 128.496 137.235 128.727V129.84C137.235 131.627 138.712 133.942 140.277 133.942H140.388C139.122 132.125 139.931 128.908 142.808 128.908Z" fill="black"/>
<path opacity="0.2" d="M153.602 129.131H153.725V128.721C153.725 128.491 153.634 128.27 153.471 128.108C153.309 127.945 153.088 127.854 152.858 127.854H148.516C148.286 127.854 148.065 127.945 147.902 128.108C147.74 128.27 147.648 128.491 147.648 128.721V129.834C147.648 131.621 149.119 133.936 150.684 133.936C150.798 133.934 150.912 133.921 151.024 133.895C150.016 132.067 150.854 129.131 153.602 129.131Z" fill="black"/>
<path opacity="0.2" d="M164.08 128.908H164.115V128.727C164.115 128.613 164.093 128.5 164.049 128.395C164.006 128.29 163.942 128.194 163.861 128.113C163.781 128.033 163.685 127.969 163.58 127.925C163.475 127.882 163.362 127.859 163.248 127.859H158.923C158.81 127.859 158.697 127.882 158.592 127.925C158.486 127.969 158.391 128.033 158.31 128.113C158.23 128.194 158.166 128.29 158.122 128.395C158.079 128.5 158.056 128.613 158.056 128.727V129.84C158.056 131.627 159.527 133.942 161.098 133.942C161.277 133.939 161.455 133.908 161.625 133.848C160.435 132.032 161.262 128.908 164.08 128.908Z" fill="black"/>
<path opacity="0.2" d="M174.212 128.686H174.54C174.531 128.461 174.436 128.249 174.274 128.093C174.113 127.937 173.898 127.849 173.673 127.848H169.354C169.125 127.849 168.905 127.941 168.743 128.103C168.58 128.266 168.488 128.485 168.487 128.715V129.828C168.487 131.616 169.964 133.93 171.528 133.93C171.671 133.926 171.813 133.904 171.95 133.866C170.479 132.12 171.241 128.686 174.212 128.686Z" fill="black"/>
<path opacity="0.2" d="M184.936 128.838V128.733C184.934 128.503 184.842 128.283 184.68 128.121C184.518 127.959 184.298 127.867 184.068 127.865H179.726C179.496 127.865 179.274 127.956 179.111 128.119C178.947 128.281 178.855 128.502 178.853 128.733V129.846C178.853 131.633 180.33 133.948 181.894 133.948C182.094 133.945 182.292 133.909 182.48 133.842C181.256 132.026 182.064 128.838 184.936 128.838Z" fill="black"/>
<path opacity="0.2" d="M195.138 128.838H195.373V128.721C195.373 128.607 195.35 128.494 195.307 128.389C195.263 128.284 195.199 128.188 195.119 128.108C195.038 128.027 194.943 127.963 194.837 127.92C194.732 127.876 194.619 127.854 194.505 127.854H190.163C189.933 127.854 189.713 127.945 189.55 128.108C189.387 128.27 189.296 128.491 189.296 128.721V129.834C189.296 131.621 190.767 133.936 192.331 133.936C192.47 133.934 192.608 133.915 192.742 133.878C191.435 132.084 192.238 128.838 195.138 128.838Z" fill="black"/>
<path opacity="0.2" d="M205.393 129.283C205.522 129.283 205.651 129.283 205.768 129.283V128.697C205.768 128.467 205.677 128.247 205.514 128.084C205.352 127.921 205.131 127.83 204.901 127.83H200.559C200.329 127.83 200.108 127.921 199.945 128.084C199.783 128.247 199.691 128.467 199.691 128.697V129.811C199.691 131.598 201.162 133.913 202.733 133.913C201.824 132.096 202.703 129.283 205.393 129.283Z" fill="black"/>
<path opacity="0.2" d="M85.9958 118.343H86.0719V118.056C86.0704 117.825 85.9777 117.604 85.8141 117.442C85.6506 117.279 85.4294 117.188 85.1988 117.188H80.8683C80.6382 117.188 80.4176 117.28 80.255 117.442C80.0923 117.605 80.001 117.826 80.001 118.056V119.169C80.001 120.956 81.4718 123.271 83.0423 123.271C83.1932 123.267 83.343 123.244 83.4877 123.201C82.3626 121.372 83.2123 118.343 85.9958 118.343Z" fill="black"/>
<path opacity="0.2" d="M96.1862 118.343H96.4792V118.044C96.4776 117.813 96.3849 117.593 96.2214 117.43C96.0578 117.268 95.8366 117.177 95.606 117.177H91.2638C91.0342 117.178 90.8145 117.27 90.6522 117.432C90.4899 117.595 90.398 117.814 90.3965 118.044V119.157C90.3965 120.944 91.8732 123.259 93.4378 123.259C93.5237 123.265 93.6098 123.265 93.6957 123.259C92.5412 121.425 93.3734 118.343 96.1862 118.343Z" fill="black"/>
<path opacity="0.2" d="M106.834 118.343H106.886V118.056C106.885 117.826 106.793 117.606 106.631 117.444C106.468 117.282 106.249 117.19 106.019 117.188H101.677C101.562 117.187 101.447 117.208 101.34 117.251C101.234 117.294 101.136 117.357 101.054 117.438C100.972 117.518 100.906 117.615 100.861 117.721C100.816 117.827 100.793 117.94 100.792 118.056V119.169C100.792 120.956 102.269 123.271 103.833 123.271C103.991 123.269 104.147 123.243 104.296 123.195C103.2 121.372 104.038 118.343 106.834 118.343Z" fill="black"/>
<path opacity="0.2" d="M117.024 118.29H117.294V118.067C117.294 117.837 117.202 117.617 117.04 117.454C116.877 117.291 116.656 117.2 116.426 117.2H112.084C111.854 117.2 111.633 117.291 111.471 117.454C111.308 117.617 111.217 117.837 111.217 118.067V119.181C111.217 120.968 112.688 123.283 114.252 123.283C114.359 123.28 114.464 123.269 114.569 123.248C113.356 121.425 114.176 118.29 117.024 118.29Z" fill="black"/>
<path opacity="0.2" d="M127.162 118.343C127.349 118.343 127.535 118.358 127.719 118.39V118.056C127.719 117.826 127.628 117.605 127.465 117.442C127.302 117.28 127.082 117.188 126.852 117.188H122.474C122.244 117.188 122.024 117.28 121.861 117.442C121.698 117.605 121.607 117.826 121.607 118.056V119.169C121.607 120.956 123.078 123.271 124.648 123.271C123.488 121.448 124.314 118.343 127.162 118.343Z" fill="black"/>
<path opacity="0.2" d="M137.64 117.968C137.796 117.968 137.953 117.978 138.109 117.997C138.092 117.778 137.994 117.573 137.833 117.423C137.672 117.273 137.461 117.189 137.241 117.188H132.899C132.669 117.19 132.45 117.282 132.287 117.444C132.125 117.606 132.033 117.826 132.032 118.056V119.169C132.032 120.956 133.508 123.271 135.073 123.271C135.186 123.269 135.297 123.255 135.407 123.23C133.884 121.489 134.628 117.968 137.64 117.968Z" fill="black"/>
<path opacity="0.2" d="M148.129 118.413C148.264 118.413 148.399 118.413 148.522 118.413V118.032C148.52 117.803 148.428 117.583 148.266 117.421C148.104 117.258 147.884 117.166 147.654 117.165H143.312C143.082 117.165 142.86 117.256 142.697 117.418C142.533 117.581 142.441 117.802 142.439 118.032V119.145C142.439 120.933 143.916 123.247 145.48 123.247H145.597C144.502 121.431 145.328 118.413 148.129 118.413Z" fill="black"/>
<path opacity="0.2" d="M158.929 118.056C158.929 117.826 158.837 117.605 158.675 117.442C158.512 117.28 158.292 117.188 158.062 117.188H153.719C153.605 117.188 153.493 117.211 153.387 117.254C153.282 117.298 153.187 117.362 153.106 117.442C153.026 117.523 152.962 117.618 152.918 117.724C152.874 117.829 152.852 117.942 152.852 118.056V119.169C152.852 120.956 154.323 123.271 155.888 123.271C156.2 123.263 156.506 123.179 156.778 123.025C155.595 121.279 156.309 118.29 158.929 118.056Z" fill="black"/>
<path opacity="0.2" d="M169.354 118.29V118.067C169.354 117.837 169.263 117.617 169.1 117.454C168.937 117.291 168.717 117.2 168.487 117.2H164.145C163.915 117.2 163.694 117.291 163.531 117.454C163.369 117.617 163.277 117.837 163.277 118.067V119.181C163.277 120.968 164.748 123.283 166.319 123.283C166.57 123.279 166.818 123.221 167.045 123.113C165.973 121.325 166.741 118.437 169.354 118.29Z" fill="black"/>
<path opacity="0.2" d="M179.386 118.114C179.509 118.114 179.632 118.114 179.75 118.114V118.038C179.748 117.807 179.655 117.587 179.492 117.424C179.328 117.262 179.107 117.171 178.877 117.171H174.534C174.305 117.172 174.085 117.264 173.923 117.426C173.76 117.589 173.669 117.808 173.667 118.038V119.151C173.667 120.939 175.144 123.253 176.708 123.253C176.819 123.252 176.929 123.238 177.036 123.212C175.677 121.448 176.456 118.114 179.386 118.114Z" fill="black"/>
<path opacity="0.2" d="M190.157 118.495V118.056C190.155 117.826 190.063 117.606 189.901 117.444C189.739 117.282 189.519 117.19 189.29 117.188H184.947C184.717 117.188 184.496 117.279 184.332 117.442C184.168 117.604 184.076 117.825 184.074 118.056V119.169C184.074 120.956 185.551 123.271 187.116 123.271C187.293 123.268 187.469 123.238 187.637 123.183C186.682 121.366 187.52 118.565 190.157 118.495Z" fill="black"/>
<path opacity="0.2" d="M200.072 118.19C200.237 118.193 200.401 118.204 200.565 118.225V118.056C200.565 117.825 200.473 117.605 200.311 117.442C200.148 117.28 199.927 117.188 199.697 117.188H195.355C195.241 117.188 195.128 117.211 195.023 117.254C194.918 117.298 194.822 117.362 194.742 117.442C194.661 117.523 194.597 117.618 194.554 117.724C194.51 117.829 194.488 117.942 194.488 118.056V119.169C194.488 120.956 195.959 123.271 197.523 123.271C197.578 123.274 197.633 123.274 197.687 123.271C196.375 121.46 197.172 118.19 200.072 118.19Z" fill="black"/>
<path opacity="0.2" d="M210.567 118.642C210.702 118.632 210.837 118.632 210.972 118.642V118.056C210.972 117.826 210.88 117.605 210.718 117.442C210.555 117.28 210.335 117.188 210.105 117.188H205.762C205.532 117.188 205.312 117.28 205.149 117.442C204.986 117.605 204.895 117.826 204.895 118.056V119.169C204.895 120.927 206.354 123.271 207.919 123.271C207.005 121.425 207.889 118.642 210.567 118.642Z" fill="black"/>
<path opacity="0.2" d="M185.979 145.457V139.679C185.979 139.287 185.662 138.97 185.27 138.97H105.691C105.3 138.97 104.982 139.287 104.982 139.679V145.457C104.982 145.849 105.3 146.166 105.691 146.166H185.27C185.662 146.166 185.979 145.849 185.979 145.457Z" fill="black"/>
<path opacity="0.2" d="M196.75 140.974V140.388C196.75 140.274 196.727 140.161 196.684 140.056C196.64 139.951 196.576 139.855 196.496 139.775C196.415 139.694 196.32 139.63 196.214 139.587C196.109 139.543 195.996 139.521 195.882 139.521H191.54C191.426 139.521 191.313 139.543 191.208 139.587C191.103 139.63 191.007 139.694 190.927 139.775C190.846 139.855 190.782 139.951 190.739 140.056C190.695 140.161 190.673 140.274 190.673 140.388V141.501C190.673 143.289 192.144 145.603 193.714 145.603C193.845 145.6 193.974 145.583 194.101 145.551C193.234 143.722 194.119 140.992 196.75 140.974Z" fill="black"/>
<path opacity="0.2" d="M99.7843 140.599C99.955 140.6 100.125 140.614 100.294 140.64V140.394C100.293 140.163 100.2 139.943 100.036 139.78C99.8727 139.618 99.6515 139.527 99.421 139.527H95.0787C94.8492 139.528 94.6295 139.62 94.4671 139.782C94.3048 139.945 94.213 140.164 94.2114 140.394V141.507C94.2114 143.295 95.6881 145.609 97.2528 145.609H97.3524C96.1042 143.793 96.9246 140.599 99.7843 140.599Z" fill="black"/>
<path opacity="0.2" d="M73.6601 18.377H217.3C218.287 18.377 219.234 18.769 219.932 19.4668C220.629 20.1647 221.021 21.1112 221.021 22.0981V54.9141H69.939V22.0981C69.939 21.1112 70.331 20.1647 71.0288 19.4668C71.7267 18.769 72.6732 18.377 73.6601 18.377Z" fill="black"/>
<path d="M205.557 24.5651H85.4273C84.4256 16.2459 82.6601 8.03656 80.1533 0.0410156H210.855C208.309 8.02743 206.535 16.2398 205.557 24.5651Z" fill="white"/>
<path opacity="0.2" d="M206.741 16.6599C205.867 21.43 205.569 24.5651 205.569 24.5651H85.4386C85.4386 24.5651 85.1339 21.4886 84.2373 16.6599H206.741Z" fill="black"/>
<path d="M205.557 24.5651H85.4273C84.4256 16.2459 82.6601 8.03656 80.1533 0.0410156H210.855C208.308 8.02743 206.535 16.2398 205.557 24.5651V24.5651Z" stroke="#263238" stroke-linecap="round" stroke-linejoin="round"/>
<path d="M203.922 45.2158H86.0718V93.7015H203.922V45.2158Z" fill="#263238"/>
<g opacity="0.4">
<path opacity="0.4" d="M142.058 89.4118L142.679 89.4411C143.461 77.35 144.242 65.2393 145.023 53.1091C144.027 65.2432 143.039 77.3441 142.058 89.4118Z" fill="white"/>
<path opacity="0.4" d="M140.054 89.2595L140.675 89.3122C142.03 77.2992 143.384 65.2335 144.736 53.115C143.177 65.2413 141.616 77.2894 140.054 89.2595Z" fill="white"/>
<path opacity="0.4" d="M138.103 89.0368C138.308 89.0368 138.519 89.0837 138.724 89.1071C140.646 77.223 142.58 65.2237 144.525 53.1091C142.376 65.2354 140.236 77.2113 138.103 89.0368Z" fill="white"/>
<path opacity="0.4" d="M136.127 88.7379L136.754 88.8375C139.247 77.1175 141.759 65.2022 144.29 53.0916C141.556 65.2139 138.835 77.0961 136.127 88.7379Z" fill="white"/>
<path opacity="0.4" d="M134.159 88.3688L134.792 88.4977C137.839 77.0004 140.927 65.2022 144.056 53.1033C140.728 65.2061 137.429 76.9613 134.159 88.3688Z" fill="white"/>
<path opacity="0.4" d="M132.202 87.9234L132.835 88.0816C136.427 76.8421 140.119 65.1866 143.822 53.0974C139.902 65.1866 135.993 76.7894 132.202 87.9234Z" fill="white"/>
<path opacity="0.4" d="M130.25 87.396L130.889 87.5835C134.991 76.6605 139.286 65.1632 143.587 53.0857C139.069 65.1632 134.569 76.596 130.25 87.396Z" fill="white"/>
<path opacity="0.4" d="M128.334 86.7983L128.973 87.0034C133.608 76.4554 138.472 65.1397 143.371 53.0798C138.232 65.1397 133.145 76.3733 128.334 86.7983Z" fill="white"/>
<path opacity="0.4" d="M126.388 86.1127L127.033 86.3471C132.166 76.1975 137.622 65.1104 143.118 53.0681C137.393 65.1104 131.709 76.0979 126.388 86.1127Z" fill="white"/>
<path opacity="0.4" d="M124.49 85.3391L125.134 85.6087C130.737 75.9163 136.784 65.0987 142.884 53.0564C136.538 65.0753 130.274 75.8342 124.49 85.3391Z" fill="white"/>
<path opacity="0.4" d="M122.609 84.4719L123.253 84.7824C129.301 75.6115 135.94 65.0342 142.65 53.0447C135.7 65.0342 128.832 75.5119 122.609 84.4719Z" fill="white"/>
<path opacity="0.4" d="M120.757 83.5108L121.401 83.8624C127.847 75.2658 135.096 64.9874 142.415 53.0271C135.74 63.5642 128.51 73.7398 120.757 83.5108Z" fill="white"/>
<path opacity="0.4" d="M118.958 82.456C119.169 82.5908 119.392 82.7138 119.608 82.8428C127.741 73.37 135.287 63.409 142.205 53.0154C135.126 63.3398 127.359 73.1756 118.958 82.456Z" fill="white"/>
<path opacity="0.4" d="M117.159 81.2899L117.797 81.7294C126.573 72.793 134.647 63.1932 141.946 53.0154C134.495 63.1218 126.203 72.5803 117.159 81.2899Z" fill="white"/>
<path opacity="0.4" d="M141.712 52.9802C132.284 64.7881 123.06 73.7949 115.442 80.0183L116.069 80.5046C125.474 72.1676 134.061 62.9509 141.712 52.9802Z" fill="white"/>
<path opacity="0.4" d="M141.478 52.9626C131.434 64.6826 121.619 73.25 113.772 78.6412L114.393 79.1744C122.134 73.4433 131.698 64.7119 141.478 52.9626Z" fill="white"/>
<path opacity="0.4" d="M141.226 52.9451C130.578 64.5772 120.206 72.6405 112.184 77.141C112.377 77.3402 112.57 77.5395 112.77 77.727C120.716 72.8632 130.859 64.6065 141.226 52.9451Z" fill="white"/>
<path opacity="0.4" d="M141.009 52.9216C129.781 64.4365 118.87 71.9666 110.719 75.5412L111.305 76.18C119.374 72.2128 130.039 64.4717 141.009 52.9216Z" fill="white"/>
<path opacity="0.4" d="M109.371 73.8301C109.541 74.0645 109.717 74.2989 109.893 74.5275C118.067 71.5096 129.231 64.3076 140.781 52.9041C128.996 64.2549 117.593 71.2224 109.371 73.8301Z" fill="white"/>
<path opacity="0.4" d="M108.175 72.0487C108.328 72.2948 108.486 72.5409 108.644 72.787C116.848 70.7243 128.498 64.0967 140.546 52.863C128.263 64.0322 116.409 70.4137 108.175 72.0487Z" fill="white"/>
<path opacity="0.4" d="M107.156 70.2379C107.285 70.4958 107.419 70.7478 107.554 71.0056C115.758 69.8922 127.806 63.8505 140.312 52.8689C127.601 63.7451 115.36 69.5347 107.156 70.2379Z" fill="white"/>
<path opacity="0.4" d="M106.324 68.3862C106.429 68.644 106.541 68.9077 106.652 69.1656C114.809 68.9663 127.162 63.5224 140.054 52.8279C127.015 63.411 114.469 68.5913 106.324 68.3862Z" fill="white"/>
<path opacity="0.4" d="M144.044 89.4939H144.66C144.847 77.3832 145.043 65.2569 145.246 53.115C144.836 65.2491 144.435 77.3754 144.044 89.4939Z" fill="white"/>
<path opacity="0.4" d="M146.025 89.5056H146.647C146.256 77.3949 145.865 65.2686 145.475 53.1267L146.025 89.5056Z" fill="white"/>
<path opacity="0.4" d="M148.006 89.4528H148.627C147.651 77.3812 146.674 65.2706 145.697 53.1208C146.467 65.255 147.236 77.3656 148.006 89.4528Z" fill="white"/>
<path opacity="0.4" d="M150.016 89.3298L150.637 89.2829C149.075 77.3012 147.512 65.2452 145.949 53.115C147.293 65.2452 148.649 77.3168 150.016 89.3298Z" fill="white"/>
<path opacity="0.4" d="M151.967 89.1423L152.589 89.0661C150.463 77.225 148.315 65.2393 146.143 53.1091C148.1 65.2393 150.041 77.2504 151.967 89.1423Z" fill="white"/>
<path opacity="0.4" d="M153.942 88.8786L154.569 88.7848C151.874 77.1234 149.149 65.2315 146.395 53.1091C148.926 65.2354 151.442 77.1586 153.942 88.8786Z" fill="white"/>
<path opacity="0.4" d="M155.911 88.5446L156.538 88.4273C153.284 76.9964 149.981 65.2218 146.629 53.1033C149.746 65.2218 152.841 77.0355 155.911 88.5446Z" fill="white"/>
<path opacity="0.4" d="M157.868 88.1344L158.507 87.9879C154.71 76.8539 150.795 65.21 146.863 53.0974C150.579 65.212 154.247 76.891 157.868 88.1344Z" fill="white"/>
<path opacity="0.4" d="M159.826 87.6538L160.458 87.4722C156.134 76.6488 151.627 65.2042 147.098 53.0857C151.405 65.1925 155.694 76.6839 159.826 87.6538Z" fill="white"/>
<path opacity="0.4" d="M161.765 87.0854L162.41 86.8745C157.564 76.4319 152.448 65.1925 147.332 53.0798C152.243 65.169 157.118 76.4964 161.765 87.0854Z" fill="white"/>
<path opacity="0.4" d="M163.693 86.435L164.338 86.1947C159.005 76.18 153.309 65.1456 147.566 53.0681C153.081 65.1456 158.548 76.2561 163.693 86.435Z" fill="white"/>
<path opacity="0.4" d="M165.603 85.7025C165.82 85.6087 166.043 85.5266 166.254 85.4329C160.453 75.9045 154.159 65.1163 147.801 53.0564C153.924 65.1163 159.978 75.9866 165.603 85.7025Z" fill="white"/>
<path opacity="0.4" d="M167.496 84.8879L168.147 84.5773C161.906 75.594 155.009 65.087 148.035 53.0505C154.768 65.0753 161.425 75.6877 167.496 84.8879Z" fill="white"/>
<path opacity="0.4" d="M169.354 83.9679C169.571 83.8565 169.787 83.7335 169.998 83.6163C162.216 73.8111 154.959 63.6004 148.258 53.0271C155.618 65.0401 162.908 75.3478 169.354 83.9679Z" fill="white"/>
<path opacity="0.4" d="M171.194 82.9541L171.85 82.5673C163.412 73.2529 155.613 63.3799 148.504 53.0154C155.447 63.45 163.025 73.4484 171.194 82.9541Z" fill="white"/>
<path opacity="0.4" d="M148.738 52.9978C156.067 63.2232 164.176 72.8663 172.993 81.8407L173.643 81.4012C164.554 72.6545 156.222 63.1526 148.738 52.9978Z" fill="white"/>
<path opacity="0.4" d="M148.973 52.9802C156.66 62.9988 165.294 72.2534 174.757 80.616C174.973 80.4578 175.179 80.2937 175.39 80.1296C167.748 73.9063 158.454 64.8584 148.973 52.9802Z" fill="white"/>
<path opacity="0.4" d="M149.207 52.9626C159.052 64.7823 168.674 73.5488 176.438 79.2799C176.649 79.1041 176.866 78.9283 177.071 78.7466C169.195 73.3672 159.316 64.7764 149.207 52.9626Z" fill="white"/>
<path opacity="0.4" d="M149.43 52.9451C159.89 64.6651 170.086 72.9804 178.056 77.8383C178.261 77.645 178.454 77.4399 178.642 77.2523C170.614 72.7577 160.165 64.6651 149.43 52.9451Z" fill="white"/>
<path opacity="0.4" d="M149.676 52.9216C160.734 64.5596 171.481 72.3358 179.562 76.2737L180.148 75.6291C171.997 72.0956 160.997 64.5362 149.676 52.9216Z" fill="white"/>
<path opacity="0.4" d="M181.01 74.6095C181.191 74.3751 181.361 74.1407 181.537 73.9004C173.304 71.3513 161.795 64.3604 149.893 52.9041C161.543 64.4072 172.817 71.6326 181.01 74.6095Z" fill="white"/>
<path opacity="0.4" d="M182.281 72.8456L182.762 72.0955C174.517 70.5426 162.551 64.1435 150.139 52.8806C162.322 64.208 174.042 70.8532 182.281 72.8456Z" fill="white"/>
<path opacity="0.4" d="M183.418 71.0232C183.559 70.7653 183.693 70.5075 183.828 70.2438C175.624 69.6578 163.254 63.8623 150.426 52.8572C163.014 63.956 175.214 70.0094 183.418 71.0232Z" fill="white"/>
<path opacity="0.4" d="M150.602 52.8279C163.635 63.6454 176.152 69.0894 184.297 69.1714C184.414 68.9077 184.526 68.644 184.637 68.3803C176.503 68.7143 163.822 63.5282 150.602 52.8279Z" fill="white"/>
</g>
<path opacity="0.2" d="M128.334 53.9882C126.113 59.6841 128.516 76.2562 144.543 76.2562C160.57 76.2562 166.389 64.6123 165.738 57.4163L187.133 53.9706C187.133 53.9706 193.691 72.0897 179.767 84.7649C165.844 97.44 117.581 96.6197 107.379 86.9858C97.1764 77.352 102.837 58.3187 102.837 58.3187L128.334 53.9882Z" fill="black"/>
<path d="M222.235 29.4114V25.4148C222.234 25.267 222.282 25.1229 222.369 25.0037C222.457 24.8845 222.58 24.7965 222.721 24.7527L225.651 23.8385V19.842C225.651 19.3633 225.841 18.9042 226.18 18.5657C226.518 18.2273 226.977 18.0371 227.456 18.0371H230.972C231.145 18.0338 231.313 18.098 231.44 18.2161C231.567 18.3342 231.643 18.4969 231.652 18.67V19.9592C231.652 20.1354 231.582 20.3044 231.458 20.4295C231.334 20.5546 231.166 20.6257 230.99 20.6272H226.519V24.5358C226.516 24.6537 226.485 24.7691 226.426 24.8715C226.368 24.9739 226.285 25.06 226.185 25.1218L223.688 26.6337V29.4172L222.235 29.4114Z" fill="#999999" stroke="#263238" stroke-linecap="round" stroke-linejoin="round"/>
<path d="M226.091 29.4114H222.235V40.9439H226.091V29.4114Z" fill="#263238"/>
<path d="M230.914 28.4327H226.091V41.9224H230.914V28.4327Z" fill="#757575"/>
<path opacity="0.2" d="M230.902 36.6484H226.091V41.9224H230.902V36.6484Z" fill="black"/>
<path d="M230.914 28.4327H226.091V41.9224H230.914V28.4327Z" stroke="#263238" stroke-linecap="round" stroke-linejoin="round"/>
<path d="M64.8702 40.938H68.7261V29.4055H64.8702V40.938Z" fill="#263238"/>
<path d="M60.0473 41.9166H64.8701V28.4269H60.0473V41.9166Z" fill="#757575"/>
<path opacity="0.2" d="M64.876 36.6484H60.0532V41.7935H64.876V36.6484Z" fill="black"/>
<path d="M60.0473 41.9166H64.8701V28.4269H60.0473V41.9166Z" stroke="#263238" stroke-linecap="round" stroke-linejoin="round"/>
<path d="M68.146 35.8632C68.4942 34.9496 68.5481 33.9501 68.3001 33.0044C68.0521 32.0588 67.5147 31.2143 66.763 30.5892L63.9268 28.2452C63.7463 28.0931 63.5365 27.9798 63.3103 27.9125C63.0841 27.8451 62.8465 27.8251 62.6122 27.8537C62.378 27.8823 62.1521 27.9589 61.9488 28.0787C61.7455 28.1985 61.569 28.3589 61.4304 28.5499L50.1851 44.0613C49.9711 44.3515 49.8561 44.7028 49.8569 45.0634V61.7234C49.8569 61.947 49.9013 62.1684 49.9876 62.3747C50.0739 62.581 50.2003 62.7681 50.3595 62.9251C50.5187 63.0821 50.7075 63.2059 50.915 63.2894C51.1225 63.3728 51.3445 63.4142 51.5681 63.411C52.0157 63.411 52.4449 63.2332 52.7614 62.9167C53.0779 62.6002 53.2557 62.171 53.2557 61.7234V48.1926C53.2568 47.8586 53.3612 47.5331 53.5546 47.2609L61.9637 35.5409C62.0373 35.438 62.1315 35.3515 62.2403 35.2869C62.3491 35.2222 62.4701 35.1809 62.5957 35.1655C62.7213 35.1501 62.8487 35.1609 62.9699 35.1973C63.0911 35.2336 63.2034 35.2948 63.2998 35.3768L64.8468 36.6894C65.2298 37.0145 65.7157 37.1931 66.2181 37.1934C66.6358 37.1909 67.0432 37.0627 67.387 36.8254C67.7309 36.5882 67.9954 36.2529 68.146 35.8632Z" fill="white" stroke="#263238" stroke-linecap="round" stroke-linejoin="round"/>
<path d="M65.8253 34.3455C66.2687 34.3455 66.6281 33.9861 66.6281 33.5427C66.6281 33.0993 66.2687 32.7399 65.8253 32.7399C65.3819 32.7399 65.0225 33.0993 65.0225 33.5427C65.0225 33.9861 65.3819 34.3455 65.8253 34.3455Z" fill="#999999" stroke="#263238" stroke-linecap="round" stroke-linejoin="round"/>
<path d="M218.66 23.8385H72.3066V46.505H218.66V23.8385Z" fill="#263238"/>
<path opacity="0.2" d="M216.545 25.5437H74.3634C73.9167 25.5437 73.5547 25.9058 73.5547 26.3524V30.0207C73.5547 30.4674 73.9167 30.8294 74.3634 30.8294H216.545C216.991 30.8294 217.353 30.4674 217.353 30.0207V26.3524C217.353 25.9058 216.991 25.5437 216.545 25.5437Z" fill="white"/>
<path d="M205.557 51.064H85.4273C82.042 43.3259 80.2484 34.9856 80.1533 26.5399H210.855C210.855 37.8966 205.557 51.064 205.557 51.064Z" fill="white"/>
<g opacity="0.7">
<path opacity="0.7" d="M95.1431 49.224C95.1431 49.224 97.7742 49.0834 99.2451 48.1985C100.716 47.3137 100.61 48.9955 101.454 49.1068C102.298 49.2182 104.291 48.5208 105.345 48.5208C106.4 48.5208 105.597 49.1654 106.787 49.1068C107.976 49.0482 107.338 49.1654 107.959 49.0482L113.051 48.1985C113.051 48.1985 115.635 47.7004 116.157 47.9524C116.679 48.2044 117.364 49.4467 118.126 49.1244C118.888 48.8021 118.483 48.5384 119.632 48.5384C120.342 48.5417 121.048 48.6443 121.73 48.8431C121.73 48.8431 121.835 48.5443 122.363 48.5384H123.306C123.306 48.5384 125.304 49.0658 125.621 49.0658C125.937 49.0658 128.299 48.5443 128.381 48.5384C128.463 48.5325 130.725 47.9524 130.725 47.9524C131.205 48.454 131.813 48.8147 132.483 48.9955C133.339 49.1068 134.241 48.8783 134.886 49.1654C135.53 49.4526 137.652 49.0482 137.652 49.0482C138.158 49.0515 138.663 49.0907 139.163 49.1654C139.82 49.3153 140.504 49.2951 141.15 49.1068C142.338 48.7926 143.585 48.7725 144.783 49.0482C146.688 49.394 148.44 48.5267 149.248 48.5208C150.057 48.515 153.292 48.8783 154.405 48.8783C155.519 48.8783 158.466 49.2768 160.517 49.0482C162.568 48.8197 163.91 49.3354 165.287 49.3354C166.664 49.3354 168.135 49.2768 168.452 49.2768C168.768 49.2768 170.292 48.2806 172.472 48.5208C174.652 48.7611 172.712 48.222 174.054 48.5208C175.396 48.8197 176.456 49.1068 177.025 49.1654C177.481 49.192 177.938 49.1724 178.39 49.1068L180.734 48.9369H192.419" stroke="#263238" stroke-linecap="round" stroke-linejoin="round"/>
<path opacity="0.7" d="M92.7109 44.7001C92.7109 44.7001 99.948 44.7001 101.255 44.5829C102.562 44.4657 103.259 43.7977 103.956 43.7977C104.654 43.7977 108.175 44.4657 108.175 44.4657C108.278 44.2472 108.446 44.0657 108.656 43.9461C108.866 43.8266 109.107 43.7747 109.347 43.7977C110.303 43.7977 109.816 43.8856 110.695 44.2372C111.574 44.5888 111.117 44.2372 111.58 44.5829C112.27 44.8928 113 45.1058 113.748 45.2158C113.748 45.2158 117.012 45.3681 117.135 44.5829C117.258 43.7977 118.893 45.2158 118.893 45.2158C118.893 45.2158 123.324 44.5829 125.035 44.5829C126.746 44.5829 131.035 44.2372 131.035 44.2372C131.035 44.2372 134.551 44.7001 134.715 44.7001C134.879 44.7001 135.46 45.6201 136.087 45.2158C136.714 44.8114 137.317 44.3485 138.061 44.4657C138.753 44.6371 139.421 44.8889 140.054 45.2158L141.689 44.3485L143.564 44.4657C143.564 44.4657 145.474 45.7373 146.84 45.2158C147.879 44.8003 148.895 44.3269 149.881 43.7977L151.563 45.2158H152.665L155.929 44.5829C156.18 44.8917 156.518 45.1173 156.9 45.2302C157.282 45.3432 157.689 45.3381 158.068 45.2158C159.45 44.8173 172.665 45.2158 176.028 45.2158C179.392 45.2158 180.13 44.3485 180.13 44.3485L182.721 45.2158H195.613" stroke="#263238" stroke-linecap="round" stroke-linejoin="round"/>
</g>
<path opacity="0.2" d="M206.782 47.677C206.073 49.7866 205.557 51.0641 205.557 51.0641H85.4274C85.4274 51.0641 84.8414 49.8335 84.0386 47.677H206.782Z" fill="black"/>
<path opacity="0.2" d="M209.284 38.8049C208.88 40.5629 208.434 42.2799 207.995 43.7976H82.7316C82.2979 42.3092 81.8526 40.6274 81.4658 38.8049H209.284Z" fill="black"/>
<path d="M205.557 51.064H85.4273C82.042 43.3259 80.2484 34.9856 80.1533 26.5399H210.855C210.855 37.8966 205.557 51.064 205.557 51.064Z" stroke="#263238" stroke-linecap="round" stroke-linejoin="round"/>
<path d="M72.2772 22.6724H68.6968V47.6828H72.2772V22.6724Z" fill="#757575"/>
<path opacity="0.2" d="M72.2069 40.264H68.7202V47.6828H72.2069V40.264Z" fill="black"/>
<path d="M72.2772 22.6724H68.6968V47.6828H72.2772V22.6724Z" stroke="#263238" stroke-linecap="round" stroke-linejoin="round"/>
<path d="M222.264 22.6724H218.684V47.6828H222.264V22.6724Z" fill="#757575"/>
<path opacity="0.2" d="M222.264 40.264H218.654V47.6828H222.264V40.264Z" fill="black"/>
<path d="M222.264 22.6724H218.684V47.6828H222.264V22.6724Z" stroke="#263238" stroke-linecap="round" stroke-linejoin="round"/>
<path d="M218.713 21.6234V39.8656H72.2482V21.6234H70.8418V41.0903H220.119V21.6234H218.713Z" fill="#999999" stroke="#263238" stroke-linecap="round" stroke-linejoin="round"/>
<path d="M227.368 52.3532V93.2618C227.368 93.9519 227.094 94.6137 226.606 95.1016C226.118 95.5896 225.456 95.8637 224.766 95.8637H66.177C65.487 95.8637 64.8252 95.5896 64.3373 95.1016C63.8493 94.6137 63.5752 93.9519 63.5752 93.2618V52.3532C63.5752 51.6631 63.8493 51.0013 64.3373 50.5134C64.8252 50.0255 65.487 49.7513 66.177 49.7513H139.251V52.3532C139.251 52.3532 126.775 63.1766 105.263 67.1673C108.346 81.1199 125.187 91.7793 145.51 91.7793C165.832 91.7793 182.674 81.1082 185.762 67.1673C164.221 63.1766 151.745 52.3532 151.745 52.3532V49.7279H224.784C225.126 49.7302 225.464 49.8 225.78 49.9332C226.095 50.0665 226.381 50.2606 226.621 50.5045C226.861 50.7483 227.05 51.0371 227.178 51.3544C227.307 51.6716 227.371 52.011 227.368 52.3532Z" fill="white" stroke="#263238" stroke-linecap="round" stroke-linejoin="round"/>
<path d="M227.368 52.3532V93.2618C227.368 93.604 227.301 93.9428 227.169 94.2589C227.038 94.5749 226.846 94.862 226.604 95.1037C226.362 95.3454 226.074 95.5369 225.758 95.6673C225.441 95.7977 225.103 95.8644 224.76 95.8637H66.177C65.8349 95.8644 65.4959 95.7977 65.1796 95.6673C64.8632 95.5369 64.5757 95.3454 64.3335 95.1037C64.0912 94.862 63.8991 94.5749 63.7679 94.2589C63.6368 93.9428 63.5693 93.604 63.5693 93.2618V52.3532C63.5709 51.6621 63.8461 50.9997 64.3348 50.511C64.8235 50.0223 65.4859 49.747 66.177 49.7455H139.251V52.3532C139.251 52.3532 126.769 63.1707 105.263 67.1673C108.346 81.1199 125.187 91.7792 145.516 91.7792C165.844 91.7792 182.674 81.1082 185.762 67.1673C164.221 63.1707 151.745 52.3532 151.745 52.3532V49.7279H224.784C225.474 49.7341 226.134 50.014 226.619 50.5062C227.103 50.9983 227.373 51.6626 227.368 52.3532Z" fill="white"/>
<path opacity="0.2" d="M223.852 52.9803V90.748C223.852 90.9991 223.802 91.2477 223.706 91.4795C223.609 91.7114 223.468 91.9218 223.29 92.0988C223.112 92.2758 222.9 92.4159 222.668 92.5109C222.436 92.6059 222.187 92.654 221.936 92.6525H67.7356C67.4852 92.6533 67.2372 92.6045 67.0058 92.5091C66.7744 92.4137 66.5642 92.2734 66.3872 92.0964C66.2102 91.9194 66.0699 91.7091 65.9745 91.4777C65.879 91.2463 65.8303 90.9983 65.8311 90.748V52.9803C65.8303 52.7294 65.8789 52.4809 65.9742 52.2488C66.0695 52.0167 66.2096 51.8057 66.3865 51.6278C66.5633 51.4498 66.7735 51.3085 67.0049 51.2117C67.2364 51.115 67.4847 51.0649 67.7356 51.0641H139.228V52.3533C139.228 52.3533 126.746 63.1708 105.24 67.1674C108.322 81.12 125.164 91.7794 145.492 91.7794C165.82 91.7794 182.65 81.1083 185.738 67.1674C164.197 63.1708 151.721 52.3533 151.721 52.3533V51.0641H221.953C222.458 51.0687 222.941 51.2727 223.297 51.6315C223.652 51.9904 223.852 52.4751 223.852 52.9803Z" fill="white"/>
<path d="M227.368 52.3532V93.2618C227.368 93.604 227.301 93.9428 227.169 94.2589C227.038 94.5749 226.846 94.862 226.604 95.1037C226.362 95.3454 226.074 95.5369 225.758 95.6673C225.441 95.7977 225.103 95.8644 224.76 95.8637H66.177C65.8349 95.8644 65.4959 95.7977 65.1796 95.6673C64.8632 95.5369 64.5757 95.3454 64.3335 95.1037C64.0912 94.862 63.8991 94.5749 63.7679 94.2589C63.6368 93.9428 63.5693 93.604 63.5693 93.2618V52.3532C63.5709 51.6621 63.8461 50.9997 64.3348 50.511C64.8235 50.0223 65.4859 49.747 66.177 49.7455H139.251V52.3532C139.251 52.3532 126.769 63.1707 105.263 67.1673C108.346 81.1199 125.187 91.7792 145.516 91.7792C165.844 91.7792 182.674 81.1082 185.762 67.1673C164.221 63.1707 151.745 52.3532 151.745 52.3532V49.7279H224.784C225.474 49.7341 226.134 50.014 226.619 50.5062C227.103 50.9983 227.373 51.6626 227.368 52.3532V52.3532Z" stroke="#263238" stroke-linecap="round" stroke-linejoin="round"/>
<path opacity="0.2" d="M174.98 107.988L182.768 129.711C182.768 129.711 186.137 105.802 188.147 105.802C190.157 105.802 194.488 118.876 194.488 118.876C194.488 118.876 197.16 112.055 199.691 111.809C202.223 111.563 204.514 128.557 204.514 128.557L204.907 166.278L201.713 223.325C201.713 223.325 181.338 200.881 175.396 195.097C169.454 189.313 163.775 176.585 162.134 174.001C160.494 171.417 160.078 157.886 160.078 157.886C162.155 155.228 163.241 151.929 163.148 148.557C163.148 148.557 167.93 140.552 167.637 134.645C167.344 128.738 166.606 105.785 174.98 107.988Z" fill="black" fill-opacity="0.7"/>
<path d="M236.281 213.222L205.434 229.448C205.434 229.284 201.379 222.715 196.48 215.285C194.265 211.921 191.874 208.388 189.606 205.188C185.891 199.955 181.168 195.437 180.764 194.452C179.592 191.522 170.555 180.553 168.534 176.286C166.512 172.02 166.049 158.747 165.158 155.624C164.268 152.501 166.823 149.518 168.874 148.065C170.925 146.611 173.075 142.791 173.075 142.791C173.075 142.791 170.807 133.954 170.784 129.459C170.761 124.965 169.231 109.277 171.059 107.812C172.888 106.347 174.523 106.963 174.98 107.971C176.48 111.293 177.828 119.65 178.982 123.5C180.137 127.35 182.305 138.519 183.371 139.322C184.438 140.124 186.336 137.112 186.336 137.112C186.336 137.112 186.518 127.736 186.922 123.851L186.336 111.545C186.336 111.545 185.241 104.15 187.79 103.447C191.306 102.48 192.589 104.689 192.988 105.621C193.386 106.552 195.027 111.92 195.027 111.92L195.121 112.289C195.121 112.325 195.121 112.36 195.121 112.401V112.465C195.148 112.567 195.177 112.678 195.208 112.799C195.273 113.045 195.349 113.338 195.431 113.672C196.211 116.725 197.711 122.837 197.646 124.343C197.558 126.377 196.849 137.64 197.851 139.978L199.41 124.42C199.41 124.42 196.896 112.43 197.629 110.701C198.361 108.973 201.813 110.883 202.223 111.563C202.633 112.242 205.985 116.356 206.583 117.927L207.169 119.497C207.169 119.497 207.995 115.782 209.935 116.749C211.874 117.716 212.115 122.439 212.249 124.502C212.384 126.564 213.791 139.831 214.007 139.855C214.224 139.878 216.463 146.77 216.158 151.323C215.519 161.068 217.207 168.317 217.266 172.056C217.324 175.794 214.505 184.455 214.505 184.455C214.605 184.625 216.445 187.754 216.949 190.503C217.318 192.519 223.887 199.803 229.255 205.598C232.988 209.595 236.117 212.865 236.281 213.222Z" fill="white"/>
<path opacity="0.4" d="M196.486 215.296C194.271 211.933 191.88 208.399 189.612 205.2C185.897 199.967 181.174 195.449 180.769 194.464C179.597 191.534 170.561 180.564 168.54 176.298C166.518 172.032 166.055 158.759 165.164 155.636C164.274 152.512 166.829 149.53 168.88 148.076C170.931 146.623 173.081 142.802 173.081 142.802C173.081 142.802 170.813 133.965 170.79 129.471C170.766 124.976 169.237 109.289 171.065 107.824C172.894 106.359 174.529 106.974 174.986 107.982C176.486 111.305 177.834 119.661 178.988 123.511C180.142 127.361 182.311 138.53 183.377 139.333C184.444 140.136 186.342 137.124 186.342 137.124C186.342 137.124 186.524 127.748 186.928 123.863L186.342 111.557C186.342 111.557 185.246 104.162 187.796 103.458C191.312 102.491 192.595 104.701 192.993 105.632C193.392 106.564 195.033 111.932 195.033 111.932L195.126 112.301C195.126 112.336 195.126 112.371 195.126 112.412V112.477C195.15 112.578 195.179 112.69 195.214 112.811C195.279 113.057 195.355 113.35 195.437 113.684C194.529 112.248 193.281 111.024 191.61 110.701C186.922 109.787 187.936 115.003 188.382 118.132C188.634 120.208 188.585 122.31 188.235 124.373L189.407 123.699C188.563 125.205 187.356 137.722 187.356 140.505C187.356 143.289 185.153 144.215 183.178 143.4C181.203 142.586 180.5 129.811 179 127.519C177.5 125.228 173.327 129.606 173.14 133.608C172.952 137.61 176.685 149.547 175.8 152.36C174.915 155.173 174.927 165.838 174.927 165.838L173.849 163.09C173.919 163.465 173.849 164.725 171.593 168.434C170.745 169.777 170.197 171.286 169.986 172.86C169.775 174.433 169.905 176.034 170.368 177.552C171.745 180.594 178.73 188.61 179.902 189.436C179.902 189.436 180.752 185.955 183.418 186.881C182.51 188.325 181.849 189.909 181.461 191.569C180.91 194.124 186.471 195.759 188.212 198.191C189.278 199.674 189.993 204.192 196.486 215.296Z" fill="white"/>
<path opacity="0.4" d="M229.29 205.604C223.805 200.078 214.154 194.816 214.74 193.439C215.525 191.587 214.529 187.643 212.841 184.444C211.153 181.244 213.427 176.052 213.427 176.052L214.47 179.07C215.305 175.589 215.402 171.972 214.757 168.452C213.691 162.469 212.859 164.572 212.859 164.572C212.859 164.572 213.075 159.181 214.031 156.239C214.986 153.298 215.789 146.154 214.47 141.929C213.152 137.704 210.368 138.501 209.624 139.954C208.88 141.408 209.677 147.074 210.292 148.932C210.907 150.79 208.288 153.913 208.235 151.592C208.182 149.272 207.192 142.802 207.192 142.802L209.178 129.811L207.192 119.491C207.192 119.491 208.018 115.776 209.958 116.743C211.897 117.71 212.138 122.433 212.273 124.496C212.407 126.558 213.814 139.826 214.031 139.849C214.247 139.872 216.486 146.764 216.181 151.317C215.542 161.062 217.23 168.311 217.289 172.05C217.347 175.788 214.529 184.449 214.529 184.449C214.628 184.619 216.468 187.749 216.972 190.497C217.341 192.513 223.91 199.797 229.278 205.592L229.29 205.604Z" fill="white"/>
<path opacity="0.4" d="M206.582 117.927C206.694 118.22 206.787 118.46 206.858 118.653C204.994 114.323 201.818 115.665 201.256 116.895C200.693 118.126 202.586 125.762 203.014 126.945C203.441 128.129 201.314 137.581 201.004 140.71C200.693 143.84 199.867 144.478 199.867 144.478C197.763 144.637 197.523 138.829 197.523 138.032C197.564 138.699 197.694 139.357 197.91 139.99L199.468 124.431C199.468 124.431 196.896 112.43 197.628 110.701C198.361 108.973 201.812 110.883 202.223 111.563C202.633 112.242 205.985 116.356 206.582 117.927Z" fill="white"/>
<path d="M236.281 213.222C235.883 212.32 217.582 193.884 216.943 190.497C216.428 187.672 214.494 184.444 214.494 184.444C214.494 184.444 217.312 175.8 217.254 172.044C217.195 168.288 215.496 161.056 216.146 151.311C216.451 146.758 214.218 139.867 213.996 139.843C213.773 139.82 212.367 126.553 212.238 124.49C212.109 122.427 211.868 117.704 209.923 116.737C207.977 115.77 207.157 119.485 207.157 119.485L206.571 117.915C205.985 116.344 202.621 112.231 202.211 111.551C201.801 110.871 198.355 108.955 197.617 110.69C196.879 112.424 199.451 124.396 199.451 124.396L197.904 139.972C196.902 137.628 197.611 126.371 197.699 124.338C197.787 122.304 195.033 111.914 195.033 111.914C195.033 111.914 193.38 106.57 192.993 105.609C192.607 104.648 191.312 102.468 187.796 103.435C185.246 104.138 186.342 111.533 186.342 111.533L186.928 123.839C186.536 127.742 186.342 137.101 186.342 137.101C186.342 137.101 184.444 140.107 183.377 139.31C182.311 138.513 180.142 127.35 178.988 123.488C177.834 119.626 176.486 111.281 174.986 107.959C174.529 106.951 172.894 106.336 171.065 107.801C169.237 109.266 170.761 124.947 170.79 129.447C170.819 133.948 173.081 142.779 173.081 142.779C173.081 142.779 170.931 146.576 168.88 148.053C166.829 149.53 164.274 152.483 165.164 155.612C166.055 158.742 166.518 172.02 168.54 176.275C170.561 180.529 179.574 191.511 180.769 194.441C181.174 195.425 185.897 199.943 189.612 205.176C196.908 215.449 205.434 229.202 205.434 229.437" stroke="#263238" stroke-linecap="round" stroke-linejoin="round"/>
<path d="M173.075 142.808C173.075 142.808 174.529 150.01 174.476 151.217C174.476 151.217 173.204 156.778 173.192 160.382C172.303 161.74 171.504 163.156 170.802 164.619C170.309 165.92 169.43 169.12 169.794 170.901" stroke="#263238" stroke-linecap="round" stroke-linejoin="round"/>
<path d="M170.42 153.45C170.42 153.45 173.983 153.479 173.755 154.979" stroke="#263238" stroke-linecap="round" stroke-linejoin="round"/>
<path d="M173.192 160.382C173.192 160.382 170.907 159.392 170.104 160.722" stroke="#263238" stroke-linecap="round" stroke-linejoin="round"/>
<path d="M186.348 137.124C186.348 137.124 186.184 142.644 184.73 142.205" stroke="#263238" stroke-linecap="round" stroke-linejoin="round"/>
<path d="M197.904 139.972C197.904 139.972 197.482 142.99 198.619 143.922" stroke="#263238" stroke-linecap="round" stroke-linejoin="round"/>
<path d="M207.174 119.497C207.174 119.497 208.757 127.115 209.12 128.92C209.483 130.725 207.321 139.937 207.362 142.334C207.403 144.73 208.428 148.158 208.288 149.77" stroke="#263238" stroke-linecap="round" stroke-linejoin="round"/>
<path d="M213.492 177.353C213.492 177.353 212.982 182.328 214.511 184.455" stroke="#263238" stroke-linecap="round" stroke-linejoin="round"/>
<path d="M182.768 187.198C182.768 187.198 179.357 190.304 180.605 194.124" stroke="#263238" stroke-linecap="round" stroke-linejoin="round"/>
<path d="M205.182 148.475C205.235 150.666 203.952 153.221 203.817 156.251" stroke="#263238" stroke-linecap="round" stroke-linejoin="round"/>
<path d="M194.318 146.518C195.044 148.311 193.462 152.213 193.222 153.678C193.126 154.825 193.251 155.979 193.591 157.077" stroke="#263238" stroke-linecap="round" stroke-linejoin="round"/>
<path d="M214.739 152.694C214.446 154.599 213.099 155.958 212.841 161.818" stroke="#263238" stroke-linecap="round" stroke-linejoin="round"/>
<path d="M181.467 145.961C182.451 147.033 181.789 152.155 182.053 152.993" stroke="#263238" stroke-linecap="round" stroke-linejoin="round"/>
<path d="M199.826 116.456C199.826 116.456 203.178 114.001 206.061 116.895" stroke="#263238" stroke-linecap="round" stroke-linejoin="round"/>
<path d="M188.282 110.813C188.282 110.813 188.868 109.834 191.698 110.074C194.528 110.314 195.032 111.908 195.032 111.908" stroke="#263238" stroke-linecap="round" stroke-linejoin="round"/>
<path d="M180.013 127.543C180.013 127.543 179.064 126.142 176.562 126.605C174.06 127.068 172.946 130.608 172.946 130.608" fill="white"/>
<path d="M180.013 127.543C180.013 127.543 179.064 126.142 176.562 126.605C174.06 127.068 172.946 130.608 172.946 130.608" stroke="#263238" stroke-linecap="round" stroke-linejoin="round"/>
<path d="M214.013 139.855C214.013 139.855 211.927 136.831 209.419 138.126" stroke="#263238" stroke-linecap="round" stroke-linejoin="round"/>
<path opacity="0.2" d="M125.141 117.704C128.657 120.429 125.691 137.153 125.691 137.153L126.002 142.597L132.032 139.972L134.78 151.604C134.78 151.604 134.71 155.864 136.943 157.464C136.943 157.464 137.493 167.022 136.943 174.007C136.392 180.992 125.223 189.202 121.373 196.533C117.523 203.864 92.4124 225.411 92.4124 225.411L71.1523 215.296L86.5231 153.216L100.294 135.513L108.457 115.149C108.457 115.149 109.858 128.451 109.043 137.417L125.141 117.704Z" fill="black" fill-opacity="0.7"/>
<path d="M131.059 154.856C130.526 157.423 131.809 171.493 131.586 173.392C131.364 175.29 120.171 188.042 119.608 189.008C119.046 189.975 111.563 194.283 109.822 196.339C101.689 205.827 97.2467 214.564 93.678 223.325C92.9924 225.012 92.336 226.706 91.6914 228.405L59.4146 209.653C62.1277 206.29 64.6886 203.301 67.0326 200.582C71.7206 195.068 75.4534 190.655 77.2817 186.489C77.8428 185.425 78.4854 184.406 79.2038 183.441C79.9304 182.41 80.5809 181.56 80.5809 181.56C80.5809 181.56 78.2369 174.956 78.7819 172.882C79.3268 170.807 78.108 153.755 78.108 153.755C78.108 153.755 76.5199 142.146 74.9553 139.216C74.571 138.451 74.3971 137.598 74.4513 136.743C74.5275 134.065 76.0804 130.69 76.8422 126.781C77.8618 121.507 77.3696 118.899 80.5692 120.722C83.7687 122.544 82.2744 133.614 82.2744 133.614L87.1089 144.326C88.3805 141.736 87.1089 134.176 87.0445 132.389C87.0445 132.096 87.0445 131.61 86.9976 130.977C86.898 127.895 86.6929 121.478 86.9566 118.946C86.9566 118.806 86.9566 118.677 87.0034 118.56C87.3961 115.946 88.7966 107.631 89.6873 106.705C91.0117 105.334 93.1154 104.179 95.0961 107.291C96.2036 109.049 95.729 122.99 95.729 122.99C95.729 122.99 100.323 117.446 101.718 116.093C103.113 114.739 107.344 112.266 108.474 115.131C109.605 117.997 105.433 126.851 105.433 126.851C106.306 128.902 106.412 134.581 106.412 134.581C106.412 134.581 108.387 141.677 109.6 141.613H109.652C110.004 141.537 110.391 140.247 110.795 138.437C111.791 134.001 112.875 126.412 113.725 125.75L114.311 125.281C114.338 125.247 114.369 125.218 114.405 125.193L114.622 125C116.696 123.154 121.068 119.052 121.068 119.052C121.068 119.052 121.378 117.089 125.205 117.692C129.031 118.296 123.505 129.588 123.505 129.588C122.738 133.18 121.56 142.421 121.56 142.421C121.202 146.266 121.413 156.597 121.413 156.597C121.413 156.597 123.224 150.584 123.107 148.393C122.99 146.201 126.705 140.833 127.795 139.45C128.885 138.068 133.749 138.554 132.395 141.208C131.041 143.863 131.592 152.278 131.059 154.856Z" fill="white"/>
<path opacity="0.4" d="M77.2643 186.512C77.8254 185.448 78.468 184.429 79.1864 183.465C79.1864 183.465 77.2819 188.739 77.0943 191.546C76.9713 193.398 72.0958 196.603 67.0151 200.605C71.7324 195.091 75.436 190.679 77.2643 186.512Z" fill="white"/>
<path opacity="0.4" d="M79.186 183.465C79.9126 182.434 80.5631 181.584 80.5631 181.584C80.5631 181.584 78.2191 174.98 78.7641 172.905C79.3091 170.831 78.0902 153.778 78.0902 153.778C78.0902 153.778 76.5021 142.17 74.9375 139.24L78.5824 145.609C78.5824 145.609 78.225 150.643 79.2622 153.403C80.2994 156.163 81.6062 164.584 81.6062 164.584C81.6062 164.584 80.0709 171.663 80.5924 174.212C81.1139 176.761 83.4638 175.835 83.4638 175.835C83.4638 175.835 84.6182 180.5 79.186 183.465Z" fill="white"/>
<path opacity="0.4" d="M87.6889 135.512C90.2029 150.233 85.8723 146.16 84.3077 142.984C82.7431 139.808 79.0689 133.796 76.3029 135.079C75.5262 135.443 74.8755 136.031 74.4336 136.767C74.5098 134.089 76.0627 130.713 76.8245 126.805C77.8441 121.531 77.3519 118.923 80.5514 120.745C83.751 122.568 82.2567 133.637 82.2567 133.637L87.0912 144.349C88.3628 141.759 87.0912 134.2 87.0267 132.413C87.0267 132.12 87.0267 131.633 86.9799 131C87.1732 132.354 87.4076 133.86 87.6889 135.512Z" fill="white"/>
<path opacity="0.4" d="M93.842 120.968C93.842 120.968 91.1289 117.417 88.7731 117.599C88.3686 117.62 87.9794 117.76 87.6534 118.001C87.3275 118.241 87.0791 118.572 86.939 118.952C86.939 118.812 86.939 118.683 86.9858 118.565C87.3785 115.952 88.779 107.637 89.6697 106.711C90.9941 105.339 93.0978 104.185 95.0785 107.297C96.186 109.055 95.7114 122.996 95.7114 122.996C95.7114 122.996 100.306 117.452 101.7 116.098C103.095 114.745 107.326 112.272 108.457 115.137C109.588 118.003 105.416 126.857 105.416 126.857C106.289 128.908 106.394 134.587 106.394 134.587C106.394 134.587 108.369 141.683 109.582 141.619C106.91 146.647 105.128 135.53 105.128 135.53C105.527 133.233 104.109 128.252 104.249 126.939C104.39 125.627 101.788 120.986 97.4049 122.251C93.0216 123.517 96.186 140.839 96.186 140.839C95.3199 142.219 94.816 143.795 94.721 145.422C93.3674 143.752 94.721 138.976 94.721 138.976C93.5197 134.405 93.842 120.968 93.842 120.968Z" fill="white"/>
<path opacity="0.4" d="M114.27 125.263C112.401 127.227 112.658 132.19 110.754 138.419C111.75 133.983 112.834 126.394 113.684 125.732L114.27 125.263Z" fill="white"/>
<path opacity="0.4" d="M131.059 154.856C130.525 157.423 131.809 171.493 131.586 173.391C131.363 175.29 120.171 188.041 119.608 189.008C119.046 189.975 111.562 194.282 109.822 196.339C101.688 205.827 97.2465 214.564 93.6777 223.325C95.022 218.783 96.6444 214.329 98.5357 209.987C102.386 201.332 103.956 199.791 106.265 197.318C108.574 194.845 108.322 189.589 108.322 189.589C110.026 189.178 111.773 188.972 113.526 188.973C116.456 188.973 125.128 176.609 128.111 174.44C131.094 172.272 131.627 172.272 128.111 167.49C124.595 162.709 125.591 168.258 124.536 168.076C123.482 167.895 122.907 170.204 122.907 170.204C122.538 165.328 119.391 159.656 118.729 158.238C118.067 156.819 120.335 148.504 119.866 146.189C119.397 143.875 121.882 129.781 121.882 129.781C121.882 129.781 121.571 124.373 116.672 124.355C115.921 124.313 115.178 124.537 114.574 124.988C116.649 123.142 121.02 119.04 121.02 119.04C121.02 119.04 121.331 117.077 125.158 117.68C128.984 118.284 123.458 129.576 123.458 129.576C122.691 133.168 121.513 142.41 121.513 142.41C121.155 146.254 121.366 156.585 121.366 156.585C121.366 156.585 123.177 150.573 123.06 148.381C122.943 146.189 126.658 140.822 127.748 139.439C128.838 138.056 133.702 138.542 132.348 141.197C130.994 143.851 131.592 152.278 131.059 154.856Z" fill="white"/>
<path d="M91.6856 228.458C95.6645 217.951 100.112 207.696 109.822 196.369C111.58 194.341 119.04 190.034 119.608 189.038C120.177 188.042 131.369 175.314 131.586 173.421C131.803 171.528 130.526 157.452 131.059 154.886C131.592 152.319 130.971 143.857 132.319 141.22C133.667 138.583 128.803 138.103 127.719 139.462C126.635 140.822 122.931 146.236 123.031 148.405C123.13 150.573 121.337 156.609 121.337 156.609C121.337 156.609 121.126 146.277 121.484 142.433C121.484 142.433 122.656 133.192 123.429 129.6C123.429 129.6 128.949 118.302 125.129 117.704C121.308 117.106 120.991 119.063 120.991 119.063C120.991 119.063 114.891 124.795 113.684 125.732C112.477 126.67 110.83 141.32 109.617 141.595C108.404 141.871 106.377 134.563 106.377 134.563C106.377 134.563 106.271 128.885 105.398 126.834C105.398 126.834 109.564 118.003 108.439 115.114C107.314 112.225 103.083 114.727 101.683 116.075C100.282 117.423 95.6938 122.972 95.6938 122.972C95.6938 122.972 96.1685 109.019 95.0609 107.273C93.0802 104.15 90.9589 105.304 89.6521 106.687C88.7614 107.613 87.3609 115.928 86.9683 118.542C86.5756 121.156 86.9683 130.578 87.0093 132.372C87.0503 134.165 88.3454 141.718 87.0737 144.308L82.2392 133.596C82.2392 133.596 83.7394 122.515 80.534 120.704C77.3286 118.894 77.8267 121.507 76.807 126.764C75.7874 132.02 73.3613 136.292 74.9201 139.228C76.4789 142.164 78.0728 153.766 78.0728 153.766C78.0728 153.766 79.2799 170.819 78.7467 172.893C78.2134 174.968 80.5633 181.578 80.5633 181.578C80.5633 181.578 77.856 185.147 77.2641 186.506C74.5334 192.712 67.6244 199.498 59.4087 209.706" stroke="#263238" stroke-linecap="round" stroke-linejoin="round"/>
<path d="M95.7113 123.007C95.0308 124.014 94.6862 125.21 94.7269 126.424C94.7269 128.651 96.186 140.839 96.186 140.839C96.186 140.839 95.1253 142.093 95.0726 143.183" stroke="#263238" stroke-linecap="round" stroke-linejoin="round"/>
<path d="M121.349 156.579C121.509 158.638 122.039 160.651 122.914 162.521C124.285 165.229 123.84 166.723 123.371 168.323C123.057 169.725 122.89 171.157 122.873 172.595" stroke="#263238" stroke-linecap="round" stroke-linejoin="round"/>
<path d="M87.607 141.923C87.607 141.923 88.6267 145.158 86.7339 146.693" stroke="#263238" stroke-linecap="round" stroke-linejoin="round"/>
<path d="M109.635 141.595C109.635 141.595 109.834 142.867 108.035 142.984" stroke="#263238" stroke-linecap="round" stroke-linejoin="round"/>
<path d="M121.718 126.945C121.718 126.945 117.206 122.023 113.702 125.732" stroke="#263238" stroke-linecap="round" stroke-linejoin="round"/>
<path d="M103.435 124.179C103.435 124.179 101.355 121.548 99.5498 121.706C97.7449 121.865 95.3072 122.966 95.0317 124.414" stroke="#263238" stroke-linecap="round" stroke-linejoin="round"/>
<path d="M123.757 166.74C124.485 167.782 125.015 168.948 125.322 170.18" stroke="#263238" stroke-linecap="round" stroke-linejoin="round"/>
<path d="M112.037 146.734C110.637 149.342 111.305 153.766 110.789 154.979" stroke="#263238" stroke-linecap="round" stroke-linejoin="round"/>
<path d="M97.2 142.404C97.5282 143.904 96.491 146.348 96.3327 148.147C96.1745 149.946 97.6454 152.723 97.3758 155.249" stroke="#263238" stroke-linecap="round" stroke-linejoin="round"/>
<path d="M87.6893 148.545C87.6893 148.545 86.4645 151.37 86.5173 153.233C86.57 155.097 87.2322 159.181 87.2322 159.181" stroke="#263238" stroke-linecap="round" stroke-linejoin="round"/>
<path d="M78.6821 148.41C78.6821 148.41 78.2367 151.34 79.2681 153.403C80.2994 155.466 81.3015 159.849 81.3015 159.849" stroke="#263238" stroke-linecap="round" stroke-linejoin="round"/>
<path d="M80.5635 181.578C81.1036 181.428 81.5864 181.12 81.949 180.693C82.3116 180.265 82.5373 179.739 82.5969 179.181" stroke="#263238" stroke-linecap="round" stroke-linejoin="round"/>
<path d="M110.022 190.509C110.022 190.509 111.141 194.652 108.996 197.318" stroke="#263238" stroke-linecap="round" stroke-linejoin="round"/>
<path d="M74.4629 136.274C74.4629 136.274 77.6156 133.198 80.0006 135.794" stroke="#263238" stroke-linecap="round" stroke-linejoin="round"/>
<path d="M86.9858 118.565C86.9858 118.565 89.3298 116.11 92.0723 118.735" stroke="#263238" stroke-linecap="round" stroke-linejoin="round"/>
</g>
<defs>
<clipPath id="clip0_580_2170">
<rect width="293" height="231" fill="white"/>
</clipPath>
</defs>
</svg>
